<svg xmlns="http://www.w3.org/2000/svg" width="23.992" height="23.993" viewBox="0 0 23.992 23.993">
  <g id="Group_5125" data-name="Group 5125" transform="translate(-0.008)">
    <path id="Path_61075" data-name="Path 61075" d="M12,0A12,12,0,1,0,24,11.99,11.994,11.994,0,0,0,12,0Zm.855,18.665a1.413,1.413,0,0,1-.967.373,1.461,1.461,0,0,1-.99-.368,1.288,1.288,0,0,1-.424-1.028,1.324,1.324,0,0,1,.41-.986,1.382,1.382,0,0,1,1-.4,1.366,1.366,0,0,1,1.386,1.386A1.3,1.3,0,0,1,12.859,18.665Zm3.474-8.613a4.241,4.241,0,0,1-.763,1.028q-.441.433-1.586,1.456a6.565,6.565,0,0,0-.507.507,2.065,2.065,0,0,0-.284.4,1.928,1.928,0,0,0-.144.363q-.051.181-.154.637a1.035,1.035,0,0,1-1.106.967,1.133,1.133,0,0,1-.814-.316,1.243,1.243,0,0,1-.33-.939,3.462,3.462,0,0,1,.242-1.353,3.42,3.42,0,0,1,.641-1,14.707,14.707,0,0,1,1.079-1.028q.6-.521.86-.786a2.66,2.66,0,0,0,.446-.591,1.422,1.422,0,0,0,.181-.707,1.641,1.641,0,0,0-.553-1.255,2.021,2.021,0,0,0-1.428-.512,1.975,1.975,0,0,0-1.507.516,4.119,4.119,0,0,0-.818,1.521q-.317,1.051-1.2,1.051a1.181,1.181,0,0,1-.879-.367,1.124,1.124,0,0,1-.358-.8A3.365,3.365,0,0,1,7.92,7.053a4.366,4.366,0,0,1,1.656-1.5,5.207,5.207,0,0,1,2.539-.6,5.417,5.417,0,0,1,2.381.5,3.859,3.859,0,0,1,1.6,1.353,3.321,3.321,0,0,1,.563,1.86A2.865,2.865,0,0,1,16.334,10.052Z" fill="#0068ff"/>
  </g>
</svg>
