<svg xmlns="http://www.w3.org/2000/svg" width="237.847" height="128.061" viewBox="0 0 237.847 128.061">
  <g id="Group_5039" data-name="Group 5039" transform="translate(4931.786 -4488.846)">
    <path id="Path_61231" data-name="Path 61231" d="M938.04,519.866a5.107,5.107,0,1,0-2.258-9.556l.9,2.472L934.829,511a5.089,5.089,0,0,0-1.65,3.525,5.011,5.011,0,0,0,.129,1.407A5.106,5.106,0,0,0,938.04,519.866Z" transform="translate(-5667.327 4049.61)" fill="#57b894"/>
    <path id="Path_61232" data-name="Path 61232" d="M985.967,525.682c-1.083-2,.146-4.462,1.558-6.25s3.133-3.648,3.1-5.926c-.052-3.274-3.528-5.207-6.3-6.943a30.755,30.755,0,0,1-5.661-4.551,8.3,8.3,0,0,1-1.739-2.329,9.461,9.461,0,0,1-.522-4.139q.181-7.008.693-14" transform="translate(-5700.328 4071.083)" fill="none" stroke="#3f3d56" stroke-miterlimit="10" stroke-width="1"/>
    <path id="Path_61233" data-name="Path 61233" d="M938.04,516.866a5.107,5.107,0,1,0-2.258-9.556l.9,2.472L934.829,508a5.089,5.089,0,0,0-1.65,3.525,5.011,5.011,0,0,0,.129,1.406A5.106,5.106,0,0,0,938.04,516.866Z" transform="translate(-5667.327 4051.902)" fill="none" stroke="#3f3d56" stroke-miterlimit="10" stroke-width="1"/>
    <path id="Path_61234" data-name="Path 61234" d="M957.01,468.722a5.1,5.1,0,0,1,2.549-4.184L960.7,466.8l-.034-2.738a5.107,5.107,0,1,1-3.658,4.66Z" transform="translate(-5685.529 4084.592)" fill="#57b894"/>
    <path id="Path_61235" data-name="Path 61235" d="M957.01,464.722a5.1,5.1,0,0,1,2.549-4.184L960.7,462.8l-.034-2.738a5.107,5.107,0,1,1-3.658,4.66Z" transform="translate(-5685.529 4087.648)" fill="none" stroke="#3f3d56" stroke-miterlimit="10" stroke-width="1"/>
    <path id="Path_61236" data-name="Path 61236" d="M990.669,555.782a5.107,5.107,0,0,0,1.62-10.018l.027,2.1-1.156-2.289h-.014a5.107,5.107,0,0,0-.477,10.2Z" transform="translate(-5707.522 4022.179)" fill="#57b894"/>
    <path id="Path_61237" data-name="Path 61237" d="M990.51,551.782a5.107,5.107,0,0,0,1.62-10.018l.026,2.1L991,541.58h-.014a5.107,5.107,0,1,0-.477,10.2Z" transform="translate(-5707.399 4025.234)" fill="none" stroke="#3f3d56" stroke-miterlimit="10" stroke-width="1"/>
    <path id="Path_61238" data-name="Path 61238" d="M993.744,605.694a5.1,5.1,0,1,0-.247-4.111l3.189,2.6-3.509-.813A5.058,5.058,0,0,0,993.744,605.694Z" transform="translate(-5713.156 3981.944)" fill="#57b894"/>
    <path id="Path_61239" data-name="Path 61239" d="M993.744,602.694a5.1,5.1,0,1,0-.247-4.111l3.189,2.6-3.509-.813A5.057,5.057,0,0,0,993.744,602.694Z" transform="translate(-5713.156 3984.235)" fill="none" stroke="#3f3d56" stroke-miterlimit="10" stroke-width="1"/>
    <path id="Path_61240" data-name="Path 61240" d="M762.824,279.33a11.163,11.163,0,0,1-.9,7.3,24.716,24.716,0,0,1-4.3,6.112,6.45,6.45,0,0,0-1.934,3.173c-.238,1.661.881,3.164,1.633,4.663a11.459,11.459,0,0,1,1.175,4.205,4.507,4.507,0,0,1-.937,3.546,5.239,5.239,0,0,1-3.364,1.194,42.992,42.992,0,0,1-10.01-.242c.929-1.236.58-2,.493-3.546-.171-3.028-2.375-5.77-2.8-8.773-.34-2.387,1.24-4.579,2.734-6.472l6.849-8.681a26.488,26.488,0,0,0,3.08-4.569c.582-1.178.692-3.391,2.157-3.784C759.464,272.72,762.287,277.216,762.824,279.33Z" transform="translate(-5521.193 4230.069)" fill="#47465a"/>
    <path id="Path_61241" data-name="Path 61241" d="M664.74,328.855s-4.725,13.938-7.087,14.883,14.175,17.955,14.175,17.955l12.048-5.906.473-11.34-4.725-.236s-.709-4.725,1.654-7.087S664.74,328.855,664.74,328.855Z" transform="translate(-5456.72 4187.699)" fill="#fbbebe"/>
    <path id="Path_61242" data-name="Path 61242" d="M664.74,328.855s-4.725,13.938-7.087,14.883,14.175,17.955,14.175,17.955l12.048-5.906.473-11.34-4.725-.236s-.709-4.725,1.654-7.087S664.74,328.855,664.74,328.855Z" transform="translate(-5456.72 4187.699)" opacity="0.1"/>
    <path id="Path_61243" data-name="Path 61243" d="M616.693,388.376s-10.158-6.851-10.631-12.521c0,0-7.56,4.961-9.922,4.725s-8.741,1.181-8.741,2.126,5.906,27.641,5.906,27.641-4.252,11.34-2.126,14.883,3.307,20.081,3.307,20.081h49.139s-6.615-11.576-3.071-19.844,4.961-43,4.961-43-2.6-1.89-5.2-1.417-5.67-1.417-7.56-1.654-6.173.731-6.173.731Z" transform="translate(-5403.241 4151.803)" fill="#0068ff"/>
    <path id="Path_61244" data-name="Path 61244" d="M361.028,648.842v10.395a6.953,6.953,0,0,1-6.867,6.953l-218.719,2.7A3.994,3.994,0,0,1,131.4,664.9V653.406a3.958,3.958,0,0,1,3.836-3.957l219.434-6.773a6.168,6.168,0,0,1,6.359,6.165Z" transform="translate(-5054.967 3948.018)" fill="#47465a"/>
    <path id="Path_61245" data-name="Path 61245" d="M361.028,700.855v2.818a6.953,6.953,0,0,1-6.867,6.953l-218.719,2.7a3.994,3.994,0,0,1-4.043-3.993v-.37Z" transform="translate(-5054.967 3903.581)" opacity="0.1"/>
    <path id="Path_61246" data-name="Path 61246" d="M576.245,512.392,548.571,508.8l-49.209,1.8,17.822,5.575Z" transform="translate(-5313.18 4084.721)" fill="#f2f2f2"/>
    <path id="Path_61247" data-name="Path 61247" d="M354.174,510.126v2.835L327.242,519.1l-2.632-.607-.439-.1L304.8,508Z" transform="translate(-5164.582 4085.333)" fill="#9493b6"/>
    <path id="Path_61248" data-name="Path 61248" d="M416.8,517v2.835l-26.932,6.142-2.632-.607-.439-2.937Z" transform="translate(-5227.21 4078.459)" opacity="0.1"/>
    <path id="Path_61249" data-name="Path 61249" d="M454.959,669.635c.472-.236,10.395-2.126,10.395-2.126L447.4,665.855Z" transform="translate(-5296.314 3930.313)" fill="#47465a"/>
    <circle id="Ellipse_865" data-name="Ellipse 865" cx="15.356" cy="15.356" r="15.356" transform="translate(-4794.579 4497.891)" fill="#fbbebe"/>
    <path id="Path_61250" data-name="Path 61250" d="M444.8,608.275s-13.7,5.906-17.01,4.252-13.23-5.906-16.3,2.835c-2.477,7.049,11.981,7.492,17.671,7.4a4.754,4.754,0,0,0,3.591-1.729h0l19.726-6.733S448.1,606.857,444.8,608.275Z" transform="translate(-5268.669 3974.427)" fill="#fbbebe"/>
    <path id="Path_61251" data-name="Path 61251" d="M667.326,562.855l1.654,1.418-15.356,21.734s-2.362.236-1.654-.945Z" transform="translate(-5452.456 4008.98)" fill="#47465a"/>
    <path id="Path_61252" data-name="Path 61252" d="M622.508,414.6l1.654-2.126-.709-.472-1.654,1.89Z" transform="translate(-5406.692 4158.653)" fill="#47465a"/>
    <path id="Path_61253" data-name="Path 61253" d="M513.158,398.355s-8.032,1.417-7.8,7.56a35.183,35.183,0,0,1-3.662,16.419c-1.89,3.307-.472,5.906,0,10.395s-2.362,9.214-.945,11.576S485.4,448.32,485.4,450.683s10.631,6.851,8.741,9.922c-1.36,2.21,8.224-1.511,13.709-3.773a9.573,9.573,0,0,0,5.747-6.725,3.6,3.6,0,0,0,.033-1.9c-.709-1.89,7.678-4.37,7.914-9.1s-1.181-9.45-2.362-14.175S513.158,398.355,513.158,398.355Z" transform="translate(-5325.337 4134.618)" fill="#0068ff"/>
    <path id="Path_61254" data-name="Path 61254" d="M99.157,503.016l69.276.656a2.519,2.519,0,0,1,2.268,1.473l18.67,40.906a2.519,2.519,0,0,1-2.379,3.563l-69.519-2.4a2.519,2.519,0,0,1-2.192-1.445L96.854,506.607a2.519,2.519,0,0,1,2.3-3.591Z" transform="translate(-5028.4 4054.682)" fill="#7a799c"/>
    <path id="Path_61255" data-name="Path 61255" d="M690.8,608.48s-13.7,5.906-17.01,4.252-13.23-5.906-16.3,2.835c-2.477,7.049,11.981,7.492,17.671,7.4a4.754,4.754,0,0,0,3.591-1.729h0l20.081-2.126S694.1,607.063,690.8,608.48Z" transform="translate(-5456.553 3974.222)" fill="#fbbebe"/>
    <path id="Path_61256" data-name="Path 61256" d="M791.511,412.383s3.426-4.607,5.079-.354,1.417,20.789,1.417,20.789,2.835,8.269,1.89,13.7.945,6.142.945,6.142.473,2.362-.945,3.544-2.362,6.379-1.89,7.087-.709,5.2-1.654,5.2a24.75,24.75,0,0,1-2.953-.354s-4.843-8.859-15-9.568c0,0,1.654-2.362.709-7.087S791.511,412.383,791.511,412.383Z" transform="translate(-5549.118 4125.551)" opacity="0.1"/>
    <path id="Path_61257" data-name="Path 61257" d="M796.266,403.982a4.208,4.208,0,0,1,5.552,2.717c1.654,4.252,3.189,21.144,3.189,21.144s2.835,8.269,1.89,13.7.945,6.142.945,6.142.472,2.362-.945,3.544-2.362,6.379-1.89,7.087-.709,5.2-1.654,5.2-9.686,1.417-9.686,1.417,1.89-10.631-8.268-11.34c0,0,1.654-2.362.709-7.087S796.266,403.982,796.266,403.982Z" transform="translate(-5554.464 4130.526)" fill="#0068ff"/>
    <path id="Path_61258" data-name="Path 61258" d="M651.381,214.3a17.938,17.938,0,0,0-15.937-1.54,28.162,28.162,0,0,0-7.535,4.786,18.747,18.747,0,0,0-4.773,5.319c-1.717,3.2-1.712,7.018-1.665,10.653a76.656,76.656,0,0,0,.513,9.474c.591,4.3,1.917,8.558,1.612,12.888s-2.849,8.95-7.1,9.814a57.011,57.011,0,0,0,11.868-.342c2.479-.332,5.082-.9,6.894-2.624a12.346,12.346,0,0,0,2.723-4.7,14.669,14.669,0,0,0,1.23-5.334c-.048-3.82-2.7-7.024-4.432-10.43a6.657,6.657,0,0,1-.9-3.056,2.8,2.8,0,0,1,1.573-2.594c1.229-.489,2.653.24,3.932-.1,2.054-.549,2.587-3.4,4.473-4.382a4.009,4.009,0,0,1,4.349.866,10.4,10.4,0,0,0,1.583,1.388,5.6,5.6,0,0,0,2.781.512c1.78.02,7.857-2.771,9.14-4.005,1.252,6.438,10.56.835,5.218-8.664a21.5,21.5,0,0,0-7.609-8.284,12.087,12.087,0,0,0-10.914-.905" transform="translate(-5425.46 4277.275)" fill="#47465a"/>
    <ellipse id="Ellipse_866" data-name="Ellipse 866" cx="2.126" cy="3.78" rx="2.126" ry="3.78" transform="translate(-4792.099 4513.128)" fill="#fbbebe"/>
    <path id="Path_61259" data-name="Path 61259" d="M773.729,392.374s13.112,1.886,13.82,2.831-.709,6.615-.709,6.615l-9.45,1.654L770.12,401.9Z" transform="translate(-5542.794 4139.186)" fill="#0068ff"/>
    <path id="Path_61260" data-name="Path 61260" d="M594.711,431.4c-1.975-.34-3.9,1.447-4.923,3.8a22.3,22.3,0,0,0-1.4,7.923,30.322,30.322,0,0,0,.58,8.1c1.275,5.322,4.7,9.085,6.678,13.979a27.413,27.413,0,0,1,1.8,12.219" transform="translate(-5403.965 4109.414)" opacity="0.1"/>
    <path id="Path_61261" data-name="Path 61261" d="M600.711,431.4c-1.975-.34-3.9,1.447-4.923,3.8a22.3,22.3,0,0,0-1.4,7.923,30.324,30.324,0,0,0,.58,8.1c1.275,5.322,4.7,9.085,6.678,13.979a27.413,27.413,0,0,1,1.8,12.219" transform="translate(-5408.548 4109.414)" fill="#0068ff"/>
    <path id="Path_61262" data-name="Path 61262" d="M846.1,468.483l22.854,9.141,14.284-2.571-1.246-10.224-.183-1.488-24-7.428-1.714,1.714Z" transform="translate(-5578.003 4125.115)" fill="#0068ff"/>
    <path id="Path_61263" data-name="Path 61263" d="M901.724,463.616v9.893l24,7.428-1.246-10.224Z" transform="translate(-5620.487 4119.231)" opacity="0.1"/>
    <path id="Path_61264" data-name="Path 61264" d="M904.149,617.7l1.617.6,19.288,7.143,1.5.555a.315.315,0,0,0,.288-.034l1.766-1.184,18.375-12.327,1.736-1.164a.319.319,0,0,0-.085-.57l-2.768-.848-19.457-5.961-1.7-.521a.318.318,0,0,0-.272.041l-1.338.9-17.336,11.674-1.68,1.132a.319.319,0,0,0,.066.563Z" transform="translate(-5645.002 3978.032)" fill="#7a799c"/>
    <path id="Path_61265" data-name="Path 61265" d="M955.317,618.726,938.1,630.436a.634.634,0,0,1-.574.071l-18.279-6.673a.639.639,0,0,1-.129-1.135l16.664-10.875a.634.634,0,0,1,.534-.075l18.831,5.838a.639.639,0,0,1,.169,1.138Z" transform="translate(-5656.372 3971.658)" fill="#f2f2f2"/>
    <path id="Path_61266" data-name="Path 61266" d="M1081.4,630.872v2.582h1.117l1.736-1.164a.319.319,0,0,0-.085-.57Z" transform="translate(-5780.537 3957.031)" fill="#0068ff"/>
    <path id="Path_61267" data-name="Path 61267" d="M993.311,693.366v.809l1.5.555a.316.316,0,0,0,.288-.034l1.766-1.184v-.146Z" transform="translate(-5713.258 3909.301)" fill="#0068ff"/>
    <path id="Path_61268" data-name="Path 61268" d="M904.149,658.536l1.617.6v-2.294h0l-1.68,1.132a.319.319,0,0,0,.066.563Z" transform="translate(-5645.002 3937.197)" fill="#0068ff"/>
    <path id="Path_61269" data-name="Path 61269" d="M985.032,604.331h3.309v-.421l-1.7-.521a.317.317,0,0,0-.272.041Z" transform="translate(-5706.935 3978.033)" fill="#0068ff"/>
    <circle id="Ellipse_867" data-name="Ellipse 867" cx="0.236" cy="0.236" r="0.236" transform="translate(-4729.376 4587.663)" fill="#f2f2f2"/>
  </g>
</svg>
