<svg xmlns="http://www.w3.org/2000/svg" width="380.672" height="388.467" viewBox="0 0 380.672 388.467">
  <g id="developer-team-2043022-0" transform="translate(-145.2 -39.289)">
    <path id="Path_59807" data-name="Path 59807" d="M178.282,374c.83,2.054,1.748,4.108,2.753,6.075,14.946,29.324,45.275,47.809,77.614,51.131,25.871,2.622,51.043-5.812,72.675-19.578,21.589-13.722,38.894-33.038,62.886-43.09,33.825-14.116,71.539-25.259,98.066-55.151,30.154-33.956,41.779-85.436,27.576-128.875-13.81-42.39-59.652-56.113-95.269-74.773C360.561,76.127,271.89,53.8,205.246,93.258,125.4,140.5,139.912,247.743,165.215,322.166,170.984,339.123,171.683,357.39,178.282,374Z" transform="translate(0 -18.566)" fill="#cce9ff" opacity="0.49"/>
    <path id="Path_59808" data-name="Path 59808" d="M254.32,294.061l-.131-.83h-.83c-16.169,0-21.414-5.2-21.457-5.244l-.7-.787-.7.787c-.044.044-5.244,5.244-21.457,5.244h-.83l-.131.83c-.044.262-3.452,26.308,22.681,39.681l.437.219.437-.219C257.86,320.369,254.32,294.323,254.32,294.061Zm-3.933,16.126c-3.234,9.352-9.7,16.607-19.229,21.589-9.527-4.982-15.995-12.236-19.229-21.589a38.663,38.663,0,0,1-2.054-14.99c13.46-.175,19.447-3.758,21.283-5.244,1.835,1.442,7.823,5.069,21.283,5.244A38.587,38.587,0,0,1,250.387,310.187Z" transform="translate(-35.308 -139.57)" fill="#ffbe55"/>
    <g id="Group_4825" data-name="Group 4825" transform="translate(230.112 90.162)">
      <path id="Path_59809" data-name="Path 59809" d="M354.053,186.553l-.918-2.4a11.321,11.321,0,0,1-2.4-.568l-1.879,1.748-5.419-3.889,1.049-2.36a10.518,10.518,0,0,1-1.311-2.1l-2.578-.087-1.093-6.6,2.4-.918a11.319,11.319,0,0,1,.568-2.4l-1.748-1.879,3.889-5.463,2.36,1.049a10.517,10.517,0,0,1,2.1-1.311l.087-2.578,6.6-1.093.918,2.4a11.319,11.319,0,0,1,2.4.568l1.879-1.748,5.419,3.889-1.049,2.36a10.52,10.52,0,0,1,1.311,2.1l2.578.087,1.093,6.6-2.4.918a14.8,14.8,0,0,1-.568,2.4l1.748,1.879L365.2,182.62l-2.36-1.049a10.52,10.52,0,0,1-2.1,1.311l-.087,2.578Zm-3.758-5.069.524.219a10.393,10.393,0,0,0,3.059.7l.568.044.787,2.054,3.627-.612.087-2.185.524-.219a12.951,12.951,0,0,0,2.666-1.661l.437-.35,2.01.918,2.141-2.972L365.2,175.8l.219-.524a10.39,10.39,0,0,0,.7-3.059l.044-.568,2.054-.787-.612-3.627-2.185-.087-.219-.524a12.952,12.952,0,0,0-1.661-2.666l-.35-.437.918-2.01-2.972-2.141-1.617,1.486-.524-.219a10.393,10.393,0,0,0-3.059-.7l-.568-.044-.787-2.054-3.627.612-.087,2.185-.524.219a12.953,12.953,0,0,0-2.666,1.661l-.437.35-2.01-.918-2.141,2.972,1.53,1.617-.218.524a10.394,10.394,0,0,0-.7,3.059l-.044.568-2.054.787.612,3.627,2.185.087.218.524a12.957,12.957,0,0,0,1.661,2.666l.35.437-.918,2.01,2.972,2.141Zm4.545-3.059a7.273,7.273,0,1,1,4.239-13.2,7.271,7.271,0,0,1-2.972,13.11C355.626,178.381,355.233,178.425,354.839,178.425Zm0-12.717a5.425,5.425,0,0,0-3.147,9.833h0a5.421,5.421,0,0,0,6.293-8.828A5.6,5.6,0,0,0,354.839,165.708Z" transform="translate(-339.5 -155.7)" fill="#ffbe55"/>
    </g>
    <g id="Group_4826" data-name="Group 4826" transform="translate(420.956 123.244)">
      <path id="Path_59810" data-name="Path 59810" d="M809.413,300.4l-2.054-5.375a29.2,29.2,0,0,1-6.424-1.486l-4.2,3.933-11.362-8.085,2.36-5.244a29.359,29.359,0,0,1-3.5-5.594l-5.725-.175L776.2,264.613l5.375-2.054a29.2,29.2,0,0,1,1.486-6.424l-3.933-4.2,8.085-11.362,5.244,2.36a29.351,29.351,0,0,1,5.594-3.5l.175-5.725,13.766-2.316,2.054,5.375a29.2,29.2,0,0,1,6.424,1.486l4.2-3.933,11.362,8.085-2.36,5.244a29.362,29.362,0,0,1,3.5,5.594l5.725.175,2.316,13.766-5.375,2.054a29.2,29.2,0,0,1-1.486,6.424l3.933,4.2-8.085,11.362-5.244-2.36a29.36,29.36,0,0,1-5.594,3.5l-.175,5.725Zm-9.09-9.658.7.262a27.358,27.358,0,0,0,7.254,1.661l.787.087,1.879,4.895,9.789-1.661.175-5.244.7-.306a26.63,26.63,0,0,0,6.337-3.977l.568-.481,4.807,2.141,5.769-8.085-3.583-3.846.262-.7a27.349,27.349,0,0,0,1.661-7.254l.044-.787,4.895-1.879-1.661-9.789-5.244-.175-.306-.7a26.629,26.629,0,0,0-3.977-6.337l-.481-.568,2.141-4.807-8.085-5.769-3.846,3.584-.7-.262a27.355,27.355,0,0,0-7.254-1.661l-.787-.044-1.879-4.895-9.789,1.661-.175,5.244-.7.306a26.628,26.628,0,0,0-6.337,3.977l-.568.481-4.807-2.141-5.681,8.085,3.584,3.846-.262.7a27.354,27.354,0,0,0-1.661,7.254l-.044.787-4.895,1.879,1.661,9.789,5.244.175.306.7a26.627,26.627,0,0,0,3.977,6.337l.481.568-2.141,4.807,8.085,5.769Zm10.314-9a15.844,15.844,0,1,1,12.936-6.643A15.889,15.889,0,0,1,810.637,281.744Zm.044-29.236a13.414,13.414,0,1,0,10.925,21.2,13.568,13.568,0,0,0,2.316-10.008,13.454,13.454,0,0,0-13.242-11.188Z" transform="translate(-776.2 -231.4)" fill="#ffbe55"/>
    </g>
    <path id="Path_59811" data-name="Path 59811" d="M289.8,501.922c-2.1-5.9-4.5-12.542-1.836-19.36,3.584-9.177-4.021-13.9-10.707-18.136-5.769-3.584-11.188-6.992-9.352-12.63,2.01-6.118,1.879-10.838-.393-13.941-1.923-2.622-5.332-4.02-9.877-3.977-3.627.044-6.861-4.414-10.313-9.09-4.064-5.506-8.216-11.188-13.46-9.92a3.092,3.092,0,0,0-2.1,1.573c-1.835,3.452,1.049,11.668,4.152,20.409,3.321,9.44,7.123,20.1,4.632,24.648-2.709,4.982,2.185,9.527,7.386,14.378,5.506,5.113,11.756,10.925,10.1,18.223-1.573,6.817-1.923,9.352-.961,10.838.743,1.18,2.273,1.442,4.589,1.879a47.876,47.876,0,0,1,6.031,1.442c10.532,3.278,13.591,10.1,13.635,10.182l.131.306.306-.044c5.069-.787,8.041-2.229,9.44-4.545.087-.131.131-.262.218-.393C292.9,510.663,291.457,506.6,289.8,501.922Z" transform="translate(-48.409 -211.345)" fill="#ffbe55"/>
    <path id="Path_59812" data-name="Path 59812" d="M231.1,544.306c1.748,2.709,3.015,5.069,2.884,8.391-.087,3.1-.568,6.162-.83,9.221-.044.656-.087,1.267-.131,1.879-.874-.743-1.7-1.486-2.578-2.229a11.064,11.064,0,0,0-1.224-.044c1.224,1.005,2.491,2.1,3.715,3.19-.131,2.141-.175,4.283-.175,6.424,0,1.267-.044,2.622.044,3.89-1.136-.7-2.316-1.4-3.409-2.1a81.085,81.085,0,0,0-9.046-5.113c-1.879-.787-3.977-1.486-5.987-2.141-5.244-1.7-10.619-3.453-12.411-7.167-.918-1.923-.83-4.239.262-7.036,2.753-7.211.175-8.434-4.152-10.532a31.323,31.323,0,0,1-11.712-8.784c-1.879-2.273-3.54-4.239-5.026-5.943-4.414-5.2-6.861-8.041-6.555-9.7a1.9,1.9,0,0,1,.743-1.093,4.578,4.578,0,0,1,.83-.524c1.661-.918,3.321-.218,5.2.568,2.535,1.049,5.637,2.4,9.964.175,3.409-1.748,7.211-3.365,9.483-2.054,1.573.874,2.491,3.146,2.8,6.861a3.214,3.214,0,0,0,1.136,2.491c.961.7,2.447.612,4.152.262h0a8.816,8.816,0,0,0,4.545,3.059c2.578.918,4.5,1.748,6.38,3.846A114.155,114.155,0,0,1,231.1,544.306Z" transform="translate(-16.631 -266.752)" fill="#2a94f4"/>
    <path id="Path_59813" data-name="Path 59813" d="M231.941,563.336c-2.622-1.748-4.895-5.987-7.08-10.1-2.972-5.594-6.074-11.362-10.314-11.231-6.817.175-12.892-7.866-12.979-7.91l-.568.437c.262.349,6.38,8.391,13.547,8.216,3.8-.087,6.817,5.463,9.658,10.882,2.229,4.152,4.545,8.478,7.3,10.357,1.661,1.093,4.72,3.321,8.347,6.162v-.918A85.447,85.447,0,0,0,231.941,563.336Z" transform="translate(-31.415 -278.571)" fill="#fff"/>
    <path id="Path_59814" data-name="Path 59814" d="M785.545,535.231s3.933-9.789-3.234-23.686c-7.211-13.9-13.023-11.756,4.327-22.463s.087-44.357,14.858-48.64,27.576-58.779,38.807-51.83-3.758,33.65,4.283,41.691c8,8.041,9.09,18.224-7.473,26.483s11.756,39.812-10.707,49.426S810.411,553.542,785.545,535.231Z" transform="translate(-354.712 -196.32)" fill="#ffbe55"/>
    <g id="Group_4827" data-name="Group 4827" transform="translate(437.302 223.495)">
      <path id="Path_59815" data-name="Path 59815" d="M814,586.573c-.044-.131-2.447-12.63,5.2-28.8,7.779-16.475,11.494-34.481,9.964-48.2-.83-7.429,3.933-10.314,8.522-13.11,4.545-2.753,9.221-5.637,8.959-12.936-.219-6.6,2.578-22.069,2.666-22.725l1.005.175c-.044.175-2.884,16.038-2.666,22.506.262,7.91-4.676,10.925-9.44,13.81-4.545,2.753-8.784,5.375-8.041,12.149,1.573,13.853-2.185,32.077-10.051,48.727-7.473,15.864-5.157,28.056-5.113,28.187Z" transform="translate(-813.604 -460.8)" fill="#fff"/>
    </g>
    <path id="Path_59816" data-name="Path 59816" d="M900.865,560.857c6.249-2.972,12.892-1.617,9.439,4.632s-8.609,6.73-7.648,11.668,3.5,10.314-4.632,13.46c-8.128,3.1-11.93,2.578-16.869,11.712-4.982,9.134-6.686,15.907-15.208,13.722-8.522-2.229-1.442-13.46,2.972-18.18a19.236,19.236,0,0,0,5.9-14.2c-.087-9.134-3.846-15.252,7.954-14.64C894.572,569.553,896.626,562.867,900.865,560.857Z" transform="translate(-403.519 -292.786)" fill="#0e538c"/>
    <g id="Group_4828" data-name="Group 4828" transform="translate(461.074 273.971)">
      <path id="Path_59817" data-name="Path 59817" d="M868,631.976c.35-1.18,8.566-29.455,15.3-32.514,6.861-3.147,10.576-11.362,12.193-15.951,2.1-5.987,11.056-7.167,11.406-7.211l.131,1.005c-.087,0-8.7,1.136-10.576,6.512-2.01,5.812-5.856,13.416-12.717,16.563-6.293,2.884-14.64,31.6-14.727,31.9Z" transform="translate(-868 -576.3)" fill="#fff"/>
    </g>
    <path id="Path_59818" data-name="Path 59818" d="M303.509,537.933c-13.46-3.365-13.635-10.62-13.81-17.612-.131-5.725-.262-11.144-7.56-14.465-9.658-4.414-9.877-12.586-10.1-19.8-.175-5.375-.306-10.445-4.326-13.2-9.658-6.6-17.83-22.594-17.918-22.768l.743-.393c.087.175,8.128,15.951,17.655,22.463,4.37,2.972,4.545,8.26,4.676,13.853.219,7.3.437,14.9,9.614,19.054,7.735,3.54,7.91,9.483,8.041,15.208.175,6.992.35,13.635,13.2,16.825Z" transform="translate(-58.888 -231.055)" fill="#fff"/>
    <g id="Group_4886" data-name="Group 4886" transform="translate(202.361 136.661)">
      <g id="Group_4829" data-name="Group 4829" transform="translate(24.123)">
        <path id="Path_59819" data-name="Path 59819" d="M331.2,425.849H552.286v-159.6a4.15,4.15,0,0,0-4.152-4.152H335.352a4.15,4.15,0,0,0-4.152,4.152Z" transform="translate(-331.2 -262.1)" fill="#f7f7f7"/>
      </g>
      <g id="Group_4830" data-name="Group 4830" transform="translate(31.932 8.003)">
        <rect id="Rectangle_2302" data-name="Rectangle 2302" width="205.047" height="125.991" transform="translate(205.047 125.991) rotate(180)" fill="#0b4870" stroke="#fff" stroke-miterlimit="10" stroke-width="0.5"/>
      </g>
      <path id="Path_59820" data-name="Path 59820" d="M521.209,582.7h-221L276,673.118H545.376Z" transform="translate(-276 -442.593)" fill="#f2f2f2"/>
      <path id="Path_59821" data-name="Path 59821" d="M347.373,619h13.591c.568,0,1.005.437.874.918l-1.311,5.9a.868.868,0,0,1-.874.612h-13.81a.809.809,0,0,1-.874-.961l1.53-5.9A.889.889,0,0,1,347.373,619Z" transform="translate(-314.816 -463.03)" fill="#0b4870" stroke="#fff" stroke-miterlimit="10" stroke-width="0.5"/>
      <path id="Path_59822" data-name="Path 59822" d="M393.773,619h10.27l-1.355,7.473H392.2Z" transform="translate(-341.419 -463.03)" fill="#0b4870" stroke="#fff" stroke-miterlimit="10" stroke-width="0.5"/>
      <path id="Path_59823" data-name="Path 59823" d="M429.367,619h10.27l-1.049,7.473H428.1Z" transform="translate(-361.63 -463.03)" fill="#0b4870" stroke="#fff" stroke-miterlimit="10" stroke-width="0.5"/>
      <path id="Path_59824" data-name="Path 59824" d="M465.005,619h10.27l-.787,7.473H464Z" transform="translate(-381.841 -463.03)" fill="#0b4870" stroke="#fff" stroke-miterlimit="10" stroke-width="0.5"/>
      <path id="Path_59825" data-name="Path 59825" d="M500.6,619h10.27l-.481,7.473H499.9Z" transform="translate(-402.053 -463.03)" fill="#0b4870" stroke="#fff" stroke-miterlimit="10" stroke-width="0.5"/>
      <path id="Path_59826" data-name="Path 59826" d="M536.193,619h10.27l-.175,7.473H535.8Z" transform="translate(-422.264 -463.03)" fill="#0b4870" stroke="#fff" stroke-miterlimit="10" stroke-width="0.5"/>
      <path id="Path_59827" data-name="Path 59827" d="M798.827,619H783.4l1.661,7.473H800.75Z" transform="translate(-561.659 -463.03)" fill="#0b4870" stroke="#fff" stroke-miterlimit="10" stroke-width="0.5"/>
      <path id="Path_59828" data-name="Path 59828" d="M758.47,619H748.2l1.355,7.473h10.488Z" transform="translate(-541.842 -463.03)" fill="#0b4870" stroke="#fff" stroke-miterlimit="10" stroke-width="0.5"/>
      <path id="Path_59829" data-name="Path 59829" d="M723.27,619H713l1.049,7.473h10.488Z" transform="translate(-522.025 -463.03)" fill="#0b4870" stroke="#fff" stroke-miterlimit="10" stroke-width="0.5"/>
      <path id="Path_59830" data-name="Path 59830" d="M687.97,619H677.7l.787,7.473h10.488Z" transform="translate(-502.151 -463.03)" fill="#0b4870" stroke="#fff" stroke-miterlimit="10" stroke-width="0.5"/>
      <path id="Path_59831" data-name="Path 59831" d="M652.77,619H642.5l.481,7.473h10.488Z" transform="translate(-482.334 -463.03)" fill="#0b4870" stroke="#fff" stroke-miterlimit="10" stroke-width="0.5"/>
      <path id="Path_59832" data-name="Path 59832" d="M617.57,619H607.3l.175,7.473h10.488Z" transform="translate(-462.517 -463.03)" fill="#0b4870" stroke="#fff" stroke-miterlimit="10" stroke-width="0.5"/>
      <path id="Path_59833" data-name="Path 59833" d="M572,619h10.27l.131,7.473H572Z" transform="translate(-442.644 -463.03)" fill="#0b4870" stroke="#fff" stroke-miterlimit="10" stroke-width="0.5"/>
      <path id="Path_59834" data-name="Path 59834" d="M338.061,648.8h21.414l-1.224,7.692H336.4Z" transform="translate(-310.004 -479.807)" fill="#0b4870" stroke="#fff" stroke-miterlimit="10" stroke-width="0.5"/>
      <path id="Path_59835" data-name="Path 59835" d="M792.183,648.8H765.7l1.486,7.692h27.051Z" transform="translate(-551.694 -479.807)" fill="#0b4870" stroke="#fff" stroke-miterlimit="10" stroke-width="0.5"/>
      <path id="Path_59836" data-name="Path 59836" d="M739.876,648.8H729.3l1.18,7.692h10.838Z" transform="translate(-531.201 -479.807)" fill="#0b4870" stroke="#fff" stroke-miterlimit="10" stroke-width="0.5"/>
      <path id="Path_59837" data-name="Path 59837" d="M703.476,648.8H692.9l.874,7.692h10.838Z" transform="translate(-510.709 -479.807)" fill="#0b4870" stroke="#fff" stroke-miterlimit="10" stroke-width="0.5"/>
      <path id="Path_59838" data-name="Path 59838" d="M667.076,648.8H656.5l.612,7.692h10.794Z" transform="translate(-490.216 -479.807)" fill="#0b4870" stroke="#fff" stroke-miterlimit="10" stroke-width="0.5"/>
      <path id="Path_59839" data-name="Path 59839" d="M630.676,648.8H620.1l.306,7.692H631.2Z" transform="translate(-469.723 -479.807)" fill="#0b4870" stroke="#fff" stroke-miterlimit="10" stroke-width="0.5"/>
      <path id="Path_59840" data-name="Path 59840" d="M330.21,680.1h21.938l-1.617,7.648H328.2Z" transform="translate(-305.388 -497.428)" fill="#0b4870" stroke="#fff" stroke-miterlimit="10" stroke-width="0.5"/>
      <path id="Path_59841" data-name="Path 59841" d="M393.586,680.1h10.969l-1.267,7.648H392.1Z" transform="translate(-341.363 -497.428)" fill="#0b4870" stroke="#fff" stroke-miterlimit="10" stroke-width="0.5"/>
      <path id="Path_59842" data-name="Path 59842" d="M431.624,680.1h82.2l.306,7.648H430.4Z" transform="translate(-362.925 -497.428)" fill="#0b4870" stroke="#fff" stroke-miterlimit="10" stroke-width="0.5"/>
      <path id="Path_59843" data-name="Path 59843" d="M633.9,680.1h10.969l.612,7.648H634.293Z" transform="translate(-477.493 -497.428)" fill="#0b4870" stroke="#fff" stroke-miterlimit="10" stroke-width="0.5"/>
      <path id="Path_59844" data-name="Path 59844" d="M671.5,680.1h10.969l.918,7.648H672.2Z" transform="translate(-498.661 -497.428)" fill="#0b4870" stroke="#fff" stroke-miterlimit="10" stroke-width="0.5"/>
      <path id="Path_59845" data-name="Path 59845" d="M709.2,680.1h10.969l1.18,7.648H710.205Z" transform="translate(-519.885 -497.428)" fill="#0b4870" stroke="#fff" stroke-miterlimit="10" stroke-width="0.5"/>
      <path id="Path_59846" data-name="Path 59846" d="M746.8,680.1h10.969l1.486,7.648H748.111Z" transform="translate(-541.054 -497.428)" fill="#0b4870" stroke="#fff" stroke-miterlimit="10" stroke-width="0.5"/>
      <path id="Path_59847" data-name="Path 59847" d="M784.4,680.1h21.938l2.01,7.648H786.017Z" transform="translate(-562.222 -497.428)" fill="#0b4870" stroke="#fff" stroke-miterlimit="10" stroke-width="0.5"/>
      <path id="Path_59848" data-name="Path 59848" d="M594.432,648.8H583.9v7.692h10.707Z" transform="translate(-449.343 -479.807)" fill="#0b4870" stroke="#fff" stroke-miterlimit="10" stroke-width="0.5"/>
      <path id="Path_59849" data-name="Path 59849" d="M557.525,648.8h-10.62l-.306,7.692h10.838Z" transform="translate(-428.344 -479.807)" fill="#0b4870" stroke="#fff" stroke-miterlimit="10" stroke-width="0.5"/>
      <path id="Path_59850" data-name="Path 59850" d="M520.731,648.8H510.112l-.612,7.692h10.838Z" transform="translate(-407.457 -479.807)" fill="#0b4870" stroke="#fff" stroke-miterlimit="10" stroke-width="0.5"/>
      <path id="Path_59851" data-name="Path 59851" d="M483.937,648.8H473.318l-.918,7.692h10.838Z" transform="translate(-386.57 -479.807)" fill="#0b4870" stroke="#fff" stroke-miterlimit="10" stroke-width="0.5"/>
      <path id="Path_59852" data-name="Path 59852" d="M447.143,648.8H436.524l-1.224,7.692h10.838Z" transform="translate(-365.684 -479.807)" fill="#0b4870" stroke="#fff" stroke-miterlimit="10" stroke-width="0.5"/>
      <path id="Path_59853" data-name="Path 59853" d="M410.405,648.8H399.786l-1.486,7.692h10.794Z" transform="translate(-344.853 -479.807)" fill="#0b4870" stroke="#fff" stroke-miterlimit="10" stroke-width="0.5"/>
      <path id="Path_59854" data-name="Path 59854" d="M351.6,599.742l1.748-6.643h4.982l-1.617,6.643Z" transform="translate(-318.562 -448.448)" fill="#0b4870" stroke="#fff" stroke-miterlimit="10" stroke-width="0.5"/>
      <path id="Path_59855" data-name="Path 59855" d="M376.373,593.1h9.964l-1.355,6.643H374.8Z" transform="translate(-331.623 -448.448)" fill="#0b4870" stroke="#fff" stroke-miterlimit="10" stroke-width="0.5"/>
      <path id="Path_59856" data-name="Path 59856" d="M411.011,593.1h9.964l-1.136,6.643H409.7Z" transform="translate(-351.271 -448.448)" fill="#0b4870" stroke="#fff" stroke-miterlimit="10" stroke-width="0.5"/>
      <path id="Path_59857" data-name="Path 59857" d="M445.549,593.1h9.964l-.874,6.643H444.5Z" transform="translate(-370.863 -448.448)" fill="#0b4870" stroke="#fff" stroke-miterlimit="10" stroke-width="0.5"/>
      <path id="Path_59858" data-name="Path 59858" d="M480.087,593.1h9.964l-.612,6.643H479.3Z" transform="translate(-390.455 -448.448)" fill="#0b4870" stroke="#fff" stroke-miterlimit="10" stroke-width="0.5"/>
      <path id="Path_59859" data-name="Path 59859" d="M514.624,593.1h9.964l-.35,6.643H514.1Z" transform="translate(-410.047 -448.448)" fill="#0b4870" stroke="#fff" stroke-miterlimit="10" stroke-width="0.5"/>
      <path id="Path_59860" data-name="Path 59860" d="M549.162,593.1h9.964l-.087,6.643H548.9Z" transform="translate(-429.639 -448.448)" fill="#0b4870" stroke="#fff" stroke-miterlimit="10" stroke-width="0.5"/>
      <path id="Path_59861" data-name="Path 59861" d="M583.7,593.1h9.964l.175,6.643H583.7Z" transform="translate(-449.231 -448.448)" fill="#0b4870" stroke="#fff" stroke-miterlimit="10" stroke-width="0.5"/>
      <path id="Path_59862" data-name="Path 59862" d="M617.9,593.1h9.964l.437,6.643H618.162Z" transform="translate(-468.485 -448.448)" fill="#0b4870" stroke="#fff" stroke-miterlimit="10" stroke-width="0.5"/>
      <path id="Path_59863" data-name="Path 59863" d="M652.1,593.1h10.008l.656,6.643H652.624Z" transform="translate(-487.739 -448.448)" fill="#0b4870" stroke="#fff" stroke-miterlimit="10" stroke-width="0.5"/>
      <path id="Path_59864" data-name="Path 59864" d="M686.4,593.1h9.964l.961,6.643H687.187Z" transform="translate(-507.049 -448.448)" fill="#0b4870" stroke="#fff" stroke-miterlimit="10" stroke-width="0.5"/>
      <path id="Path_59865" data-name="Path 59865" d="M720.6,593.1h9.964l1.224,6.643H721.649Z" transform="translate(-526.303 -448.448)" fill="#0b4870" stroke="#fff" stroke-miterlimit="10" stroke-width="0.5"/>
      <path id="Path_59866" data-name="Path 59866" d="M754.8,593.1h9.964l1.486,6.643H756.111Z" transform="translate(-545.557 -448.448)" fill="#0b4870" stroke="#fff" stroke-miterlimit="10" stroke-width="0.5"/>
      <path id="Path_59867" data-name="Path 59867" d="M789,593.1h9.964l1.748,6.643H790.573Z" transform="translate(-564.812 -448.448)" fill="#0b4870" stroke="#fff" stroke-miterlimit="10" stroke-width="0.5"/>
      <path id="Path_59868" data-name="Path 59868" d="M538.34,796.636h-255.3A7.031,7.031,0,0,1,276,789.6H545.376A7.031,7.031,0,0,1,538.34,796.636Z" transform="translate(-276 -559.075)" fill="#d3d3d3"/>
      <path id="Path_59869" data-name="Path 59869" d="M570.657,719.153a3.32,3.32,0,0,0-3.234-2.753H511.267a3.285,3.285,0,0,0-3.234,2.753l-3.5,21.2a3.3,3.3,0,0,0,3.234,3.846h63.1a3.273,3.273,0,0,0,3.234-3.846Z" transform="translate(-404.636 -517.864)" fill="#d3d3d3"/>
      <g id="Group_4885" data-name="Group 4885" transform="translate(45.755 18.704)">
        <g id="Group_4831" data-name="Group 4831">
          <rect id="Rectangle_2303" data-name="Rectangle 2303" width="22.856" height="2.36" fill="#f7f7f7"/>
        </g>
        <g id="Group_4832" data-name="Group 4832" transform="translate(29.28 17.612)">
          <rect id="Rectangle_2304" data-name="Rectangle 2304" width="16.475" height="2.36" fill="#f7f7f7"/>
        </g>
        <g id="Group_4833" data-name="Group 4833" transform="translate(48.334 17.612)">
          <rect id="Rectangle_2305" data-name="Rectangle 2305" width="10.925" height="2.36" fill="#f7f7f7"/>
        </g>
        <g id="Group_4834" data-name="Group 4834" transform="translate(0.262 61.925)">
          <rect id="Rectangle_2306" data-name="Rectangle 2306" width="10.925" height="2.36" fill="#f7f7f7"/>
        </g>
        <g id="Group_4835" data-name="Group 4835" transform="translate(61.444 17.612)">
          <rect id="Rectangle_2307" data-name="Rectangle 2307" width="26.439" height="2.36" fill="#f7f7f7"/>
        </g>
        <g id="Group_4836" data-name="Group 4836" transform="translate(0.262 53.054)">
          <rect id="Rectangle_2308" data-name="Rectangle 2308" width="17" height="2.36" fill="#f7f7f7"/>
        </g>
        <g id="Group_4837" data-name="Group 4837" transform="translate(23.948 70.709)">
          <rect id="Rectangle_2309" data-name="Rectangle 2309" width="10.357" height="2.36" fill="#f7f7f7"/>
        </g>
        <g id="Group_4838" data-name="Group 4838" transform="translate(0.262 70.709)">
          <rect id="Rectangle_2310" data-name="Rectangle 2310" width="20.54" height="2.36" fill="#f7f7f7"/>
        </g>
        <g id="Group_4839" data-name="Group 4839" transform="translate(0.262 79.537)">
          <rect id="Rectangle_2311" data-name="Rectangle 2311" width="11.319" height="2.36" fill="#f7f7f7"/>
        </g>
        <g id="Group_4840" data-name="Group 4840" transform="translate(27.313)">
          <rect id="Rectangle_2312" data-name="Rectangle 2312" width="16.213" height="2.36" fill="#f7f7f7"/>
        </g>
        <g id="Group_4841" data-name="Group 4841" transform="translate(27.313 26.439)">
          <rect id="Rectangle_2313" data-name="Rectangle 2313" width="16.213" height="2.36" fill="#f7f7f7"/>
        </g>
        <g id="Group_4842" data-name="Group 4842" transform="translate(19.185 35.223)">
          <rect id="Rectangle_2314" data-name="Rectangle 2314" width="6.949" height="2.36" fill="#f7f7f7"/>
        </g>
        <g id="Group_4843" data-name="Group 4843" transform="translate(12.28 44.182)">
          <rect id="Rectangle_2315" data-name="Rectangle 2315" width="15.558" height="2.36" fill="#f7f7f7"/>
        </g>
        <g id="Group_4844" data-name="Group 4844" transform="translate(30.198 44.182)">
          <rect id="Rectangle_2316" data-name="Rectangle 2316" width="21.501" height="2.36" fill="#f7f7f7"/>
        </g>
        <g id="Group_4845" data-name="Group 4845" transform="translate(0.262 35.311)">
          <rect id="Rectangle_2317" data-name="Rectangle 2317" width="16.213" height="2.36" fill="#f7f7f7"/>
        </g>
        <g id="Group_4846" data-name="Group 4846" transform="translate(0.262 44.182)">
          <rect id="Rectangle_2318" data-name="Rectangle 2318" width="9.614" height="2.36" fill="#f7f7f7"/>
        </g>
        <g id="Group_4847" data-name="Group 4847" transform="translate(29.411 35.311)">
          <rect id="Rectangle_2319" data-name="Rectangle 2319" width="9.09" height="2.36" fill="#f7f7f7"/>
        </g>
        <g id="Group_4848" data-name="Group 4848" transform="translate(0.568 88.321)">
          <rect id="Rectangle_2320" data-name="Rectangle 2320" width="9.09" height="2.36" fill="#f7f7f7"/>
        </g>
        <g id="Group_4849" data-name="Group 4849" transform="translate(0.219 17.612)">
          <rect id="Rectangle_2321" data-name="Rectangle 2321" width="16.213" height="2.36" fill="#f7f7f7"/>
        </g>
        <g id="Group_4850" data-name="Group 4850" transform="translate(14.553 61.925)">
          <rect id="Rectangle_2322" data-name="Rectangle 2322" width="16.213" height="2.36" fill="#f7f7f7"/>
        </g>
        <g id="Group_4851" data-name="Group 4851" transform="translate(14.771 79.537)">
          <rect id="Rectangle_2323" data-name="Rectangle 2323" width="16.213" height="2.36" fill="#f7f7f7"/>
        </g>
        <g id="Group_4852" data-name="Group 4852" transform="translate(43.57 79.537)">
          <rect id="Rectangle_2324" data-name="Rectangle 2324" width="16.213" height="2.36" fill="#f7f7f7"/>
        </g>
        <g id="Group_4853" data-name="Group 4853" transform="translate(0.219 26.439)">
          <rect id="Rectangle_2325" data-name="Rectangle 2325" width="23.118" height="2.36" fill="#f7f7f7"/>
        </g>
        <g id="Group_4854" data-name="Group 4854" transform="translate(108.554)">
          <rect id="Rectangle_2326" data-name="Rectangle 2326" width="16.213" height="2.36" fill="#f7f7f7"/>
        </g>
        <g id="Group_4855" data-name="Group 4855" transform="translate(50.781 88.321)">
          <rect id="Rectangle_2327" data-name="Rectangle 2327" width="16.213" height="2.36" fill="#f7f7f7"/>
        </g>
        <g id="Group_4856" data-name="Group 4856" transform="translate(129.793)">
          <rect id="Rectangle_2328" data-name="Rectangle 2328" width="10.838" height="2.36" fill="#f7f7f7"/>
        </g>
        <g id="Group_4857" data-name="Group 4857" transform="translate(166.546 8.828)">
          <rect id="Rectangle_2329" data-name="Rectangle 2329" width="10.838" height="2.36" fill="#f7f7f7"/>
        </g>
        <g id="Group_4858" data-name="Group 4858" transform="translate(47.897)">
          <rect id="Rectangle_2330" data-name="Rectangle 2330" width="20.671" height="2.36" fill="#f7f7f7"/>
        </g>
        <g id="Group_4859" data-name="Group 4859" transform="translate(128.395 8.828)">
          <rect id="Rectangle_2331" data-name="Rectangle 2331" width="20.671" height="2.36" fill="#f7f7f7"/>
        </g>
        <g id="Group_4860" data-name="Group 4860" transform="translate(103.048 17.612)">
          <rect id="Rectangle_2332" data-name="Rectangle 2332" width="20.671" height="2.36" fill="#f7f7f7"/>
        </g>
        <g id="Group_4861" data-name="Group 4861" transform="translate(76.172 26.439)">
          <rect id="Rectangle_2333" data-name="Rectangle 2333" width="20.671" height="2.36" fill="#f7f7f7"/>
        </g>
        <g id="Group_4862" data-name="Group 4862" transform="translate(126.297 17.612)">
          <rect id="Rectangle_2334" data-name="Rectangle 2334" width="14.684" height="2.36" fill="#f7f7f7"/>
        </g>
        <g id="Group_4863" data-name="Group 4863" transform="translate(83.819)">
          <rect id="Rectangle_2335" data-name="Rectangle 2335" width="20.671" height="2.36" fill="#f7f7f7"/>
        </g>
        <g id="Group_4864" data-name="Group 4864" transform="translate(60.264 26.439)">
          <rect id="Rectangle_2336" data-name="Rectangle 2336" width="12.105" height="2.36" fill="#f7f7f7"/>
        </g>
        <g id="Group_4865" data-name="Group 4865" transform="translate(50.781 62.056)">
          <rect id="Rectangle_2337" data-name="Rectangle 2337" width="12.105" height="2.36" fill="#f7f7f7"/>
        </g>
        <g id="Group_4866" data-name="Group 4866" transform="translate(72.37)">
          <rect id="Rectangle_2338" data-name="Rectangle 2338" width="7.56" height="2.36" fill="#f7f7f7"/>
        </g>
        <g id="Group_4867" data-name="Group 4867" transform="translate(47.897 26.439)">
          <rect id="Rectangle_2339" data-name="Rectangle 2339" width="7.56" height="2.36" fill="#f7f7f7"/>
        </g>
        <g id="Group_4868" data-name="Group 4868" transform="translate(154.048 8.828)">
          <rect id="Rectangle_2340" data-name="Rectangle 2340" width="7.56" height="2.36" fill="#f7f7f7"/>
        </g>
        <g id="Group_4869" data-name="Group 4869" transform="translate(0 8.828)">
          <rect id="Rectangle_2341" data-name="Rectangle 2341" width="11.843" height="2.36" fill="#f7f7f7"/>
        </g>
        <g id="Group_4870" data-name="Group 4870" transform="translate(31.596 53.097)">
          <rect id="Rectangle_2342" data-name="Rectangle 2342" width="9.352" height="2.36" fill="#f7f7f7"/>
        </g>
        <g id="Group_4871" data-name="Group 4871" transform="translate(14.771 8.828)">
          <rect id="Rectangle_2343" data-name="Rectangle 2343" width="3.802" height="2.36" fill="#f7f7f7"/>
        </g>
        <g id="Group_4872" data-name="Group 4872" transform="translate(93.171 8.828)">
          <rect id="Rectangle_2344" data-name="Rectangle 2344" width="31.596" height="2.36" fill="#f7f7f7"/>
        </g>
        <g id="Group_4873" data-name="Group 4873" transform="translate(62.886 79.537)">
          <rect id="Rectangle_2345" data-name="Rectangle 2345" width="31.596" height="2.36" fill="#f7f7f7"/>
        </g>
        <g id="Group_4874" data-name="Group 4874" transform="translate(21.37 8.828)">
          <rect id="Rectangle_2346" data-name="Rectangle 2346" width="3.889" height="2.36" fill="#f7f7f7"/>
        </g>
        <g id="Group_4875" data-name="Group 4875" transform="translate(79.93 8.828)">
          <rect id="Rectangle_2347" data-name="Rectangle 2347" width="10.314" height="2.36" fill="#f7f7f7"/>
        </g>
        <g id="Group_4876" data-name="Group 4876" transform="translate(90.287 17.612)">
          <rect id="Rectangle_2348" data-name="Rectangle 2348" width="10.314" height="2.36" fill="#f7f7f7"/>
        </g>
        <g id="Group_4877" data-name="Group 4877" transform="translate(37.146 88.321)">
          <rect id="Rectangle_2349" data-name="Rectangle 2349" width="10.314" height="2.36" fill="#f7f7f7"/>
        </g>
        <g id="Group_4878" data-name="Group 4878" transform="translate(55.239 8.828)">
          <rect id="Rectangle_2350" data-name="Rectangle 2350" width="21.982" height="2.36" fill="#f7f7f7"/>
        </g>
        <g id="Group_4879" data-name="Group 4879" transform="translate(34.743 62.056)">
          <rect id="Rectangle_2351" data-name="Rectangle 2351" width="12.848" height="2.36" fill="#f7f7f7"/>
        </g>
        <g id="Group_4880" data-name="Group 4880" transform="translate(33.956 79.537)">
          <rect id="Rectangle_2352" data-name="Rectangle 2352" width="6.424" height="2.36" fill="#f7f7f7"/>
        </g>
        <g id="Group_4881" data-name="Group 4881" transform="translate(44.532 8.828)">
          <rect id="Rectangle_2353" data-name="Rectangle 2353" width="7.56" height="2.36" fill="#f7f7f7"/>
        </g>
        <g id="Group_4882" data-name="Group 4882" transform="translate(19.098 17.612)">
          <rect id="Rectangle_2354" data-name="Rectangle 2354" width="7.56" height="2.36" fill="#f7f7f7"/>
        </g>
        <g id="Group_4883" data-name="Group 4883" transform="translate(20.583 53.097)">
          <rect id="Rectangle_2355" data-name="Rectangle 2355" width="7.56" height="2.36" fill="#f7f7f7"/>
        </g>
        <g id="Group_4884" data-name="Group 4884" transform="translate(28.493 8.828)">
          <rect id="Rectangle_2356" data-name="Rectangle 2356" width="13.198" height="2.36" fill="#f7f7f7"/>
        </g>
      </g>
    </g>
    <g id="Group_4889" data-name="Group 4889" transform="translate(380.917 178.695)">
      <g id="Group_4888" data-name="Group 4888">
        <g id="Group_4887" data-name="Group 4887">
          <path id="Path_59870" data-name="Path 59870" d="M690.925,361.482s3.846,6.512,5.463,7.56c2.185,1.442.83,2.884-.219,2.928-1.049,0-6.38.393-7.56-.961s-1.748-5.332-2.841-6.38-2.229-5.2.525-6.206C688.7,357.505,690.925,361.482,690.925,361.482Z" transform="translate(-684.58 -358.285)" fill="#ffb750"/>
        </g>
      </g>
    </g>
    <g id="Group_4892" data-name="Group 4892" transform="translate(382.396 178.876)">
      <g id="Group_4891" data-name="Group 4891">
        <g id="Group_4890" data-name="Group 4890">
          <path id="Path_59871" data-name="Path 59871" d="M691.127,358.875s4.414,7.648,5.157,8.74c.743,1.136-1.442,1.136-2.8.612s-4.763-5.987-5.244-6.992a3.683,3.683,0,0,1-.087-2.535Z" transform="translate(-687.965 -358.7)" fill="#ffe3ca"/>
        </g>
      </g>
    </g>
    <g id="Group_4895" data-name="Group 4895" transform="translate(381.1 183.115)">
      <g id="Group_4894" data-name="Group 4894">
        <g id="Group_4893" data-name="Group 4893">
          <path id="Path_59872" data-name="Path 59872" d="M685,368.4l1.049,7.823.524.044-.175-5.637Z" transform="translate(-685 -368.4)" fill="#ffb750"/>
        </g>
      </g>
    </g>
    <g id="Group_4898" data-name="Group 4898" transform="translate(342.748 178.727)">
      <g id="Group_4897" data-name="Group 4897">
        <g id="Group_4896" data-name="Group 4896">
          <path id="Path_59873" data-name="Path 59873" d="M603.6,361.522s3.846,6.512,5.463,7.56c2.185,1.442.83,2.884-.219,2.928-1.049,0-6.38.393-7.56-.961s-1.748-5.332-2.841-6.38-2.272-5.332.524-6.206C601.418,357.677,603.6,361.522,603.6,361.522Z" transform="translate(-597.239 -358.357)" fill="#ffb750"/>
        </g>
      </g>
    </g>
    <g id="Group_4901" data-name="Group 4901" transform="translate(344.289 178.876)">
      <g id="Group_4900" data-name="Group 4900">
        <g id="Group_4899" data-name="Group 4899">
          <path id="Path_59874" data-name="Path 59874" d="M604.145,358.875s4.152,7.6,4.938,8.74c.743,1.136-1.442,1.136-2.8.612s-4.763-5.987-5.244-6.992a3.683,3.683,0,0,1-.087-2.535Z" transform="translate(-600.765 -358.7)" fill="#ffe3ca"/>
        </g>
      </g>
    </g>
    <g id="Group_4904" data-name="Group 4904" transform="translate(342.993 183.115)">
      <g id="Group_4903" data-name="Group 4903">
        <g id="Group_4902" data-name="Group 4902">
          <path id="Path_59875" data-name="Path 59875" d="M597.8,368.4l1.005,7.823.568.044-.175-5.637Z" transform="translate(-597.8 -368.4)" fill="#ffb750"/>
        </g>
      </g>
    </g>
    <g id="Group_4907" data-name="Group 4907" transform="translate(332.067 117.194)">
      <g id="Group_4906" data-name="Group 4906" transform="translate(0 0)">
        <g id="Group_4905" data-name="Group 4905">
          <path id="Path_59876" data-name="Path 59876" d="M572.8,222.95l34.786,15.864a6.71,6.71,0,0,1,4.326,5.594c1.355,13.46,11.406,34.786,11.406,34.786,3.234,1.573,2.972.219,2.972.219-2.054-6.555-4.5-33.475-5.419-44.27-.175-2.272-.306-3.846-.35-4.37,0-.35-.393-.787-1.049-1.311-4.763-3.889-24.429-11.887-24.429-11.887C580.4,217.182,572.8,222.95,572.8,222.95Z" transform="translate(-572.8 -217.556)" fill="#ffe3ca"/>
        </g>
      </g>
    </g>
    <g id="Group_4910" data-name="Group 4910" transform="translate(325.369 114.723)">
      <g id="Group_4909" data-name="Group 4909">
        <g id="Group_4908" data-name="Group 4908">
          <path id="Path_59877" data-name="Path 59877" d="M557.615,226.584c1.092,9.4,14.509,8.347,14.509,8.347h16.257s-4.283,9.527-5.943,17.524c-1.748,8.522-5.9,23.555-5.9,23.555s.262.524,3.234.219c0,0,12.761-25.434,17.655-31.858,1.049-1.355,4.064-8.871,4.589-13.329.175-1.486.087-2.666-.481-3.146s-1.879-1.355-3.584-2.447c-5.113-3.234-13.941-8.172-18.879-9.265-6.6-1.486-17.044-4.283-17.044-4.283S556.523,217.188,557.615,226.584Z" transform="translate(-557.472 -211.9)" fill="#ffe3ca"/>
        </g>
      </g>
    </g>
    <g id="Group_4911" data-name="Group 4911" transform="translate(334.98 39.289)">
      <path id="Path_59878" data-name="Path 59878" d="M581.053,56.949a15.128,15.128,0,0,1-1.267-9.527c1.18-4.938,5.769-9.833,12.455-7.56s12.105,7.429,8.085,13.46c-4.021,5.987,3.627,8.74,1.661,11.581s-1.224,5.856-.393,6.512,3.5,3.015,3.19,5.856c-.306,2.8-12.979-8.172-12.979-8.172S584.943,55.158,581.053,56.949Z" transform="translate(-579.464 -39.289)" fill="#0e538c"/>
    </g>
    <g id="Group_4912" data-name="Group 4912" transform="translate(329.97 113.791)">
      <path id="Path_59879" data-name="Path 59879" d="M595.007,212.011S594,216.905,568,210.744C568,210.744,576.7,207.859,595.007,212.011Z" transform="translate(-568 -209.768)" fill="#eb4747"/>
    </g>
    <g id="Group_4914" data-name="Group 4914" transform="translate(324.376 69.34)">
      <g id="Group_4913" data-name="Group 4913">
        <path id="Path_59880" data-name="Path 59880" d="M560.488,154.834c-.393.787-.787,1.53-1.224,2.316,9.483.262,19.01.568,28.493.83-1.486-5.026-1.005-11.843-.743-17,.306-6.337,3.8-10.707,3.452-17.087,1.879.306,2.185.35,4.064.656-2.884-8.216-3.846-12.28-12.8-15.427a16.361,16.361,0,0,0-7.954-.961c-10.357.874-13.46.961-18.573,10.357,7.954,1.267,6.643,4.108,9.046,12.062,1.18,3.846,2.4,8.172,1.792,12.236C565.426,146.793,560.488,151.206,560.488,154.834Z" transform="translate(-555.2 -108.052)" fill="#fff"/>
      </g>
    </g>
    <g id="Group_4916" data-name="Group 4916" transform="translate(342.778 61.118)">
      <g id="Group_4915" data-name="Group 4915" transform="translate(0 0)">
        <path id="Path_59881" data-name="Path 59881" d="M600.713,100.5c-4.239-.787-3.321-3.146-3.321-3.146s.175-1.311.262-3.015c0-.437.044-.874.044-1.355a16.885,16.885,0,0,0-.131-2.1c-.35-2.841,7.691-1.136,7.691-1.136s-.481,5.769.656,7.473C607.006,98.968,604.952,101.328,600.713,100.5Z" transform="translate(-597.308 -89.24)" fill="#ffe3ca"/>
      </g>
    </g>
    <g id="Group_4918" data-name="Group 4918" transform="translate(338.098 68.447)">
      <g id="Group_4917" data-name="Group 4917" transform="translate(0 0)">
        <path id="Path_59882" data-name="Path 59882" d="M586.6,106.793s8.566,9.877,11.712,12.149c0,0,3.627-3.278,1.4-11.93C599.71,107.011,595.6,104.913,586.6,106.793Z" transform="translate(-586.6 -106.01)" fill="#ffe3ca"/>
      </g>
    </g>
    <g id="Group_4919" data-name="Group 4919" transform="translate(336.366 43.869)">
      <path id="Path_59883" data-name="Path 59883" d="M584.631,51.355s-4.458,8.565-.044,16.65,13.067-3.54,13.591-4.895c.568-1.355,3.54-9.09-2.36-11.406C589.919,49.345,585.9,49.039,584.631,51.355Z" transform="translate(-582.637 -49.768)" fill="#ffe3ca"/>
    </g>
    <g id="Group_4920" data-name="Group 4920" transform="translate(343.124 62.98)">
      <path id="Path_59884" data-name="Path 59884" d="M601.9,93.5s-.787,1.7-3.8,3.234c0-.437.044-.874.044-1.355A6.993,6.993,0,0,0,601.9,93.5Z" transform="translate(-598.1 -93.5)" fill="#fcd2b1"/>
    </g>
    <g id="Group_4921" data-name="Group 4921" transform="translate(293.26 108.124)">
      <path id="Path_59885" data-name="Path 59885" d="M492.783,197.106s-2.1.918-3.1.524a9.039,9.039,0,0,0-3.015-.524c-.655,0-2.709-.743-2.666.087.044.787,3.321,1.355,3.977,1.617s-2.01,1.7-2.272,2.36,2.8,4.938,4.5,3.715,2.622-3.671,2.972-3.846,1.267-.83,1.267-.83Z" transform="translate(-483.998 -196.8)" fill="#ffe3ca"/>
    </g>
    <g id="Group_4922" data-name="Group 4922" transform="translate(290.272 112.101)">
      <path id="Path_59886" data-name="Path 59886" d="M482.2,205.9s-4.938,4.108-5.026,4.676.175.83.656.437c.481-.35,4.895-3.846,4.895-3.846s-4.938,5.856-5.113,6.293c-.087.262.393.787.656.612s5.55-5.681,5.55-5.681-4.632,5.463-4.632,5.9a.536.536,0,0,0,.918.35c.393-.393,4.982-5.2,4.982-5.2s-3.1,4.2-2.884,4.589c.131.219.524.7,1.267-.393s2.841-3.54,2.841-3.54Z" transform="translate(-477.162 -205.9)" fill="#ffe3ca"/>
    </g>
    <g id="Group_4924" data-name="Group 4924" transform="translate(325.369 114.723)">
      <g id="Group_4923" data-name="Group 4923">
        <path id="Path_59887" data-name="Path 59887" d="M586.677,234.887H572.124s-13.416,1.093-14.509-8.347c-1.093-9.4,4.414-14.64,4.414-14.64s7.08,1.879,13.285,3.365A46.975,46.975,0,0,1,586.5,214.3s26.221,8.653,25.434,13.242C611.936,227.589,600.967,221.733,586.677,234.887Z" transform="translate(-557.472 -211.9)" fill="#0e538c"/>
      </g>
    </g>
    <g id="Group_4925" data-name="Group 4925" transform="translate(345.09 121.016)">
      <path id="Path_59888" data-name="Path 59888" d="M602.6,226.737l27.794-.437-14.028,7.123Z" transform="translate(-602.6 -226.3)" fill="#f2f2f2"/>
    </g>
    <g id="Group_4926" data-name="Group 4926" transform="translate(339.497 115.247)">
      <path id="Path_59889" data-name="Path 59889" d="M604.047,215.722a23.826,23.826,0,0,1-13.9.219l-.35-2.841,15.776.874Z" transform="translate(-589.8 -213.1)" fill="#fff"/>
    </g>
    <g id="Group_4927" data-name="Group 4927" transform="translate(345.09 121.453)">
      <path id="Path_59890" data-name="Path 59890" d="M616.366,233.986,602.6,228.655V227.3l14.859,5.332Z" transform="translate(-602.6 -227.3)" fill="#d3d3d3"/>
    </g>
    <g id="Group_4930" data-name="Group 4930" transform="translate(299.63 68.618)">
      <g id="Group_4928" data-name="Group 4928" transform="translate(51.578 0.874)">
        <path id="Path_59891" data-name="Path 59891" d="M619,158.132a1.383,1.383,0,0,0,1.923,1.355l1.617-.7a1.147,1.147,0,0,0,.7-1.224c-.656-4.2-2.1-20.54,0-23.38a9.918,9.918,0,0,0,1.529-2.753c1.4,3.584,3.1,8.216,3.8,10.707l13.11,17.481,4.414,1.136a148.123,148.123,0,0,0-9.92-20.234c-.874-2.316-3.321-9.308-5.506-15.514-1.4-3.933-2.622-7.56-3.321-9.483a4.29,4.29,0,0,0-1.923-2.36c-2.054-1.224-5.419-3.147-8.478-4.632h-.044a2.138,2.138,0,0,0-.306-.131h0c5.856,8.784,3.583,33.738,2.4,49.732Z" transform="translate(-616.6 -108.4)" fill="#ffbe55"/>
      </g>
      <g id="Group_4929" data-name="Group 4929" transform="translate(0 0)">
        <path id="Path_59892" data-name="Path 59892" d="M530.882,107.973c-1.879.306-6.511,4.807-8.959,9.352-2.8,5.2-5.681,11.1-7.823,13.023-3.933,3.584-14.99,16.213-15.514,15.907a31.167,31.167,0,0,0,3.452,3.933c.218.087,18.136-15.47,19.884-17.83,1.617-2.229,5.987-11.668,7.3-11.45h0a69.889,69.889,0,0,1,3.19,8.7c.044.087.044.175.087.262,1.049,3.5.961,7.342.393,11.625-.437,3.234-2.841,8.522-4.283,11.1a1.828,1.828,0,0,0,.044,1.355h0a1.055,1.055,0,0,0,.481.568l5.288,1.967,1.224.437a2.619,2.619,0,0,0,2.535-.35,2.589,2.589,0,0,0,1.092-1.835c1.18-9,2.666-18.224,3.846-21.676a32.83,32.83,0,0,0-2.01-26.658S532.542,107.361,530.882,107.973Z" transform="translate(-498.576 -106.4)" fill="#ffbe55"/>
      </g>
    </g>
    <g id="Group_4931" data-name="Group 4931" transform="translate(358.856 105.589)">
      <path id="Path_59893" data-name="Path 59893" d="M634.1,213.55,642.36,191l26.614.437-7.866,20.8Z" transform="translate(-634.1 -191)" fill="#ffbe55"/>
    </g>
    <g id="Group_4932" data-name="Group 4932" transform="translate(375.152 113.456)">
      <path id="Path_59894" data-name="Path 59894" d="M671.874,211.1c-.83,1.617-.568,3.409.568,3.933,1.136.568,2.666-.306,3.5-1.923s.568-3.409-.568-3.933C674.234,208.608,672.66,209.482,671.874,211.1Z" transform="translate(-671.388 -209.003)" fill="#f2f0f0"/>
    </g>
    <path id="Path_59895" data-name="Path 59895" d="M605.447,76.559c-1.967-2.972-3.365-5.332-3.54-9.571-.131-2.8-.743-6.6-2.666-8.478,2.01-5.244-.349-6.817-1.311-8.522-1.18-2.141-9.92-7.3-13.373-1.879a15.883,15.883,0,0,0-2.229,11.013c.35-2.972,3.409-6.992,3.409-6.992.481,3.1,6.9,8.172,9.7,10.226a.332.332,0,0,0-.087.175c-1.573,2.272.393,4.545.743,6.949s-6.6,8.871,1.136,12.105C604.966,84.862,607.413,79.487,605.447,76.559Z" transform="translate(-245.979 -3.615)" fill="#0e538c"/>
    <g id="Group_4934" data-name="Group 4934" transform="translate(180.904 291.312)">
      <g id="Group_4933" data-name="Group 4933" transform="translate(0 33.857)">
        <path id="Path_59896" data-name="Path 59896" d="M275.261,695.79s-.175,1.836-8.74,1.836S245.5,695.4,245.5,695.4l19.884-1.923S273.032,693.081,275.261,695.79Z" transform="translate(-237.372 -693.454)" fill="#0e538c"/>
        <path id="Path_59897" data-name="Path 59897" d="M242.982,698.209c-4.851,0-6.9,2.491-8.828,3.278s-3.846,1.967-3.846,1.923c1.093-2.141,2.622-2.185,3.409-2.884s.568-.35-1.136-.481c-.961-.087-2.709,1.7-3.933,2.709a4.277,4.277,0,0,1-1.748.918,23.21,23.21,0,0,1,2.841-3.234,26.028,26.028,0,0,1,4.895-3.452c1.049-.437,4.283-.524,6.555-.218C243.812,697.116,246.478,698.209,242.982,698.209Z" transform="translate(-226.9 -695.217)" fill="#0e538c"/>
        <path id="Path_59898" data-name="Path 59898" d="M236.63,697.7a24.525,24.525,0,0,0-4.37,1.486c-.437.35-2.36,2.4-2.36,2.4a4.557,4.557,0,0,0,2.185-1.005A36.792,36.792,0,0,1,236.63,697.7Z" transform="translate(-228.589 -695.844)" fill="#0e538c"/>
      </g>
      <path id="Path_59899" data-name="Path 59899" d="M283.988,690.2s9.352.612,8.7,6.38c-.35,3.278-2.491,4.414-5.332,4.152-5.244-.437-11.188-1.224-11.188-1.224L273.5,690.55Z" transform="translate(-253.135 -657.765)" fill="#0e538c"/>
      <path id="Path_59900" data-name="Path 59900" d="M299.113,649.2l9.177-29.586s1.355-4.326,3.583-3.54c3.19,1.18,1.617,4.72,1.355,6.817-.568,4.283-.175,6.162-3.147,16.475-1.835,6.38-3.409,13.722-4.982,17.918-1.093,2.884-2.972-1.267-5.812-2.4C293.956,652.742,299.113,649.2,299.113,649.2Z" transform="translate(-266.293 -615.981)" fill="#0e538c"/>
    </g>
    <path id="Path_59901" data-name="Path 59901" d="M302.887,570.285a9.618,9.618,0,0,0,12.455,5.944,10.136,10.136,0,0,0,5.987-12.761,9.618,9.618,0,0,0-12.455-5.943A10.136,10.136,0,0,0,302.887,570.285Z" transform="translate(-88.464 -291.42)" fill="#0e538c"/>
    <path id="Path_59902" data-name="Path 59902" d="M272.988,559.874a8.8,8.8,0,0,0,12.455,2.36l-.568-4.938a9.5,9.5,0,0,0,2.272-12.892l-1.923-2.841a8.8,8.8,0,0,0-12.455-2.36l-1.835,1.311a9.5,9.5,0,0,0-2.273,12.892Z" transform="translate(-68.616 -280.528)" fill="#0e538c"/>
    <path id="Path_59903" data-name="Path 59903" d="M271.784,557.1a17.141,17.141,0,0,0,1.617,2.01c4.02,4.37,9.4,6.031,12.8,4.239a28.184,28.184,0,0,0,4.982,5.157c1.879,1.53,6.686,2.141,6.686,2.141,2.8,3.059-7.691,20.933-8.434,20.846-1.53-.131-3.5-10.008-2.054-13.591.655-1.617,1.7-3.54,1.4-4.414-1.093-3.015-2.622-2.491-2.622-2.491s-2.01,2.36-3.584,2.272c-1.617-.131-4.414-2.666-4.545-2.709a6.976,6.976,0,0,1-1.311-1.442l-4.2-6.293A6.827,6.827,0,0,1,271.784,557.1Z" transform="translate(-71.083 -291.52)" fill="#ffe3ca"/>
    <path id="Path_59904" data-name="Path 59904" d="M321.54,659.883s-3.409,4.108-4.458,4.545c-1.4.612-5.681-.7-5.681-.7s-1.136-18.835-2.447-26.177-3.234-9.265-3.321-11.581c-.131-3.714-3.234-5.2-2.709-8.085s1.442-13.2,1.748-11.843c2.666,11.712,5.943,1.967,6.686.437C311.751,605.65,321.54,659.883,321.54,659.883Z" transform="translate(-88.762 -319.005)" fill="#f2f0f0"/>
    <path id="Path_59905" data-name="Path 59905" d="M304.295,598.105s-4.152,4.545-3.846,6.336c.262,1.792-1.792,7.386.262,15.165,2.316,8.871,3.54,14.9,3.977,20.714s-1.53,11.144-.743,18.267c.612,5.594,1.879,5.9,1.879,5.9a4.346,4.346,0,0,0,4.239-1.573c1.748-2.141-.874-21.2-1.748-25.915-.874-4.763-3.671-15.863-4.414-19.141a36.972,36.972,0,0,1-.7-9.309,38.549,38.549,0,0,1,1.18-8.3C304.426,600.028,304.644,597.581,304.295,598.105Z" transform="translate(-87.031 -314.564)" fill="#0e538c"/>
    <path id="Path_59906" data-name="Path 59906" d="M325.793,588.513a12.192,12.192,0,0,0,15.82,7.517,12.862,12.862,0,0,0,7.6-16.213A12.192,12.192,0,0,0,333.4,572.3,12.844,12.844,0,0,0,325.793,588.513Z" transform="translate(-101.275 -299.64)" fill="#0e538c"/>
    <path id="Path_59907" data-name="Path 59907" d="M258.685,868.2,261,886.686l-10.051,4.763-5.55,1.224,9.877-7.648-3.234-16.694Z" transform="translate(-56.411 -466.665)" fill="#fcbaa2"/>
    <path id="Path_59908" data-name="Path 59908" d="M258.313,911.2l-2.185.568-1.486-1.355-8.041,4.021-7.123,1.7a1.44,1.44,0,0,1,.131-.874c.874-1.18,5.9-3.758,5.9-3.758s.087,1.7.787,1.748,6.861-3.19,8.3-4.064c2.447-1.53,2.928-2.535,3.1-2.4C258.226,907.047,258.313,911.2,258.313,911.2Z" transform="translate(-53.067 -488.381)" fill="#0e538c"/>
    <path id="Path_59909" data-name="Path 59909" d="M188.717,806.923l-8,15.733-11.013-.524-5.506-1.617,12.193-2.054L183.035,805Z" transform="translate(-10.697 -431.084)" fill="#fcbaa2"/>
    <path id="Path_59910" data-name="Path 59910" d="M176.4,844.312l-2.185-.524-.7-1.923-9.92-.131-5.9-1.4a5.787,5.787,0,0,1,1.136-1.005c1.311-.568,5.987-.83,5.987-.83s-.481,1.355.131,1.7c.612.393,7.429.612,9.09.481,2.884-.218,3.715-.83,3.8-.655C178.152,840.641,176.4,844.312,176.4,844.312Z" transform="translate(-7.037 -449.944)" fill="#0e538c"/>
    <path id="Path_59911" data-name="Path 59911" d="M269.071,701.7l-5.943,2.666.044,8.172-40.948-6.686s-3.889-1.267-6.38,5.157c-3.54,9.09-12.542,37.365-12.542,37.365l5.681,6.162,17.874-31.946s36.622,17.786,48.683,13.941c4.632-1.486,8.172-9.964,7.517-18.529a111.921,111.921,0,0,0-1.835-12.892Z" transform="translate(-32.71 -372.928)" fill="#ffbe55"/>
    <path id="Path_59912" data-name="Path 59912" d="M288.022,759.108,258.7,756.923l2.535,46.848-8.653.306-6.38-54.889s1.7-8.172,7.3-6.949C259.136,743.506,272.683,754.257,288.022,759.108Z" transform="translate(-56.862 -395.68)" fill="#ffbe55"/>
    <path id="Path_59913" data-name="Path 59913" d="M350.245,683.074s-15.383-17.262-19.36-27.007c-4.763-11.668-4.37-26.308-5.244-31.159-1.617-8.915-3.584-26.221-3.933-28.362a7.961,7.961,0,0,1,.961-4.545s-1.005-6.468,1.879-5.769a47.632,47.632,0,0,1,9.7,3.977c2.71,1.224,8.26,33.825,8.566,35.4,1.136,5.681,5.288,10.838,8.26,16.126,6.992,12.542,8.784,27.357,8.784,27.357S358.985,679.928,350.245,683.074Z" transform="translate(-99.331 -307.891)" fill="#2a94f4"/>
    <g id="Group_4935" data-name="Group 4935" transform="translate(193.184 326.806)">
      <path id="Path_59914" data-name="Path 59914" d="M306.943,700.434s-.131,2.1-9.92,1.617c-9.789-.524-24.123-3.8-24.123-3.8l22.681-1.049S304.278,697.244,306.943,700.434Z" transform="translate(-265.077 -697.2)" fill="#ffe3ca"/>
      <path id="Path_59915" data-name="Path 59915" d="M270.514,700.093c-4.676-.087-6.686,2.316-8.522,3.059a33.948,33.948,0,0,0-3.715,1.835c1.049-2.054,2.535-2.1,3.321-2.753.743-.656.568-.306-1.092-.481-.961-.087-2.622,1.617-3.8,2.578a3.542,3.542,0,0,1-1.7.874,21.906,21.906,0,0,1,2.753-3.147,23.748,23.748,0,0,1,4.72-3.278,17.406,17.406,0,0,1,6.337-.087C271.3,699.044,273.879,700.181,270.514,700.093Z" transform="translate(-255 -697.908)" fill="#ffe3ca"/>
      <path id="Path_59916" data-name="Path 59916" d="M264.268,699.3a23.723,23.723,0,0,0-4.2,1.355c-.437.349-2.272,2.316-2.272,2.316a4.621,4.621,0,0,0,2.1-.961A47.938,47.938,0,0,1,264.268,699.3Z" transform="translate(-256.576 -698.382)" fill="#ffe3ca"/>
    </g>
    <path id="Path_59917" data-name="Path 59917" d="M332.9,689.448l14.509-7.648s.044,9.265.131,12.8,1.573,8.522-1.224,9.265-4.239.35-1.355,2.054c2.884,1.661,2.229,3.409,1.136,4.851s3.671,16.126,2.535,16.956c-4.5-5.681-9.352-12.717-11.45-17.83C334.517,703.257,333.468,695.653,332.9,689.448Z" transform="translate(-105.672 -361.724)" fill="#0e538c"/>
    <path id="Path_59918" data-name="Path 59918" d="M327.5,635.917l-.568-29.542s.044-9.221.219-11.931c.175-2.8,4.938.481,4.938.481s6.686,9.046,6.817,30.853c.087,14.6-.7,22.2-7.429,21.589-6.249-.568-13.373-1.53-13.373-1.53l-3.1-8.085Z" transform="translate(-95.595 -311.909)" fill="#2a94f4"/>
    <g id="Group_4936" data-name="Group 4936" transform="translate(169.411 304.058)">
      <path id="Path_59919" data-name="Path 59919" d="M275.851,717.1,225.9,710.849l.131-1.049,49.951,6.249Z" transform="translate(-214.844 -681.546)" fill="#d3d3d3"/>
      <path id="Path_59920" data-name="Path 59920" d="M239.713,676.854a1.4,1.4,0,0,1-1.442,1.355l-25.609-3.19c-.7-.087-1.573-.743-2.185-2.928L200.6,646.525c.131-1.049.961-1.573,1.661-1.311l26.177,4.108a2.483,2.483,0,0,1,1.442,2.01Z" transform="translate(-200.6 -645.147)" fill="#d3d3d3"/>
      <path id="Path_59921" data-name="Path 59921" d="M250.385,715.3l.262.044,25,3.146a8.871,8.871,0,0,1-4.2.306l-20.933-2.622-.262-.044-20.933-2.622A10.077,10.077,0,0,1,225.3,712.2Z" transform="translate(-214.506 -682.897)" fill="#d3d3d3"/>
    </g>
    <path id="Path_59922" data-name="Path 59922" d="M328.118,646.662l-.568-29.542a28.291,28.291,0,0,1,1.311-4.72c.219,3.234,1.7,26.527,1.879,29.586.219,3.321,2.928,3.671,3.5,4.763.612,1.049.087,1.267-1.923.874-1.967-.437-1.267-.087-.83.961.437,1.093-.655.787-4.5-.612-2.8-1.005-8.172,0-10.882.612Z" transform="translate(-96.214 -322.653)" fill="#0e538c"/>
    <path id="Path_59923" data-name="Path 59923" d="M710.843,522.175c-4.807,1.267-13.678,5.725-15.558,13.373-2.8,11.494,2.8,28.319-6.031,44.838-2.84,5.244,48.815,12.324,48.815,12.324l9.964-58.035s-12.455-12.586-14.99-13.46C727.755,519.466,720.457,519.64,710.843,522.175Z" transform="translate(-306.231 -270.667)" fill="#cce9ff"/>
    <path id="Path_59924" data-name="Path 59924" d="M810.094,553.442c1.792,4.632,6.337,32.208,1.267,38.719-.568.743,2.622,1.923,2.054,5.332-.087.568-1.049,3.321-1.049,3.321l-4.108,1.093L799.3,591.55s3.627-5.638,8.391-27.008C809.089,558.249,809.7,552.393,810.094,553.442Z" transform="translate(-368.249 -289.392)" fill="#2a94f4"/>
    <path id="Path_59925" data-name="Path 59925" d="M726.062,623.437s4.326,11.406,14.771,14.465c1.792.524,2.928,2.535,2.054,3.19-1.136.83-2.622,1.005-5.244,1.005-5.463,0-12.892-1.748-18.005-6.9-7.6-7.6-10.008-11.1-9.221-14.9C711.116,616.4,726.062,623.437,726.062,623.437Z" transform="translate(-318.129 -326.435)" fill="#fcd2b1"/>
    <path id="Path_59926" data-name="Path 59926" d="M702.151,541.717c-2.229,3.758-3.5,9.789-3.452,18.442,0,6.686,5.594,17.656,6.424,21.02.131.568.481,2.972.481,2.972l6.162,6.293,12.368-8.7-3.758-5.987-1.136.131a21.549,21.549,0,0,1-.524-4.589c.175-1.267-3.409-18.529-5.2-29.586C712.508,535.293,704.336,538,702.151,541.717Z" transform="translate(-311.611 -280.682)" fill="#2a94f4"/>
    <path id="Path_59927" data-name="Path 59927" d="M726.99,622.329l3.627-1.136,1.486-.393a2.794,2.794,0,0,0,.961,1.748l-2.841.35-3.278,1.049L723.1,626.7Z" transform="translate(-325.35 -327.382)" fill="#0e538c"/>
    <path id="Path_59928" data-name="Path 59928" d="M777.474,659.692l6.293-1.792s1.792,2.491,1.442,3.1,0,4.283,0,4.283L782.15,668l-2.491-.874s-.175-1.136.656-1.224c.874-.131-.568-.743-1.005-1.005C778.873,664.586,775.245,662.663,777.474,659.692Z" transform="translate(-355.557 -348.269)" fill="#fcd2b1"/>
    <path id="Path_59929" data-name="Path 59929" d="M755.921,507.936a4.009,4.009,0,0,0,2.36,5.069l3.584,1.311a3.812,3.812,0,0,0,4.895-2.447l3.19-9.44a4.077,4.077,0,0,0-2.36-5.113l-3.583-1.311a3.811,3.811,0,0,0-4.895,2.447Z" transform="translate(-343.705 -256.996)" fill="#ff957e"/>
    <path id="Path_59930" data-name="Path 59930" d="M771.794,513.03a2.475,2.475,0,0,1-3.059,1.792l-10.794-3.1a2.638,2.638,0,0,1-1.748-3.19l4.414-16.563a2.475,2.475,0,0,1,3.059-1.792l10.794,3.059a2.638,2.638,0,0,1,1.748,3.19Z" transform="translate(-343.934 -253.786)" fill="#fcd2b1"/>
    <path id="Path_59931" data-name="Path 59931" d="M779.128,490.1h0a5.181,5.181,0,0,1-.437-3.715,3.5,3.5,0,0,0-3.453-4.589c-1.049-.044-4.589,1.661-6.468,2.229s-1.7-.175-5.113-.787c-2.273-.437-2.8.83-3.583,2.578-.787,1.792-.874,8.609-.874,8.609.306.437.787.787,1.093.437s1.529-5.812,2.535-7.429c.961-1.617,4.895.961,7.036,2.229,2.1,1.267,3.977,1.486,7.342.787a2.832,2.832,0,0,1,.743,1.136c0,.437-.961,3.54-.961,3.54a9.323,9.323,0,0,0,2.4-2.1A3.589,3.589,0,0,0,779.128,490.1Z" transform="translate(-345.673 -249.126)" fill="#ffbe55"/>
    <path id="Path_59932" data-name="Path 59932" d="M759.046,516.479a.837.837,0,0,1-1.005.612l-2.316-.655a.856.856,0,0,1-.568-1.049l1.18-4.414a.837.837,0,0,1,1.005-.612l2.316.656a.856.856,0,0,1,.568,1.049Z" transform="translate(-343.378 -265.189)" fill="#fcd2b1"/>
    <path id="Path_59933" data-name="Path 59933" d="M757.544,514.8s-1.748,6.511-2.316,8.7c-.524,1.966-.918,6.511,9.789,9.57,6.337,1.792,7.386-3.1,7.823-4.676a15.36,15.36,0,0,0-.524-6.074c0-.044-.7,2.709-.7,2.709a5.312,5.312,0,0,0-3.627-3.846c-4.851-1.4-6.774,1.267-8.871.568C757.456,521.18,756.976,518.034,757.544,514.8Z" transform="translate(-343.318 -267.706)" fill="#ffbe55"/>
    <path id="Path_59934" data-name="Path 59934" d="M776.69,535.73l3.321.961a.787.787,0,0,0,1.005-.612l.131-.481-4.938-1.4-.131.481A.9.9,0,0,0,776.69,535.73Z" transform="translate(-355.166 -278.628)" fill="#fcd2b1"/>
    <path id="Path_59935" data-name="Path 59935" d="M770.709,660.387c-1.53,4.414-28.45,20.627-37.5,19.666l-27.226,1.355c-23.118-2.928-34.087-40.161-34.087-40.161.918-9.352,23.73,4.2,31.858,8.391,12.848,6.643,21.02,6.992,21.02,6.992,8.609.918,18.573-5.987,29.455-6.206C766.164,650.117,773.156,653.438,770.709,660.387Z" transform="translate(-296.525 -337.077)" fill="#0b4870"/>
    <g id="Group_4939" data-name="Group 4939" transform="translate(415.013 291.626)">
      <path id="Path_59936" data-name="Path 59936" d="M762.6,676.3h0v-1.224l46.8-.874v1.224l-.131.219c-.568,1.049-1.661,1.224-2.884,1.267l-40.73.787c-1.224.044-2.316-.131-2.928-1.136Z" transform="translate(-762.6 -649.072)" fill="#d3d3d3"/>
      <path id="Path_59937" data-name="Path 59937" d="M774.325,677.661h0l-.131.219a1.752,1.752,0,0,1-.656.612l-7.123.131c-1.18.044-2.229-.087-2.841-.918l-.131-.175-.044-.044v-.568l10.838-.218Z" transform="translate(-763.05 -650.479)" fill="#d3d3d3"/>
      <g id="Group_4937" data-name="Group 4937" transform="translate(17.568 25.478)">
        <path id="Path_59938" data-name="Path 59938" d="M802.844,676.267l23.38-.437V675l-23.424.481Z" transform="translate(-802.8 -675)" fill="#d3d3d3"/>
      </g>
      <g id="Group_4938" data-name="Group 4938" transform="translate(11.537)">
        <path id="Path_59939" data-name="Path 59939" d="M789,642.44l5.637-23.948a1.585,1.585,0,0,1,1.355-1.18l32.864-.612a.853.853,0,0,1,.83,1.136l-5.638,23.948Z" transform="translate(-789 -616.7)" fill="#d3d3d3"/>
      </g>
    </g>
    <path id="Path_59940" data-name="Path 59940" d="M735.32,732.371c3.234.568,5.725-3.321,5.725-3.321l8.391-6.817-1.792-4.632L731.3,725.2S732.043,731.8,735.32,732.371Z" transform="translate(-329.966 -381.879)" fill="#fcd2b1"/>
    <path id="Path_59941" data-name="Path 59941" d="M716.761,735.905a9.913,9.913,0,0,1-.612,2.185c-.612,1.792-1.4,2.4-2.185,2.666-3.146.961-5.375.481-12.892,1.967s-9.789.35-11.974-3.234.087-6.424,3.758-6.686c5.288-.393,8.26.218,11.013-.219,2.884-.437,3.059-1.136,4.763-2.229,1.573-1.005,3.059,5.026,1.573,6.424C708.851,738,715.669,738.178,716.761,735.905Z" transform="translate(-305.725 -388.997)" fill="#ffb750"/>
    <path id="Path_59942" data-name="Path 59942" d="M715.184,743.95c-3.1.962-5.375.481-12.892,1.967s-9.789.35-11.974-3.234a4.343,4.343,0,0,1-.481-4.283c-1.661,1.18-2.229,3.234-.743,5.681,2.185,3.583,4.458,4.72,11.974,3.234s9.789-1.005,12.892-1.966a2.888,2.888,0,0,0,1.748-1.617A2.662,2.662,0,0,1,715.184,743.95Z" transform="translate(-305.721 -393.589)" fill="#fff"/>
    <path id="Path_59943" data-name="Path 59943" d="M753.387,743.387V743.3c0,.044-.044.087-.087.131A.136.136,0,0,1,753.387,743.387Z" transform="translate(-342.352 -396.348)" fill="#e9d6b8"/>
    <g id="Group_4940" data-name="Group 4940" transform="translate(393.265 343.019)">
      <path id="Path_59944" data-name="Path 59944" d="M714.394,741.367c-.218.087-.437-.393-.524-1.049A18.932,18.932,0,0,0,713,736.3c-.219-.656-.219-1.224.044-1.311s.7.393.874,1.049a18.435,18.435,0,0,1,.83,3.977C714.831,740.668,714.612,741.28,714.394,741.367Z" transform="translate(-712.837 -734.681)" fill="#fff"/>
      <path id="Path_59945" data-name="Path 59945" d="M719.643,740.94c-.262.044-.481-.393-.568-1.005a16.184,16.184,0,0,0-.874-3.758c-.219-.612-.219-1.136.087-1.18.262-.044.7.437.918,1.049a18.909,18.909,0,0,1,.83,3.715C720.08,740.372,719.905,740.9,719.643,740.94Z" transform="translate(-715.77 -734.69)" fill="#fff"/>
      <path id="Path_59946" data-name="Path 59946" d="M725.012,740.462c-.262.044-.524-.437-.612-1.092a21.237,21.237,0,0,0-1.005-3.89c-.219-.655-.219-1.18.044-1.18.306,0,.743.481.961,1.136a17.69,17.69,0,0,1,.961,3.846C725.449,739.894,725.275,740.418,725.012,740.462Z" transform="translate(-718.692 -734.3)" fill="#fff"/>
    </g>
    <path id="Path_59947" data-name="Path 59947" d="M741.8,694.26s57.555-24.517,60.832-24.56c11.1-.087,8.565,11.537,2.928,17.044-6.643,6.468-57.161,18.311-57.161,18.311Z" transform="translate(-335.877 -354.911)" fill="#0e538c"/>
    <path id="Path_59948" data-name="Path 59948" d="M773.732,706.931,758,691.461l6.73-6.861,17.131,18.7Z" transform="translate(-344.998 -363.301)" fill="#fcd2b1"/>
    <path id="Path_59949" data-name="Path 59949" d="M727.8,656.434s-39.987-37.977-42.653-39.113c-9.134-3.846-14.771,6.6-14.465,10.226.437,4.676,41.036,42.7,41.036,42.7Z" transform="translate(-295.834 -324.952)" fill="#0e538c"/>
    <g id="Group_4942" data-name="Group 4942" transform="translate(425.869 336.895)">
      <path id="Path_59950" data-name="Path 59950" d="M817.228,728.2c.918.874,1.093,3.54,1.093,3.54s-13.329,5.244-18,5.332a21.915,21.915,0,0,1-5.506-1.093c-.35-.087-1.18-1.049-1.53-1.136-.655-.175-.786.437-1.311.262a16.621,16.621,0,0,1-2.491-.961c-2.841-6.206-1.879-9.265-1.879-9.265s6.118,1.836,5.069.393c-2.229-3.059,4.2-6.162,5.594-4.545C804.03,727.24,814.518,725.623,817.228,728.2Z" transform="translate(-787.441 -720.286)" fill="#ffb750"/>
      <path id="Path_59951" data-name="Path 59951" d="M819.13,741.4c-4.108,1.7-12.717,5.157-14.421,5.288-7.036.524-11.93-2.054-15.208-3.584.306.874.656,1.879,1.136,2.928a14.572,14.572,0,0,0,2.491.961c.568.175.7-.481,1.311-.262.35.087,1.136,1.049,1.53,1.136a24.1,24.1,0,0,0,5.506,1.093c4.676-.087,18.005-5.332,18.005-5.332A7.909,7.909,0,0,0,819.13,741.4Z" transform="translate(-788.6 -732.173)" fill="#fff"/>
      <g id="Group_4941" data-name="Group 4941" transform="translate(8.58 2.925)">
        <path id="Path_59952" data-name="Path 59952" d="M826.61,731.833c.131.262-.393.524-1.136.7a24.324,24.324,0,0,0-4.5,1.4c-.743.306-1.4.393-1.486.131s.393-.743,1.136-1.049a23.74,23.74,0,0,1,4.458-1.355C825.78,731.439,826.479,731.57,826.61,731.833Z" transform="translate(-814.057 -729.551)" fill="#fff"/>
        <path id="Path_59953" data-name="Path 59953" d="M819.935,729.394c.131.262-.393.612-1.136.83a24.886,24.886,0,0,0-4.37,1.792c-.7.35-1.355.481-1.442.218s.393-.83,1.093-1.18a22.826,22.826,0,0,1,4.326-1.7C819.149,729.044,819.848,729.132,819.935,729.394Z" transform="translate(-810.397 -728.205)" fill="#fff"/>
        <path id="Path_59954" data-name="Path 59954" d="M813.728,727.207c.087.262-.393.656-1.093.918a26.855,26.855,0,0,0-4.2,2.1c-.656.437-1.267.568-1.355.262-.087-.262.35-.874,1.049-1.311a24.419,24.419,0,0,1,4.152-2.054C812.985,726.9,813.641,726.945,813.728,727.207Z" transform="translate(-807.075 -726.98)" fill="#fff"/>
      </g>
    </g>
  </g>
</svg>
