<svg xmlns="http://www.w3.org/2000/svg" width="411.263" height="361.284" viewBox="0 0 411.263 361.284">
  <g id="Group_5124" data-name="Group 5124" transform="translate(-811.07 -375.259)">
    <g id="freepik--Shadow--inject-31" transform="translate(811.07 712.963)">
      <ellipse id="freepik--path--inject-31" cx="201.94" cy="11.79" rx="201.94" ry="11.79" fill="#f5f5f5"/>
    </g>
    <g id="freepik--Device--inject-31" transform="translate(858.823 390.708)">
      <rect id="Rectangle_2446" data-name="Rectangle 2446" width="171.798" height="324.474" rx="15" transform="translate(0 0)" fill="#263238"/>
      <rect id="Rectangle_2447" data-name="Rectangle 2447" width="149.583" height="260.963" transform="translate(11.113 21.632)" fill="#0068ff"/>
      <rect id="Rectangle_2448" data-name="Rectangle 2448" width="149.583" height="25.861" transform="translate(11.113 256.724)" fill="#fff" opacity="0.3"/>
      <path id="Path_60703" data-name="Path 60703" d="M260.273,219.38C222.247,257.2,151.83,327.937,110.69,369.359V373h83.582l66-65.991Z" transform="translate(-99.577 -90.367)" fill="#fff" opacity="0.1"/>
      <path id="Path_60704" data-name="Path 60704" d="M110.69,247.511,241.921,116.28H180.555c-16.248,16.123-44,43.931-69.865,69.886Z" transform="translate(-99.577 -94.648)" fill="#fff" opacity="0.1"/>
      <path id="Path_60705" data-name="Path 60705" d="M110.69,302.189,260.273,152.606V120.6L110.69,270.172Z" transform="translate(-99.577 -94.468)" fill="#fff" opacity="0.1"/>
      <rect id="Rectangle_2449" data-name="Rectangle 2449" width="149.583" height="11.769" transform="translate(11.113 21.632)" opacity="0.2"/>
      <circle id="Ellipse_836" data-name="Ellipse 836" cx="10.196" cy="10.196" r="10.196" transform="translate(74.223 292.064) rotate(-9.22)" fill="#0068ff"/>
      <g id="Group_5019" data-name="Group 5019" transform="translate(16.227 24.174)" opacity="0.6">
        <rect id="Rectangle_2450" data-name="Rectangle 2450" width="2.26" height="3.02" transform="translate(13.321 6.041) rotate(180)" fill="#fff" opacity="0.6"/>
        <rect id="Rectangle_2451" data-name="Rectangle 2451" width="2.26" height="4.02" transform="translate(9.634 6.041) rotate(180)" fill="#fff" opacity="0.6"/>
        <rect id="Rectangle_2452" data-name="Rectangle 2452" width="2.26" height="5.031" transform="translate(5.947 6.041) rotate(180)" fill="#fff" opacity="0.6"/>
        <rect id="Rectangle_2453" data-name="Rectangle 2453" width="2.26" height="6.041" transform="translate(2.26 6.041) rotate(180)" fill="#fff" opacity="0.6"/>
      </g>
      <rect id="Rectangle_2454" data-name="Rectangle 2454" width="1.344" height="3.02" transform="translate(143.479 26.09)" fill="#fff" opacity="0.6"/>
      <rect id="Rectangle_2455" data-name="Rectangle 2455" width="10.696" height="5.218" transform="translate(156.446 30.214) rotate(180)" fill="#fff" opacity="0.6"/>
      <path id="Path_60706" data-name="Path 60706" d="M190.309,266.047c-3.427-3.125-7.447,1.042-7.447,1.042s-4.01-4.166-7.447-1.094c-4.9,4.385,2.218,12.227,7.447,13.8C188.091,278.264,195.2,270.422,190.309,266.047Z" transform="translate(-96.958 -88.479)" fill="#fff" opacity="0.4"/>
      <path id="Path_60707" data-name="Path 60707" d="M227.435,287H141.759a9.769,9.769,0,1,0,0,19.539h85.675a9.769,9.769,0,1,0,0-19.539Z" transform="translate(-98.693 -87.56)" fill="#fff"/>
      <path id="Path_60708" data-name="Path 60708" d="M155.37,301.783V291.42h3.781a5.562,5.562,0,0,1,2.208.417,4.394,4.394,0,0,1,2.531,2.75,6.489,6.489,0,0,1,0,4.166,4.54,4.54,0,0,1-1.042,1.635,4.78,4.78,0,0,1-1.594,1.042,5.593,5.593,0,0,1-2.083.375Zm6.78-5.208a4.738,4.738,0,0,0-.2-1.364,3.03,3.03,0,0,0-.594-1.042,2.634,2.634,0,0,0-.969-.7,3.124,3.124,0,0,0-1.291-.25h-1.739v6.822h1.791a3.125,3.125,0,0,0,1.312-.26,2.73,2.73,0,0,0,.948-.719,3.262,3.262,0,0,0,.594-1.094,4.678,4.678,0,0,0,.146-1.385Z" transform="translate(-97.722 -87.376)" fill="#e0e0e0"/>
      <path id="Path_60709" data-name="Path 60709" d="M169.711,301.858a4.7,4.7,0,0,1-2.083-.448,4.936,4.936,0,0,1-1.573-1.187,5.479,5.479,0,0,1-1.385-3.614,5.208,5.208,0,0,1,.385-1.989,5.375,5.375,0,0,1,1.042-1.677,4.979,4.979,0,0,1,1.6-1.156,4.613,4.613,0,0,1,2.01-.427,4.4,4.4,0,0,1,2.031.458,5.081,5.081,0,0,1,1.6,1.25,5.478,5.478,0,0,1,1.042,1.7,5.135,5.135,0,0,1,.365,1.916,5.27,5.27,0,0,1-.375,1.979,5.415,5.415,0,0,1-1.041,1.666,4.8,4.8,0,0,1-1.594,1.146,4.616,4.616,0,0,1-2.031.385Zm-2.979-5.208a4.168,4.168,0,0,0,.208,1.291,3.666,3.666,0,0,0,.583,1.115,3.21,3.21,0,0,0,.937.771,2.781,2.781,0,0,0,1.271.292,2.707,2.707,0,0,0,1.281-.3,2.969,2.969,0,0,0,.937-.792,3.644,3.644,0,0,0,.573-1.114,4.03,4.03,0,0,0,.2-1.26,4.166,4.166,0,0,0-.208-1.3,3.467,3.467,0,0,0-.594-1.114,2.791,2.791,0,0,0-.937-.76,2.958,2.958,0,0,0-2.541,0,3.009,3.009,0,0,0-.937.792,3.71,3.71,0,0,0-.573,1.1,4.376,4.376,0,0,0-.2,1.24Z" transform="translate(-97.336 -87.379)" fill="#e0e0e0"/>
      <path id="Path_60710" data-name="Path 60710" d="M177.8,295.149v6.634h-2V291.42h1.552l5.343,6.8v-6.78h2v10.342H183.08Z" transform="translate(-96.874 -87.376)" fill="#e0e0e0"/>
      <path id="Path_60711" data-name="Path 60711" d="M189.359,291.42h1.76l3.906,10.363h-2.083l-.958-2.583H188.4l-.937,2.583H185.38Zm2.3,6.364-1.417-4.072-1.479,4.072Z" transform="translate(-96.476 -87.376)" fill="#e0e0e0"/>
      <path id="Path_60712" data-name="Path 60712" d="M202.459,293.191h-3.25v8.592h-1.979v-8.592H193.95V291.42h8.54Z" transform="translate(-96.12 -87.376)" fill="#e0e0e0"/>
      <path id="Path_60713" data-name="Path 60713" d="M210.474,300.013v1.771H203.34V291.42h7v1.771h-5v2.489h4.322v1.635H205.34v2.7Z" transform="translate(-95.73 -87.376)" fill="#e0e0e0"/>
      <path id="Path_60714" data-name="Path 60714" d="M266.231,184.39l-31.381,4.468,8.2,58.3,23.184-2.354Z" transform="translate(-94.422 -91.82)" fill="#263238" opacity="0.3"/>
      <circle id="Ellipse_837" data-name="Ellipse 837" cx="57.763" cy="57.763" r="57.763" transform="translate(29.59 49.982)" fill="#fff" opacity="0.7"/>
      <path id="Path_60715" data-name="Path 60715" d="M204.156,165.186s11.8,17.456,18.424,18.164,32.537-21.58,32.537-21.58l4.4,3.8s-24.653,27.079-34.943,28.663-29.85-18.81-29.85-18.81Z" transform="translate(-96.088 -92.759)" fill="#e4897b"/>
      <path id="Path_60716" data-name="Path 60716" d="M201.146,166.347s4.166-4.083,9.894,3.01,8.082,8.54,8.082,8.54l-14.581,14.238S195.97,170.138,201.146,166.347Z" transform="translate(-95.89 -92.618)" fill="#0068ff"/>
      <path id="Path_60717" data-name="Path 60717" d="M250.782,160.5s.51-6.551,2.031-6.968.979,4.426.979,4.426,8.02-4.9,9.634-4.458,1.354,3.6,1.042,4.458c-2.448,7.291-11.2,10.311-11.2,10.311l-3.531-3.333Z" transform="translate(-93.804 -93.104)" fill="#e4897b"/>
      <path id="Path_60718" data-name="Path 60718" d="M193.382,148.41s8.051,13.415,5.583,21.872-15.164.854-15.164.854l.156-16.664Z" transform="translate(-96.542 -93.314)" fill="#263238"/>
      <path id="Path_60719" data-name="Path 60719" d="M172.6,126.21s-11.9,6.03-7.228,27.246c7.832,35.568,19.393,20.83,19.393,20.83s-.51-14.019-5.208-20.83-3.718-16.529-3.718-16.529Z" transform="translate(-97.352 -94.235)" fill="#263238"/>
      <path id="Path_60720" data-name="Path 60720" d="M207.312,218.591l-35.693,3.124a126.465,126.465,0,0,0-3.8-26.215c-.854-3.416-1.916-7.239-3.291-11.644-.74-2.364-1.552-4.9-2.458-7.614-.677-2.083-1.416-4.26-2.229-6.582a106.619,106.619,0,0,1,14.821-3.593,111.547,111.547,0,0,1,16.019-1.687c6.947-.062,14.925.719,14.925.719s1.135.271,1.854,7.634C208.1,179.607,208.739,193.449,207.312,218.591Z" transform="translate(-97.536 -92.651)" fill="#0068ff"/>
      <path id="Path_60721" data-name="Path 60721" d="M207.312,218.591l-35.693,3.124a126.465,126.465,0,0,0-3.8-26.215c-.854-3.416-1.916-7.239-3.291-11.644-.74-2.364-1.552-4.9-2.458-7.614-.677-2.083-1.416-4.26-2.229-6.582a106.619,106.619,0,0,1,14.821-3.593,111.547,111.547,0,0,1,16.019-1.687c6.947-.062,14.925.719,14.925.719s1.135.271,1.854,7.634C208.1,179.607,208.739,193.449,207.312,218.591Z" transform="translate(-97.536 -92.651)" fill="#fff" opacity="0.2"/>
      <path id="Path_60722" data-name="Path 60722" d="M171.017,217.277c5.718-2.229,24.569-11.457,24.569-11.457l-25,5.645C170.7,213.361,170.861,215.277,171.017,217.277Z" transform="translate(-97.09 -90.93)" opacity="0.2"/>
      <path id="Path_60723" data-name="Path 60723" d="M187.087,172.688c-8.8-1.125-11.457-4.874-11.457-4.874,5.583-5.27.948-14.394.948-14.394L187.16,155.4a31.155,31.155,0,0,0-.406,4.458c-.083,6.426,2.822,6.489,2.822,6.489C191.44,169.824,187.087,172.688,187.087,172.688Z" transform="translate(-96.881 -93.106)" fill="#e4897b"/>
      <path id="Path_60724" data-name="Path 60724" d="M187.132,155.4a31.148,31.148,0,0,0-.406,4.458c-7.155,0-10.176-6.437-10.176-6.437Z" transform="translate(-96.843 -93.106)" opacity="0.2"/>
      <path id="Path_60725" data-name="Path 60725" d="M182.647,126.862c9.207-.51,11.29,3.906,12.5,13.352,1.5,11.811-.625,20.757-12.269,18.862-12.779-2.083-16.362-22.32-8.676-30.058C176,127.184,179.72,127.007,182.647,126.862Z" transform="translate(-97.107 -94.21)" fill="#e4897b"/>
      <path id="Path_60726" data-name="Path 60726" d="M188.44,140.83a19.414,19.414,0,0,0,2.885,3.666,2.521,2.521,0,0,1-2.364,1.177Z" transform="translate(-96.349 -93.628)" fill="#de5753"/>
      <path id="Path_60727" data-name="Path 60727" d="M183.144,139.846a2.01,2.01,0,0,0,.9-.906l-1.594.771h0a1.3,1.3,0,0,0-.625,1.364c.052.76.51,1.333,1.042,1.3s.864-.687.812-1.437A1.593,1.593,0,0,0,183.144,139.846Z" transform="translate(-96.625 -93.707)" fill="#263238"/>
      <path id="Path_60728" data-name="Path 60728" d="M191.724,139.036a2.011,2.011,0,0,0,.9-.906l-1.583.771h0a1.333,1.333,0,0,0-.635,1.375c.062.76.521,1.333,1.042,1.292s.864-.677.8-1.437a1.51,1.51,0,0,0-.521-1.094Z" transform="translate(-96.268 -93.741)" fill="#263238"/>
      <path id="Path_60729" data-name="Path 60729" d="M183.236,135.73a4.822,4.822,0,0,0-3.916,1.614" transform="translate(-96.728 -93.841)" fill="none" stroke="#263238" stroke-linecap="round" stroke-linejoin="round" stroke-width="0.707"/>
      <path id="Path_60730" data-name="Path 60730" d="M188.45,135.392a4.322,4.322,0,0,1,3.749-.24" transform="translate(-96.349 -93.877)" fill="none" stroke="#263238" stroke-linecap="round" stroke-linejoin="round" stroke-width="0.707"/>
      <path id="Path_60731" data-name="Path 60731" d="M167.81,168.332s10.332,8.384,19.945,8.249,13-10.946,13-10.946S185.839,161.218,167.81,168.332Z" transform="translate(-97.206 -92.655)" fill="#e4897b"/>
      <path id="Path_60732" data-name="Path 60732" d="M153.335,188.27s-3.25,19.164-2.864,24.621,8.634,5.624,13.279,5.072c5.343-.635,33.2-11.655,33.2-11.655l-1.291-5.51s-21.809,5.937-31.1,6.978a2.864,2.864,0,0,1-3.125-3.27l2.156-14.227Z" transform="translate(-97.927 -91.659)" fill="#e4897b"/>
      <path id="Path_60733" data-name="Path 60733" d="M160.227,169.412s5.7-1.26,6.8,7.791a33.037,33.037,0,0,1-2.083,16.175l-14.435-2.6S153.832,169.881,160.227,169.412Z" transform="translate(-97.924 -92.444)" fill="#0068ff"/>
      <path id="Path_60734" data-name="Path 60734" d="M201.024,195.01a1.781,1.781,0,0,0-1.187-.24c-1.708.437-6.895,5.572-7.2,6.249l1.333,4.864s2.729,1.458,4.051,1.042,8.03-5.353,8.04-6.541a.84.84,0,0,0,0-.2c.24-.177.437-.323.573-.406C207.773,199.072,203.576,195.937,201.024,195.01Z" transform="translate(-96.175 -91.39)" fill="#e4897b"/>
      <path id="Path_60735" data-name="Path 60735" d="M182.155,126.89s1.177,11.54-8.447,11.957-1.583-10.342-1.583-10.342Z" transform="translate(-97.157 -94.207)" fill="#263238"/>
      <path id="Path_60736" data-name="Path 60736" d="M180.136,123.47c-15.821.5-14.508,23.642-5.958,30.1,0,0-4.166-5.6-1.75-10.478,0,0,3.125-7.541,2.083-13.342a25.5,25.5,0,0,1,7.7-1.989c1.781,2.166,6.249,8.749,12.1,8.613a21.537,21.537,0,0,1,.781,3.125S195.978,122.981,180.136,123.47Z" transform="translate(-97.2 -94.35)" fill="#263238"/>
      <path id="Path_60737" data-name="Path 60737" d="M190.977,149.757h0a6.426,6.426,0,0,1-5.832.1.219.219,0,0,1-.083-.3.2.2,0,0,1,.281-.083h0a6.01,6.01,0,0,0,5.416-.115.219.219,0,0,1,.292.083h0a.208.208,0,0,1-.083.281Z" transform="translate(-96.491 -93.275)" fill="#263238"/>
      <path id="Path_60738" data-name="Path 60738" d="M174.067,144.239a4.041,4.041,0,0,0-4.551-3.447c-2.833.458-3.874,6.395,3.3,7.416C173.838,148.353,174.359,147.322,174.067,144.239Z" transform="translate(-97.224 -93.632)" fill="#e4897b"/>
      <path id="Path_60739" data-name="Path 60739" d="M172.77,184.564l9.582-1.354s3.125,10.217-2.562,11.311C173.572,195.729,172.77,184.564,172.77,184.564Z" transform="translate(-97 -91.869)" fill="#0068ff"/>
      <path id="Path_60740" data-name="Path 60740" d="M209.193,238.239c-.479-4.729-1.229-11.165-2.187-16.227l.094-5.583-35.693,3.125-.323,5.208c-.833,1.541-4.479,9.176-6.124,27.85a57.8,57.8,0,0,0,45.827-2.77Z" transform="translate(-97.324 -90.49)" fill="#263238"/>
    </g>
    <g id="freepik--Character--inject-31" transform="translate(1008.419 407.903)">
      <path id="Path_60741" data-name="Path 60741" d="M295.6,220.82l-18.154,4.6a6.937,6.937,0,0,0-4.7-.958c-2.573.479-9.009,5.739-8.759,6.509s8.009,4.343,9.124,4.052c4-1.042,8.124-5.7,8.124-5.7l16.227-3.343Z" transform="translate(-242.808 -107.503)" fill="#e4897b"/>
      <path id="Path_60742" data-name="Path 60742" d="M338.7,158.966c-3.687,3.927-13.456,3.593-13.456,3.593s-3.218.281-4.02-2.448c3.531-.875,4.072-3.416,4.624-5.614a10.489,10.489,0,0,0,0-4.114,19.155,19.155,0,0,0-.479-2.271l11.342-9.863C335.655,144.239,334.531,155.008,338.7,158.966Z" transform="translate(-240.432 -110.931)" fill="#e4897b"/>
      <path id="Path_60743" data-name="Path 60743" d="M334.251,143.9c.094,7.291-5.687,9.728-8.561,10.363a10.485,10.485,0,0,0,0-4.114Z" transform="translate(-240.246 -110.696)" opacity="0.2"/>
      <path id="Path_60744" data-name="Path 60744" d="M335.69,146.509a10.228,10.228,0,0,1-11.4,4.885,11.343,11.343,0,0,1-6.905-4.77,9.364,9.364,0,0,1-.625-1.042c-3.489-6.645-5.374-18.591,1.542-23.674a11.092,11.092,0,0,1,17.591,7.009C337.387,136.885,338.658,141.5,335.69,146.509Z" transform="translate(-240.748 -111.701)" fill="#e4897b"/>
      <path id="Path_60745" data-name="Path 60745" d="M323.692,134.089a1.041,1.041,0,0,1-.469,1.354c-.417.1-.885-.333-1.042-.969s.052-1.25.469-1.354S323.526,133.444,323.692,134.089Z" transform="translate(-240.394 -111.145)" fill="#263238"/>
      <path id="Path_60746" data-name="Path 60746" d="M316.942,135.509c.208.625-.052,1.25-.458,1.354s-.9-.333-1.042-.969.052-1.25.469-1.354S316.786,134.905,316.942,135.509Z" transform="translate(-240.674 -111.086)" fill="#263238"/>
      <path id="Path_60747" data-name="Path 60747" d="M319.369,135.66a22.331,22.331,0,0,1-1.469,6.1c1.042.417,2.5-.24,3.489-.781Z" transform="translate(-240.57 -111.038)" fill="#de5753"/>
      <path id="Path_60748" data-name="Path 60748" d="M325.776,130.832a.4.4,0,0,1-.4-.062,3.124,3.124,0,0,0-2.729-.646.385.385,0,1,1-.24-.729h0a3.906,3.906,0,0,1,3.447.771.385.385,0,0,1,.073.542h0A.6.6,0,0,1,325.776,130.832Z" transform="translate(-240.395 -111.304)" fill="#263238"/>
      <path id="Path_60749" data-name="Path 60749" d="M322.689,143.931h0a6.031,6.031,0,0,0,4.593-3,.2.2,0,0,0-.094-.271.187.187,0,0,0-.26.083h0a5.686,5.686,0,0,1-4.281,2.76.2.2,0,0,0-.187.219h0a.2.2,0,0,0,.219.177Z" transform="translate(-240.381 -110.832)" fill="#263238"/>
      <path id="Path_60750" data-name="Path 60750" d="M313.5,133.808a.323.323,0,0,1-.219.073.375.375,0,0,1-.3-.448h0a3.874,3.874,0,0,1,2.166-2.8.385.385,0,0,1,.5.219h0a.385.385,0,0,1-.219.5h0a3.124,3.124,0,0,0-1.677,2.25A.407.407,0,0,1,313.5,133.808Z" transform="translate(-240.775 -111.248)" fill="#263238"/>
      <path id="Path_60751" data-name="Path 60751" d="M340.142,134.074a7.78,7.78,0,0,1-3.333,4.874c-2.281,1.458-4.166-.385-4.249-2.947,0-2.281,1.125-5.864,3.739-6.249S340.621,131.616,340.142,134.074Z" transform="translate(-239.961 -111.286)" fill="#e4897b"/>
      <path id="Path_60752" data-name="Path 60752" d="M307.03,164.095a31.131,31.131,0,0,0-8.332,13.54c-1.958,6.249-3.791,20.966-4.687,28.954a7.228,7.228,0,0,1-5.947,6.249L266.13,216.66l1.75,11.155,27.788-2.677A13.883,13.883,0,0,0,307.957,214c1.7-8.592,3.968-21.049,5-30.912C314.706,166.334,312.863,162.366,307.03,164.095Z" transform="translate(-242.719 -109.873)" fill="#0068ff"/>
      <path id="Path_60753" data-name="Path 60753" d="M307.03,164.095a31.131,31.131,0,0,0-8.332,13.54c-1.958,6.249-3.791,20.966-4.687,28.954a7.228,7.228,0,0,1-5.947,6.249L266.13,216.66l1.75,11.155,27.788-2.677A13.883,13.883,0,0,0,307.957,214c1.7-8.592,3.968-21.049,5-30.912C314.706,166.334,312.863,162.366,307.03,164.095Z" transform="translate(-242.719 -109.873)" opacity="0.1"/>
      <path id="Path_60754" data-name="Path 60754" d="M290.939,402.886l-8.249-2.031,4.7-17.675,8.249,2.031Z" transform="translate(-242.032 -100.762)" fill="#e4897b"/>
      <path id="Path_60755" data-name="Path 60755" d="M283.436,397.415l9.374,3.375a.708.708,0,0,1,.458.771l-.948,7.405a1.219,1.219,0,0,1-1.364,1.042,1.044,1.044,0,0,1-.26-.073c-3.01-1.135-5.145-2.083-8.947-3.489-2.343-.854-9.5-3.125-12.727-4.322s-2.5-4.51-1.042-4.333c6.405.854,11.519.677,14.029-.344a1.968,1.968,0,0,1,1.427-.031Z" transform="translate(-242.694 -100.176)" fill="#2e353a"/>
      <path id="Path_60756" data-name="Path 60756" d="M279.909,397.917a2.375,2.375,0,0,1-1.333-.927,1.125,1.125,0,0,1,0-1.114.583.583,0,0,1,.5-.4c1.041-.135,2.947,2.291,3.125,2.573a.167.167,0,0,1,0,.208.177.177,0,0,1-.187.1A9.9,9.9,0,0,1,279.909,397.917Zm-.573-2.01a.5.5,0,0,0-.25,0,.228.228,0,0,0-.2.167.823.823,0,0,0,0,.75,4.021,4.021,0,0,0,2.7,1.125A8.029,8.029,0,0,0,279.336,395.907Z" transform="translate(-242.209 -100.252)" fill="#0068ff"/>
      <path id="Path_60757" data-name="Path 60757" d="M281.893,398.4H281.8c-.635-.719-1.562-2.968-1.114-3.718a.635.635,0,0,1,.76-.271,1.041,1.041,0,0,1,.7.51c.625,1.041,0,3.333,0,3.447a.177.177,0,0,1-.146.125A.166.166,0,0,1,281.893,398.4Zm-.427-3.677h-.083c-.24-.083-.3.052-.333.094-.281.469.24,2.083.812,2.989a4.551,4.551,0,0,0,0-2.739A.656.656,0,0,0,281.466,394.724Z" transform="translate(-242.12 -100.297)" fill="#0068ff"/>
      <path id="Path_60758" data-name="Path 60758" d="M295.545,385.211,287.3,383.18,284.88,392.3l8.249,2.021Z" transform="translate(-241.941 -100.762)" opacity="0.2"/>
      <path id="Path_60759" data-name="Path 60759" d="M343.459,402.745l-8.436,1-1.823-18.2,8.436-1Z" transform="translate(-239.935 -100.705)" fill="#e4897b"/>
      <path id="Path_60760" data-name="Path 60760" d="M334.663,400.4l9.946-.135a.729.729,0,0,1,.708.562l1.708,7.291a1.219,1.219,0,0,1-.917,1.448,1.129,1.129,0,0,1-.271,0c-3.218,0-5.562-.177-9.6-.125-2.489,0-9.988.385-13.425.437s-3.937-3.354-2.531-3.677c6.249-1.458,11.019-3.427,13.019-5.27A1.938,1.938,0,0,1,334.663,400.4Z" transform="translate(-240.502 -100.053)" fill="#2e353a"/>
      <path id="Path_60761" data-name="Path 60761" d="M331.56,401.883a2.426,2.426,0,0,1-1.583-.4,1.135,1.135,0,0,1-.417-1.042.583.583,0,0,1,.323-.552c.906-.479,3.572,1.114,3.864,1.291a.177.177,0,0,1,.094.187.187.187,0,0,1-.146.167A9.3,9.3,0,0,1,331.56,401.883Zm-1.239-1.677a.407.407,0,0,0-.25.052c-.052,0-.114.073-.125.229a.813.813,0,0,0,.271.7,3.979,3.979,0,0,0,2.916.1A7.854,7.854,0,0,0,330.321,400.206Z" transform="translate(-240.086 -100.072)" fill="#0068ff"/>
      <path id="Path_60762" data-name="Path 60762" d="M333.578,401.646h-.094c-.844-.448-2.5-2.229-2.343-3.125a.625.625,0,0,1,.615-.521,1.042,1.042,0,0,1,.823.24c.958.76,1.187,3.125,1.2,3.218a.2.2,0,0,1-.094.177Zm-1.687-3.3H331.8c-.25,0-.271.146-.271.2-.1.531.958,1.885,1.812,2.51A4.583,4.583,0,0,0,332.3,398.5.593.593,0,0,0,331.89,398.344Z" transform="translate(-240.021 -100.147)" fill="#0068ff"/>
      <path id="Path_60763" data-name="Path 60763" d="M341.636,384.55l-8.436,1,.948,9.384,8.436-1Z" transform="translate(-239.935 -100.705)" opacity="0.2"/>
      <path id="Path_60764" data-name="Path 60764" d="M306.255,242.539S285.029,346.315,284.3,386.164l14.144,6.322s11.519-45.025,15.258-70.323c0,0,9.915-20.091,12.581-36.453,0,0-.552,71.865,6.895,109.786l13.269-1.042S359.831,259.64,357.414,238.06Z" transform="translate(-241.965 -106.787)" fill="#0068ff"/>
      <path id="Path_60765" data-name="Path 60765" d="M306.255,242.539S285.029,346.315,284.3,386.164l14.144,6.322s11.519-45.025,15.258-70.323c0,0,9.915-20.091,12.581-36.453,0,0-.552,71.865,6.895,109.786l13.269-1.042S359.831,259.64,357.414,238.06Z" transform="translate(-241.965 -106.787)" fill="#fff" opacity="0.6"/>
      <path id="Path_60766" data-name="Path 60766" d="M322.421,258.66s-1.573,24.674.667,33.735c.677-2.552,1.239-5.093,1.635-7.551Z" transform="translate(-240.405 -105.932)" opacity="0.2"/>
      <path id="Path_60767" data-name="Path 60767" d="M329.661,392.419l18.216-2.708-.562-5.041-18.935,2.479Z" transform="translate(-240.135 -100.7)" fill="#0068ff"/>
      <path id="Path_60768" data-name="Path 60768" d="M282,384.2l17.591,5.416,1.677-4.781-18.154-5.947Z" transform="translate(-242.06 -100.94)" fill="#0068ff"/>
      <path id="Path_60769" data-name="Path 60769" d="M305.641,164.314s2.25-4.447,22.018-5.593,28.6,1.781,28.6,1.781-1.791,41.848.5,80.874c0,0-33.058,11.78-51.159,4.468C305.62,245.844,292.059,195.3,305.641,164.314Z" transform="translate(-241.33 -110.092)" fill="#0068ff"/>
      <path id="Path_60770" data-name="Path 60770" d="M333.792,158.47c-2.187,0-4.541.1-7.082.25-1.531.094-2.937.2-4.26.323,0,0,1.687,3.2,4.26,3.2A8.488,8.488,0,0,0,333.792,158.47Z" transform="translate(-240.381 -110.091)" opacity="0.2"/>
      <path id="Path_60771" data-name="Path 60771" d="M354.71,210.68,324.61,225.9s18.976.583,30.319-5.572Q354.793,215.44,354.71,210.68Z" transform="translate(-240.291 -107.924)" opacity="0.3"/>
      <path id="Path_60772" data-name="Path 60772" d="M326.17,169.96l10.7,47.587-2.375,6.155Z" transform="translate(-240.227 -109.614)" opacity="0.1"/>
      <rect id="Rectangle_2456" data-name="Rectangle 2456" width="56.972" height="54.448" transform="translate(29.697 70.212) rotate(-8.616)" fill="#0068ff"/>
      <rect id="Rectangle_2457" data-name="Rectangle 2457" width="56.972" height="54.448" transform="translate(29.697 70.212) rotate(-8.616)" fill="#fff" opacity="0.1"/>
      <rect id="Rectangle_2458" data-name="Rectangle 2458" width="44.098" height="54.378" transform="translate(0 73.638) rotate(-8.8)" fill="#0068ff"/>
      <rect id="Rectangle_2459" data-name="Rectangle 2459" width="44.098" height="54.378" transform="translate(0 73.638) rotate(-8.8)" fill="#fff" opacity="0.3"/>
      <rect id="Rectangle_2460" data-name="Rectangle 2460" width="12.477" height="14.644" transform="translate(15.632 71.212) rotate(-8.8)" fill="#fff" opacity="0.3"/>
      <rect id="Rectangle_2461" data-name="Rectangle 2461" width="12.477" height="14.644" transform="translate(61.642 64.101) rotate(-8.8)" opacity="0.1"/>
      <rect id="Rectangle_2462" data-name="Rectangle 2462" width="13.633" height="8.301" transform="translate(33.972 111.976) rotate(-8.8)" fill="#fff" opacity="0.2"/>
      <path id="Path_60773" data-name="Path 60773" d="M309.655,224.953l-1.385-1.833-4.468.958a6.323,6.323,0,0,0-.271,2.354l6.249-.958Z" transform="translate(-241.167 -107.407)" fill="#2e353a" opacity="0.2"/>
      <path id="Path_60781" data-name="Path 60781" d="M335.494,214.58l-18.2,4.437a6.978,6.978,0,0,0-4.7-1.042c-2.562.458-9.051,5.655-8.811,6.426s6.249,5.478,7.364,5.135,8.124-5.3,8.124-5.3l17.331-1.448Z" transform="translate(-241.156 -107.762)" fill="#e4897b"/>
      <path id="Path_60782" data-name="Path 60782" d="M354.141,160.361s-7.645,2.031-6.562,16.216c.479,6.166.719,12.748.844,18.227A19.32,19.32,0,0,1,337.7,212.509l-14.935,6.1,1.927,9.374s21.705-1.989,29.34-8.093,10.29-19.133,9.051-29.933C361.348,174.963,361.921,159.757,354.141,160.361Z" transform="translate(-240.368 -110.014)" fill="#0068ff"/>
      <path id="Path_60783" data-name="Path 60783" d="M354.141,160.361s-7.645,2.031-6.562,16.216c.479,6.166.719,12.748.844,18.227A19.32,19.32,0,0,1,337.7,212.509l-14.935,6.1,1.927,9.374s21.705-1.989,29.34-8.093,10.29-19.133,9.051-29.933C361.348,174.963,361.921,159.757,354.141,160.361Z" transform="translate(-240.368 -110.014)" opacity="0.1"/>
      <path id="Path_60784" data-name="Path 60784" d="M324.284,214.01l1.271,13.04-3.51.333-1.864-12.207Z" transform="translate(-240.475 -107.786)" fill="#0068ff"/>
      <path id="Path_60785" data-name="Path 60785" d="M324.284,214.01l1.271,13.04-3.51.333-1.864-12.207Z" transform="translate(-240.475 -107.786)" fill="#fff" opacity="0.6"/>
      <rect id="Rectangle_2463" data-name="Rectangle 2463" width="12.155" height="1.937" transform="translate(90.061 71.495) rotate(-5.11)" fill="#fff" opacity="0.4"/>
      <path id="Path_60786" data-name="Path 60786" d="M326.54,158.848l3.916,5.208,8.259-5.447v-.5a2.771,2.771,0,0,0-1.042-2.291,2.854,2.854,0,0,0-2.656-.177Z" transform="translate(-240.211 -110.219)" fill="#0068ff"/>
      <path id="Path_60787" data-name="Path 60787" d="M321.25,159.209l.969-1.6c1.219-1.437,2.187-.7,2.187-.7l2.354,1.885L323.323,164Z" transform="translate(-240.431 -110.164)" fill="#0068ff"/>
      <path id="Path_60788" data-name="Path 60788" d="M326.54,158.848l3.916,5.208,8.259-5.447v-.5a2.771,2.771,0,0,0-1.042-2.291,2.854,2.854,0,0,0-2.656-.177Z" transform="translate(-240.211 -110.219)" fill="#fff" opacity="0.6"/>
      <path id="Path_60789" data-name="Path 60789" d="M321.25,159.209l.969-1.6c1.219-1.437,2.187-.7,2.187-.7l2.354,1.885L323.323,164Z" transform="translate(-240.431 -110.164)" fill="#fff" opacity="0.6"/>
      <path id="Path_60790" data-name="Path 60790" d="M340.786,134.6c.552-3.562-1.916-4.051-3.541-3.624s-3.385,3.01-3.385,3.01c-1.583-2.562-2.479-9.051-2.479-9.051a14.852,14.852,0,0,1-13.238.562,10.53,10.53,0,0,1-4.3,5.281s-2.937-1.344-1.3-8.093c1.854-7.676,13.384-15.1,25-7.447s4.583,21.872,4.583,21.872-2.635,4.656-4.968,6.405a14.713,14.713,0,0,0,0-4.166,6.405,6.405,0,0,0,3.635-4.749Z" transform="translate(-240.813 -112.02)" fill="#2e353a"/>
      <path id="Path_60791" data-name="Path 60791" d="M316.615,123.13a12.071,12.071,0,0,0,2.312,2.166,13.332,13.332,0,0,0,2.833,1.541,11.81,11.81,0,0,0,3.125.76,13.4,13.4,0,0,0,3.291-.094,13.538,13.538,0,0,1-3.3.354,12.029,12.029,0,0,1-3.322-.531,13.081,13.081,0,0,1-3.125-1.385,12.853,12.853,0,0,1-2.7-2.156Z" transform="translate(-240.66 -111.559)" fill="#2e353a"/>
    </g>
    <g id="freepik--Love--inject-31" transform="translate(815.622 375.259)">
      <path id="Path_60792" data-name="Path 60792" d="M446.789,179.751c-8.436-7.541-18.289,2.687-18.289,2.687s-9.863-10.228-18.289-2.687c-12.019,10.759,5.458,30.027,18.289,33.881C441.331,209.778,458.808,190.541,446.789,179.751Z" transform="translate(-44.108 -76.679)" fill="#0068ff"/>
      <path id="Path_60793" data-name="Path 60793" d="M446.789,179.751c-8.436-7.541-18.289,2.687-18.289,2.687s-9.863-10.228-18.289-2.687c-12.019,10.759,5.458,30.027,18.289,33.881C441.331,209.778,458.808,190.541,446.789,179.751Z" transform="translate(-44.108 -76.679)" fill="#fff" opacity="0.6"/>
      <path id="Path_60794" data-name="Path 60794" d="M283.289,83.451C274.852,75.91,265,86.138,265,86.138s-9.863-10.228-18.289-2.687C234.692,94.2,252.168,113.467,265,117.331,277.831,113.467,295.308,94.2,283.289,83.451Z" transform="translate(-50.896 -80.678)" fill="#0068ff"/>
      <path id="Path_60795" data-name="Path 60795" d="M283.289,83.451C274.852,75.91,265,86.138,265,86.138s-9.863-10.228-18.289-2.687C234.692,94.2,252.168,113.467,265,117.331,277.831,113.467,295.308,94.2,283.289,83.451Z" transform="translate(-50.896 -80.678)" fill="#fff" opacity="0.6"/>
      <path id="Path_60796" data-name="Path 60796" d="M377.5,113.446c-3.447-3.125-7.478,1.1-7.478,1.1s-4.02-4.166-7.468-1.1c-4.916,4.4,2.229,12.269,7.468,13.852C375.273,125.715,382.407,117.841,377.5,113.446Z" transform="translate(-45.988 -79.365)" fill="#0068ff"/>
      <path id="Path_60797" data-name="Path 60797" d="M377.5,113.446c-3.447-3.125-7.478,1.1-7.478,1.1s-4.02-4.166-7.468-1.1c-4.916,4.4,2.229,12.269,7.468,13.852C375.273,125.715,382.407,117.841,377.5,113.446Z" transform="translate(-45.988 -79.365)" fill="#fff" opacity="0.6"/>
      <path id="Path_60798" data-name="Path 60798" d="M75.131,192.906c-3.447-3.125-7.468,1.1-7.468,1.1s-4.031-4.166-7.478-1.1c-4.906,4.4,2.229,12.269,7.478,13.842C72.9,205.175,80.047,197.3,75.131,192.906Z" transform="translate(-58.541 -76.066)" fill="#0068ff"/>
      <path id="Path_60799" data-name="Path 60799" d="M75.131,192.906c-3.447-3.125-7.468,1.1-7.468,1.1s-4.031-4.166-7.478-1.1c-4.906,4.4,2.229,12.269,7.478,13.842C72.9,205.175,80.047,197.3,75.131,192.906Z" transform="translate(-58.541 -76.066)" fill="#fff" opacity="0.6"/>
    </g>
  </g>
</svg>
