<svg id="Group_5122" data-name="Group 5122" xmlns="http://www.w3.org/2000/svg" width="33.987" height="23.366" viewBox="0 0 33.987 23.366">
  <path id="Path_462" data-name="Path 462" d="M350.85,160.9v14.793l-11.458-7.244Z" transform="translate(-316.863 -156.588)" fill="#0068ff"/>
  <path id="Path_463" data-name="Path 463" d="M11.458,168.445,0,175.689V160.9Z" transform="translate(0 -156.588)" fill="#0068ff"/>
  <path id="Path_464" data-name="Path 464" d="M34.82,97.808A2.1,2.1,0,0,0,32.759,96H3.02A2.1,2.1,0,0,0,.96,97.808l16.93,11.154Z" transform="translate(-0.896 -96)" fill="#0068ff"/>
  <path id="Path_465" data-name="Path 465" d="M18.534,295.9a1.067,1.067,0,0,1-1.168,0L14.36,293.92,1.024,302.355a2.094,2.094,0,0,0,2.056,1.793H32.819a2.094,2.094,0,0,0,2.056-1.793L21.54,293.922Z" transform="translate(-0.956 -280.782)" fill="#0068ff"/>
</svg>
