<svg id="Layer_2" data-name="Layer 2" xmlns="http://www.w3.org/2000/svg" xmlns:xlink="http://www.w3.org/1999/xlink" width="498.32" height="316.64" viewBox="0 0 498.32 316.64">
  <defs>
    <linearGradient id="linear-gradient" x1="1.149" y1="-0.04" x2="1.943" y2="-0.04" gradientUnits="objectBoundingBox">
      <stop offset="0" stop-color="#343a44"/>
      <stop offset="0.3" stop-color="#232d3e"/>
      <stop offset="0.64" stop-color="#182439"/>
      <stop offset="1" stop-color="#142138"/>
    </linearGradient>
    <linearGradient id="linear-gradient-2" x1="0" y1="0.498" x2="1" y2="0.498" xlink:href="#linear-gradient"/>
    <linearGradient id="linear-gradient-3" x1="-6.628" y1="-0.966" x2="-5.307" y2="-0.966" xlink:href="#linear-gradient"/>
    <linearGradient id="linear-gradient-4" x1="0" y1="0.499" x2="1" y2="0.499" xlink:href="#linear-gradient"/>
  </defs>
  <g id="OBJECTS">
    <text id="ERROR" transform="translate(193.95 49.21)" fill="#f99c06" font-size="34.43" font-family="Roboto-Black, Roboto" font-weight="800"><tspan x="0" y="0">ERROR</tspan></text>
    <text id="PAGE_NOT_FOUND" data-name="PAGE NOT FOUND" transform="translate(144.37 74.08)" fill="#0068ff" font-size="18.25" font-family="Raleway-Medium, Raleway" font-weight="500" letter-spacing="0.15em"><tspan x="0" y="0">P</tspan><tspan y="0" letter-spacing="0.17em">A</tspan><tspan y="0" letter-spacing="0.2em">GE N</tspan><tspan y="0" letter-spacing="0.18em">O</tspan><tspan y="0" letter-spacing="0.17em">T </tspan><tspan y="0" letter-spacing="0.19em">F</tspan><tspan y="0" letter-spacing="0.2em">OUND</tspan></text>
    <path id="Path_61903" data-name="Path 61903" d="M422.51,245.61l32.86,71.03,3.7-.01L430.66,241Z" fill="#dca86e"/>
    <path id="Path_61904" data-name="Path 61904" d="M388.52,247.13l-32.87,69.51-3.7-.01,28.42-71.08Z" fill="#dca86e"/>
    <path id="Path_61905" data-name="Path 61905" d="M305,301.42,288.32,316l-19.69-13.86s6.7-2.25,18.19.81l11.76-9.88Z" fill="url(#linear-gradient)"/>
    <path id="Path_61906" data-name="Path 61906" d="M401.71,220.8s-36.91,18.92-50,24.58-57.41,50.09-57.41,50.09S300,307,302.86,305c25.05-17.91,48.13-33.94,63-39.53,29.37-11.07,37.55-13.48,45.08-22.2C410.9,243.28,406.49,232.8,401.71,220.8Z" fill="#2167be"/>
    <path id="Path_61907" data-name="Path 61907" d="M344.19,294l-4.81,21.67-24.07.48s4.07-5.78,15.15-10.11l3.63-14.93Z" fill="url(#linear-gradient-2)"/>
    <path id="Path_61908" data-name="Path 61908" d="M402.6,216s-34.34,3.7-46.86,10.45S333.26,295,333.26,295s9.72,5.28,10.93,2a450.067,450.067,0,0,1,20.48-47.15c12.34-2.25,40.91,11.65,61.57-8.69C426.24,241.15,408.38,227.55,402.6,216Z" fill="#277fd9"/>
    <path id="Path_61909" data-name="Path 61909" d="M461.77,174.25a45.769,45.769,0,0,0-4,9.25l-14.12-1.3s7.29-11,6.73-17.75Z" fill="#fec4ad"/>
    <path id="Path_61910" data-name="Path 61910" d="M458.73,151.43c-.8-.21-3.82-1-4.43-.8-.85.35.14,1.46-.46,2.13-1,1.1-2.9,1.12-4.14,1.79a8.24,8.24,0,0,0-3.35,3.08c-1.15,2,3,6.53,3.69,9.91,1.37,7.07,10.31,8.12,17.57,6a12.6,12.6,0,0,0,6.4-5.37c1.66-2.66.73-7.11-.67-9.76a12.38,12.38,0,0,0-3.94-4c-1.31-.9-1.67-4.66-3.25-4.92C466.17,149.48,460.54,151.91,458.73,151.43Z" fill="#fec4ad"/>
    <path id="Path_61911" data-name="Path 61911" d="M479,170.41s-.24-1.19,1.8-3.12c6.78-6.38-.47-18.86-7.86-21-3.78-1.11-6.19.06-7.55-3.69.1.27-1.53,1-1.69,1.09a2.93,2.93,0,0,0-1.34,2.52c-.12,5.45,4.76,10.53,8.45,14,1.66,1.54-2.43.48-4.07.79-1.07.21-3.85,3.14-4.45,3.59,1.55,1.93,2.93.19,5,1.12,1.93.86.71,3.32-1.09,3.61a3.78,3.78,0,0,1-3.92-1.39c-1.28.69-1.48,4.83-2.48,5.91,1.38.76,9.46,2.18,11.35,2.16a8.08,8.08,0,0,0,7.85-5.59Z" fill="url(#linear-gradient-3)"/>
    <path id="Path_61912" data-name="Path 61912" d="M461.31,176.45c3,33-35.07,64.7-35.07,64.7s-24.83.93-23.64-25.16c0,0,1.93-4.74,17.31-18.68,10.27-9.31,17.49-23.2,24.71-22.92C464.36,175.15,461.31,176.45,461.31,176.45Z" fill="#ffbe55"/>
    <path id="Path_61913" data-name="Path 61913" d="M369.07,243s22.9,8.54,53.43-3,38.85-65.65,38.85-65.65l3.49,1.77s-3.4,59.66-43.59,72.63c-30.72,9.91-52.18-1.89-52.18-1.89Z" fill="url(#linear-gradient-4)"/>
    <path id="Path_61914" data-name="Path 61914" d="M457.64,209.45s3.66,12.67,3.86,19S459,256.2,459,256.2l5.82.74s5.17-25.56,5.29-33.9-4.69-21.86-4.69-21.86Z" fill="#f8d2a1"/>
    <path id="Path_61915" data-name="Path 61915" d="M457.28,210c4.22,18.45,2.47,43.19,2.47,43.19l6.31.4c6.92-14.48,6.27-46.56,2.61-60.05-2.15-7.93-3.42-15.92-8.78-17.16-3.35-.77-10.25,1.68-11.18,5C446.71,188.56,455.2,200.93,457.28,210Z" fill="#ffbe55"/>
    <path id="Path_61916" data-name="Path 61916" d="M456.4,259.39c-1.39,2.65-2,4.6-1.2,5.27.57.46,1.48-2.11,2.58-3a8,8,0,0,1-.32,4.77c-.78,1.91-.71,3.55.74,3.69s3.82,0,4.34-1.16,1.72-6.23,2.37-7.9-.21-3.59,0-4.55-4.29-2.56-4.29-2.56c-.25.38-1.65,2.29-1.65,2.29a14.717,14.717,0,0,1-1.58,1.67,5.609,5.609,0,0,0-.99,1.48Z" fill="#f8d2a1"/>
    <line id="Line_255" data-name="Line 255" y2="44" transform="translate(421.94)" fill="none" stroke="#d4dbe2" stroke-miterlimit="10" stroke-width="0.25"/>
    <circle id="Ellipse_1294" data-name="Ellipse 1294" cx="7.72" cy="7.72" r="7.72" transform="translate(413.731 67.422) rotate(-85.59)" fill="#ffba01"/>
    <path id="Path_61917" data-name="Path 61917" d="M458.38,63.6H385.5l31.9-23.2h9.09Z" fill="#d2dceb"/>
    <line id="Line_256" data-name="Line 256" y2="44" transform="translate(78.88)" fill="none" stroke="#d4dbe2" stroke-miterlimit="10" stroke-width="0.25"/>
    <circle id="Ellipse_1295" data-name="Ellipse 1295" cx="7.72" cy="7.72" r="7.72" transform="translate(70.683 67.426) rotate(-85.59)" fill="#ffba01"/>
    <path id="Path_61918" data-name="Path 61918" d="M115.31,63.6H42.44L74.33,40.4h9.09Z" fill="#d2dceb"/>
    <line id="Line_257" data-name="Line 257" x2="498.32" transform="translate(0 316.29)" fill="none" stroke="#a6aeba" stroke-miterlimit="10" stroke-width="0.5"/>
    <path id="Path_61919" data-name="Path 61919" d="M181.15,163.2a30.721,30.721,0,0,1,4.33-7.12c2.79-3.35,7-8.94,7-8.94s-2,4-4.79,8.46A34.33,34.33,0,0,1,181.15,163.2Z" fill="#50cc85"/>
    <path id="Path_61920" data-name="Path 61920" d="M184,156.66a17.8,17.8,0,0,0,4.95-7.57c1.86-5.14,3.55-9.06,3.55-9.06a72.611,72.611,0,0,0-5.74,9.71C185.07,153.72,184,156.66,184,156.66Z" fill="#50cc85"/>
    <path id="Path_61921" data-name="Path 61921" d="M181.35,162.47a64.781,64.781,0,0,0,1.94-10.58c.32-4.7.28-7.64.28-7.64s-2,8.52-2.66,12.14A11.71,11.71,0,0,0,181.35,162.47Z" fill="#50cc85"/>
    <path id="Path_61922" data-name="Path 61922" d="M180,166.38a34.2,34.2,0,0,0-1.19-11.48A36,36,0,0,1,177,146a36.56,36.56,0,0,0,.15,10.56,70,70,0,0,0,2.85,9.82Z" fill="#50cc85"/>
    <path id="Path_61923" data-name="Path 61923" d="M180.47,165s4.3-3.67,6.48-4.54a25.82,25.82,0,0,0,5.2-3.38s-3.74,4.79-5.83,5.73S180.47,165,180.47,165Z" fill="#50cc85"/>
    <path id="Path_61924" data-name="Path 61924" d="M179,170.18a17.37,17.37,0,0,0-1.51-8,42,42,0,0,1-2.37-7s-.11,6.36,1.15,8.75S179,170.18,179,170.18Z" fill="#50cc85"/>
    <path id="Path_61925" data-name="Path 61925" d="M179.39,167.77a13.91,13.91,0,0,1,4.86-2,11.7,11.7,0,0,0,3-.66,5.65,5.65,0,0,1-4.15,2.57C180.18,168.08,179.39,167.77,179.39,167.77Z" fill="#50cc85"/>
    <path id="Path_61926" data-name="Path 61926" d="M177.77,173.34c.53-2.08,1.22-5.3,1.93-7.44A65.729,65.729,0,0,1,185,155c-2.27,5-3.94,7.88-5.08,12.23-.45,1.72-1.24,4.12-1.66,5.68C178.18,173.38,177.84,173.74,177.77,173.34Z" fill="#50cc85"/>
    <path id="Path_61927" data-name="Path 61927" d="M178.87,164.9a32.65,32.65,0,0,0-1.89-8.65c-1.65-4.34-3.9-11.39-3.9-11.39s.67,4.7,1.88,10.16A36.49,36.49,0,0,0,178.87,164.9Z" fill="#77e6a6"/>
    <path id="Path_61928" data-name="Path 61928" d="M178.23,157.32a18.92,18.92,0,0,1-2.36-9.32c-.09-5.81-.43-10.33-.43-10.33a77.171,77.171,0,0,1,2.4,11.75C178.2,154,178.23,157.32,178.23,157.32Z" fill="#77e6a6"/>
    <path id="Path_61929" data-name="Path 61929" d="M178.91,164.09a68.86,68.86,0,0,1,1.71-11.3C181.93,148,183,145,183,145s-.9,9.27-1.53,13.12a12.45,12.45,0,0,1-2.56,5.97Z" fill="#77e6a6"/>
    <path id="Path_61930" data-name="Path 61930" d="M179,168.5a36.35,36.35,0,0,1,5.16-11.13,38.321,38.321,0,0,0,4.87-8.28,38.871,38.871,0,0,1-3.81,10.57A74.44,74.44,0,0,1,179,168.5Z" fill="#77e6a6"/>
    <path id="Path_61931" data-name="Path 61931" d="M178.91,167s-3.05-5.18-4.94-6.8a27.45,27.45,0,0,1-4.06-5.2s2.1,6.1,3.87,7.78S178.91,167,178.91,167Z" fill="#77e6a6"/>
    <path id="Path_61932" data-name="Path 61932" d="M178.63,172.66a18.46,18.46,0,0,1,4.28-7.52,44.64,44.64,0,0,0,4.8-6.22s-2.09,6.44-4.18,8.4S178.63,172.66,178.63,172.66Z" fill="#77e6a6"/>
    <path id="Path_61933" data-name="Path 61933" d="M179.05,170.1a14.79,14.79,0,0,0-4.2-3.68,12.43,12.43,0,0,1-2.81-1.71,6,6,0,0,0,3.28,4C178.16,170.13,179.05,170.1,179.05,170.1Z" fill="#77e6a6"/>
    <path id="Path_61934" data-name="Path 61934" d="M178.76,176.25c.18-2.28.6-5.75.63-8.15a69.859,69.859,0,0,0-1.56-12.74c.54,5.86,1.23,9.28.87,14.05-.14,1.89-.18,4.57-.3,6.28C178.33,176.16,178.55,176.64,178.76,176.25Z" fill="#50cc85"/>
    <path id="Path_61935" data-name="Path 61935" d="M175.6,165.79a30.72,30.72,0,0,0-4.33-7.12c-2.79-3.35-7-8.94-7-8.94s2,4,4.79,8.46a34.331,34.331,0,0,0,6.54,7.6Z" fill="#50cc85"/>
    <path id="Path_61936" data-name="Path 61936" d="M172.71,159.25a17.79,17.79,0,0,1-4.95-7.57c-1.86-5.14-3.55-9.06-3.55-9.06a72.6,72.6,0,0,1,5.74,9.71C171.67,156.31,172.71,159.25,172.71,159.25Z" fill="#50cc85"/>
    <path id="Path_61937" data-name="Path 61937" d="M175.39,165.06a64.788,64.788,0,0,1-1.94-10.58c-.32-4.7-.28-7.64-.28-7.64s2,8.52,2.66,12.14A11.71,11.71,0,0,1,175.39,165.06Z" fill="#50cc85"/>
    <path id="Path_61938" data-name="Path 61938" d="M176.77,169A34.2,34.2,0,0,1,178,157.49a36.06,36.06,0,0,0,1.8-8.86,36.569,36.569,0,0,1-.15,10.56,70,70,0,0,1-2.88,9.81Z" fill="#50cc85"/>
    <path id="Path_61939" data-name="Path 61939" d="M176.27,167.63s-4.3-3.67-6.48-4.54a25.82,25.82,0,0,1-5.2-3.38s3.74,4.79,5.83,5.73S176.27,167.63,176.27,167.63Z" fill="#50cc85"/>
    <path id="Path_61940" data-name="Path 61940" d="M177.76,172.77a17.37,17.37,0,0,1,1.51-8,42,42,0,0,0,2.37-7s.11,6.36-1.15,8.75S177.76,172.77,177.76,172.77Z" fill="#50cc85"/>
    <path id="Path_61941" data-name="Path 61941" d="M177.36,170.36a13.909,13.909,0,0,0-4.86-2,11.71,11.71,0,0,1-3-.66,5.65,5.65,0,0,0,4.15,2.57C176.56,170.67,177.36,170.36,177.36,170.36Z" fill="#50cc85"/>
    <path id="Path_61942" data-name="Path 61942" d="M179,175.93c-.53-2.08-1.22-5.3-1.93-7.44a65.721,65.721,0,0,0-5.29-10.85c2.27,5,3.94,7.88,5.08,12.23.45,1.72,1.24,4.12,1.66,5.68C178.56,176,178.9,176.33,179,175.93Z" fill="#50cc85"/>
    <path id="Path_61943" data-name="Path 61943" d="M184.44,190.45H172.77l-3.61-20.55h19.3Z" fill="#d2dceb"/>
    <path id="Path_61944" data-name="Path 61944" d="M317.73,196.1l19.24,120.3,3.71-.01L325.45,196.07Z" fill="#dca86e"/>
    <path id="Path_61945" data-name="Path 61945" d="M185.09,196.15,160.03,316.58l-4.99.01,19.65-120.41Z" fill="#dca86e"/>
    <rect id="Rectangle_4077" data-name="Rectangle 4077" width="207.03" height="9.27" transform="translate(145.65 189.07)" fill="#dca86e"/>
    <rect id="Rectangle_4078" data-name="Rectangle 4078" width="226.88" height="6.15" transform="translate(135.72 189.07)" fill="#f3ba7a"/>
    <path id="Path_61946" data-name="Path 61946" d="M299.15,185.82H291.1l-8.05-51.37h6.12Z" fill="#a6aeba"/>
    <path id="Path_61947" data-name="Path 61947" d="M296.84,185.82H265.41l-8.05-51.37h31.43Z" fill="#d2dceb"/>
    <rect id="Rectangle_4079" data-name="Rectangle 4079" width="34.16" height="3.83" transform="translate(264.99 184.66)" fill="#d2dceb"/>
    <rect id="Rectangle_4080" data-name="Rectangle 4080" width="43.07" height="3.83" transform="translate(299.15 184.66)" fill="#a6aeba"/>
    <path id="Path_61948" data-name="Path 61948" d="M279.58,162.63c.91,3.93.27,8.18-1.43,9.49s-3.81-.82-4.72-4.75-.27-8.18,1.43-9.49S278.67,158.7,279.58,162.63Z" fill="#a6aeba"/>
    <path id="Path_61949" data-name="Path 61949" d="M230.69,188.31h-4.46a3.74,3.74,0,0,1-3.69-3.16l-1.78-11.47h15.4l-1.78,11.47a3.74,3.74,0,0,1-3.69,3.16Z" fill="#a6aeba"/>
    <path id="Path_61950" data-name="Path 61950" d="M234.82,185.87h-.7l-.17-.13c-.11-.08-2.71-2.12-2.71-5s2-5.41,4.42-5.41a4.61,4.61,0,0,1,3.59,1.52,4.68,4.68,0,0,1,.82,4h0C239.48,184,237.58,185.87,234.82,185.87Zm-.17-1.4c2.81.09,3.7-2.07,4-3.92h0a3.37,3.37,0,0,0-.52-2.86,3.22,3.22,0,0,0-2.51-1c-1.66,0-3,1.8-3,4a5.61,5.61,0,0,0,2.04,3.77Z" fill="#a6aeba"/>
    <path id="Path_61951" data-name="Path 61951" d="M219.23,189.32h19.52l3.11-3.45H216.12Z" fill="#d2dceb"/>
    <rect id="Rectangle_4081" data-name="Rectangle 4081" width="93.4" height="202.04" transform="translate(22.39 114.33)" fill="#b6bfcc"/>
    <rect id="Rectangle_4082" data-name="Rectangle 4082" width="71.9" height="21.18" transform="translate(33.14 123.16)" fill="#d2dceb"/>
    <rect id="Rectangle_4083" data-name="Rectangle 4083" width="18.8" height="5.14" rx="0.8" transform="translate(59.69 131.18)" fill="#fff"/>
    <rect id="Rectangle_4084" data-name="Rectangle 4084" width="71.9" height="21.18" transform="translate(33.14 150.11)" fill="#d2dceb"/>
    <rect id="Rectangle_4085" data-name="Rectangle 4085" width="18.8" height="5.14" rx="0.8" transform="translate(59.69 158.14)" fill="#fff"/>
    <rect id="Rectangle_4086" data-name="Rectangle 4086" width="71.9" height="21.18" transform="translate(33.14 177.07)" fill="#d2dceb"/>
    <rect id="Rectangle_4087" data-name="Rectangle 4087" width="18.8" height="5.14" rx="0.8" transform="translate(59.69 185.1)" fill="#fff"/>
    <rect id="Rectangle_4088" data-name="Rectangle 4088" width="71.9" height="103.84" transform="translate(33.14 204.34)" fill="#d2dceb"/>
    <rect id="Rectangle_4089" data-name="Rectangle 4089" width="18.8" height="5.14" rx="0.8" transform="translate(59.69 212.36)" fill="#fff"/>
  </g>
</svg>
