<svg xmlns="http://www.w3.org/2000/svg" xmlns:xlink="http://www.w3.org/1999/xlink" width="198.318" height="147.38" viewBox="0 0 198.318 147.38">
  <defs>
    <filter id="Path_61903" x="0" y="0" width="198.318" height="147.38" filterUnits="userSpaceOnUse">
      <feOffset dy="3" input="SourceAlpha"/>
      <feGaussianBlur stdDeviation="3" result="blur"/>
      <feFlood flood-opacity="0.161"/>
      <feComposite operator="in" in2="blur"/>
      <feComposite in="SourceGraphic"/>
    </filter>
  </defs>
  <g id="Group_5709" data-name="Group 5709" transform="translate(791 -4589)">
    <g id="Untitled_design" data-name="Untitled design" transform="translate(-782 4595)">
      <g transform="matrix(1, 0, 0, 1, -9, -6)" filter="url(#Path_61903)">
        <path id="Path_61903-2" data-name="Path 61903" d="M273.411,322.8H127.219a17.089,17.089,0,0,1-17.063-17.06v-95.26a17.09,17.09,0,0,1,17.063-17.06H273.411a17.09,17.09,0,0,1,17.063,17.06v95.26a17.089,17.089,0,0,1-17.063,17.06" transform="translate(-101.16 -187.42)" fill="#fffcfc"/>
      </g>
    </g>
    <path id="Group_1_Traced_" data-name="Group 1 (Traced)" d="M26.193,9.015C3.931,16.774.258,18.278.039,19.727c-.139.927.109,1.685.552,1.685S12.784,17.467,26.7,12.645,52.37,3.879,52.82,3.879s12.169,3.945,26.041,8.766,25.474,8.766,25.78,8.766.443-.8.3-1.788c-.226-1.586-3.15-2.8-25.756-10.7C65.163,4.022,53.328.006,52.89,0S40.438,4.05,26.193,9.015Zm17.8.4c-14.688,2.323-24.525,9.5-25.556,18.644a84.9,84.9,0,0,0,.586,12.88c.838,7.786,1.2,9.2,2.291,9,.734-.139,1.4-1.183,1.545-2.408l.249-2.163,2.99,1.888c1.645,1.038,6.015,3.4,9.711,5.244,7.677,3.834,11.9,6.779,11.9,8.3a7.281,7.281,0,0,1-1.578,3.053c-3.239,4.117-3.4,5.9-.791,8.87,2.81,3.2,2.818,3.26.775,5.857-1.884,2.395-2.033,5.593-.439,9.408,1.383,3.31,1.2,3.348-5.936,1.17-2.849-.87-5.269-1.584-5.379-1.587a45.8,45.8,0,0,0-.2,6.024c0,5.366.154,5.986,1.395,5.626.767-.222,3.008-.806,4.981-1.3s4.213-1.074,4.981-1.3c1.065-.309,1.395.068,1.395,1.59a13.7,13.7,0,0,0,.907,4.237,22.154,22.154,0,0,1,1,6.228l.089,3.985h6.375l.4-3.985a27.7,27.7,0,0,1,1.992-7.418c1.559-3.358,1.666-3.425,4.817-3.026a26.782,26.782,0,0,1,4.582.929c1.207.463,1.359-.156,1.359-5.541a46.175,46.175,0,0,0-.2-6.052c-.11.006-2.473.723-5.251,1.594-7.331,2.3-7.5,2.234-5.575-2.113,1.209-2.734,1.485-4.446,1.06-6.575-.912-4.567-.695-6.123,1.222-8.715,1.782-2.409,1.85-4.258.349-9.371-.418-1.421.524-2.246,6.543-5.726,3.867-2.237,8.824-5.349,11.016-6.917l3.985-2.851.257,2.05c.248,1.978,2.094,3.457,3.082,2.469.265-.265.769-3.267,1.121-6.673s.883-8.381,1.179-11.056c1.254-11.34-5.583-18.743-20.938-22.67C59.163,9.191,49.69,8.512,43.992,9.413Zm-1.064,4.868c-4.979,4.3-6.053,3.887-1.288-.5,2.141-1.969,4.113-3.36,4.382-3.09S44.9,12.577,42.928,14.281Zm28.69,1.154c1.487,1.534,2.345,2.789,1.906,2.789s-2.013-1.255-3.5-2.789-2.345-2.789-1.906-2.789S70.13,13.9,71.618,15.435ZM33.39,18.179c-.979,1.829-2.329,2.786-2.994,2.121-.555-.555,2.094-3.671,3.122-3.671C33.9,16.63,33.845,17.327,33.39,18.179Zm27.709,1c1.152,1.152,1.243,2.231.187,2.231-.422,0-1.152-.717-1.622-1.594C58.724,18.062,59.594,17.676,61.1,19.18ZM79.88,24.137c4.024,2,6.286,5.585,5.756,9.128-.5,3.367-2.364,5.492-6.448,7.367-2.86,1.313-5.56,1.464-26.3,1.464-20.979,0-23.417-.139-26.435-1.509-9.588-4.354-7.6-14.9,3.325-17.666,1.315-.332,12.432-.539,24.7-.459C74.71,22.593,77.086,22.75,79.88,24.137ZM27.389,27.942c-2.167,1.229-2.763,2.254-2.777,4.78-.015,2.749,2.613,4.628,6.476,4.628,4.162,0,5.466-.685,5.466-2.874,0-1.693-.335-1.893-2.988-1.787-2.4.1-2.56.184-.8.451,2.737.415,2.866,2.417.2,3.086-4.479,1.124-7.93-1.885-6.484-5.654.842-2.194,4.221-3.176,6.683-1.942,3.506,1.758,3.909,1.759,1.9.006A6.743,6.743,0,0,0,27.389,27.942Zm12.352,3.112c0,2.411.43,4.813.956,5.339,1.108,1.108,6.1,1.258,7.72.232,1.4-.888,2.205-8.423.979-9.18-.6-.371-.889.575-.889,2.932,0,4.52-1.37,6.393-4.422,6.045-2.215-.253-2.366-.5-2.6-4.252C41.135,26.5,39.741,25.606,39.741,31.054ZM53.289,32.17c0,2.922.347,5.18.8,5.18s.8-1.076.8-2.391c0-3.2,1.936-3.145,5.329.145,1.439,1.395,2.87,2.281,3.181,1.97s-.2-1.326-1.124-2.256c-1.684-1.683-1.684-1.7-.107-2.973,3.145-2.547.383-4.821-5.884-4.844l-2.988-.011Zm13.548,0c0,2.922.347,5.18.8,5.18s.8-2.258.8-5.18-.347-5.18-.8-5.18S66.836,29.247,66.836,32.17ZM75,27.986a59.255,59.255,0,0,0-4.184,9.066c0,1.04,1.576.014,1.992-1.3.74-2.332,5.375-2.2,6.988.2,2.482,3.691,2.239.514-.317-4.133C76.687,26.732,76.279,26.384,75,27.986ZM60.1,28.6c1.768.672,1.964,1.011,1.149,1.992a5.549,5.549,0,0,1-3.672,1.182c-2.341,0-2.692-.261-2.692-1.992C54.882,27.558,56.438,27.206,60.1,28.6Zm17.9,3.725c0,.582-.882,1.043-1.992,1.043-2.3,0-2.308-.029-1.036-2.821.89-1.953,1.028-2,1.992-.682A5.348,5.348,0,0,1,77.993,32.322ZM40.5,48.031a38.006,38.006,0,0,1,6,4.436c1.06,1.715-.426,1.959-3.114.511S33.3,44.522,34.455,44.522A41.668,41.668,0,0,1,40.5,48.031Zm29.978,1.093c-1.377,1.315-1.4,1.293-.486-.486.525-1.023,1.173-1.642,1.44-1.375S71.273,48.366,70.481,49.123ZM16.631,50.9a.8.8,0,1,0,.8-.8A.8.8,0,0,0,16.631,50.9Zm7.172,0a.8.8,0,1,0,.8-.8A.8.8,0,0,0,23.8,50.9Zm-5.122,1.331c-.765,1.994,1.635,3.667,3.686,2.569,2.131-1.14,1.477-3.449-1.059-3.744C19.895,50.889,19.05,51.267,18.681,52.228Zm60.906.263a.8.8,0,1,0,.8-.8A.8.8,0,0,0,79.587,52.491Zm7.172,0a.8.8,0,1,0,.8-.8A.8.8,0,0,0,86.759,52.491ZM16.4,54.085c.23.877.734,1.594,1.121,1.594.833,0,.862-.254.22-1.927C17.039,51.922,15.908,52.2,16.4,54.085Zm7.887-.333c-.724,1.887-.585,2.88.326,2.317a.917.917,0,0,0,.351-1.242c-.252-.408-.078-.742.386-.742a.824.824,0,0,0,.844-.8C26.193,52.027,24.82,52.361,24.286,53.752ZM81.465,53.7c-.447,1.165.936,3.576,2.051,3.576a6.1,6.1,0,0,0,2.064-1.109c1.289-.942,1.357-1.3.453-2.391C84.691,52.155,82.073,52.112,81.465,53.7ZM78.79,54.882a.8.8,0,1,0,.8-.8A.8.8,0,0,0,78.79,54.882Zm8.766,0a.8.8,0,1,0,.8-.8A.8.8,0,0,0,87.556,54.882ZM19.021,56.476a.8.8,0,1,0,.8-.8A.8.8,0,0,0,19.021,56.476Zm2.391,0a.8.8,0,1,0,.8-.8A.8.8,0,0,0,21.412,56.476Zm63.776.766c-.645.408-.865,1.03-.489,1.383s.845.19,1.041-.36.661-.814,1.031-.585a.887.887,0,0,0,1.175-.394C88.57,56.276,86.761,56.246,85.188,57.241Zm-3.609.828c-.271.438.088.8.8.8s1.068-.359.8-.8-.63-.8-.8-.8S81.85,57.631,81.579,58.069Zm-60.9,1.262c.038.928.227,1.117.481.482a1.6,1.6,0,0,0-.063-1.528C20.832,58.021,20.644,58.491,20.678,59.331Zm62.956,1.594c.038.928.227,1.117.481.482a1.6,1.6,0,0,0-.063-1.528C83.788,59.615,83.6,60.085,83.634,60.925ZM59.168,64.548c1.954,2.282.095,3.637-2.275,1.658-.887-.74-1.738-1.415-1.891-1.5s-.043-.537.246-1C56.071,62.37,57.584,62.7,59.168,64.548ZM48.84,66.522c.748.287,1.261,1.422,1.261,2.789,0,1.953-.317,2.305-2.078,2.305-1.567,0-1.959-.31-1.594-1.261a9.34,9.34,0,0,0,.484-2.789C46.913,65.88,47.018,65.823,48.84,66.522Zm5.233,16.8c.015,3.2-1.308,4.11-2.423,1.663-1.08-2.37.453-7.3,1.671-5.374A8.781,8.781,0,0,1,54.073,83.324Zm-9.58,9.395,2.818.978L42.806,95.01c-6.08,1.77-6.253,1.728-6.253-1.54,0-2.8.049-2.842,2.561-2.29C40.524,91.488,42.944,92.181,44.494,92.719Zm21.545.813c0,3.205-.194,3.251-6.253,1.451l-4.506-1.338,4.383-1.4C65.794,90.281,66.039,90.33,66.039,93.532Zm-12.7,4.911q.807,2.122.01,2.919t-1.623-1.377c-1.042-2.739-1.044-3.664-.01-3.664C52.163,96.321,52.894,97.276,53.338,98.443Zm-.566,11.048c-.246.642-.753.977-1.126.746a1.376,1.376,0,0,1-.232-1.584c.246-.642.753-.977,1.126-.746A1.376,1.376,0,0,1,52.772,109.491Z" transform="translate(-744.341 4604)" fill-rule="evenodd"/>
  </g>
</svg>
