<svg xmlns="http://www.w3.org/2000/svg" xmlns:xlink="http://www.w3.org/1999/xlink" width="169.133" height="115.618" viewBox="0 0 169.133 115.618">
  <defs>
    <clipPath id="clip-path">
      <path id="Clip_6" data-name="Clip 6" d="M0,0H5.441V5.3H0Z" fill="#ffdb00"/>
    </clipPath>
    <clipPath id="clip-path-2">
      <path id="Clip_13" data-name="Clip 13" d="M0,0H5.441V5.307H0Z" fill="#ffdb00"/>
    </clipPath>
    <clipPath id="clip-path-3">
      <path id="Clip_16" data-name="Clip 16" d="M0,0H5.341V5.377H0Z" fill="#ffdb00"/>
    </clipPath>
    <clipPath id="clip-path-4">
      <path id="Clip_23" data-name="Clip 23" d="M0,0H5.341V5.391H0Z" fill="#ffdb00"/>
    </clipPath>
    <clipPath id="clip-path-5">
      <path id="Clip_28" data-name="Clip 28" d="M0,0H5.441V5.389H0Z" fill="#ffdb00"/>
    </clipPath>
    <clipPath id="clip-path-6">
      <path id="Clip_43" data-name="Clip 43" d="M0,0H5.341V5.307H0Z" fill="#ffdb00"/>
    </clipPath>
  </defs>
  <g id="Group_56" data-name="Group 56" opacity="0.6">
    <path id="Fill_1" data-name="Fill 1" d="M2.782,5.582A2.77,2.77,0,0,1,.807,4.751a2.829,2.829,0,0,1,0-3.958A2.894,2.894,0,0,1,4.771.778a2.905,2.905,0,0,1,.81,1.994,2.838,2.838,0,0,1-.81,1.979,2.768,2.768,0,0,1-1.989.831" transform="translate(0 0)" fill="#ffdb00"/>
    <path id="Fill_3" data-name="Fill 3" d="M135.84,5.582a2.851,2.851,0,0,1-2.9-2.791A2.851,2.851,0,0,1,135.84,0a2.945,2.945,0,0,1,2.055.815,2.722,2.722,0,0,1,.847,1.976A2.851,2.851,0,0,1,135.84,5.582Zm-14.768,0a2.851,2.851,0,0,1-2.9-2.791A2.851,2.851,0,0,1,121.071,0a2.945,2.945,0,0,1,2.055.815,2.722,2.722,0,0,1,.847,1.976A2.851,2.851,0,0,1,121.071,5.582Zm-14.769,0a2.851,2.851,0,0,1-2.9-2.791,2.722,2.722,0,0,1,.846-1.976A2.945,2.945,0,0,1,106.3,0a2.851,2.851,0,0,1,2.9,2.791A2.851,2.851,0,0,1,106.3,5.582Zm-14.768,0a2.851,2.851,0,0,1-2.9-2.791A2.722,2.722,0,0,1,89.478.815,2.945,2.945,0,0,1,91.534,0a2.851,2.851,0,0,1,2.9,2.791A2.851,2.851,0,0,1,91.534,5.582Zm-14.787,0a2.843,2.843,0,0,1-2.887-2.791,2.9,2.9,0,0,1,5.8,0A2.859,2.859,0,0,1,76.748,5.582Zm-14.769,0a2.851,2.851,0,0,1-2.9-2.791A2.851,2.851,0,0,1,61.979,0a2.945,2.945,0,0,1,2.055.815,2.721,2.721,0,0,1,.847,1.976A2.851,2.851,0,0,1,61.979,5.582Zm-14.768,0a2.851,2.851,0,0,1-2.9-2.791A2.851,2.851,0,0,1,47.211,0a2.94,2.94,0,0,1,2.053.815,2.723,2.723,0,0,1,.846,1.976A2.85,2.85,0,0,1,47.211,5.582Zm-14.769,0a2.851,2.851,0,0,1-2.9-2.791,2.9,2.9,0,0,1,5.8,0A2.85,2.85,0,0,1,32.442,5.582Zm-14.768,0a2.851,2.851,0,0,1-2.9-2.791A2.721,2.721,0,0,1,15.619.815,2.945,2.945,0,0,1,17.674,0a2.85,2.85,0,0,1,2.9,2.791A2.85,2.85,0,0,1,17.674,5.582ZM2.9,5.582A2.851,2.851,0,0,1,0,2.791,2.722,2.722,0,0,1,.847.815,2.945,2.945,0,0,1,2.9,0,2.851,2.851,0,0,1,5.8,2.791,2.851,2.851,0,0,1,2.9,5.582Z" transform="translate(15.15 0)" fill="#ffdb00"/>
    <g id="Group_7" data-name="Group 7" transform="translate(163.693 0.142)">
      <path id="Clip_6-2" data-name="Clip 6" d="M0,0H5.441V5.3H0Z" transform="translate(0)" fill="#ffdb00"/>
      <g id="Group_7-2" data-name="Group 7" transform="translate(0)" clip-path="url(#clip-path)">
        <path id="Fill_5" data-name="Fill 5" d="M2.713,5.3A2.706,2.706,0,0,1,.8,4.515,2.673,2.673,0,0,1,0,2.634,2.678,2.678,0,0,1,.8.753,2.845,2.845,0,0,1,4.641.739a2.748,2.748,0,0,1,.8,1.895A2.714,2.714,0,0,1,2.713,5.3" fill="#ffdb00"/>
      </g>
    </g>
    <path id="Fill_8" data-name="Fill 8" d="M2.782,5.582A2.842,2.842,0,0,1,.807,4.754a2.849,2.849,0,0,1,0-3.974,2.91,2.91,0,0,1,3.964,0,2.842,2.842,0,0,1,0,3.974,2.865,2.865,0,0,1-1.989.828" transform="translate(0 15.947)" fill="#ffdb00"/>
    <path id="Fill_10" data-name="Fill 10" d="M135.84,5.582a2.851,2.851,0,0,1-2.9-2.791A2.851,2.851,0,0,1,135.84,0a2.945,2.945,0,0,1,2.055.815,2.722,2.722,0,0,1,.847,1.976A2.851,2.851,0,0,1,135.84,5.582Zm-14.768,0a2.851,2.851,0,0,1-2.9-2.791,2.9,2.9,0,0,1,5.8,0A2.851,2.851,0,0,1,121.071,5.582Zm-14.769,0a2.851,2.851,0,0,1-2.9-2.791,2.722,2.722,0,0,1,.846-1.976A2.945,2.945,0,0,1,106.3,0a2.851,2.851,0,0,1,2.9,2.791A2.851,2.851,0,0,1,106.3,5.582Zm-14.768,0a2.851,2.851,0,0,1-2.9-2.791A2.722,2.722,0,0,1,89.478.815,2.945,2.945,0,0,1,91.534,0a2.851,2.851,0,0,1,2.9,2.791A2.851,2.851,0,0,1,91.534,5.582Zm-14.787,0a2.843,2.843,0,0,1-2.887-2.791A2.843,2.843,0,0,1,76.748,0,2.945,2.945,0,0,1,78.8.815a2.722,2.722,0,0,1,.846,1.976A2.851,2.851,0,0,1,76.748,5.582Zm-14.769,0a2.851,2.851,0,0,1-2.9-2.791A2.851,2.851,0,0,1,61.979,0a2.945,2.945,0,0,1,2.055.815,2.721,2.721,0,0,1,.847,1.976A2.851,2.851,0,0,1,61.979,5.582Zm-14.768,0a2.851,2.851,0,0,1-2.9-2.791A2.851,2.851,0,0,1,47.211,0a2.94,2.94,0,0,1,2.053.815,2.723,2.723,0,0,1,.846,1.976A2.85,2.85,0,0,1,47.211,5.582Zm-14.769,0a2.851,2.851,0,0,1-2.9-2.791A2.722,2.722,0,0,1,30.387.815,2.945,2.945,0,0,1,32.442,0a2.85,2.85,0,0,1,2.9,2.791A2.85,2.85,0,0,1,32.442,5.582Zm-14.768,0a2.851,2.851,0,0,1-2.9-2.791A2.721,2.721,0,0,1,15.619.815,2.945,2.945,0,0,1,17.674,0a2.85,2.85,0,0,1,2.9,2.791A2.85,2.85,0,0,1,17.674,5.582ZM2.9,5.582A2.851,2.851,0,0,1,0,2.791,2.722,2.722,0,0,1,.847.815,2.945,2.945,0,0,1,2.9,0,2.851,2.851,0,0,1,5.8,2.791,2.851,2.851,0,0,1,2.9,5.582Z" transform="translate(15.15 15.947)" fill="#ffdb00"/>
    <g id="Group_14" data-name="Group 14" transform="translate(163.693 16.136)">
      <path id="Clip_13-2" data-name="Clip 13" d="M0,0H5.441V5.307H0Z" transform="translate(0 0)" fill="#ffdb00"/>
      <g id="Group_14-2" data-name="Group 14" transform="translate(0 0)" clip-path="url(#clip-path-2)">
        <path id="Fill_12" data-name="Fill 12" d="M2.713,5.307A2.776,2.776,0,0,1,.8,4.52,2.684,2.684,0,0,1,0,2.636,2.705,2.705,0,0,1,.8.741a2.86,2.86,0,0,1,3.842,0,2.717,2.717,0,0,1,.8,1.895,2.7,2.7,0,0,1-.8,1.884,2.779,2.779,0,0,1-1.928.787" fill="#ffdb00"/>
      </g>
    </g>
    <g id="Group_17" data-name="Group 17" transform="translate(0 32.383)">
      <path id="Clip_16-2" data-name="Clip 16" d="M0,0H5.341V5.377H0Z" transform="translate(0 0)" fill="#ffdb00"/>
      <g id="Group_17-2" data-name="Group 17" transform="translate(0 0)" clip-path="url(#clip-path-3)">
        <path id="Fill_15" data-name="Fill 15" d="M2.685,5.377a2.713,2.713,0,0,1-1.9-.785A2.8,2.8,0,0,1,0,2.664,2.776,2.776,0,0,1,.787.753a2.751,2.751,0,0,1,3.782,0,2.769,2.769,0,0,1,0,3.839,2.7,2.7,0,0,1-1.884.785" transform="translate(0)" fill="#ffdb00"/>
      </g>
    </g>
    <path id="Fill_18" data-name="Fill 18" d="M135.84,5.582a2.851,2.851,0,0,1-2.9-2.791,2.9,2.9,0,0,1,5.8,0,2.722,2.722,0,0,1-.847,1.976A2.945,2.945,0,0,1,135.84,5.582Zm-14.768,0a2.851,2.851,0,0,1-2.9-2.791,2.9,2.9,0,0,1,5.8,0A2.851,2.851,0,0,1,121.071,5.582Zm-14.769,0a2.945,2.945,0,0,1-2.056-.815,2.722,2.722,0,0,1-.846-1.976,2.9,2.9,0,0,1,5.8,0A2.851,2.851,0,0,1,106.3,5.582Zm-14.768,0a2.945,2.945,0,0,1-2.056-.815,2.722,2.722,0,0,1-.846-1.976,2.9,2.9,0,0,1,5.8,0A2.851,2.851,0,0,1,91.534,5.582Zm-14.787,0a2.85,2.85,0,0,1-2.9-2.791,2.9,2.9,0,0,1,5.8,0A2.722,2.722,0,0,1,78.8,4.767,2.945,2.945,0,0,1,76.748,5.582Zm-14.769,0a2.851,2.851,0,0,1-2.9-2.791,2.9,2.9,0,0,1,5.8,0,2.721,2.721,0,0,1-.847,1.976A2.945,2.945,0,0,1,61.979,5.582Zm-14.768,0a2.851,2.851,0,0,1-2.9-2.791,2.9,2.9,0,0,1,5.8,0,2.723,2.723,0,0,1-.846,1.976A2.94,2.94,0,0,1,47.211,5.582Zm-14.769,0a2.851,2.851,0,0,1-2.9-2.791,2.9,2.9,0,0,1,5.8,0A2.85,2.85,0,0,1,32.442,5.582Zm-14.768,0a2.945,2.945,0,0,1-2.055-.815,2.721,2.721,0,0,1-.847-1.976,2.9,2.9,0,0,1,5.8,0A2.85,2.85,0,0,1,17.674,5.582ZM2.9,5.582A2.945,2.945,0,0,1,.847,4.767,2.722,2.722,0,0,1,0,2.791,2.851,2.851,0,0,1,2.9,0,2.851,2.851,0,0,1,5.8,2.791,2.851,2.851,0,0,1,2.9,5.582Z" transform="translate(15.15 31.895)" fill="#ffdb00"/>
    <path id="Fill_20" data-name="Fill 20" d="M2.791,5.582A2.8,2.8,0,0,1,.822,4.766a2.907,2.907,0,0,1-.822-2A2.859,2.859,0,0,1,.822.781a2.888,2.888,0,0,1,3.951,0,2.861,2.861,0,0,1,0,3.985,2.834,2.834,0,0,1-1.983.815" transform="translate(163.46 31.895)" fill="#ffdb00"/>
    <g id="Group_24" data-name="Group 24" transform="translate(0 48.365)">
      <path id="Clip_23-2" data-name="Clip 23" d="M0,0H5.341V5.391H0Z" transform="translate(0 0)" fill="#ffdb00"/>
      <g id="Group_24-2" data-name="Group 24" transform="translate(0 0)" clip-path="url(#clip-path-4)">
        <path id="Fill_22" data-name="Fill 22" d="M2.685,5.391a2.713,2.713,0,0,1-1.9-.785A2.817,2.817,0,0,1,0,2.678,2.815,2.815,0,0,1,.787.753a2.751,2.751,0,0,1,3.782,0,2.789,2.789,0,0,1,.773,1.925,2.732,2.732,0,0,1-.773,1.914,2.65,2.65,0,0,1-1.884.8" transform="translate(0)" fill="#ffdb00"/>
      </g>
    </g>
    <path id="Fill_25" data-name="Fill 25" d="M135.84,5.582a2.851,2.851,0,0,1-2.9-2.791A2.851,2.851,0,0,1,135.84,0a2.945,2.945,0,0,1,2.055.815,2.722,2.722,0,0,1,.847,1.976A2.851,2.851,0,0,1,135.84,5.582Zm-14.768,0a2.851,2.851,0,0,1-2.9-2.791,2.721,2.721,0,0,1,.848-1.976A2.945,2.945,0,0,1,121.071,0a2.851,2.851,0,0,1,2.9,2.791A2.851,2.851,0,0,1,121.071,5.582Zm-14.769,0a2.851,2.851,0,0,1-2.9-2.791,2.722,2.722,0,0,1,.846-1.976A2.945,2.945,0,0,1,106.3,0a2.851,2.851,0,0,1,2.9,2.791A2.851,2.851,0,0,1,106.3,5.582Zm-14.768,0a2.851,2.851,0,0,1-2.9-2.791A2.722,2.722,0,0,1,89.478.815,2.945,2.945,0,0,1,91.534,0a2.851,2.851,0,0,1,2.9,2.791A2.851,2.851,0,0,1,91.534,5.582Zm-14.787,0a2.85,2.85,0,0,1-2.9-2.791,2.911,2.911,0,0,1,5.816,0A2.859,2.859,0,0,1,76.748,5.582Zm-14.769,0a2.851,2.851,0,0,1-2.9-2.791A2.851,2.851,0,0,1,61.979,0a2.945,2.945,0,0,1,2.055.815,2.721,2.721,0,0,1,.847,1.976A2.851,2.851,0,0,1,61.979,5.582Zm-14.768,0a2.851,2.851,0,0,1-2.9-2.791A2.851,2.851,0,0,1,47.211,0a2.94,2.94,0,0,1,2.053.815,2.723,2.723,0,0,1,.846,1.976A2.85,2.85,0,0,1,47.211,5.582Zm-14.769,0a2.851,2.851,0,0,1-2.9-2.791A2.722,2.722,0,0,1,30.387.815,2.945,2.945,0,0,1,32.442,0a2.85,2.85,0,0,1,2.9,2.791A2.85,2.85,0,0,1,32.442,5.582Zm-14.768,0a2.851,2.851,0,0,1-2.9-2.791A2.721,2.721,0,0,1,15.619.815,2.945,2.945,0,0,1,17.674,0a2.85,2.85,0,0,1,2.9,2.791A2.85,2.85,0,0,1,17.674,5.582ZM2.9,5.582A2.851,2.851,0,0,1,0,2.791,2.722,2.722,0,0,1,.847.815,2.945,2.945,0,0,1,2.9,0,2.851,2.851,0,0,1,5.8,2.791,2.851,2.851,0,0,1,2.9,5.582Z" transform="translate(15.15 47.842)" fill="#ffdb00"/>
    <g id="Group_29" data-name="Group 29" transform="translate(163.693 48.367)">
      <path id="Clip_28-2" data-name="Clip 28" d="M0,0H5.441V5.389H0Z" transform="translate(0 0)" fill="#ffdb00"/>
      <g id="Group_29-2" data-name="Group 29" transform="translate(0 0)" clip-path="url(#clip-path-5)">
        <path id="Fill_27" data-name="Fill 27" d="M2.713,5.389A2.739,2.739,0,0,1,.8,4.6,2.808,2.808,0,0,1,0,2.676,2.721,2.721,0,0,1,.8.765,2.813,2.813,0,0,1,4.641.751a2.814,2.814,0,0,1,.8,1.925,2.761,2.761,0,0,1-.8,1.914,2.721,2.721,0,0,1-1.928.8" transform="translate(0 0)" fill="#ffdb00"/>
      </g>
    </g>
    <path id="Fill_30" data-name="Fill 30" d="M2.782,5.582A2.828,2.828,0,0,1,.807,4.764a2.867,2.867,0,0,1-.807-2A2.827,2.827,0,0,1,.807.787a2.889,2.889,0,0,1,3.964,0,2.843,2.843,0,0,1,.81,1.981,2.883,2.883,0,0,1-.81,2,2.852,2.852,0,0,1-1.989.817" transform="translate(0 62.195)" fill="#ffdb00"/>
    <path id="Fill_32" data-name="Fill 32" d="M135.84,5.582a2.851,2.851,0,0,1-2.9-2.791,2.9,2.9,0,0,1,5.8,0,2.722,2.722,0,0,1-.847,1.976A2.945,2.945,0,0,1,135.84,5.582Zm-14.768,0a2.945,2.945,0,0,1-2.054-.815,2.721,2.721,0,0,1-.848-1.976,2.9,2.9,0,0,1,5.8,0,2.722,2.722,0,0,1-.847,1.976A2.945,2.945,0,0,1,121.071,5.582Zm-14.769,0a2.945,2.945,0,0,1-2.056-.815,2.722,2.722,0,0,1-.846-1.976,2.9,2.9,0,0,1,5.8,0A2.851,2.851,0,0,1,106.3,5.582Zm-14.768,0a2.945,2.945,0,0,1-2.056-.815,2.722,2.722,0,0,1-.846-1.976,2.9,2.9,0,0,1,5.8,0A2.851,2.851,0,0,1,91.534,5.582Zm-14.772,0a2.858,2.858,0,0,1-2.914-2.791,2.9,2.9,0,0,1,5.8,0,2.727,2.727,0,0,1-.844,1.976A2.921,2.921,0,0,1,76.763,5.582Zm-14.784,0a2.851,2.851,0,0,1-2.9-2.791,2.9,2.9,0,0,1,5.8,0,2.721,2.721,0,0,1-.847,1.976A2.945,2.945,0,0,1,61.979,5.582Zm-14.768,0a2.851,2.851,0,0,1-2.9-2.791,2.9,2.9,0,0,1,5.8,0,2.723,2.723,0,0,1-.846,1.976A2.94,2.94,0,0,1,47.211,5.582Zm-14.769,0a2.945,2.945,0,0,1-2.055-.815,2.722,2.722,0,0,1-.847-1.976,2.9,2.9,0,0,1,5.8,0A2.85,2.85,0,0,1,32.442,5.582Zm-14.768,0a2.945,2.945,0,0,1-2.055-.815,2.721,2.721,0,0,1-.847-1.976,2.9,2.9,0,0,1,5.8,0A2.85,2.85,0,0,1,17.674,5.582Zm-14.787,0A2.843,2.843,0,0,1,0,2.791,2.843,2.843,0,0,1,2.887,0,2.859,2.859,0,0,1,5.8,2.791,2.859,2.859,0,0,1,2.887,5.582Z" transform="translate(15.15 62.195)" fill="#ffdb00"/>
    <path id="Fill_34" data-name="Fill 34" d="M2.805,5.582A2.818,2.818,0,0,1,.822,4.764a2.9,2.9,0,0,1-.822-2A2.862,2.862,0,0,1,.822.787a2.873,2.873,0,0,1,3.951,0,2.835,2.835,0,0,1,.808,1.981,2.875,2.875,0,0,1-.808,2,2.83,2.83,0,0,1-1.968.817" transform="translate(163.46 62.195)" fill="#ffdb00"/>
    <path id="Fill_36" data-name="Fill 36" d="M2.784,5.582A2.767,2.767,0,0,1,.82,4.754,2.86,2.86,0,0,1,0,2.772,2.827,2.827,0,0,1,.82.792,2.866,2.866,0,0,1,4.761.778a2.9,2.9,0,0,1,.82,1.994,2.873,2.873,0,0,1-.82,1.982,2.79,2.79,0,0,1-1.978.828" transform="translate(0 78.142)" fill="#ffdb00"/>
    <path id="Fill_38" data-name="Fill 38" d="M135.84,5.582a2.851,2.851,0,0,1-2.9-2.791A2.851,2.851,0,0,1,135.84,0a2.945,2.945,0,0,1,2.055.815,2.722,2.722,0,0,1,.847,1.976A2.851,2.851,0,0,1,135.84,5.582Zm-14.768,0a2.851,2.851,0,0,1-2.9-2.791,2.721,2.721,0,0,1,.848-1.976A2.945,2.945,0,0,1,121.071,0a2.851,2.851,0,0,1,2.9,2.791A2.851,2.851,0,0,1,121.071,5.582Zm-14.769,0a2.851,2.851,0,0,1-2.9-2.791,2.722,2.722,0,0,1,.846-1.976A2.945,2.945,0,0,1,106.3,0a2.851,2.851,0,0,1,2.9,2.791A2.851,2.851,0,0,1,106.3,5.582Zm-14.768,0a2.851,2.851,0,0,1-2.9-2.791A2.722,2.722,0,0,1,89.478.815,2.945,2.945,0,0,1,91.534,0a2.851,2.851,0,0,1,2.9,2.791A2.851,2.851,0,0,1,91.534,5.582Zm-14.787,0a2.85,2.85,0,0,1-2.9-2.791,2.911,2.911,0,0,1,5.816,0A2.859,2.859,0,0,1,76.748,5.582Zm-14.769,0a2.851,2.851,0,0,1-2.9-2.791A2.851,2.851,0,0,1,61.979,0a2.945,2.945,0,0,1,2.055.815,2.721,2.721,0,0,1,.847,1.976A2.851,2.851,0,0,1,61.979,5.582Zm-14.768,0a2.851,2.851,0,0,1-2.9-2.791A2.851,2.851,0,0,1,47.211,0a2.94,2.94,0,0,1,2.053.815,2.723,2.723,0,0,1,.846,1.976A2.85,2.85,0,0,1,47.211,5.582Zm-14.769,0a2.851,2.851,0,0,1-2.9-2.791A2.722,2.722,0,0,1,30.387.815,2.945,2.945,0,0,1,32.442,0a2.85,2.85,0,0,1,2.9,2.791A2.85,2.85,0,0,1,32.442,5.582Zm-14.768,0a2.851,2.851,0,0,1-2.9-2.791A2.721,2.721,0,0,1,15.619.815,2.945,2.945,0,0,1,17.674,0a2.85,2.85,0,0,1,2.9,2.791A2.85,2.85,0,0,1,17.674,5.582ZM2.9,5.582A2.851,2.851,0,0,1,0,2.791,2.722,2.722,0,0,1,.847.815,2.945,2.945,0,0,1,2.9,0,2.851,2.851,0,0,1,5.8,2.791,2.851,2.851,0,0,1,2.9,5.582Z" transform="translate(15.15 78.142)" fill="#ffdb00"/>
    <path id="Fill_40" data-name="Fill 40" d="M2.783,5.582A2.783,2.783,0,0,1,.81,4.753,2.828,2.828,0,0,1,.81.791a2.876,2.876,0,0,1,3.962,0,2.819,2.819,0,0,1,.81,1.98,2.853,2.853,0,0,1-.81,1.983,2.787,2.787,0,0,1-1.988.828" transform="translate(163.46 78.142)" fill="#ffdb00"/>
    <g id="Group_44" data-name="Group 44" transform="translate(0 94.329)">
      <path id="Clip_43-2" data-name="Clip 43" d="M0,0H5.341V5.307H0Z" transform="translate(0 0)" fill="#ffdb00"/>
      <g id="Group_44-2" data-name="Group 44" transform="translate(0 0)" clip-path="url(#clip-path-6)">
        <path id="Fill_42" data-name="Fill 42" d="M2.685,5.307A2.687,2.687,0,0,1,0,2.636,2.724,2.724,0,0,1,.787.741a2.783,2.783,0,0,1,3.782,0,2.7,2.7,0,0,1,0,3.779,2.731,2.731,0,0,1-1.884.787" transform="translate(0)" fill="#ffdb00"/>
      </g>
    </g>
    <path id="Fill_45" data-name="Fill 45" d="M135.84,5.582a2.851,2.851,0,0,1-2.9-2.791A2.851,2.851,0,0,1,135.84,0a2.945,2.945,0,0,1,2.055.815,2.722,2.722,0,0,1,.847,1.976A2.851,2.851,0,0,1,135.84,5.582Zm-14.768,0a2.851,2.851,0,0,1-2.9-2.791,2.9,2.9,0,0,1,5.8,0A2.851,2.851,0,0,1,121.071,5.582Zm-14.769,0a2.851,2.851,0,0,1-2.9-2.791,2.722,2.722,0,0,1,.846-1.976A2.945,2.945,0,0,1,106.3,0a2.851,2.851,0,0,1,2.9,2.791A2.851,2.851,0,0,1,106.3,5.582Zm-14.768,0a2.851,2.851,0,0,1-2.9-2.791A2.722,2.722,0,0,1,89.478.815,2.945,2.945,0,0,1,91.534,0a2.851,2.851,0,0,1,2.9,2.791A2.851,2.851,0,0,1,91.534,5.582Zm-14.787,0a2.85,2.85,0,0,1-2.9-2.791A2.85,2.85,0,0,1,76.748,0,2.945,2.945,0,0,1,78.8.815a2.722,2.722,0,0,1,.846,1.976A2.851,2.851,0,0,1,76.748,5.582Zm-14.769,0a2.851,2.851,0,0,1-2.9-2.791A2.851,2.851,0,0,1,61.979,0a2.945,2.945,0,0,1,2.055.815,2.721,2.721,0,0,1,.847,1.976A2.851,2.851,0,0,1,61.979,5.582Zm-14.768,0a2.851,2.851,0,0,1-2.9-2.791A2.851,2.851,0,0,1,47.211,0a2.94,2.94,0,0,1,2.053.815,2.723,2.723,0,0,1,.846,1.976A2.85,2.85,0,0,1,47.211,5.582Zm-14.769,0a2.851,2.851,0,0,1-2.9-2.791A2.722,2.722,0,0,1,30.387.815,2.945,2.945,0,0,1,32.442,0a2.85,2.85,0,0,1,2.9,2.791A2.85,2.85,0,0,1,32.442,5.582Zm-14.768,0a2.851,2.851,0,0,1-2.9-2.791A2.721,2.721,0,0,1,15.619.815,2.945,2.945,0,0,1,17.674,0a2.85,2.85,0,0,1,2.9,2.791A2.85,2.85,0,0,1,17.674,5.582ZM2.9,5.582A2.851,2.851,0,0,1,0,2.791,2.722,2.722,0,0,1,.847.815,2.945,2.945,0,0,1,2.9,0,2.851,2.851,0,0,1,5.8,2.791,2.851,2.851,0,0,1,2.9,5.582Z" transform="translate(15.15 94.089)" fill="#ffdb00"/>
    <path id="Fill_47" data-name="Fill 47" d="M2.791,5.582A2.817,2.817,0,0,1,0,2.772,2.888,2.888,0,0,1,.822.779a2.894,2.894,0,0,1,3.951,0,2.887,2.887,0,0,1,.808,1.993,2.854,2.854,0,0,1-.808,1.981,2.852,2.852,0,0,1-1.983.828" transform="translate(163.46 94.089)" fill="#ffdb00"/>
    <path id="Fill_49" data-name="Fill 49" d="M2.782,5.582A2.829,2.829,0,0,1,.807,4.765,2.838,2.838,0,0,1,0,2.771,2.8,2.8,0,0,1,.807.791a2.879,2.879,0,0,1,3.964,0,2.839,2.839,0,0,1,.81,1.98,2.874,2.874,0,0,1-.81,1.994,2.827,2.827,0,0,1-1.989.817" transform="translate(0 110.037)" fill="#ffdb00"/>
    <path id="Fill_51" data-name="Fill 51" d="M135.84,5.582a2.851,2.851,0,0,1-2.9-2.791,2.9,2.9,0,0,1,5.8,0,2.722,2.722,0,0,1-.847,1.976A2.945,2.945,0,0,1,135.84,5.582Zm-14.768,0a2.851,2.851,0,0,1-2.9-2.791,2.9,2.9,0,0,1,5.8,0A2.851,2.851,0,0,1,121.071,5.582Zm-14.769,0a2.945,2.945,0,0,1-2.056-.815,2.722,2.722,0,0,1-.846-1.976,2.9,2.9,0,0,1,5.8,0A2.851,2.851,0,0,1,106.3,5.582Zm-14.768,0a2.945,2.945,0,0,1-2.056-.815,2.722,2.722,0,0,1-.846-1.976,2.9,2.9,0,0,1,5.8,0A2.851,2.851,0,0,1,91.534,5.582Zm-14.787,0a2.85,2.85,0,0,1-2.9-2.791,2.9,2.9,0,0,1,5.8,0A2.722,2.722,0,0,1,78.8,4.767,2.945,2.945,0,0,1,76.748,5.582Zm-14.769,0a2.851,2.851,0,0,1-2.9-2.791,2.9,2.9,0,0,1,5.8,0,2.721,2.721,0,0,1-.847,1.976A2.945,2.945,0,0,1,61.979,5.582Zm-14.768,0a2.851,2.851,0,0,1-2.9-2.791,2.9,2.9,0,0,1,5.8,0,2.723,2.723,0,0,1-.846,1.976A2.94,2.94,0,0,1,47.211,5.582Zm-14.769,0a2.851,2.851,0,0,1-2.9-2.791,2.9,2.9,0,0,1,5.8,0A2.85,2.85,0,0,1,32.442,5.582Zm-14.768,0a2.945,2.945,0,0,1-2.055-.815,2.721,2.721,0,0,1-.847-1.976,2.9,2.9,0,0,1,5.8,0A2.85,2.85,0,0,1,17.674,5.582ZM2.9,5.582A2.945,2.945,0,0,1,.847,4.767,2.722,2.722,0,0,1,0,2.791,2.851,2.851,0,0,1,2.9,0,2.851,2.851,0,0,1,5.8,2.791,2.851,2.851,0,0,1,2.9,5.582Z" transform="translate(15.15 110.037)" fill="#ffdb00"/>
    <g id="Group_55" data-name="Group 55" transform="translate(163.693 110.319)">
      <path id="Clip_54-2" data-name="Clip 54" d="M0,0H5.441V5.3H0Z" transform="translate(0 0)" fill="#ffdb00"/>
      <g id="Group_55-2" data-name="Group 55" transform="translate(0 0)" clip-path="url(#clip-path)">
        <path id="Fill_53" data-name="Fill 53" d="M2.713,5.3A2.765,2.765,0,0,1,.8,4.523,2.705,2.705,0,0,1,0,2.628,2.673,2.673,0,0,1,.8.747a2.842,2.842,0,0,1,3.842,0,2.685,2.685,0,0,1,.8,1.881,2.717,2.717,0,0,1-.8,1.895A2.768,2.768,0,0,1,2.713,5.3" transform="translate(0 0)" fill="#ffdb00"/>
      </g>
    </g>
  </g>
</svg>
