<svg xmlns="http://www.w3.org/2000/svg" width="26.675" height="23.645" viewBox="0 0 26.675 23.645">
  <g id="Layer_41" data-name="Layer 41" transform="translate(-5.5 -10.58)">
    <rect id="Rectangle_2402" data-name="Rectangle 2402" width="26.675" height="1.19" transform="translate(5.5 33.035)" fill="#262626"/>
    <path id="Path_60594" data-name="Path 60594" d="M34.178,80.5H10.5v1.19H34.178Z" transform="translate(-3.501 -48.964)" fill="#262626"/>
    <rect id="Rectangle_2403" data-name="Rectangle 2403" width="2.65" height="13.155" transform="translate(8.545 18.082)" fill="#262626"/>
    <rect id="Rectangle_2404" data-name="Rectangle 2404" width="2.65" height="13.155" transform="translate(13.017 18.082)" fill="#262626"/>
    <rect id="Rectangle_2405" data-name="Rectangle 2405" width="2.65" height="13.155" transform="translate(26.504 18.082)" fill="#262626"/>
    <rect id="Rectangle_2406" data-name="Rectangle 2406" width="2.65" height="13.149" transform="translate(22.033 18.082)" fill="#262626"/>
    <path id="Path_60595" data-name="Path 60595" d="M14.846,31.806H34.178v-1.2H10.5v1.2h4.346Z" transform="translate(-3.501 -14.027)" fill="#262626"/>
    <path id="Path_60596" data-name="Path 60596" d="M26.891,10.58c-5.3,3.1-8.608,5.005-9.891,5.695H36.82Zm0,4.852a1.648,1.648,0,1,1,1.648-1.648,1.648,1.648,0,0,1-1.648,1.648Z" transform="translate(-8.053)" fill="#262626"/>
    <circle id="Ellipse_829" data-name="Ellipse 829" cx="1.349" cy="1.349" r="1.349" transform="translate(17.489 12.435)" fill="#262626"/>
  </g>
</svg>
