<svg xmlns="http://www.w3.org/2000/svg" width="46.793" height="23.755" viewBox="0 0 46.793 23.755">
  <path id="Path_61726" data-name="Path 61726" d="M20.567,16.881V26.914h2.588v-7.44h3.235v7.44H34.8V16.749l-7.117-5.822Zm11.969,7.446H29.3V19.474h3.234ZM4.287,9.269V26.914H6.875v-7.44h3.235v7.44h8.41V9.138L11.4,3.316Zm5.822,7.294H6.875V11.711h3.235Zm6.146,7.763H13.021V19.474h3.235Zm0-7.763H13.021V11.711h3.235ZM36.847,3.71V27.071h8.6v-6.82h2.965v6.82H51.08V3.71ZM42.481,24.7H39.515V20.251h2.965Zm0-7.116H39.515V13.135h2.965Zm0-6.82H39.515V6.315h2.965Zm5.93,6.82H45.446V13.135h2.965Zm0-6.82H45.446V6.315h2.965Z" transform="translate(-4.287 -3.316)" fill="#0068ff"/>
</svg>
