<svg xmlns="http://www.w3.org/2000/svg" width="22.154" height="27" viewBox="0 0 22.154 27">
  <g id="Group_5103" data-name="Group 5103" transform="translate(-669.5 -592.322)">
    <path id="Path_60606" data-name="Path 60606" d="M242.6,200.085l-.366-1.126-.366,1.126a.346.346,0,0,1-.329.239h-1.184l.958.7a.346.346,0,0,1,.126.387l-.366,1.126.958-.7a.346.346,0,0,1,.407,0l.958.7-.366-1.126a.346.346,0,0,1,.126-.387l.958-.7h-1.184A.346.346,0,0,1,242.6,200.085Z" transform="translate(438.343 401.425)" fill="#0068ff"/>
    <path id="Path_60607" data-name="Path 60607" d="M110.615,123.731H112v-.692h-1.385a2.423,2.423,0,0,1,0-4.846H112V117.5h-1.385a3.115,3.115,0,1,0,0,6.231Z" transform="translate(562 477.245)" fill="#0068ff"/>
    <path id="Path_60608" data-name="Path 60608" d="M216.654,354.815H212.5v.692h7.615V353.5H212.5v.623h4.154a.346.346,0,1,1,0,.692Zm1.038-.692a.346.346,0,1,1-.346.346A.346.346,0,0,1,217.692,354.123Z" transform="translate(464.269 257.583)" fill="#0068ff"/>
    <path id="Path_60609" data-name="Path 60609" d="M184.986,96.72a3.6,3.6,0,0,1,1.385,3.85h4.214a3.629,3.629,0,0,1,1.33-3.946,5.84,5.84,0,0,0,2.354-4.708V82.5H182.5v9.415A5.9,5.9,0,0,0,184.986,96.72Zm6.547-4.858-1.616,1.174.617,1.9a.346.346,0,0,1-.533.387l-1.616-1.174-1.616,1.174a.346.346,0,0,1-.533-.387l.617-1.9-1.616-1.174a.346.346,0,0,1,.2-.626h2l.617-1.9a.346.346,0,0,1,.658,0l.617,1.9h2a.346.346,0,0,1,.2.626Zm-.033-4.169h-6.231a.346.346,0,1,1,0-.692H191.5a.346.346,0,1,1,0,.692Zm.692-1.385h-7.615a.346.346,0,0,1,0-.692h7.615a.346.346,0,1,1,0,.692Zm-8.654-1.731a.346.346,0,0,1,.346-.346h9a.346.346,0,0,1,0,.692h-9A.346.346,0,0,1,183.538,84.577Z" transform="translate(492.192 509.822)" fill="#0068ff"/>
    <path id="Path_60611" data-name="Path 60611" d="M367,120.615a3.119,3.119,0,0,0-3.115-3.115H362.5v.692h1.385a2.423,2.423,0,0,1,0,4.846H362.5v.692h1.385A3.119,3.119,0,0,0,367,120.615Z" transform="translate(324.654 477.245)" fill="#0068ff"/>
    <path id="Path_60612" data-name="Path 60612" d="M172.5,425.962h13.154V422.5H172.5Z" transform="translate(501.5 193.36)" fill="#0068ff"/>
    <path id="Path_60613" data-name="Path 60613" d="M172.5,392.5v1.385h13.154V392.5Z" transform="translate(501.5 221.283)" fill="#0068ff"/>
  </g>
</svg>
