<svg xmlns="http://www.w3.org/2000/svg" width="110.688" height="159" viewBox="0 0 110.688 159">
  <g id="Group_5105" data-name="Group 5105" transform="translate(148.886 -82.785)">
    <path id="Path_57796" data-name="Path 57796" d="M-79.1,179.56-92.454,221.3l-13.357-41.744.093-3.067.133-4.581.132-4.249v-.013l.279-9.267v-.093l.279-9h24.868l.278,9v.093l.24,7.408.053,1.873.146,4.5.119,4.328Z" transform="translate(-1.088 -1.68)" fill="#ffd4bb"/>
    <path id="Path_57797" data-name="Path 57797" d="M-79.57,163.069c-2.972,6.812-9.161,11.8-13.555,11.8-4.248,0-9.943-5.085-12.189-10.728l.174-5.762v-.094l.279-9h24.87l.278,9v.094Z" transform="translate(-1.101 -1.68)" fill="#e0b18f" opacity="0.5"/>
    <path id="Path_57798" data-name="Path 57798" d="M-66.984,120.886a2.253,2.253,0,0,0-2.016-.1c.2-15.549-3.505-29.913-24.55-29.913S-118.3,105.235-118.1,120.784a2.259,2.259,0,0,0-2.019.1c-2.474,1.216-1.291,5.066-1.291,5.066s.539,13.071,1.937,14.793a4.207,4.207,0,0,0,2.6,1.437c1.309,8.411,12.59,22.483,23.317,22.483,9.853,0,22.011-14.072,23.321-22.483a4.208,4.208,0,0,0,2.6-1.437c1.4-1.721,1.937-14.793,1.937-14.793S-64.512,122.1-66.984,120.886Z" transform="translate(-0.687 -0.204)" fill="#ffd4bb"/>
    <path id="Path_57799" data-name="Path 57799" d="M-100.461,149.863h17.282S-92.521,160.765-100.461,149.863Z" transform="translate(-1.223 -1.694)" fill="#e86859"/>
    <path id="Path_57800" data-name="Path 57800" d="M-100.461,149.863h17.282S-92.521,156.734-100.461,149.863Z" transform="translate(-1.223 -1.694)" fill="#fff"/>
    <path id="Path_57801" data-name="Path 57801" d="M-70.084,100.484c-2.866-5.312-7.3-8.368-10.468-9.213a17.236,17.236,0,0,0-3.749-2.4c-8.63-3.54-22.5-.386-28.933,5.809-7.688,7.4-6.159,21.2-5.567,24.985a79.007,79.007,0,0,0,1.967,10.532s-.14-5.4.167-9.3a14.185,14.185,0,0,1,.43-1.761c7.086-7.259,29.313-9.813,34.275-14.618.014.095.035.193.049.288.713,4.987,10.094,6.972,11.663,16.092.309,3.9.167,9.3.167,9.3S-64.663,110.537-70.084,100.484Z" transform="translate(-0.746 -0.116)" fill="#cf854b"/>
    <path id="Path_57802" data-name="Path 57802" d="M-38.2,230.63s-2.654-32.2-7.3-41.159c-1-2.655-29.6-8.929-29.6-8.929l-18.436,60.327-18.45-60.327s-28.6,6.273-29.6,8.929c-4.647,8.963-7.3,41.159-7.3,41.159,10.174,6.566,35.642,13.624,55.344,13.624C-73.736,244.254-48.372,237.2-38.2,230.63Z" transform="translate(0 -2.469)" fill="#676c7a"/>
    <path id="Path_57803" data-name="Path 57803" d="M-90.9,160.961v-.975c10.1,0,17.338-2.319,21.525-6.894a13.653,13.653,0,0,0,3.665-9.561l.971-.088a14.377,14.377,0,0,1-3.9,10.289C-73.014,158.529-80.5,160.961-90.9,160.961Z" transform="translate(-1.465 -1.532)" fill="#3d3d3d"/>
    <path id="Path_57804" data-name="Path 57804" d="M-87.465,160.362a3.962,3.962,0,0,1-3.963,3.962,3.96,3.96,0,0,1-3.962-3.962,3.961,3.961,0,0,1,3.962-3.962A3.962,3.962,0,0,1-87.465,160.362Z" transform="translate(-1.351 -1.859)" fill="#3d3d3d"/>
    <path id="Path_57805" data-name="Path 57805" d="M-64.77,125.255h-1.267V111.583A27.561,27.561,0,0,0-93.566,84.052a27.561,27.561,0,0,0-27.53,27.531v13.673h-1.268V111.583a28.831,28.831,0,0,1,28.8-28.8,28.83,28.83,0,0,1,28.8,28.8Z" transform="translate(-0.67)" fill="#636363"/>
    <g id="Group_3357" data-name="Group 3357" transform="translate(-124.543 124.433)">
      <rect id="Rectangle_1283" data-name="Rectangle 1283" width="5.312" height="17.593" transform="translate(55.303)" fill="#3d3d3d"/>
      <rect id="Rectangle_1284" data-name="Rectangle 1284" width="5.311" height="17.593" fill="#3d3d3d"/>
    </g>
    <path id="Path_57806" data-name="Path 57806" d="M-105.515,168.14l-.132,4.249-.134,4.58-2.5-7.435S-107.971,168.418-105.515,168.14Z" transform="translate(-1.026 -2.156)" fill="#cddcf5"/>
    <path id="Path_57807" data-name="Path 57807" d="M-76,169.534l-2.509,7.435-.119-4.329-.146-4.5C-76.316,168.418-76,169.534-76,169.534Z" transform="translate(-1.771 -2.156)" fill="#cddcf5"/>
    <path id="Path_57808" data-name="Path 57808" d="M-75.607,188.537c.444-4.646-7.3-8.186-11.064-2.875,0,0-2.877,8.409-4.648,23.014a45.365,45.365,0,0,1-1.045,8.447.659.659,0,0,0-.345.029,44.05,44.05,0,0,1-1.065-8.476c-1.77-14.6-4.648-23.014-4.648-23.014-3.76-5.31-11.507-1.77-11.064,2.875.408,4.3,16.488,55.7,16.939,55.7C-92.069,244.232-76.016,192.819-75.607,188.537Z" transform="translate(-0.995 -2.531)" fill="#e0ebff"/>
    <g id="Group_3358" data-name="Group 3358" transform="translate(-131.573 181.407)" opacity="0.4" style="mix-blend-mode: multiply;isolation: isolate">
      <path id="Path_57809" data-name="Path 57809" d="M-111.049,183.963l17.814,60.294s-14.511-15.373-24.858-33.541l5.064-3.394-18.1-5.737S-122.275,190.751-111.049,183.963Z" transform="translate(131.124 -183.963)" fill="#6684d1"/>
      <path id="Path_57810" data-name="Path 57810" d="M-74.15,183.963l-17.813,60.294s14.513-15.373,24.86-33.541l-5.065-3.394,18.094-5.737S-62.92,190.751-74.15,183.963Z" transform="translate(130.135 -183.963)" fill="#6684d1"/>
    </g>
    <g id="Group_3359" data-name="Group 3359" transform="translate(-131.573 175.216)">
      <path id="Path_57811" data-name="Path 57811" d="M-111.049,177.611-93.235,244.1s-14.511-16.952-24.858-36.986l5.064-3.742-18.1-6.326S-122.275,185.1-111.049,177.611Z" transform="translate(131.124 -177.611)" fill="#758ebf"/>
      <path id="Path_57812" data-name="Path 57812" d="M-74.15,177.611-91.963,244.1s14.513-16.952,24.86-36.986l-5.065-3.742,18.094-6.326S-62.92,185.1-74.15,177.611Z" transform="translate(130.135 -177.611)" fill="#758ebf"/>
    </g>
    <path id="Path_57813" data-name="Path 57813" d="M-76.188,171.735a66.633,66.633,0,0,1-9.892,13.642c3.358-1.9,11.782,4.7,14.457,10.366,0,0,.622-8.495.315-14.8C-72.647,177.56-74.96,174.227-76.188,171.735Z" transform="translate(-1.586 -2.247)" fill="#6e7175" opacity="0.3"/>
    <path id="Path_57814" data-name="Path 57814" d="M-108.412,171.735a66.728,66.728,0,0,0,9.892,13.642c-3.358-1.9-11.781,4.7-14.456,10.366,0,0-.624-8.495-.315-14.8C-111.954,177.56-109.638,174.227-108.412,171.735Z" transform="translate(-0.897 -2.247)" fill="#6e7175" opacity="0.3"/>
    <path id="Path_57815" data-name="Path 57815" d="M-76.188,169.569a53.8,53.8,0,0,1-9.892,15.753c3.358-1.9,11.782,2.589,14.457,8.256,0,0,.622-8.495.315-14.8C-72.647,175.4-74.96,172.062-76.188,169.569Z" transform="translate(-1.586 -2.192)" fill="#f0f5ff"/>
    <path id="Path_57816" data-name="Path 57816" d="M-108.412,169.569a53.854,53.854,0,0,0,9.892,15.753c-3.358-1.9-11.781,2.589-14.456,8.256,0,0-.624-8.495-.315-14.8C-111.954,175.4-109.638,172.062-108.412,169.569Z" transform="translate(-0.897 -2.192)" fill="#f0f5ff"/>
    <path id="Path_57817" data-name="Path 57817" d="M-100.461,149.832a31.718,31.718,0,0,1,17.282,0Z" transform="translate(-1.223 -1.663)" fill="#e86859"/>
  </g>
</svg>
