<svg xmlns="http://www.w3.org/2000/svg" width="25.456" height="29.946" viewBox="0 0 25.456 29.946">
  <g id="Group_5048" fill="#0068ff" data-name="Group 5048" transform="translate(-9.6 -2.45)">
    <path id="Path_61326" data-name="Path 61326" d="M31.635,38.535a4.848,4.848,0,0,0,.6.252.222.222,0,0,1,.126.158l.189,1.827a.577.577,0,0,0,.567.5h1.575a.577.577,0,0,0,.567-.5l.189-1.827a.209.209,0,0,1,.126-.158,3.415,3.415,0,0,0,.6-.252.148.148,0,0,1,.189.032l1.449,1.166A.619.619,0,0,0,38.6,39.7l1.134-1.134a.581.581,0,0,0,.032-.788L38.6,36.33a.208.208,0,0,1-.032-.189,4.846,4.846,0,0,0,.252-.6.222.222,0,0,1,.158-.126l1.827-.189a.577.577,0,0,0,.5-.567V33.085a.577.577,0,0,0-.5-.567l-1.859-.158a.209.209,0,0,1-.158-.126,3.415,3.415,0,0,0-.252-.6.148.148,0,0,1,.032-.189L39.732,30a.619.619,0,0,0-.032-.788l-1.134-1.134a.581.581,0,0,0-.788-.032L36.33,29.209a.208.208,0,0,1-.189.032,4.847,4.847,0,0,0-.6-.252.222.222,0,0,1-.126-.158L35.227,27a.577.577,0,0,0-.567-.5H33.085a.577.577,0,0,0-.567.5l-.158,1.859a.209.209,0,0,1-.126.158,3.414,3.414,0,0,0-.6.252.148.148,0,0,1-.189-.032L30,28.075a.619.619,0,0,0-.788.032l-1.134,1.134a.581.581,0,0,0-.032.788l1.166,1.449a.208.208,0,0,1,.032.189,4.848,4.848,0,0,0-.252.6.222.222,0,0,1-.158.126L27,32.581a.577.577,0,0,0-.5.567v1.575a.577.577,0,0,0,.5.567l1.827.189a.209.209,0,0,1,.158.126,3.414,3.414,0,0,0,.252.6.148.148,0,0,1-.032.189l-1.166,1.449a.619.619,0,0,0,.032.788l1.134,1.134A.581.581,0,0,0,30,39.8l1.449-1.166Q31.541,38.488,31.635,38.535ZM33.9,31.163A2.741,2.741,0,1,1,31.163,33.9,2.743,2.743,0,0,1,33.9,31.163Z" transform="translate(-11.576 -16.473)"/>
    <path id="Path_61327" data-name="Path 61327" d="M11.144,17.431A11.187,11.187,0,0,1,22.328,6.246h.221l-.914.914a.761.761,0,0,0,0,1.1.738.738,0,0,0,.536.221.691.691,0,0,0,.536-.221l2.237-2.237a.761.761,0,0,0,0-1.1L22.706,2.686a.78.78,0,0,0-1.1,1.1l.914.914h-.189a12.719,12.719,0,0,0-7.5,23,.753.753,0,0,0,.441.158.735.735,0,0,0,.63-.315.758.758,0,0,0-.158-1.071A11.281,11.281,0,0,1,11.144,17.431Z"/>
    <path id="Path_61328" data-name="Path 61328" d="M56.461,27.337a12.686,12.686,0,0,0-5.23-10.271.766.766,0,0,0-.914,1.229,11.185,11.185,0,0,1-6.585,20.226h-.221l.914-.914a.78.78,0,1,0-1.1-1.1l-2.237,2.237a.761.761,0,0,0,0,1.1l2.237,2.237a.738.738,0,0,0,.536.221.691.691,0,0,0,.536-.221.761.761,0,0,0,0-1.1l-.914-.914h.252A12.733,12.733,0,0,0,56.461,27.337Z" transform="translate(-21.405 -9.907)"/>
  </g>
</svg>
