<svg xmlns="http://www.w3.org/2000/svg" xmlns:xlink="http://www.w3.org/1999/xlink" width="212.115" height="145" viewBox="0 0 212.115 145">
  <defs>
    <clipPath id="clip-path">
      <path id="Clip_6" data-name="Clip 6" d="M0,0H6.823V6.653H0Z" transform="translate(0.292 0.178)" fill="#ffdb00"/>
    </clipPath>
    <clipPath id="clip-path-2">
      <path id="Clip_13" data-name="Clip 13" d="M0,0H6.823V6.655H0Z" transform="translate(0.292 0.237)" fill="#ffdb00"/>
    </clipPath>
    <clipPath id="clip-path-3">
      <path id="Clip_16" data-name="Clip 16" d="M0,0H6.7V6.743H0Z" transform="translate(0 0.613)" fill="#ffdb00"/>
    </clipPath>
    <clipPath id="clip-path-4">
      <path id="Clip_23" data-name="Clip 23" d="M0,0H6.7V6.761H0Z" transform="translate(0 0.656)" fill="#ffdb00"/>
    </clipPath>
    <clipPath id="clip-path-5">
      <path id="Clip_28" data-name="Clip 28" d="M0,0H6.823V6.759H0Z" transform="translate(0.292 0.658)" fill="#ffdb00"/>
    </clipPath>
    <clipPath id="clip-path-6">
      <path id="Clip_43" data-name="Clip 43" d="M0,0H6.7V6.655H0Z" transform="translate(0 0.3)" fill="#ffdb00"/>
    </clipPath>
    <clipPath id="clip-path-7">
      <path id="Clip_54" data-name="Clip 54" d="M0,0H6.823V6.646H0Z" transform="translate(0.292 0.354)" fill="#ffdb00"/>
    </clipPath>
  </defs>
  <g id="Group_56" data-name="Group 56" opacity="0.5">
    <path id="Fill_1" data-name="Fill 1" d="M3.489,7A3.474,3.474,0,0,1,1.013,5.958a3.548,3.548,0,0,1,0-4.964A3.63,3.63,0,0,1,5.984.975,3.643,3.643,0,0,1,7,3.476,3.559,3.559,0,0,1,5.984,5.958,3.472,3.472,0,0,1,3.489,7" fill="#ffdb00"/>
    <path id="Fill_3" data-name="Fill 3" d="M170.36,7a3.576,3.576,0,0,1-3.64-3.5A3.576,3.576,0,0,1,170.36,0a3.693,3.693,0,0,1,2.577,1.022A3.413,3.413,0,0,1,174,3.5,3.576,3.576,0,0,1,170.36,7ZM151.839,7a3.576,3.576,0,0,1-3.64-3.5,3.576,3.576,0,0,1,3.64-3.5,3.693,3.693,0,0,1,2.577,1.022A3.413,3.413,0,0,1,155.479,3.5,3.576,3.576,0,0,1,151.839,7ZM133.317,7a3.576,3.576,0,0,1-3.64-3.5,3.414,3.414,0,0,1,1.061-2.478A3.693,3.693,0,0,1,133.317,0a3.576,3.576,0,0,1,3.64,3.5A3.576,3.576,0,0,1,133.317,7ZM114.8,7a3.576,3.576,0,0,1-3.64-3.5,3.414,3.414,0,0,1,1.061-2.478A3.693,3.693,0,0,1,114.8,0a3.576,3.576,0,0,1,3.64,3.5A3.576,3.576,0,0,1,114.8,7ZM96.251,7a3.566,3.566,0,0,1-3.621-3.5,3.642,3.642,0,0,1,7.279,0A3.586,3.586,0,0,1,96.251,7ZM77.729,7a3.576,3.576,0,0,1-3.64-3.5A3.576,3.576,0,0,1,77.729,0a3.693,3.693,0,0,1,2.577,1.022A3.413,3.413,0,0,1,81.369,3.5,3.576,3.576,0,0,1,77.729,7ZM59.208,7a3.576,3.576,0,0,1-3.64-3.5A3.576,3.576,0,0,1,59.208,0a3.688,3.688,0,0,1,2.575,1.022A3.415,3.415,0,0,1,62.844,3.5,3.574,3.574,0,0,1,59.208,7ZM40.686,7a3.576,3.576,0,0,1-3.64-3.5,3.641,3.641,0,0,1,7.276,0A3.574,3.574,0,0,1,40.686,7ZM22.165,7a3.576,3.576,0,0,1-3.64-3.5,3.413,3.413,0,0,1,1.062-2.478A3.693,3.693,0,0,1,22.165,0,3.574,3.574,0,0,1,25.8,3.5,3.574,3.574,0,0,1,22.165,7ZM3.64,7A3.576,3.576,0,0,1,0,3.5,3.413,3.413,0,0,1,1.062,1.022,3.693,3.693,0,0,1,3.64,0a3.576,3.576,0,0,1,3.64,3.5A3.576,3.576,0,0,1,3.64,7Z" transform="translate(19)" fill="#ffdb00"/>
    <g id="Group_7" data-name="Group 7" transform="translate(205)">
      <path id="Clip_6-2" data-name="Clip 6" d="M0,0H6.823V6.653H0Z" transform="translate(0.292 0.178)" fill="#ffdb00"/>
      <g id="Group_7-2" data-name="Group 7" clip-path="url(#clip-path)">
        <path id="Fill_5" data-name="Fill 5" d="M3.4,6.653A3.393,3.393,0,0,1,1,5.663,3.352,3.352,0,0,1,0,3.3,3.358,3.358,0,0,1,1,.945,3.568,3.568,0,0,1,5.82.927a3.446,3.446,0,0,1,1,2.377A3.4,3.4,0,0,1,3.4,6.653" transform="translate(0.292 0.178)" fill="#ffdb00"/>
      </g>
    </g>
    <path id="Fill_8" data-name="Fill 8" d="M3.489,7A3.564,3.564,0,0,1,1.013,5.962a3.573,3.573,0,0,1,0-4.984,3.649,3.649,0,0,1,4.971,0,3.564,3.564,0,0,1,0,4.984A3.594,3.594,0,0,1,3.489,7" transform="translate(0 20)" fill="#ffdb00"/>
    <path id="Fill_10" data-name="Fill 10" d="M170.36,7a3.576,3.576,0,0,1-3.64-3.5A3.576,3.576,0,0,1,170.36,0a3.693,3.693,0,0,1,2.577,1.022A3.413,3.413,0,0,1,174,3.5,3.576,3.576,0,0,1,170.36,7ZM151.839,7a3.576,3.576,0,0,1-3.64-3.5,3.642,3.642,0,0,1,7.279,0A3.576,3.576,0,0,1,151.839,7ZM133.317,7a3.576,3.576,0,0,1-3.64-3.5,3.414,3.414,0,0,1,1.061-2.478A3.693,3.693,0,0,1,133.317,0a3.576,3.576,0,0,1,3.64,3.5A3.576,3.576,0,0,1,133.317,7ZM114.8,7a3.576,3.576,0,0,1-3.64-3.5,3.414,3.414,0,0,1,1.061-2.478A3.693,3.693,0,0,1,114.8,0a3.576,3.576,0,0,1,3.64,3.5A3.576,3.576,0,0,1,114.8,7ZM96.251,7a3.566,3.566,0,0,1-3.621-3.5A3.566,3.566,0,0,1,96.251,0,3.693,3.693,0,0,1,98.83,1.022,3.414,3.414,0,0,1,99.891,3.5,3.576,3.576,0,0,1,96.251,7ZM77.729,7a3.576,3.576,0,0,1-3.64-3.5A3.576,3.576,0,0,1,77.729,0a3.693,3.693,0,0,1,2.577,1.022A3.413,3.413,0,0,1,81.369,3.5,3.576,3.576,0,0,1,77.729,7ZM59.208,7a3.576,3.576,0,0,1-3.64-3.5A3.576,3.576,0,0,1,59.208,0a3.688,3.688,0,0,1,2.575,1.022A3.415,3.415,0,0,1,62.844,3.5,3.574,3.574,0,0,1,59.208,7ZM40.686,7a3.576,3.576,0,0,1-3.64-3.5,3.413,3.413,0,0,1,1.062-2.478A3.693,3.693,0,0,1,40.686,0a3.574,3.574,0,0,1,3.636,3.5A3.574,3.574,0,0,1,40.686,7ZM22.165,7a3.576,3.576,0,0,1-3.64-3.5,3.413,3.413,0,0,1,1.062-2.478A3.693,3.693,0,0,1,22.165,0,3.574,3.574,0,0,1,25.8,3.5,3.574,3.574,0,0,1,22.165,7ZM3.64,7A3.576,3.576,0,0,1,0,3.5,3.413,3.413,0,0,1,1.062,1.022,3.693,3.693,0,0,1,3.64,0a3.576,3.576,0,0,1,3.64,3.5A3.576,3.576,0,0,1,3.64,7Z" transform="translate(19 20)" fill="#ffdb00"/>
    <g id="Group_14" data-name="Group 14" transform="translate(205 20)">
      <path id="Clip_13-2" data-name="Clip 13" d="M0,0H6.823V6.655H0Z" transform="translate(0.292 0.237)" fill="#ffdb00"/>
      <g id="Group_14-2" data-name="Group 14" clip-path="url(#clip-path-2)">
        <path id="Fill_12" data-name="Fill 12" d="M3.4,6.655A3.481,3.481,0,0,1,1,5.668,3.366,3.366,0,0,1,0,3.306,3.393,3.393,0,0,1,1,.929a3.587,3.587,0,0,1,4.818,0,3.408,3.408,0,0,1,1,2.376,3.382,3.382,0,0,1-1,2.363A3.485,3.485,0,0,1,3.4,6.655" transform="translate(0.292 0.237)" fill="#ffdb00"/>
      </g>
    </g>
    <g id="Group_17" data-name="Group 17" transform="translate(0 40)">
      <path id="Clip_16-2" data-name="Clip 16" d="M0,0H6.7V6.743H0Z" transform="translate(0 0.613)" fill="#ffdb00"/>
      <g id="Group_17-2" data-name="Group 17" clip-path="url(#clip-path-3)">
        <path id="Fill_15" data-name="Fill 15" d="M3.367,6.743a3.4,3.4,0,0,1-2.38-.985A3.513,3.513,0,0,1,0,3.34,3.482,3.482,0,0,1,.987.944a3.45,3.45,0,0,1,4.742,0,3.473,3.473,0,0,1,0,4.814,3.38,3.38,0,0,1-2.362.985" transform="translate(0 0.613)" fill="#ffdb00"/>
      </g>
    </g>
    <path id="Fill_18" data-name="Fill 18" d="M170.36,7a3.576,3.576,0,0,1-3.64-3.5A3.642,3.642,0,0,1,174,3.5a3.413,3.413,0,0,1-1.062,2.478A3.693,3.693,0,0,1,170.36,7ZM151.839,7a3.576,3.576,0,0,1-3.64-3.5,3.642,3.642,0,0,1,7.279,0A3.576,3.576,0,0,1,151.839,7ZM133.317,7a3.693,3.693,0,0,1-2.578-1.022A3.414,3.414,0,0,1,129.677,3.5a3.642,3.642,0,0,1,7.279,0A3.576,3.576,0,0,1,133.317,7ZM114.8,7a3.693,3.693,0,0,1-2.578-1.022A3.414,3.414,0,0,1,111.156,3.5a3.642,3.642,0,0,1,7.279,0A3.576,3.576,0,0,1,114.8,7ZM96.251,7a3.574,3.574,0,0,1-3.636-3.5,3.641,3.641,0,0,1,7.276,0A3.414,3.414,0,0,1,98.83,5.978,3.693,3.693,0,0,1,96.251,7ZM77.729,7a3.576,3.576,0,0,1-3.64-3.5,3.642,3.642,0,0,1,7.279,0,3.413,3.413,0,0,1-1.062,2.478A3.693,3.693,0,0,1,77.729,7ZM59.208,7a3.576,3.576,0,0,1-3.64-3.5,3.641,3.641,0,0,1,7.276,0,3.415,3.415,0,0,1-1.061,2.478A3.688,3.688,0,0,1,59.208,7ZM40.686,7a3.576,3.576,0,0,1-3.64-3.5,3.641,3.641,0,0,1,7.276,0A3.574,3.574,0,0,1,40.686,7ZM22.165,7a3.693,3.693,0,0,1-2.577-1.022A3.413,3.413,0,0,1,18.526,3.5a3.641,3.641,0,0,1,7.276,0A3.574,3.574,0,0,1,22.165,7ZM3.64,7A3.693,3.693,0,0,1,1.062,5.978,3.413,3.413,0,0,1,0,3.5,3.576,3.576,0,0,1,3.64,0a3.576,3.576,0,0,1,3.64,3.5A3.576,3.576,0,0,1,3.64,7Z" transform="translate(19 40)" fill="#ffdb00"/>
    <path id="Fill_20" data-name="Fill 20" d="M3.5,7A3.517,3.517,0,0,1,1.031,5.978,3.645,3.645,0,0,1,0,3.468,3.586,3.586,0,0,1,1.031.98a3.622,3.622,0,0,1,4.956,0,3.588,3.588,0,0,1,0,5A3.554,3.554,0,0,1,3.5,7" transform="translate(205 40)" fill="#ffdb00"/>
    <g id="Group_24" data-name="Group 24" transform="translate(0 60)">
      <path id="Clip_23-2" data-name="Clip 23" d="M0,0H6.7V6.761H0Z" transform="translate(0 0.656)" fill="#ffdb00"/>
      <g id="Group_24-2" data-name="Group 24" clip-path="url(#clip-path-4)">
        <path id="Fill_22" data-name="Fill 22" d="M3.367,6.761a3.4,3.4,0,0,1-2.38-.985A3.533,3.533,0,0,1,0,3.358,3.531,3.531,0,0,1,.987.944a3.45,3.45,0,0,1,4.742,0A3.5,3.5,0,0,1,6.7,3.358a3.426,3.426,0,0,1-.97,2.4,3.323,3.323,0,0,1-2.362,1" transform="translate(0 0.656)" fill="#ffdb00"/>
      </g>
    </g>
    <path id="Fill_25" data-name="Fill 25" d="M170.36,7a3.576,3.576,0,0,1-3.64-3.5A3.576,3.576,0,0,1,170.36,0a3.693,3.693,0,0,1,2.577,1.022A3.413,3.413,0,0,1,174,3.5,3.576,3.576,0,0,1,170.36,7ZM151.839,7a3.576,3.576,0,0,1-3.64-3.5,3.412,3.412,0,0,1,1.064-2.478A3.693,3.693,0,0,1,151.839,0a3.576,3.576,0,0,1,3.64,3.5A3.576,3.576,0,0,1,151.839,7ZM133.317,7a3.576,3.576,0,0,1-3.64-3.5,3.414,3.414,0,0,1,1.061-2.478A3.693,3.693,0,0,1,133.317,0a3.576,3.576,0,0,1,3.64,3.5A3.576,3.576,0,0,1,133.317,7ZM114.8,7a3.576,3.576,0,0,1-3.64-3.5,3.414,3.414,0,0,1,1.061-2.478A3.693,3.693,0,0,1,114.8,0a3.576,3.576,0,0,1,3.64,3.5A3.576,3.576,0,0,1,114.8,7ZM96.251,7a3.574,3.574,0,0,1-3.636-3.5,3.65,3.65,0,0,1,7.294,0A3.586,3.586,0,0,1,96.251,7ZM77.729,7a3.576,3.576,0,0,1-3.64-3.5A3.576,3.576,0,0,1,77.729,0a3.693,3.693,0,0,1,2.577,1.022A3.413,3.413,0,0,1,81.369,3.5,3.576,3.576,0,0,1,77.729,7ZM59.208,7a3.576,3.576,0,0,1-3.64-3.5A3.576,3.576,0,0,1,59.208,0a3.688,3.688,0,0,1,2.575,1.022A3.415,3.415,0,0,1,62.844,3.5,3.574,3.574,0,0,1,59.208,7ZM40.686,7a3.576,3.576,0,0,1-3.64-3.5,3.413,3.413,0,0,1,1.062-2.478A3.693,3.693,0,0,1,40.686,0a3.574,3.574,0,0,1,3.636,3.5A3.574,3.574,0,0,1,40.686,7ZM22.165,7a3.576,3.576,0,0,1-3.64-3.5,3.413,3.413,0,0,1,1.062-2.478A3.693,3.693,0,0,1,22.165,0,3.574,3.574,0,0,1,25.8,3.5,3.574,3.574,0,0,1,22.165,7ZM3.64,7A3.576,3.576,0,0,1,0,3.5,3.413,3.413,0,0,1,1.062,1.022,3.693,3.693,0,0,1,3.64,0a3.576,3.576,0,0,1,3.64,3.5A3.576,3.576,0,0,1,3.64,7Z" transform="translate(19 60)" fill="#ffdb00"/>
    <g id="Group_29" data-name="Group 29" transform="translate(205 60)">
      <path id="Clip_28-2" data-name="Clip 28" d="M0,0H6.823V6.759H0Z" transform="translate(0.292 0.658)" fill="#ffdb00"/>
      <g id="Group_29-2" data-name="Group 29" clip-path="url(#clip-path-5)">
        <path id="Fill_27" data-name="Fill 27" d="M3.4,6.759A3.436,3.436,0,0,1,1,5.774,3.521,3.521,0,0,1,0,3.356,3.413,3.413,0,0,1,1,.96,3.527,3.527,0,0,1,5.82.942a3.529,3.529,0,0,1,1,2.414,3.462,3.462,0,0,1-1,2.4,3.412,3.412,0,0,1-2.418,1" transform="translate(0.292 0.658)" fill="#ffdb00"/>
      </g>
    </g>
    <path id="Fill_30" data-name="Fill 30" d="M3.489,7A3.546,3.546,0,0,1,1.013,5.975,3.6,3.6,0,0,1,0,3.472,3.546,3.546,0,0,1,1.013.987a3.623,3.623,0,0,1,4.971,0A3.565,3.565,0,0,1,7,3.472a3.616,3.616,0,0,1-1.016,2.5A3.576,3.576,0,0,1,3.489,7" transform="translate(0 78)" fill="#ffdb00"/>
    <path id="Fill_32" data-name="Fill 32" d="M170.36,7a3.576,3.576,0,0,1-3.64-3.5A3.642,3.642,0,0,1,174,3.5a3.413,3.413,0,0,1-1.062,2.478A3.693,3.693,0,0,1,170.36,7ZM151.839,7a3.693,3.693,0,0,1-2.576-1.022A3.412,3.412,0,0,1,148.2,3.5a3.642,3.642,0,0,1,7.279,0,3.413,3.413,0,0,1-1.062,2.478A3.693,3.693,0,0,1,151.839,7ZM133.317,7a3.693,3.693,0,0,1-2.578-1.022A3.414,3.414,0,0,1,129.677,3.5a3.642,3.642,0,0,1,7.279,0A3.576,3.576,0,0,1,133.317,7ZM114.8,7a3.693,3.693,0,0,1-2.578-1.022A3.414,3.414,0,0,1,111.156,3.5a3.642,3.642,0,0,1,7.279,0A3.576,3.576,0,0,1,114.8,7ZM96.27,7a3.584,3.584,0,0,1-3.655-3.5,3.641,3.641,0,0,1,7.276,0,3.421,3.421,0,0,1-1.059,2.478A3.664,3.664,0,0,1,96.27,7ZM77.729,7a3.576,3.576,0,0,1-3.64-3.5,3.642,3.642,0,0,1,7.279,0,3.413,3.413,0,0,1-1.062,2.478A3.693,3.693,0,0,1,77.729,7ZM59.208,7a3.576,3.576,0,0,1-3.64-3.5,3.641,3.641,0,0,1,7.276,0,3.415,3.415,0,0,1-1.061,2.478A3.688,3.688,0,0,1,59.208,7ZM40.686,7a3.693,3.693,0,0,1-2.577-1.022A3.413,3.413,0,0,1,37.047,3.5a3.641,3.641,0,0,1,7.276,0A3.574,3.574,0,0,1,40.686,7ZM22.165,7a3.693,3.693,0,0,1-2.577-1.022A3.413,3.413,0,0,1,18.526,3.5a3.641,3.641,0,0,1,7.276,0A3.574,3.574,0,0,1,22.165,7ZM3.621,7A3.566,3.566,0,0,1,0,3.5,3.566,3.566,0,0,1,3.621,0,3.586,3.586,0,0,1,7.279,3.5,3.586,3.586,0,0,1,3.621,7Z" transform="translate(19 78)" fill="#ffdb00"/>
    <path id="Fill_34" data-name="Fill 34" d="M3.518,7A3.534,3.534,0,0,1,1.031,5.975,3.64,3.64,0,0,1,0,3.472,3.589,3.589,0,0,1,1.031.987a3.6,3.6,0,0,1,4.956,0A3.555,3.555,0,0,1,7,3.472a3.606,3.606,0,0,1-1.013,2.5A3.549,3.549,0,0,1,3.518,7" transform="translate(205 78)" fill="#ffdb00"/>
    <path id="Fill_36" data-name="Fill 36" d="M3.491,7A3.47,3.47,0,0,1,1.029,5.962,3.587,3.587,0,0,1,0,3.476,3.545,3.545,0,0,1,1.029.994,3.594,3.594,0,0,1,5.971.975,3.638,3.638,0,0,1,7,3.476,3.6,3.6,0,0,1,5.971,5.962,3.5,3.5,0,0,1,3.491,7" transform="translate(0 98)" fill="#ffdb00"/>
    <path id="Fill_38" data-name="Fill 38" d="M170.36,7a3.576,3.576,0,0,1-3.64-3.5A3.576,3.576,0,0,1,170.36,0a3.693,3.693,0,0,1,2.577,1.022A3.413,3.413,0,0,1,174,3.5,3.576,3.576,0,0,1,170.36,7ZM151.839,7a3.576,3.576,0,0,1-3.64-3.5,3.412,3.412,0,0,1,1.064-2.478A3.693,3.693,0,0,1,151.839,0a3.576,3.576,0,0,1,3.64,3.5A3.576,3.576,0,0,1,151.839,7ZM133.317,7a3.576,3.576,0,0,1-3.64-3.5,3.414,3.414,0,0,1,1.061-2.478A3.693,3.693,0,0,1,133.317,0a3.576,3.576,0,0,1,3.64,3.5A3.576,3.576,0,0,1,133.317,7ZM114.8,7a3.576,3.576,0,0,1-3.64-3.5,3.414,3.414,0,0,1,1.061-2.478A3.693,3.693,0,0,1,114.8,0a3.576,3.576,0,0,1,3.64,3.5A3.576,3.576,0,0,1,114.8,7ZM96.251,7a3.574,3.574,0,0,1-3.636-3.5,3.65,3.65,0,0,1,7.294,0A3.586,3.586,0,0,1,96.251,7ZM77.729,7a3.576,3.576,0,0,1-3.64-3.5A3.576,3.576,0,0,1,77.729,0a3.693,3.693,0,0,1,2.577,1.022A3.413,3.413,0,0,1,81.369,3.5,3.576,3.576,0,0,1,77.729,7ZM59.208,7a3.576,3.576,0,0,1-3.64-3.5A3.576,3.576,0,0,1,59.208,0a3.688,3.688,0,0,1,2.575,1.022A3.415,3.415,0,0,1,62.844,3.5,3.574,3.574,0,0,1,59.208,7ZM40.686,7a3.576,3.576,0,0,1-3.64-3.5,3.413,3.413,0,0,1,1.062-2.478A3.693,3.693,0,0,1,40.686,0a3.574,3.574,0,0,1,3.636,3.5A3.574,3.574,0,0,1,40.686,7ZM22.165,7a3.576,3.576,0,0,1-3.64-3.5,3.413,3.413,0,0,1,1.062-2.478A3.693,3.693,0,0,1,22.165,0,3.574,3.574,0,0,1,25.8,3.5,3.574,3.574,0,0,1,22.165,7ZM3.64,7A3.576,3.576,0,0,1,0,3.5,3.413,3.413,0,0,1,1.062,1.022,3.693,3.693,0,0,1,3.64,0a3.576,3.576,0,0,1,3.64,3.5A3.576,3.576,0,0,1,3.64,7Z" transform="translate(19 98)" fill="#ffdb00"/>
    <path id="Fill_40" data-name="Fill 40" d="M3.491,7A3.491,3.491,0,0,1,1.016,5.961a3.547,3.547,0,0,1,0-4.969,3.607,3.607,0,0,1,4.969,0A3.536,3.536,0,0,1,7,3.475,3.577,3.577,0,0,1,5.984,5.961,3.5,3.5,0,0,1,3.491,7" transform="translate(205 98)" fill="#ffdb00"/>
    <g id="Group_44" data-name="Group 44" transform="translate(0 118)">
      <path id="Clip_43-2" data-name="Clip 43" d="M0,0H6.7V6.655H0Z" transform="translate(0 0.3)" fill="#ffdb00"/>
      <g id="Group_44-2" data-name="Group 44" clip-path="url(#clip-path-6)">
        <path id="Fill_42" data-name="Fill 42" d="M3.367,6.655A3.37,3.37,0,0,1,0,3.306,3.416,3.416,0,0,1,.987.929a3.49,3.49,0,0,1,4.742,0,3.38,3.38,0,0,1,0,4.739,3.425,3.425,0,0,1-2.362.987" transform="translate(0 0.3)" fill="#ffdb00"/>
      </g>
    </g>
    <path id="Fill_45" data-name="Fill 45" d="M170.36,7a3.576,3.576,0,0,1-3.64-3.5A3.576,3.576,0,0,1,170.36,0a3.693,3.693,0,0,1,2.577,1.022A3.413,3.413,0,0,1,174,3.5,3.576,3.576,0,0,1,170.36,7ZM151.839,7a3.576,3.576,0,0,1-3.64-3.5,3.642,3.642,0,0,1,7.279,0A3.576,3.576,0,0,1,151.839,7ZM133.317,7a3.576,3.576,0,0,1-3.64-3.5,3.414,3.414,0,0,1,1.061-2.478A3.693,3.693,0,0,1,133.317,0a3.576,3.576,0,0,1,3.64,3.5A3.576,3.576,0,0,1,133.317,7ZM114.8,7a3.576,3.576,0,0,1-3.64-3.5,3.414,3.414,0,0,1,1.061-2.478A3.693,3.693,0,0,1,114.8,0a3.576,3.576,0,0,1,3.64,3.5A3.576,3.576,0,0,1,114.8,7ZM96.251,7a3.574,3.574,0,0,1-3.636-3.5A3.574,3.574,0,0,1,96.251,0,3.693,3.693,0,0,1,98.83,1.022,3.414,3.414,0,0,1,99.891,3.5,3.576,3.576,0,0,1,96.251,7ZM77.729,7a3.576,3.576,0,0,1-3.64-3.5A3.576,3.576,0,0,1,77.729,0a3.693,3.693,0,0,1,2.577,1.022A3.413,3.413,0,0,1,81.369,3.5,3.576,3.576,0,0,1,77.729,7ZM59.208,7a3.576,3.576,0,0,1-3.64-3.5A3.576,3.576,0,0,1,59.208,0a3.688,3.688,0,0,1,2.575,1.022A3.415,3.415,0,0,1,62.844,3.5,3.574,3.574,0,0,1,59.208,7ZM40.686,7a3.576,3.576,0,0,1-3.64-3.5,3.413,3.413,0,0,1,1.062-2.478A3.693,3.693,0,0,1,40.686,0a3.574,3.574,0,0,1,3.636,3.5A3.574,3.574,0,0,1,40.686,7ZM22.165,7a3.576,3.576,0,0,1-3.64-3.5,3.413,3.413,0,0,1,1.062-2.478A3.693,3.693,0,0,1,22.165,0,3.574,3.574,0,0,1,25.8,3.5,3.574,3.574,0,0,1,22.165,7ZM3.64,7A3.576,3.576,0,0,1,0,3.5,3.413,3.413,0,0,1,1.062,1.022,3.693,3.693,0,0,1,3.64,0a3.576,3.576,0,0,1,3.64,3.5A3.576,3.576,0,0,1,3.64,7Z" transform="translate(19 118)" fill="#ffdb00"/>
    <path id="Fill_47" data-name="Fill 47" d="M3.5,7A3.533,3.533,0,0,1,0,3.477,3.622,3.622,0,0,1,1.031.977a3.629,3.629,0,0,1,4.956,0A3.621,3.621,0,0,1,7,3.477,3.579,3.579,0,0,1,5.987,5.962,3.577,3.577,0,0,1,3.5,7" transform="translate(205 118)" fill="#ffdb00"/>
    <path id="Fill_49" data-name="Fill 49" d="M3.489,7A3.548,3.548,0,0,1,1.013,5.976,3.559,3.559,0,0,1,0,3.475,3.516,3.516,0,0,1,1.013.992a3.61,3.61,0,0,1,4.971,0A3.561,3.561,0,0,1,7,3.475a3.6,3.6,0,0,1-1.016,2.5A3.545,3.545,0,0,1,3.489,7" transform="translate(0 138)" fill="#ffdb00"/>
    <path id="Fill_51" data-name="Fill 51" d="M170.36,7a3.576,3.576,0,0,1-3.64-3.5A3.642,3.642,0,0,1,174,3.5a3.413,3.413,0,0,1-1.062,2.478A3.693,3.693,0,0,1,170.36,7ZM151.839,7a3.576,3.576,0,0,1-3.64-3.5,3.642,3.642,0,0,1,7.279,0A3.576,3.576,0,0,1,151.839,7ZM133.317,7a3.693,3.693,0,0,1-2.578-1.022A3.414,3.414,0,0,1,129.677,3.5a3.642,3.642,0,0,1,7.279,0A3.576,3.576,0,0,1,133.317,7ZM114.8,7a3.693,3.693,0,0,1-2.578-1.022A3.414,3.414,0,0,1,111.156,3.5a3.642,3.642,0,0,1,7.279,0A3.576,3.576,0,0,1,114.8,7ZM96.251,7a3.574,3.574,0,0,1-3.636-3.5,3.641,3.641,0,0,1,7.276,0A3.414,3.414,0,0,1,98.83,5.978,3.693,3.693,0,0,1,96.251,7ZM77.729,7a3.576,3.576,0,0,1-3.64-3.5,3.642,3.642,0,0,1,7.279,0,3.413,3.413,0,0,1-1.062,2.478A3.693,3.693,0,0,1,77.729,7ZM59.208,7a3.576,3.576,0,0,1-3.64-3.5,3.641,3.641,0,0,1,7.276,0,3.415,3.415,0,0,1-1.061,2.478A3.688,3.688,0,0,1,59.208,7ZM40.686,7a3.576,3.576,0,0,1-3.64-3.5,3.641,3.641,0,0,1,7.276,0A3.574,3.574,0,0,1,40.686,7ZM22.165,7a3.693,3.693,0,0,1-2.577-1.022A3.413,3.413,0,0,1,18.526,3.5a3.641,3.641,0,0,1,7.276,0A3.574,3.574,0,0,1,22.165,7ZM3.64,7A3.693,3.693,0,0,1,1.062,5.978,3.413,3.413,0,0,1,0,3.5,3.576,3.576,0,0,1,3.64,0a3.576,3.576,0,0,1,3.64,3.5A3.576,3.576,0,0,1,3.64,7Z" transform="translate(19 138)" fill="#ffdb00"/>
    <g id="Group_55" data-name="Group 55" transform="translate(205 138)">
      <path id="Clip_54-2" data-name="Clip 54" d="M0,0H6.823V6.646H0Z" transform="translate(0.292 0.354)" fill="#ffdb00"/>
      <g id="Group_55-2" data-name="Group 55" clip-path="url(#clip-path-7)">
        <path id="Fill_53" data-name="Fill 53" d="M3.4,6.646A3.467,3.467,0,0,1,1,5.673,3.393,3.393,0,0,1,0,3.3,3.352,3.352,0,0,1,1,.937a3.565,3.565,0,0,1,4.818,0,3.367,3.367,0,0,1,1,2.359,3.408,3.408,0,0,1-1,2.376A3.472,3.472,0,0,1,3.4,6.646" transform="translate(0.292 0.354)" fill="#ffdb00"/>
      </g>
    </g>
  </g>
</svg>
