<svg xmlns="http://www.w3.org/2000/svg" width="58.2" height="44.639" viewBox="0 0 58.2 44.639">
  <g id="option_4" data-name="option 4" transform="translate(0 -0.044)">
    <path id="Path_60542" data-name="Path 60542" d="M411.567,271.755a.385.385,0,0,1-.3.069h-2.347c-.348,0-.358-.012-.358-.363v-8.407c-.012-.16-.062-.2-.229-.217h-1.874a.574.574,0,0,0-.112.012.166.166,0,0,0-.147.147,2.646,2.646,0,0,0-.012.306v8.18c0,.313-.019.335-.332.335h-2.425c-.191-.012-.217-.04-.225-.239V251.548a.5.5,0,0,1,.063-.344c.068,0,.147-.015.231-.015h2.4c.254,0,.286.035.294.294v7.736c0,.112,0,.225.01.335a.147.147,0,0,0,.147.147.873.873,0,0,0,.138.009l1.592.013a3.2,3.2,0,0,0,.335-.019.147.147,0,0,0,.147-.147,2.351,2.351,0,0,0,.009-.25v-7.729a.514.514,0,0,1,.072-.372c.075,0,.166-.015.257-.015h2.374c.294,0,.317.028.317.325V271.6A1.441,1.441,0,0,1,411.567,271.755Z" transform="translate(-402.983 -250.725)" fill="#0068ff"/>
    <path id="Path_60543" data-name="Path 60543" d="M615.785,251.3c.053.088.013.147-.015.223q-.347.84-.686,1.679l-.768,1.886c-.38.928-.758,1.859-1.144,2.791a.6.6,0,0,0-.031.379c.12.517.234,1.028.354,1.551.138.6.279,1.194.419,1.792q.183.787.361,1.576c.122.536.239,1.071.36,1.605q.172.762.345,1.523c.16.708.323,1.414.483,2.122.116.507.234,1.015.348,1.522q.182.8.363,1.605c.065.286.031.333-.258.335h-2.29a.8.8,0,0,1-.084,0c-.181-.012-.235-.053-.273-.22-.134-.579-.263-1.16-.4-1.739-.1-.417-.2-.831-.294-1.249-.057-.244-.106-.491-.16-.734-.038-.173-.079-.345-.12-.517-.1-.416-.2-.831-.294-1.247s-.2-.852-.294-1.278c-.041-.181-.084-.363-.128-.543-.1-.424-.206-.849-.307-1.273-.029-.126-.047-.256-.076-.383a.46.46,0,0,0-.057-.125.079.079,0,0,0-.12,0,1.236,1.236,0,0,0-.057.125c-.25.588-.5,1.184-.748,1.774a.816.816,0,0,0-.057.328v6.676a2.511,2.511,0,0,1-.01.278.119.119,0,0,1-.107.112,1.448,1.448,0,0,1-.2.013H607.5c-.307,0-.328-.025-.328-.341V253.387c0-.567-.022-1.134-.028-1.7,0-.417.007-.424.417-.424h2.4c.156.01.188.046.2.209v6.648a2.166,2.166,0,0,0,.02.276.073.073,0,0,0,.115.029.922.922,0,0,0,.113-.19q.232-.612.455-1.229c.147-.383.276-.77.417-1.153.182-.5.367-.994.551-1.492s.369-.993.552-1.491c.164-.441.336-.881.489-1.335.091-.27.147-.272.408-.272h2.375A.82.82,0,0,1,615.785,251.3Z" transform="translate(-576.971 -250.785)" fill="#0068ff"/>
    <path id="Path_60544" data-name="Path 60544" d="M475.837,251.042h1.453c.332,0,.379-.013.424.354s.123.771.181,1.157c.094.645.181,1.29.276,1.934.051.35.115.7.17,1.046.023.156.037.314.06.47.057.369.119.734.178,1.1.051.331.1.661.147.993.078.516.159,1.028.235,1.545.054.367.1.734.147,1.1s.12.734.178,1.1c.053.33.1.662.147.993q.1.661.2,1.322c.06.4.119.809.179,1.215s.122.79.181,1.185.113.774.169,1.16c.01.073.019.147.032.22.059.358.12.715.178,1.074.041.266.076.535.115.8.053.377.1.755.157,1.132.021.138.051.275.073.413a.786.786,0,0,1,.016.166.115.115,0,0,1-.1.118,1.613,1.613,0,0,1-.222.013h-2.2c-.372,0-.4-.025-.411-.391a2.144,2.144,0,0,0-.043-.3c-.023-.166-.046-.332-.068-.5a.529.529,0,0,0-.015-.147c-.063-.413-.129-.827-.187-1.241s-.113-.868-.169-1.3a.9.9,0,0,0-.021-.166.164.164,0,0,0-.147-.147,1.435,1.435,0,0,0-.194-.01h-2.431c-.135.013-.176.048-.21.182-.009.035-.015.072-.021.11l-.172,1.3a.471.471,0,0,1-.009.112q-.159,1.119-.319,2.238a.143.143,0,0,1-.007.056c-.035.169-.073.2-.242.2-.577,0-1.155-.007-1.732-.007-.234,0-.466.007-.7.01-.175,0-.226-.044-.207-.209.021-.194.051-.388.079-.58l.181-1.243c.04-.276.079-.552.123-.828.06-.386.125-.771.187-1.157q.066-.413.128-.827c.057-.4.11-.793.169-1.188.054-.36.117-.717.172-1.075.06-.4.113-.811.175-1.215.053-.358.113-.717.169-1.075.025-.164.041-.332.066-.5.053-.35.107-.7.162-1.047.068-.441.134-.881.2-1.322.059-.378.12-.753.176-1.131.06-.4.116-.809.175-1.215a.7.7,0,0,1,.013-.11c.1-.643.209-1.285.307-1.93s.187-1.288.282-1.933c.053-.358.115-.717.17-1.075.021-.128.037-.257.053-.386a.447.447,0,0,1,.015-.14c.087-.5.1-.452.524-.454h1.4Zm-.019,13.229h.726a1.069,1.069,0,0,0,.194-.015.123.123,0,0,0,.1-.117.545.545,0,0,0,0-.138c-.04-.3-.082-.608-.123-.912l-.223-1.714c-.015-.11-.034-.22-.048-.331-.06-.452-.119-.9-.176-1.356-.053-.405-.1-.812-.147-1.218-.029-.231-.056-.461-.091-.69-.025-.156-.059-.31-.093-.464-.012-.056-.038-.11-.109-.106s-.094.056-.109.112-.031.147-.043.219c-.019.138-.032.276-.053.414-.06.441-.126.865-.184,1.3-.053.4-.093.793-.147,1.188-.1.709-.2,1.417-.3,2.125-.007.056-.01.112-.018.167-.026.192-.056.386-.078.58-.031.248-.062.5-.081.748-.01.132.047.189.175.2h.2C475.391,264.273,475.6,264.272,475.818,264.272Z" transform="translate(-460.746 -250.585)" fill="#0068ff"/>
    <path id="Path_60545" data-name="Path 60545" d="M550.9,255.544a.385.385,0,0,1-.283.075H548.46a.92.92,0,0,1-.11,0c-.147-.016-.182-.053-.191-.189v-2.515a3.536,3.536,0,0,0-.072-.693,1.572,1.572,0,0,0-.283-.6,1.015,1.015,0,0,0-1.592.068,1.909,1.909,0,0,0-.285.778,7.7,7.7,0,0,0-.044.974v11.2a4.759,4.759,0,0,0,.048.724,1.777,1.777,0,0,0,.283.721.969.969,0,0,0,1.1.383,1.028,1.028,0,0,0,.673-.615,2.282,2.282,0,0,0,.169-.9v-2.462c0-.355.016-.37.385-.372h2.09c.257.007.285.031.285.294,0,.922.018,1.845-.012,2.766a4.8,4.8,0,0,1-.959,2.807,3.388,3.388,0,0,1-1.692,1.226,2.764,2.764,0,0,1-.881.162c-.326,0-.652.012-.977,0a3.318,3.318,0,0,1-1.673-.558,3.573,3.573,0,0,1-1.133-1.215,5.039,5.039,0,0,1-.643-1.8,7.929,7.929,0,0,1-.091-1.222V252.988a5.683,5.683,0,0,1,.708-2.811,3.43,3.43,0,0,1,1.576-1.488,3.262,3.262,0,0,1,1.15-.319c.232-.015.464-.053.7-.046a3.87,3.87,0,0,1,1.923.5,3.787,3.787,0,0,1,1.528,1.763,6.456,6.456,0,0,1,.441,1.551,2.128,2.128,0,0,1,.023.335v2.876A1.751,1.751,0,0,1,550.9,255.544Z" transform="translate(-522.13 -248.28)" fill="#0068ff"/>
    <path id="Path_60546" data-name="Path 60546" d="M621.856,411.721a.375.375,0,0,1,.059.281v19.857c0,.1,0,.2-.007.306a.135.135,0,0,1-.14.147,1.432,1.432,0,0,1-.2.009h-2.095c-.194,0-.245-.032-.294-.245-.166-.648-.355-1.29-.533-1.936-.147-.511-.273-1.028-.413-1.535-.1-.35-.2-.7-.294-1.046s-.182-.664-.273-1c-.106-.385-.214-.77-.319-1.156-.1-.358-.189-.718-.294-1.077s-.189-.682-.283-1.028q-.154-.551-.307-1.1c-.1-.376-.206-.754-.307-1.129-.019-.072-.032-.147-.051-.217a.807.807,0,0,0-.041-.132c-.023-.051-.059-.1-.125-.094s-.087.063-.091.12c0,.084-.007.167-.007.251V432.14c-.009.123-.046.159-.175.169a1.563,1.563,0,0,1-.167,0H613.46c-.348,0-.36-.013-.36-.363V411.9c0-.162.041-.194.2-.206h2.178c.279,0,.294.028.373.307.094.36.2.718.294,1.077.109.394.214.789.323,1.182.147.5.282,1,.419,1.506s.275,1.028.414,1.535c.1.358.206.714.3,1.072.09.323.173.646.26.969l.294,1.1c.1.385.207.771.313,1.157.09.332.182.662.275.994l.147.564.029.109c.018.066.048.122.128.126s.107-.056.115-.163V411.977c0-.256.023-.283.263-.285h2.234A1.214,1.214,0,0,1,621.856,411.721Z" transform="translate(-582.056 -387.651)" fill="#0068ff"/>
    <path id="Path_60547" data-name="Path 60547" d="M472.055,411.747a.381.381,0,0,1,.066.294v7.821a2.334,2.334,0,0,0,0,.25c.01.106.053.147.162.157a1.739,1.739,0,0,0,.2.007h1.676c.338,0,.357-.025.355-.369q-.009-3.325-.016-6.648V412a1.994,1.994,0,0,1,.019-.206.367.367,0,0,1,.281-.063h2.319c.073,0,.147,0,.223.007.107.01.147.051.156.159a1.58,1.58,0,0,1,0,.167V431.9c0,.1,0,.2-.009.306a.147.147,0,0,1-.147.147,1.457,1.457,0,0,1-.2.01h-2.35c-.307,0-.323-.019-.325-.341v-8.429c-.015-.147-.063-.2-.206-.214-.075-.007-.147,0-.223,0h-1.547c-.385,0-.4.01-.4.386v8.406c-.009.157-.041.188-.206.2h-2.4c-.354,0-.364-.01-.364-.358V412.067c0-.3.015-.319.313-.32h2.4A.643.643,0,0,1,472.055,411.747Z" transform="translate(-459.224 -387.685)" fill="#0068ff"/>
    <path id="Path_60548" data-name="Path 60548" d="M684.622,419.364v-6.006a6.074,6.074,0,0,1,.2-1.685,4.739,4.739,0,0,1,.944-1.851,3.327,3.327,0,0,1,1.552-1.006,4.587,4.587,0,0,1,2.125-.138,3.48,3.48,0,0,1,1.469.588,3.576,3.576,0,0,1,1.113,1.266,4.768,4.768,0,0,1,.454,1.109,6.018,6.018,0,0,1,.167.846c.044.457.046.911.046,1.367v2.011c0,.344-.025.367-.364.369h-2.335c-.294,0-.322-.023-.323-.316V412.79a1.725,1.725,0,0,0-.206-.748.872.872,0,0,0-.842-.493.862.862,0,0,0-.734.441,1.468,1.468,0,0,0-.235.679c-.015.214-.038.427-.038.642v11.955c0,.242.021.483.038.726a1.339,1.339,0,0,0,.273.692.9.9,0,0,0,1.53-.118,2.145,2.145,0,0,0,.226-.94v-3.575c0-.26-.032-.286-.294-.294h-.558a1.077,1.077,0,0,1-.2-.012.132.132,0,0,1-.126-.126,1.266,1.266,0,0,1-.016-.169q0-.952,0-1.9v-.056c0-.223.034-.25.263-.257h3.493a2.175,2.175,0,0,1,.278.013.147.147,0,0,1,.147.147,1.843,1.843,0,0,1,.009.222v9.5c0,.348-.009.357-.363.358h-1.257a.192.192,0,0,1-.189-.135c-.071-.192-.157-.379-.217-.574s-.14-.226-.294-.065a3.068,3.068,0,0,1-.682.573,2.937,2.937,0,0,1-1.426.424,4.1,4.1,0,0,1-1.16-.138,2.25,2.25,0,0,1-.783-.36,3.827,3.827,0,0,1-1.379-1.818,5.248,5.248,0,0,1-.294-1.836v-6.169Z" transform="translate(-643.072 -385.026)" fill="#0068ff"/>
    <path id="Path_60549" data-name="Path 60549" d="M546.715,432.3c-.119.012-.2.028-.282.028h-2.374c-.213,0-.248-.032-.275-.254-.053-.441-.128-.881-.19-1.322-.059-.416-.113-.83-.166-1.246-.047-.369-.09-.734-.138-1.107-.026-.2-.082-.25-.294-.26h-2.482c-.135.01-.178.048-.21.182-.01.046-.016.091-.024.138-.062.451-.122.9-.184,1.354-.056.416-.11.83-.166,1.246-.032.239-.062.479-.1.718-.019.138-.044.276-.07.413a.156.156,0,0,1-.157.134h-2.425a.423.423,0,0,1-.3-.059,3.269,3.269,0,0,1,.063-.629c.068-.5.147-.993.222-1.489l.11-.717q.091-.565.179-1.129c.046-.285.091-.57.134-.855.053-.36.1-.72.154-1.078.066-.432.14-.864.206-1.3.056-.367.1-.734.157-1.1.015-.1.031-.2.047-.3.023-.157.045-.313.069-.47v-.054c.06-.378.122-.753.182-1.13q.075-.482.147-.965c.073-.479.147-.956.216-1.435.06-.414.113-.83.173-1.244.054-.367.119-.734.176-1.1s.107-.734.162-1.1a.55.55,0,0,1,.012-.138c.057-.358.116-.717.172-1.075s.106-.717.162-1.075c.069-.441.147-.881.209-1.322.021-.129.035-.259.053-.388.012-.082.018-.167.035-.248.035-.172.07-.2.242-.209h3.156c.31,0,.306.029.342.307.053.4.128.789.189,1.185s.116.809.176,1.215c.013.093.032.184.047.275.022.147.044.294.065.441.01.073.018.147.028.22.07.47.14.939.211,1.407.059.377.123.752.184,1.13q.07.454.135.911c.056.386.1.774.163,1.16s.129.79.189,1.185c.056.367.1.734.147,1.106v.054c.06.367.122.734.178,1.1s.107.734.16,1.1a.362.362,0,0,0,.012.112c.06.367.123.734.179,1.1.063.4.119.809.179,1.215q.076.524.156,1.049.1.651.2,1.3c.059.386.12.773.181,1.157.051.33.1.662.147.993.029.192.059.386.085.587A1.116,1.116,0,0,1,546.715,432.3Zm-4.954-7.344h.7a1.443,1.443,0,0,0,.2-.013.159.159,0,0,0,.147-.173,1.455,1.455,0,0,0-.021-.194c-.013-.1-.031-.2-.044-.3-.066-.507-.131-1.015-.2-1.522-.057-.441-.119-.881-.175-1.322s-.1-.849-.159-1.273-.122-.865-.182-1.3a.412.412,0,0,0-.01-.112c-.038-.238-.075-.477-.116-.715-.016-.088-.068-.135-.12-.128a.134.134,0,0,0-.109.113,1.672,1.672,0,0,0-.034.192c-.015.1-.026.2-.041.3-.06.414-.122.827-.182,1.241a.412.412,0,0,1-.01.112c-.021.166-.041.332-.063.5-.015.11-.032.22-.047.33-.025.185-.048.369-.073.554-.013.092-.029.184-.041.276-.057.441-.112.881-.17,1.322-.084.627-.172,1.253-.256,1.88-.019.147.032.213.175.228h.2Z" transform="translate(-517.031 -387.668)" fill="#0068ff"/>
    <path id="Path_60550" data-name="Path 60550" d="M401.74,419.146v-5.781a6.6,6.6,0,0,1,.1-1.165,5.823,5.823,0,0,1,.5-1.533,3.5,3.5,0,0,1,2.587-2.006,4.784,4.784,0,0,1,1.166-.072,3.712,3.712,0,0,1,1.579.419,3.637,3.637,0,0,1,1.53,1.576,5.041,5.041,0,0,1,.408,1.037,5.357,5.357,0,0,1,.206,1.293v2.6c0,.347-.015.355-.367.355h-2.064c-.348,0-.364-.015-.383-.354-.007-.14-.007-.279-.007-.419v-1.927a4.564,4.564,0,0,0-.021-.53,1.456,1.456,0,0,0-.353-.8,1.048,1.048,0,0,0-1.175-.225,1.111,1.111,0,0,0-.354.311,1.339,1.339,0,0,0-.26.58,4.966,4.966,0,0,0-.094.881V424.8a3.844,3.844,0,0,0,.078.943,1.681,1.681,0,0,0,.385.734.78.78,0,0,0,.538.264,1.017,1.017,0,0,0,.95-.355,1.393,1.393,0,0,0,.294-.714c.029-.278.041-.558.043-.836v-2.1c0-.344.016-.358.366-.36h2.095c.311,0,.333.021.335.332,0,.848.009,1.7,0,2.541a5.246,5.246,0,0,1-.721,2.607,3.546,3.546,0,0,1-1.651,1.491,3.81,3.81,0,0,1-.692.21,4.468,4.468,0,0,1-1.248.085,3.54,3.54,0,0,1-3.115-1.983,5.459,5.459,0,0,1-.538-1.548,7.391,7.391,0,0,1-.107-1.416v-5.558Z" transform="translate(-401.74 -384.998)" fill="#0068ff"/>
    <path id="Path_60551" data-name="Path 60551" d="M750.909,411.325c.109,0,.209-.015.31-.015h6.169c.389,0,.389,0,.389.388v2.318a1.638,1.638,0,0,1-.01.223.147.147,0,0,1-.147.147,2.209,2.209,0,0,1-.279.012H754.3a2.4,2.4,0,0,0-.251.009.163.163,0,0,0-.16.163,2.535,2.535,0,0,0-.01.279v4.8c.012.167.051.2.228.214h2.2c.35,0,.357.01.358.363v2.6c0,.314-.018.333-.329.335h-2.067c-.383,0-.4.012-.4.386v4.943c0,.376.01.385.4.385h3.045c.093,0,.187,0,.278.009.115.012.162.063.173.182a1.767,1.767,0,0,1,0,.2v2.35a1.856,1.856,0,0,1-.01.222.157.157,0,0,1-.147.147,1.606,1.606,0,0,1-.223.012h-6.137c-.386,0-.392,0-.392-.389V411.692A.76.76,0,0,1,750.909,411.325Z" transform="translate(-699.578 -387.327)" fill="#0068ff"/>
    <path id="Path_60552" data-name="Path 60552" d="M682.6,332.758c.107.009.178.021.25.021h1.088a.132.132,0,0,1,.134.115.135.135,0,0,1-.125.156,1.616,1.616,0,0,1-.222.018h-.753c-.147,0-.294,0-.452.01-.047.123-.093.235-.134.347-.407,1.1-.808,2.2-1.221,3.3a17.708,17.708,0,0,1-.9,2.009,8.013,8.013,0,0,1-.771,1.228,4,4,0,0,1-.6.623,2.1,2.1,0,0,1-.94.467,1.778,1.778,0,0,1-.936-.051.631.631,0,0,1-.416-.8.407.407,0,0,1,.331-.3.926.926,0,0,1,.278-.012.294.294,0,0,1,.248.441,2.939,2.939,0,0,1-.147.256.294.294,0,0,0,.307.253,1.138,1.138,0,0,0,.8-.281,1.6,1.6,0,0,0,.417-.518,7.846,7.846,0,0,0,.351-.758c.276-.734.539-1.469.8-2.2q.649-1.84,1.293-3.684a.651.651,0,0,0,.072-.311,5.93,5.93,0,0,0-.84.007,1.374,1.374,0,0,1-.22,0,.09.09,0,0,1-.094-.085.169.169,0,0,1,.043-.123.477.477,0,0,1,.2-.087,2.284,2.284,0,0,1,.333-.018h.677a.548.548,0,0,0,.162-.282,11.189,11.189,0,0,1,.7-1.486,4.321,4.321,0,0,1,.646-.872,2.238,2.238,0,0,1,1.257-.673,1.836,1.836,0,0,1,.828.029.969.969,0,0,1,.43.248.652.652,0,0,1,.166.695.348.348,0,0,1-.3.253.947.947,0,0,1-.25,0,.306.306,0,0,1-.234-.461c.025-.048.065-.091.093-.139a.25.25,0,0,0-.194-.408.993.993,0,0,0-.961.316,1.949,1.949,0,0,0-.336.511c-.138.305-.272.612-.394.924-.147.364-.267.734-.4,1.1C682.648,332.589,682.633,332.657,682.6,332.758Z" transform="translate(-636.206 -317.465)" fill="#ffbe55"/>
    <path id="Path_60553" data-name="Path 60553" d="M718.49,355.372a3.021,3.021,0,0,1,.441-1.513,4.437,4.437,0,0,1,1.933-1.716,2.519,2.519,0,0,1,1.165-.235,1.492,1.492,0,0,1,1.262.7,2.04,2.04,0,0,1,.323,1.055,2.885,2.885,0,0,1-.422,1.679,4.335,4.335,0,0,1-1.607,1.553,2.736,2.736,0,0,1-1.416.358,1.632,1.632,0,0,1-1.594-1.275C718.531,355.781,718.519,355.575,718.49,355.372Zm1,.6a3.394,3.394,0,0,0,0,.389.656.656,0,0,0,.607.626,1.208,1.208,0,0,0,.333,0,1.519,1.519,0,0,0,.837-.411,2.906,2.906,0,0,0,.546-.7,6.105,6.105,0,0,0,.814-2.357,2.114,2.114,0,0,0-.023-.831.658.658,0,0,0-.646-.516,1.372,1.372,0,0,0-.98.329,2.7,2.7,0,0,0-.551.626,6.169,6.169,0,0,0-.62,1.247A4.58,4.58,0,0,0,719.489,355.97Z" transform="translate(-671.966 -336.649)" fill="#ffbe55"/>
    <path id="Path_60554" data-name="Path 60554" d="M754.817,352.985a.584.584,0,0,1,.132-.071,1.914,1.914,0,0,1,.3-.034,4.77,4.77,0,0,0,.969-.106.814.814,0,0,1,.084-.012c.147-.018.2.044.157.2-.026.09-.063.175-.1.261-.106.266-.214.532-.325.8.087.015.1-.053.128-.088a4.505,4.505,0,0,1,.724-.734,3.685,3.685,0,0,1,.5-.31.975.975,0,0,1,.6-.079.468.468,0,0,1,.432.467.623.623,0,0,1-.22.546.476.476,0,0,1-.306.122.192.192,0,0,1-.2-.235.826.826,0,0,0,.026-.137.25.25,0,0,0-.31-.294.756.756,0,0,0-.284.107,2.551,2.551,0,0,0-.373.294,4.959,4.959,0,0,0-.758.927,8.919,8.919,0,0,0-.64,1.175l-.787,1.727-.063.126c-.156.338-.156.335-.516.325-.12,0-.241.009-.361.01-.073,0-.147,0-.242-.007a1.638,1.638,0,0,1,.056-.2l1.886-4.292a.8.8,0,0,0,.109-.335.622.622,0,0,0-.138-.051,1.894,1.894,0,0,0-.223,0A.293.293,0,0,1,754.817,352.985Z" transform="translate(-701.731 -337.377)" fill="#ffbe55"/>
  </g>
</svg>
