<svg xmlns="http://www.w3.org/2000/svg" width="23.688" height="32.332" viewBox="0 0 23.688 32.332">
  <g id="Group_5123" data-name="Group 5123" transform="translate(-15.2 -2.5)">
    <path id="Path_60689" data-name="Path 60689" d="M33.272,67.6c-.408.715-.851,1.4-1.293,2.042,2.859.647,4.561,1.77,4.561,2.621,0,1.259-3.778,3.165-9.5,3.165s-9.5-1.906-9.5-3.165c0-.851,1.7-1.94,4.561-2.621-.442-.647-.885-1.327-1.293-2.042-3.267.851-5.616,2.382-5.616,4.663,0,3.608,5.956,5.514,11.844,5.514s11.844-1.906,11.844-5.514C38.888,69.982,36.539,68.451,33.272,67.6Z" transform="translate(0 -42.944)" fill="#0068ff"/>
    <path id="Path_60690" data-name="Path 60690" d="M33.046,28.366c2.416-3.574,8.2-12.525,8.2-16.575a9.274,9.274,0,1,0-18.549,0c0,4.05,5.82,13,8.236,16.575A1.306,1.306,0,0,0,33.046,28.366ZM27.669,11.791a4.322,4.322,0,1,1,4.322,4.288A4.328,4.328,0,0,1,27.669,11.791Z" transform="translate(-4.947 0)" fill="#0068ff"/>
  </g>
</svg>
