<svg xmlns="http://www.w3.org/2000/svg" width="23.5" height="23.5" viewBox="0 0 23.5 23.5">
  <g id="Group_5126" data-name="Group 5126" transform="translate(-9343.5 -625)">
    <g id="Group_5036" data-name="Group 5036" transform="translate(9343.5 625)">
      <path id="Path_61072" data-name="Path 61072" d="M24.689,8.907l-1.781,1.286a9.374,9.374,0,0,1,.915,4.057,9.6,9.6,0,1,1-9.573-9.6,9.215,9.215,0,0,1,4.057.915l1.286-1.756A11.383,11.383,0,0,0,14.25,2.5,11.75,11.75,0,1,0,26,14.25,11.458,11.458,0,0,0,24.689,8.907Z" transform="translate(-2.5 -2.5)"/>
      <path id="Path_61073" data-name="Path 61073" d="M27.346,22.152a4.857,4.857,0,0,1,1.459.223l1.311-1.831A7.374,7.374,0,0,0,27.346,20a7.433,7.433,0,1,0,7.446,7.421,7.279,7.279,0,0,0-.544-2.771l-1.831,1.336a4.574,4.574,0,0,1,.2,1.435,5.281,5.281,0,1,1-5.269-5.269Z" transform="translate(-15.596 -15.671)"/>
      <path id="Path_61074" data-name="Path 61074" d="M42.256,11.76a.692.692,0,0,0-.643-.173.656.656,0,0,0-.445.47l-1.014,4.477a.644.644,0,0,0,.173.594.676.676,0,0,0,.47.2.314.314,0,0,0,.148-.025l4.477-1.014a.617.617,0,0,0,.47-.445.634.634,0,0,0-.173-.643l-1.088-1.064,8.905-7.767a1.709,1.709,0,0,0,.074-2.523,1.728,1.728,0,0,0-2.523.074L43.32,12.824Z" transform="translate(-30.828 -3.127)"/>
    </g>
  </g>
</svg>
