<svg xmlns="http://www.w3.org/2000/svg" width="19" height="19" viewBox="0 0 19 19">
  <path id="Path_61071" data-name="Path 61071" d="M81.476,76.471a10.787,10.787,0,0,1-3.388-.54,1.548,1.548,0,0,0-1.506.318l-2.136,1.613a11.806,11.806,0,0,1-5.308-5.307L70.7,70.474a1.536,1.536,0,0,0,.378-1.556,10.8,10.8,0,0,1-.542-3.393A1.526,1.526,0,0,0,69.014,64H65.525A1.526,1.526,0,0,0,64,65.525,17.5,17.5,0,0,0,81.476,83,1.526,1.526,0,0,0,83,81.475V78A1.526,1.526,0,0,0,81.476,76.471Z" transform="translate(-64 -64)" fill="#ffbe55"/>
</svg>
