<svg xmlns="http://www.w3.org/2000/svg" width="25.823" height="25.823" viewBox="0 0 25.823 25.823">
  <path id="Path_61727" data-name="Path 61727" d="M87.751,80.95a14.661,14.661,0,0,1-4.6-.733,2.1,2.1,0,0,0-2.047.432l-2.9,2.192a16.046,16.046,0,0,1-7.214-7.213L73.109,72.8a2.087,2.087,0,0,0,.514-2.115,14.682,14.682,0,0,1-.736-4.612A2.074,2.074,0,0,0,70.814,64H66.072A2.074,2.074,0,0,0,64,66.072a23.777,23.777,0,0,0,23.751,23.75,2.074,2.074,0,0,0,2.072-2.072V83.022A2.074,2.074,0,0,0,87.751,80.95Z" transform="translate(-64 -64)" fill="#0068ff"/>
</svg>
