<svg xmlns="http://www.w3.org/2000/svg" xmlns:xlink="http://www.w3.org/1999/xlink" width="412.5" height="287.285" viewBox="0 0 412.5 287.285">
  <defs>
    <linearGradient id="linear-gradient" x1="0.5" y1="1" x2="0.5" gradientUnits="objectBoundingBox">
      <stop offset="0" stop-color="gray" stop-opacity="0.251"/>
      <stop offset="0.54" stop-color="gray" stop-opacity="0.122"/>
      <stop offset="1" stop-color="gray" stop-opacity="0.102"/>
    </linearGradient>
    <linearGradient id="linear-gradient-2" x1="0.495" y1="1.014" x2="0.495" y2="0" xlink:href="#linear-gradient"/>
    <linearGradient id="linear-gradient-3" x1="0.5" y1="1" x2="0.5" y2="0" xlink:href="#linear-gradient"/>
    <linearGradient id="linear-gradient-4" x1="0.5" y1="1" x2="0.5" y2="0" xlink:href="#linear-gradient"/>
  </defs>
  <g id="undraw_celebration_0jvk_1_" data-name="undraw_celebration_0jvk (1)" transform="translate(0.02 -0.02)">
    <circle id="Ellipse_1285" data-name="Ellipse 1285" cx="20.19" cy="20.19" r="20.19" transform="translate(21.112 8.498)" fill="#0068ff"/>
    <path id="Path_61741" data-name="Path 61741" d="M182.4,189.029c8.477,19.148-2.336,41.2-15.066,57.8-4.26,5.568-8.964,11.4-9.554,18.388-.712,8.543,5.073,16.395,11.934,21.528a50.252,50.252,0,0,0,44.506,7.526c12.872-4.078,23.7-13.289,36.68-17,21.715-6.219,44.732,4.091,63.329,16.937,13.163,9.081,27.261,20.147,43.13,18.2,11.166-1.368,20.642-9.207,27.074-18.436,3.105-4.456,5.806-9.45,10.328-12.456a25.852,25.852,0,0,1,9-3.414c28.833-6.163,59.433,8.877,87.884,1.142,19.217-5.212,34.539-20.412,44.068-37.9s13.976-37.236,17.68-56.8c2.632-13.9,4.816-28.911-1.233-41.692-6.4-13.533-21.22-21.736-36.111-23.274s-29.827,2.706-43.547,8.69c-17.142,7.5-33.944,17.988-52.654,18.023-12.742.026-24.894-4.864-37.076-8.595-20.368-6.232-41.549-9.329-62.656-12.186-20.208-2.736-40.615-5.281-60.944-3.665-14.384,1.142-27.087,6.64-41.045,9.185-9.1,1.659-18.24.434-27.169,3.214-11,3.44-22.305,11.409-22.913,23.96C167.476,170.151,177.908,178.871,182.4,189.029Z" transform="translate(-143.567 -119.24)" fill="#0068ff" opacity="0.1"/>
    <path id="Path_61742" data-name="Path 61742" d="M566.677,279.462c-1.854-4.834-6.636-16.195-9.785-13.941-3.978,2.849,3.978,15.435,3.978,15.435.226,2.31-4.247,7.118-6.645,9.515v-.3a1.044,1.044,0,0,1-.1.261l-.2-.109a1.3,1.3,0,0,1-.282.517,5.071,5.071,0,0,0-.022-.517c-.46,1.95-8.495,4.421-8.495,4.421h-.591c-2.232,0-8.043-.5-10.736-4.812a23.823,23.823,0,0,0-5.268-6.145,4.487,4.487,0,0,0-2.5-.947,32.131,32.131,0,0,1-14.666-5.046l-.221-.152-.048.139c-.282-.4-.556-.834-.812-1.277h0l-.13-.239a10.909,10.909,0,0,0,6.015-9.7v-.226a7.43,7.43,0,0,0,1-3.722v-1.3l1.7-1.511a6.982,6.982,0,0,0,1.976-2.371,2.811,2.811,0,0,0,.208-1.216,2.106,2.106,0,0,0-.8-1.885c-1.3-.9-3.474,0-4.417-1.251-.434-.565-.356-1.333-.569-2a3.575,3.575,0,0,0-3.444-2.1,14.879,14.879,0,0,0-4.221.9,24.786,24.786,0,0,1-8.99.843,5.872,5.872,0,0,0-2.462.087,3.392,3.392,0,0,0-2,2.323,5.459,5.459,0,0,0-.191,1.19,7.487,7.487,0,0,0-1.885,4.955v3.34a7.483,7.483,0,0,0,1.8,4.86,10.857,10.857,0,0,0,4.547,7.921v.265l.056.035a17.955,17.955,0,0,1-.478,3.07v-.221a31.389,31.389,0,0,1-12.595,3.314h-.717a4.851,4.851,0,0,0-3.474,1.3c-1.928,1.815-5.307,4.686-7.383,4.686-.434,0-11.4,2.141-13.211,2.5l-3.392-3.322-.1.2-.2-.2a8.248,8.248,0,0,0-1.1.161,26.287,26.287,0,0,1-6.015-13.268s7.5-8.543,4.742-16.5c-2.354-6.784-8.838,7.756-10.679,12.138a3.5,3.5,0,0,0-.113,2.41l6.093,19.639a9.211,9.211,0,0,0-.482,4.777H449.3l4.438,5.694a23.435,23.435,0,0,0,8.564,1.4,29.94,29.94,0,0,0,11.179-2.145h1.029l-.2.074H479.6l3.361,10.167c-.113.925-1.737,13.837-3.04,16.725a7.257,7.257,0,0,0-.513,3.04,23.208,23.208,0,0,0,.969,5.885l2.944-.109-.113.23a153.283,153.283,0,0,0-9.12,22.731l-4.286,8.686,3.214,38.956h.13l.248.039h0c.347.052.869.13,1.555.217l-.252.434-7.083,11.726s-5.051,10.341,6.124,8.391c0,0,4.13-1.2,5.815-8.252l7.348-6.892s.343-4.577-1.737-6.406c-.13-2.115-.46-8.291.048-9.776.612-1.8-2.606-22.475-2.606-22.475s11.63-24.125,18.675-24.724a3.861,3.861,0,0,1,1.524.2c5.789,1.885,12.8,15.882,14.866,20.238h0l.1.2v.039l.078.169v.048l.07.148v.039l.061.135v.03l.052.109v.043l.039.083v.035l.026.061v.074h0l.022.052.916,27.122h0l.091.048h.043l-.078.56-.4,2.8s5.051,10.64,4.743,11.987,3.366,6.745,8.569,5.246,2.106-9.945,2.106-9.945l-5.012-10.328-.222-.46a9.854,9.854,0,0,0,1.407-1.047s-1.529-11.087,0-13.485,1.989-13.337,1.989-13.337-1.073-7.492-2.91-10.788l-7.7-27.469c2.306,2.145,4.1,2.984,5.6,2.927h.248a3.739,3.739,0,0,0,1.885-.469,5.312,5.312,0,0,0,.869-.612,1.381,1.381,0,0,0,.143-.143h0c2.141-1.8-2.449-8.842-5.051-13.029-2.506-4.039.947-15.014,1.207-15.83a4.145,4.145,0,0,1,.743-.434,4.582,4.582,0,0,1,1.7-.369c2.493.087,5.559,1.52,9.355,2.241a44.137,44.137,0,0,0,7.987.621h.156c1.064,0,2.028-.022,2.81-.052a4.747,4.747,0,0,0,2.041-.552h0a6.163,6.163,0,0,0,1.451-1.173l6.662-7.526-.174.082a3.744,3.744,0,0,0,0-2.649l7.04-12.16A4.625,4.625,0,0,0,566.677,279.462Z" transform="translate(-305.288 -192.622)" fill="url(#linear-gradient)"/>
    <path id="Path_61743" data-name="Path 61743" d="M519.2,615.754l-7.092,6.8c-1.624,6.949-5.615,8.126-5.615,8.126-10.784,1.92-5.911-8.252-5.911-8.252l6.84-11.574.843-1.429s4.877-1.477,8.126-.591a2.781,2.781,0,0,1,1.107.6C519.532,611.2,519.2,615.754,519.2,615.754Z" transform="translate(-336.902 -396.033)" fill="#444176"/>
    <path id="Path_61744" data-name="Path 61744" d="M628.842,610.047c-5.025,1.477-8.569-3.839-8.252-5.172S616,593.07,616,593.07l.382-2.762.356-2.558,8.252.591.777,1.633,4.838,10.184S633.867,608.57,628.842,610.047Z" transform="translate(-402.817 -384.268)" fill="#444176"/>
    <path id="Path_61745" data-name="Path 61745" d="M527.919,610.557c-.777,1.333-7.079.66-10.149.243l.843-1.429s4.877-1.477,8.126-.591a2.78,2.78,0,0,1,1.107.6C527.889,610.1,527.919,610.557,527.919,610.557Z" transform="translate(-347.248 -396.005)" opacity="0.1"/>
    <path id="Path_61746" data-name="Path 61746" d="M626.262,589.953c-4.226,2.814-8.725.686-9.4.334l.356-2.558,8.252.591Z" transform="translate(-403.303 -384.256)" opacity="0.1"/>
    <path id="Path_61747" data-name="Path 61747" d="M565.164,484.335c-1.477,2.363,0,13.3,0,13.3-4.877,4.434-10.636,1.181-10.636,1.181l-.869-26.739s-9.6-22.014-16.4-21.424-18.023,24.377-18.023,24.377,3.1,20.386,2.51,22.149,0,10.341,0,10.341c-1.034,1.772-11.817,0-11.817,0l-3.1-38.413,4.117-8.573a151.967,151.967,0,0,1,8.794-22.41c1.194-2.506,1.993-4.035,1.993-4.035l7.861-1.637,25.515-5.29,9.168,33.371c1.772,3.249,2.806,10.636,2.806,10.636S566.641,481.972,565.164,484.335Z" transform="translate(-341.059 -293.421)" fill="#565387"/>
    <g id="Group_5692" data-name="Group 5692" transform="translate(165.754 133.722)" opacity="0.1">
      <path id="Path_61748" data-name="Path 61748" d="M598.448,529.4l-.869-26.739s-9.6-22.014-16.4-21.424a3.7,3.7,0,0,0-.89.2c6.627,2.2,14.927,21.224,14.927,21.224l.869,26.739a10.423,10.423,0,0,0,5.876,1.073A10.455,10.455,0,0,1,598.448,529.4Z" transform="translate(-548.369 -457.726)"/>
      <path id="Path_61749" data-name="Path 61749" d="M512.253,507.508l-3.1-38.413,4.134-8.586a151.966,151.966,0,0,1,8.794-22.41c1.194-2.506,1.993-4.035,1.993-4.035l7.861-1.637,23.291-4.842-.126-.465-25.528,5.307-7.861,1.637s-.8,1.529-1.993,4.035a151.775,151.775,0,0,0-8.794,22.41l-4.134,8.569,3.1,38.413a55.492,55.492,0,0,0,9.381.756A69.775,69.775,0,0,1,512.253,507.508Z" transform="translate(-506.79 -427.12)"/>
    </g>
    <path id="Path_61750" data-name="Path 61750" d="M468.422,338.21s-8.421.434-7.24,9.307l2.363.3,3.544-3.839,1.772-3.249v-.738Z" transform="translate(-315.171 -243.101)" fill="#ced2df"/>
    <path id="Path_61751" data-name="Path 61751" d="M468.422,338.21s-8.421.434-7.24,9.307l2.363.3,3.544-3.839,1.772-3.249v-.738Z" transform="translate(-315.171 -243.101)" opacity="0.1"/>
    <path id="Path_61752" data-name="Path 61752" d="M693.15,345.69s6.949,3.692,5.172,7.978l-2.215.869-2.953-1.624-.434-3.839.3-2.658Z" transform="translate(-446.218 -247.333)" fill="#ced2df"/>
    <path id="Path_61753" data-name="Path 61753" d="M693.15,345.69s6.949,3.692,5.172,7.978l-2.215.869-2.953-1.624-.434-3.839.3-2.658Z" transform="translate(-446.218 -247.333)" opacity="0.1"/>
    <rect id="Rectangle_4072" data-name="Rectangle 4072" width="24.229" height="18.318" rx="9.159" transform="translate(187.247 60.239)" fill="#88455e"/>
    <path id="Path_61754" data-name="Path 61754" d="M461.21,299.143l-5.172,8.252-.434-1.468-7.027-22.9a3.522,3.522,0,0,1,.109-2.376c1.776-4.317,8.039-18.675,10.31-11.965,2.658,7.817-4.582,16.251-4.582,16.251a26.024,26.024,0,0,0,6.18,13.524C460.976,298.913,461.21,299.143,461.21,299.143Z" transform="translate(-308.016 -202.779)" fill="#ec8c9c"/>
    <path id="Path_61755" data-name="Path 61755" d="M691.16,315.038s8.126-7.683,7.817-10.783c0,0-7.683-12.408-3.839-15.2,3.04-2.224,7.656,8.981,9.446,13.745a4.647,4.647,0,0,1-.308,3.909L694.565,323.9Z" transform="translate(-445.336 -215.13)" fill="#ec8c9c"/>
    <path id="Path_61756" data-name="Path 61756" d="M565.474,299.917s1.477,9.455-2.806,13,12.264,3.526,12.264,3.526l5.911-5.468s-6.8-6.354-4.729-11.079Z" transform="translate(-372.246 -221.429)" fill="#ec8c9c"/>
    <path id="Path_61757" data-name="Path 61757" d="M553.482,324s6.354,4.729,12.7-.591l10.341,21.424-.591,26.149s-21.424,11.079-30.288,4.286-1.477-10.341-1.477-10.341l-2.067-20.09,2.215-13s3.987-6.206,4.286-6.206S553.482,324,553.482,324Z" transform="translate(-360.55 -234.729)" opacity="0.1"/>
    <path id="Path_61758" data-name="Path 61758" d="M553.488,323.321s6.354,4.738,12.707-.591l10.341,21.424-.591,26.149s-21.424,11.079-30.288,4.286-1.477-10.341-1.477-10.341l-2.067-20.09,2.215-13s3.987-6.206,4.286-6.206S553.488,323.321,553.488,323.321Z" transform="translate(-360.556 -234.344)" fill="#ebf1f6"/>
    <path id="Path_61759" data-name="Path 61759" d="M508.557,319s-6.024,3.431-12.564,3.262a4.63,4.63,0,0,0-3.34,1.277c-1.863,1.789-5.125,4.621-7.144,4.621-.434,0-13,2.51-13,2.51l-3.322-3.322s-4.951,9.676-7.313,9.233l4.286,5.615s8.126,3.544,18.762-.738h6.206l3.249,10.045s-1.624,13.593-2.953,16.547.434,8.716.434,8.716l11.669-.434s.591-5.763,1.477-6.514-3.1-26.149-3.1-26.149-2.658-14.332,7.092-19.5Z" transform="translate(-315.625 -232.234)" opacity="0.1"/>
    <path id="Path_61760" data-name="Path 61760" d="M546.41,439.38a38.568,38.568,0,0,0-.916,5.329l-8.933.339c1.194-2.506,1.993-4.035,1.993-4.035Z" transform="translate(-357.877 -300.334)" opacity="0.1"/>
    <path id="Path_61761" data-name="Path 61761" d="M470.567,340.212l-5.172,8.252L464.96,347c1.9-1.885,4.121-5.824,5.007-7.466A8.756,8.756,0,0,0,470.567,340.212Z" transform="translate(-317.373 -243.848)" opacity="0.1"/>
    <path id="Path_61762" data-name="Path 61762" d="M508.155,319s-6.323,3.431-12.859,3.262a4.63,4.63,0,0,0-3.34,1.277c-1.863,1.789-5.125,4.621-7.144,4.621-.434,0-13,2.51-13,2.51l-3.335-3.327s-4.951,9.676-7.313,9.233l4.286,5.615s8.126,3.544,18.761-.738h6.206l3.249,10.041s-1.624,13.593-2.953,16.547.434,8.716.434,8.716l11.669-.434s.591-5.763,1.477-6.514-3.1-26.149-3.1-26.149-2.658-14.332,7.092-19.5Z" transform="translate(-315.223 -232.234)" fill="#ced2df"/>
    <path id="Path_61763" data-name="Path 61763" d="M595.977,316.94a28.749,28.749,0,0,0,14.075,5.125,4.278,4.278,0,0,1,2.41.934,23.331,23.331,0,0,1,5.086,6.08c3.248,5.32,11.226,4.729,11.226,4.729s7.756-2.436,8.2-4.343c0,0,.221,10.423,5.1,7.9l-6.414,7.392a4.525,4.525,0,0,1-3.235,1.559,47.56,47.56,0,0,1-10.132-.56c-5.32-1.034-9.159-3.544-11.965-1.329,0,0-3.691,11.522-1.181,15.661s6.949,11.079,4.877,12.855-4.582,1.624-8.716-2.658-4.582-11.522-4.582-11.522l1.034-18.614s-3.987-14.036-7.817-16.842Z" transform="translate(-390.338 -231.069)" opacity="0.1"/>
    <path id="Path_61764" data-name="Path 61764" d="M643.406,337.369l-6.432,7.422a4.521,4.521,0,0,1-1.55,1.155h0a4.5,4.5,0,0,1-1.676.4,46.992,46.992,0,0,1-10.132-.56c-4.977-.968-8.66-3.227-11.413-1.7a4.028,4.028,0,0,0-.556.369s-3.692,11.522-1.181,15.661,6.949,11.079,4.877,12.855a4.776,4.776,0,0,1-1.155.751c-1.859.838-4.165.113-7.561-3.409-4.134-4.286-4.582-11.522-4.582-11.522l1.034-18.614s-3.987-14.036-7.817-16.842l1.689-6.058a30.671,30.671,0,0,0,14.158,4.977,4.278,4.278,0,0,1,2.41.934,23.35,23.35,0,0,1,5.086,6.08c3.249,5.32,11.226,4.729,11.226,4.729a43.114,43.114,0,0,0,5.589-2.224h0a8.52,8.52,0,0,0,2.606-1.737,1.3,1.3,0,0,0,.282-.521S638.533,339.879,643.406,337.369Z" transform="translate(-391.084 -231.255)" opacity="0.1"/>
    <path id="Path_61765" data-name="Path 61765" d="M642.709,337.336l-6.428,7.431a4.521,4.521,0,0,1-1.251,1.008h0a4.508,4.508,0,0,1-1.972.543,47,47,0,0,1-10.132-.56c-4.8-.934-8.4-3.07-11.114-1.85a4.014,4.014,0,0,0-.869.517s-3.692,11.522-1.181,15.661,6.949,11.079,4.877,12.855a5.122,5.122,0,0,1-.869.6c-1.911,1.055-4.273.434-7.856-3.262-4.135-4.286-4.582-11.522-4.582-11.522l1.034-18.614s-3.987-14.036-7.817-16.842l1.772-6.354.213.148a30.671,30.671,0,0,0,14.158,4.977,4.277,4.277,0,0,1,2.41.934,23.347,23.347,0,0,1,5.086,6.08c3.249,5.32,11.227,4.729,11.227,4.729A43.117,43.117,0,0,0,635,331.594h0c1.342-.686,2.436-1.438,2.606-2.124v.373C637.74,331.638,638.392,339.555,642.709,337.336Z" transform="translate(-390.683 -231.074)" fill="#ced2df"/>
    <path id="Path_61766" data-name="Path 61766" d="M580.707,300.45H569.85a26.572,26.572,0,0,1,.2,5.212,11.161,11.161,0,0,0,11.474.825C580.486,304.558,579.852,302.37,580.707,300.45Z" transform="translate(-376.71 -221.74)" opacity="0.1"/>
    <circle id="Ellipse_1286" data-name="Ellipse 1286" cx="10.784" cy="10.784" r="10.784" transform="translate(188.945 64.157)" fill="#ec8c9c"/>
    <path id="Path_61767" data-name="Path 61767" d="M568.859,267.657a11.511,11.511,0,0,1,3.592-.33c1.077.217,1.993.96,3.07,1.186,2.076.434,4-1.094,5.572-2.519l3.387-3.083a6.914,6.914,0,0,0,1.911-2.337,2.345,2.345,0,0,0-.573-2.762c-1.238-.869-3.37,0-4.265-1.233a6.439,6.439,0,0,1-.552-1.967,3.457,3.457,0,0,0-3.327-2.072,14.716,14.716,0,0,0-4.074.869,23.452,23.452,0,0,1-8.686.829,5.55,5.55,0,0,0-2.376.083,3.322,3.322,0,0,0-1.928,2.289c-.669,2.363.473,6.171,1.62,8.286S566.57,267.939,568.859,267.657Z" transform="translate(-371.371 -194.637)" opacity="0.1"/>
    <path id="Path_61768" data-name="Path 61768" d="M568.859,266.977a11.511,11.511,0,0,1,3.592-.33c1.077.217,1.993.96,3.07,1.186,2.076.434,4-1.094,5.572-2.519l3.387-3.083a6.914,6.914,0,0,0,1.911-2.337,2.345,2.345,0,0,0-.573-2.762c-1.238-.869-3.37,0-4.265-1.233a6.439,6.439,0,0,1-.552-1.967,3.457,3.457,0,0,0-3.327-2.072,14.716,14.716,0,0,0-4.074.869,23.452,23.452,0,0,1-8.686.83,5.551,5.551,0,0,0-2.376.083,3.322,3.322,0,0,0-1.928,2.289c-.669,2.363.473,6.171,1.62,8.286S566.57,267.238,568.859,266.977Z" transform="translate(-371.371 -194.252)" fill="#88455e"/>
    <path id="Path_61769" data-name="Path 61769" d="M536.55,394a6.089,6.089,0,0,1,3.544,1.772,6.366,6.366,0,0,0,3.249,1.92" transform="translate(-357.872 -274.662)" opacity="0.1"/>
    <path id="Path_61770" data-name="Path 61770" d="M487.45,349.09s1.928,4.3.738,4.738-.738,3.544-.738,3.544" transform="translate(-330.048 -249.256)" opacity="0.1"/>
    <g id="Group_5693" data-name="Group 5693" transform="translate(157.932 86.835)" opacity="0.1">
      <path id="Path_61771" data-name="Path 61771" d="M488.915,334.933s12.555-2.51,12.99-2.51c2.024,0,5.281-2.832,7.144-4.621a4.56,4.56,0,0,1,2.024-1.125h-.161a4.629,4.629,0,0,0-3.34,1.277c-1.863,1.789-5.125,4.621-7.144,4.621-.352,0-8.386,1.594-11.648,2.241Z" transform="translate(-488.78 -323.411)"/>
      <path id="Path_61772" data-name="Path 61772" d="M556.874,319.712v-.552a31.35,31.35,0,0,1-9.624,3.079A29.74,29.74,0,0,0,556.874,319.712Z" transform="translate(-521.857 -319.16)"/>
      <path id="Path_61773" data-name="Path 61773" d="M524.122,405.828s-1.772-5.763-.434-8.716,2.953-16.547,2.953-16.547L523.4,370.52h-6.223l-.378.148h5.1l3.236,10.05s-1.624,13.593-2.953,16.547.434,8.716.434,8.716l11.669-.434v-.091Z" transform="translate(-504.631 -348.215)"/>
    </g>
    <g id="Group_5694" data-name="Group 5694" transform="translate(210.799 106.27)" opacity="0.1">
      <path id="Path_61774" data-name="Path 61774" d="M623.817,423.046a5.127,5.127,0,0,1-.869.6c-1.911,1.055-4.274.434-7.856-3.262-3.283-3.4-4.239-8.686-4.495-10.688l-.087,1.529s.434,7.24,4.582,11.522c3.583,3.709,5.945,4.317,7.856,3.262a5.127,5.127,0,0,0,.869-.6c.621-.534.656-1.537.33-2.788A1.37,1.37,0,0,1,623.817,423.046Z" transform="translate(-610.51 -389.814)"/>
      <path id="Path_61775" data-name="Path 61775" d="M659.5,364.123l-4.182,4.834a4.519,4.519,0,0,1-1.251,1.008h0a4.508,4.508,0,0,1-1.972.543,46.993,46.993,0,0,1-10.132-.56c-4.8-.934-8.4-3.07-11.114-1.85a4.018,4.018,0,0,0-.869.517s-2.384,7.444-2.019,12.512a48.862,48.862,0,0,1,2.019-10.149,4.018,4.018,0,0,1,.869-.517c2.719-1.22,6.315.916,11.114,1.85a47.547,47.547,0,0,0,10.132.56,4.508,4.508,0,0,0,1.972-.543h0a4.52,4.52,0,0,0,1.251-.995l6.432-7.422a2.532,2.532,0,0,1-2.25.213Z" transform="translate(-620.36 -363.91)"/>
    </g>
    <path id="Path_61776" data-name="Path 61776" d="M265.74,486.89a.334.334,0,0,0,.4.052,1.345,1.345,0,0,1-.4-.052Z" transform="translate(-204.673 -327.211)" fill="url(#linear-gradient-2)"/>
    <path id="Path_61777" data-name="Path 61777" d="M230.426,292.8c-.782-.226-1.9-.595-3.24-1.064a16.99,16.99,0,0,0,3-6.045l-.113.043c.039-.135.078-.265.113-.4-2.575,1.047-5.424-.725-7.24-3s-3.04-5.1-5.029-7.192a23.023,23.023,0,0,0-2.667-2.3,3.687,3.687,0,0,0-1.933-.947c-1.16-.035-2.067,1.1-3.183,1.437a4.343,4.343,0,0,1-2.219-.082c-2.879-.66-5.646-1.88-8.586-2.2a10.062,10.062,0,0,0-4.66.526c-1.477.56-2.15,1.676-3.344,2.571-1.3.96-3.848.938-5.364,1.107a38.426,38.426,0,0,1-5.542.23,12.973,12.973,0,0,0-3.188.117c-2.2.482-3.969,2.232-5.62,3.909a2.9,2.9,0,0,0-.929,1.455,1.836,1.836,0,0,0,0,.482,3.131,3.131,0,0,0,.221,1.281,16.937,16.937,0,0,0,2.132,4.243,12.254,12.254,0,0,1,1.841,3.014,5.849,5.849,0,0,1,.282,1.737,12.635,12.635,0,0,1-.2,1.867,23.451,23.451,0,0,1-1.429,4.973,9.033,9.033,0,0,0-.834,2.606,4.151,4.151,0,0,0,0,.556c-.109,2.866,2.784,4.929,3.344,7.778a4.646,4.646,0,0,1,.083.717,4.853,4.853,0,0,1-2.567,4.2c.13.052.265.1.4.139a3.627,3.627,0,0,1-.4.217,8.106,8.106,0,0,0,.834.269,19.37,19.37,0,0,0-4.217,5.212c-5.025,9.355-39.056,27.678-39.056,27.678l.5.287-.408.265c-2.945,1.959-9.854,7.67-3.609,14.892,0,0,4.877-7.7,8.295-10.975.152-.148.3-.282.434-.408a1,1,0,0,1,.13.79l22.375-12.573s7.952-5.568,10.171-6.823a18.307,18.307,0,0,1,5.042-2.171l-.261.109a10.215,10.215,0,0,1,2.567-.365c3.961.061,8.252,2.962,9.663,14.449,1.894,15.383,1.016,18.158.408,18.536a1.117,1.117,0,0,1-.221-.039.376.376,0,0,0,.061.043,1.161,1.161,0,0,1-.243-.043.347.347,0,0,0,.33.078.308.308,0,0,0,.248-.03h0a2.583,2.583,0,0,0,.3,0,3.2,3.2,0,0,1-.03.434c-.03,0-.178.083,0,.091h0c-.048.869-.043,1.811,0,2.8-1.967.109-3.935.226-5.646.33l.152-.812.07-.365c1.511-.122,2.944-.565,3.114-1.789.369-2.693-3.327-4.13-6.471-4.308s-22,1.077-22,1.077-2.827,3.661,6.141,4.777l.83.434a99.687,99.687,0,0,1,10.562,7.5l.317.252-1.025.834c5.546,1.255,10.909,22.449,13.867,32.138s9.428,9.337,14.792,7.9c5.025-1.346,5.646-15.939,5.728-17.771V397.3l8.938,11.04.678.838q.391.2.773.382c6.766,3.218,14.241-2.953,12.117-9.989-2.15-7.092-5.485-17.58-7.709-22.014-1.863-3.713-4.269-9.88-5.728-13.741a4.635,4.635,0,0,0,.552-.265s-.035-.174-.091-.491l.091-.048s-2.171-11.17-2.267-19.109v-.691c1.616-.369,2.64-.512,2.64-.512l.03-.347-.187.039.9-10.288s3.3-7.023.773-9.945a6.141,6.141,0,0,1-1.481-3.04c-.434-2.688,0-7.175,5.885-10.9,9.059-5.746,12.594-10.423,12.594-10.423S235.972,294.438,230.426,292.8Zm-17.993,7.14v-4.756c1.681-.082,3.4.113,5.086,0a12.862,12.862,0,0,0,2.454-.413l.408.282A44.731,44.731,0,0,1,212.434,299.945Zm-25.688,74.542c.664.46,1.333.938,1.989,1.42.408,2.345.769,4,.795,4.117A32.509,32.509,0,0,0,186.745,374.487Z" transform="translate(-125.1 -205.066)" fill="url(#linear-gradient-3)"/>
    <path id="Path_61778" data-name="Path 61778" d="M273.18,500.32l-.391,2.124-.3,1.624-.547,2.971-5.307,3.713s-.478-.408-1.268-1.055a93.029,93.029,0,0,0-10.1-7.383,11.292,11.292,0,0,0-2.775-1.281Z" transform="translate(-197.177 -334.808)" fill="#ffbdc6"/>
    <path id="Path_61779" data-name="Path 61779" d="M273.174,500.32l-.391,2.124a16.505,16.505,0,0,1-3.5-.178l-12.382.178c-.586-.035-1.134-.083-1.646-.135a11.292,11.292,0,0,0-2.775-1.281Z" transform="translate(-197.171 -334.808)" opacity="0.1"/>
    <path id="Path_61780" data-name="Path 61780" d="M263.687,496.358s6.193,1.06,6.545-1.594-3.183-4.052-6.184-4.252-21.055,1.068-21.055,1.068-3.183,4.243,8.312,4.951Z" transform="translate(-191.576 -329.248)" fill="#7679b4"/>
    <path id="Path_61781" data-name="Path 61781" d="M273.18,500.32l-.391,2.124-.3,1.624-.547,2.971-5.307,3.713s-.478-.408-1.268-1.055a93.029,93.029,0,0,0-10.1-7.383,11.292,11.292,0,0,0-2.775-1.281Z" transform="translate(-197.177 -334.808)" opacity="0.1"/>
    <path id="Path_61782" data-name="Path 61782" d="M273.174,500.32l-.391,2.124a16.505,16.505,0,0,1-3.5-.178l-12.382.178c-.586-.035-1.134-.083-1.646-.135a11.292,11.292,0,0,0-2.775-1.281Z" transform="translate(-197.171 -334.808)" opacity="0.1"/>
    <path id="Path_61783" data-name="Path 61783" d="M263.687,496.358s6.193,1.06,6.545-1.594-3.183-4.052-6.184-4.252-21.055,1.068-21.055,1.068-3.183,4.243,8.312,4.951Z" transform="translate(-191.576 -329.248)" opacity="0.1"/>
    <rect id="Rectangle_4073" data-name="Rectangle 4073" width="32.368" height="38.383" transform="translate(53.272 79.9)" fill="#a66477"/>
    <rect id="Rectangle_4074" data-name="Rectangle 4074" width="32.368" height="38.383" transform="translate(53.272 79.9)" opacity="0.1"/>
    <path id="Path_61784" data-name="Path 61784" d="M144.371,450.348a5.186,5.186,0,0,0-1.972,1.394c-3.27,3.231-7.935,10.81-7.935,10.81-5.976-7.114.638-12.738,3.474-14.67.686-.469,1.147-.721,1.147-.721Z" transform="translate(-129.039 -304.735)" fill="#ffbdc6"/>
    <path id="Path_61785" data-name="Path 61785" d="M276.969,331.09s1.594,11.144,7.075,13.8-7.075,7.6-7.075,7.6l-17.159-6.367s9.728-3.183,7.783-12.56Z" transform="translate(-201.318 -239.073)" fill="#ffbdc6"/>
    <path id="Path_61786" data-name="Path 61786" d="M230.05,485.45l-.391,2.124-.3,1.624-.547,2.971-5.307,3.713s-.478-.408-1.268-1.055a93.021,93.021,0,0,0-10.1-7.383,11.291,11.291,0,0,0-2.775-1.281Z" transform="translate(-172.778 -326.396)" fill="#ffbdc6"/>
    <path id="Path_61787" data-name="Path 61787" d="M230.044,485.45l-.391,2.124a16.513,16.513,0,0,1-3.5-.178l-12.382.178c-.586-.035-1.133-.083-1.646-.135a11.29,11.29,0,0,0-2.775-1.281Z" transform="translate(-172.772 -326.396)" opacity="0.1"/>
    <path id="Path_61788" data-name="Path 61788" d="M220.512,481.5s6.193,1.06,6.545-1.594-3.183-4.069-6.193-4.243-21.05,1.06-21.05,1.06-3.183,4.243,8.312,4.951Z" transform="translate(-167.149 -320.847)" fill="#7679b4"/>
    <path id="Path_61789" data-name="Path 61789" d="M246.092,493.926l-.547,2.971-5.307,3.713s-.478-.408-1.268-1.055l7.018-5.754Z" transform="translate(-189.529 -331.12)" opacity="0.1"/>
    <path id="Path_61790" data-name="Path 61790" d="M280.216,524.169q-.365-.178-.738-.378l-.647-.825-8.547-10.857v.191c-.056,1.8-.673,16.177-5.476,17.5-5.129,1.416-11.322,1.768-14.149-7.783S242.7,491.6,237.39,490.359l7.869-6.458s5.212,6.08,7.34,11.934c-.078-.373-3.678-17.185-.708-20.156h25.823s3.978,11.352,6.723,16.981c2.128,4.369,5.32,14.7,7.383,21.684A8.306,8.306,0,0,1,280.216,524.169Z" transform="translate(-188.635 -320.869)" fill="#7679b4"/>
    <path id="Path_61791" data-name="Path 61791" d="M296.8,450.755c-3.982,2.358-21.493,1.4-27.2,1.016l-1.55-.113c-.169,0,.026-.1.026-.1l.161-1.607,4.243-10.788L295.211,426a19.67,19.67,0,0,0-.578,5.945A138.581,138.581,0,0,0,296.8,450.755Z" transform="translate(-205.94 -292.765)" opacity="0.1"/>
    <path id="Path_61792" data-name="Path 61792" d="M296.556,449.556c-3.982,2.358-21.493,1.4-27.2,1.016l-1.55-.113h-.256l.282-.074,1.4-.369,3.005-12.03,22.731-13.176a19.668,19.668,0,0,0-.578,5.946C294.5,438.551,296.556,449.556,296.556,449.556Z" transform="translate(-205.697 -292.091)" fill="#f2f1f2"/>
    <path id="Path_61793" data-name="Path 61793" d="M294.729,430.687c-4.621,1.064-14.792,4.2-18.7,11.726-2.606,5.029-4.777,7.188-6.328,8.091l-1.55-.113.026-.1,1.4-.369,3.005-12.03,22.731-13.176A19.671,19.671,0,0,0,294.729,430.687Z" transform="translate(-206.036 -292.041)" opacity="0.1"/>
    <path id="Path_61794" data-name="Path 61794" d="M146.717,447.17l5.307,3.183a5.185,5.185,0,0,0-1.972,1.394c-.434-1.3-3.222-3.092-4.482-3.857C146.256,447.422,146.717,447.17,146.717,447.17Z" transform="translate(-136.692 -304.741)" opacity="0.1"/>
    <path id="Path_61795" data-name="Path 61795" d="M265.514,484.278a.317.317,0,0,1-.373-.048A1.276,1.276,0,0,0,265.514,484.278Z" transform="translate(-204.333 -325.706)" opacity="0.1"/>
    <path id="Path_61796" data-name="Path 61796" d="M209.738,326.009A10.522,10.522,0,0,1,201.6,323s-14.149,4.069-18.926,13.268S145.35,363.51,145.35,363.51s5.646,3.183,5.129,4.777l21.4-12.382s7.6-5.485,9.728-6.723,13.8-8.842,16.273,11.852,0,18.24,0,18.24,3.539,1.238,8.686-8.686,21.05-12.2,21.05-12.2l.869-10.423s3.157-6.914.738-9.8a6.123,6.123,0,0,1-1.416-2.992c-.4-2.649,0-7.066,5.646-10.736,8.686-5.646,12.03-10.258,12.03-10.258s.178-3.361-5.129-4.951-26.887-10.258-26.887-10.258l-.708,3.005,16.981,12.03s-8.49,6.9-15.2,6.723C214.516,320.7,215.753,325.831,209.738,326.009Z" transform="translate(-136.567 -220.903)" fill="#565388"/>
    <path id="Path_61797" data-name="Path 61797" d="M287.4,336.6a34.744,34.744,0,0,1-.977-4.343l-9.376,2.493a10.336,10.336,0,0,1-.213,5.407A10.084,10.084,0,0,0,287.4,336.6Z" transform="translate(-210.946 -239.735)" opacity="0.1"/>
    <circle id="Ellipse_1287" data-name="Ellipse 1287" cx="10.084" cy="10.084" r="10.084" transform="translate(58.579 80.073)" fill="#ffbdc6"/>
    <path id="Path_61798" data-name="Path 61798" d="M259.821,273.884c2.8.317,5.459,1.52,8.212,2.171a4.056,4.056,0,0,0,2.124.082c1.068-.33,1.937-1.451,3.04-1.416a3.2,3.2,0,0,1,1.85.934,22.2,22.2,0,0,1,2.549,2.263c1.9,2.063,3.079,4.842,4.812,7.083s4.465,3.987,6.927,2.958c-1.672,6.514-7.161,11.5-13.094,11.9-2.367.161-4.777-.33-7.083.365a6.2,6.2,0,0,1-1.789.434c-1.3,0-2.38-1.212-3.205-2.389-1.928-2.771-3.474-5.915-5.646-8.438a4.615,4.615,0,0,0-2.575-1.781,4.769,4.769,0,0,0-2.849.8,13.525,13.525,0,0,0-4.169,2.892,5.782,5.782,0,0,0-1.407,5.086,12.422,12.422,0,0,1,.869,2.845c0,1.607-1.4,2.784-1.681,4.343a16.759,16.759,0,0,0-.07,1.98,8.079,8.079,0,0,1-2.992,5.251,3.777,3.777,0,0,0-1.368,1.9c-.113.552,0,1.138-.074,1.7a3.083,3.083,0,0,1-2.832,2.28,8.209,8.209,0,0,1-4.247-.5,4.882,4.882,0,0,0,2.376-5.212c-.547-2.871-3.431-4.929-3.188-7.856a9.089,9.089,0,0,1,.8-2.584,23.649,23.649,0,0,0,1.364-4.9,8.3,8.3,0,0,0-.083-3.909,12.339,12.339,0,0,0-1.763-2.971,16.859,16.859,0,0,1-2.041-4.182,2.931,2.931,0,0,1-.2-1.381,2.862,2.862,0,0,1,.869-1.433c1.581-1.655,3.275-3.379,5.377-3.857a12.057,12.057,0,0,1,3.04-.117,35.716,35.716,0,0,0,5.3-.226c1.451-.169,3.909-.148,5.133-1.094,1.142-.869,1.789-1.976,3.2-2.532A9.367,9.367,0,0,1,259.821,273.884Z" transform="translate(-185.799 -206.661)" opacity="0.1"/>
    <path id="Path_61799" data-name="Path 61799" d="M308.48,513.76s5.837,11.5,4.069,15.035" transform="translate(-228.851 -342.411)" opacity="0.1"/>
    <path id="Path_61800" data-name="Path 61800" d="M321.625,567.318l-8.547-10.857v.191s-.5-3.509,1.133-2.328c3.566,2.58,9.272,6.81,9.394,7.539S322.45,565.52,321.625,567.318Z" transform="translate(-231.412 -365.221)" opacity="0.1"/>
    <g id="Group_5695" data-name="Group 5695" transform="translate(8.961 78.037)" opacity="0.1">
      <path id="Path_61801" data-name="Path 61801" d="M302.9,348.813s.721,2.988-1.611,4.482a4.006,4.006,0,0,0,3.639-4.625A11.317,11.317,0,0,1,302.9,348.813Z" transform="translate(-233.744 -327.055)"/>
      <path id="Path_61802" data-name="Path 61802" d="M147.71,394.488s32.546-18.041,37.323-27.239c3.427-6.6,11.682-10.558,16.069-12.269-3.2,1.073-13.971,5.185-18.019,12.977-4.777,9.2-37.323,27.239-37.323,27.239Z" transform="translate(-145.76 -330.625)"/>
      <path id="Path_61803" data-name="Path 61803" d="M309.035,319.255a38.761,38.761,0,0,0,10.831-6.024L302.886,301.2l.386-1.65-1.624-.651-.708,3.005,16.981,12.03A40.976,40.976,0,0,1,309.035,319.255Z" transform="translate(-233.546 -298.9)"/>
      <path id="Path_61804" data-name="Path 61804" d="M319.83,436.994a42.078,42.078,0,0,1,6.658-1.681l.03-.343A45.063,45.063,0,0,0,319.83,436.994Z" transform="translate(-244.233 -375.876)"/>
      <path id="Path_61805" data-name="Path 61805" d="M253.743,439.968h-.156a.317.317,0,0,1-.373-.048,1.3,1.3,0,0,0,.373.048c.582-.339,1.455-2.979-.374-18.266-1.954-16.321-9.624-15.04-13.824-13.163,4.291-1.181,10.2-.161,11.878,13.871,1.828,15.287.955,17.932.373,18.266a3.909,3.909,0,0,0,2.1-.708Z" transform="translate(-198.727 -360.318)"/>
      <path id="Path_61806" data-name="Path 61806" d="M267.113,483.878a1.3,1.3,0,0,1-.373-.048.317.317,0,0,0,.373.048Z" transform="translate(-214.199 -403.516)"/>
    </g>
    <path id="Path_61807" data-name="Path 61807" d="M259.821,273.094c2.8.317,5.459,1.52,8.212,2.171a4.057,4.057,0,0,0,2.124.083c1.068-.33,1.937-1.451,3.04-1.416a3.2,3.2,0,0,1,1.85.934,22.191,22.191,0,0,1,2.549,2.263c1.9,2.063,3.079,4.842,4.812,7.083s4.465,3.987,6.927,2.958c-1.672,6.514-7.161,11.5-13.094,11.9-2.367.161-4.777-.33-7.083.365a6.2,6.2,0,0,1-1.789.434c-1.3,0-2.38-1.212-3.205-2.389-1.928-2.771-3.474-5.915-5.646-8.438a4.615,4.615,0,0,0-2.575-1.781,4.769,4.769,0,0,0-2.849.8,13.525,13.525,0,0,0-4.169,2.892,5.781,5.781,0,0,0-1.407,5.086,12.422,12.422,0,0,1,.869,2.845c0,1.607-1.4,2.784-1.681,4.343a16.765,16.765,0,0,0-.07,1.98,8.079,8.079,0,0,1-2.992,5.251,3.776,3.776,0,0,0-1.368,1.9c-.113.552,0,1.138-.074,1.7a3.083,3.083,0,0,1-2.832,2.28,8.208,8.208,0,0,1-4.247-.5,4.882,4.882,0,0,0,2.376-5.211c-.547-2.871-3.431-4.929-3.188-7.856a9.089,9.089,0,0,1,.8-2.584,23.647,23.647,0,0,0,1.364-4.9,8.3,8.3,0,0,0-.082-3.909,12.34,12.34,0,0,0-1.763-2.971,16.859,16.859,0,0,1-2.041-4.182,2.932,2.932,0,0,1-.2-1.381,2.862,2.862,0,0,1,.869-1.433c1.581-1.655,3.275-3.379,5.377-3.857a12.054,12.054,0,0,1,3.04-.117,35.72,35.72,0,0,0,5.3-.226c1.451-.169,3.909-.148,5.133-1.094,1.142-.869,1.789-1.976,3.2-2.532A9.368,9.368,0,0,1,259.821,273.094Z" transform="translate(-185.799 -206.215)" fill="#a66477"/>
    <path id="Path_61808" data-name="Path 61808" d="M838.7,206.331h0v-.161a.365.365,0,0,0-.026-.165h-.069v-.36c-.174-4.026-5.741-12.595-7.974-10.093-1.954,2.2.994,7.756,2.5,10.258l.135.226-.074-.048s-6.215,18.536-6.949,19.257-5.85,15.3-12.595,16.937c-1.333.317-2.441.6-3.37.869l.074-.248a26.867,26.867,0,0,0,1.186-4.343c.217-1.581,0-3.5-.8-4.265-.391-.382-.869-.434-1.19-1.042a4.809,4.809,0,0,1-.33-1.672l-.573-7.027.4-.122c2.415-.773,4.755-2.606,5.029-5.073a2.612,2.612,0,0,1-.256.083,4.358,4.358,0,0,0,.074-.434c-2.028.8-3.909-1.3-5.863-2.245-3.218-1.576-6.9-.091-10.219.269-3.765.413-7.339-1.151-11.187-.869-2.093.161-4.421,1.581-4.308,3.644.065,1.133.869,2.093,1.2,3.179.834,2.627-1.021,5.264-2.645,7.5a11.172,11.172,0,0,0-2.276,4.994c-3.739-3.909-7.783-8.425-8.252-10.123l-10.818-18.536s-.256.274-.669.677c-.065-.2-.143-.434-.23-.669-1.381-3.87-5.29-13.246-10.245-11.526s2.054,11.331,5.1,15.161l.434.53a1.372,1.372,0,0,1-.773-.035l12.065,20.694s2.193,3.961,4.2,5.038c0,0,14.987,18.9,15.17,22.674s6.74,13.858,6.74,13.858,2.193,16.377-1.646,19.257h.634q-.274.267-.56.586c-2.845,3.153-6.48,9.911-1.511,21.4,7.309,16.937,8.408,23.573,8.408,23.573s-13.9.721-16.633,1.259c-2.423.478-11.843.812-14,.869-.769-.895-3.04-2.875-6.106,0-3.839,3.6-6.58,15.635-6.58,15.635s-1.464,9.72,3.474,7.2c0,0,5.85-8.1,7.492-8.46.816-.178,1.681-1.381,2.341-2.541l.035.022h0c.039,0,.2-.087.46-.191h0c1.216-.482,4.564-1.642,7.2-1.064,1.446.317,7.648.391,14.149.373-1.468,3.518-4.1,12.595-4.1,12.595s-1.1,8.464,2.549,8.117c2.606-.256,6.6-6.914,8.686-10.714,1.511-1.107,5.841-5.077,9.042-4.777l21.567-8.278s5.116-2.879,2.376-12.416c-2.171-7.583-8.351-23.1-10.792-29.154h0l-.074-.156c-.591-1.464-.947-2.332-.947-2.332h0a35.693,35.693,0,0,1-1.959-8.56c-.022-.23-.039-.465-.056-.695a3.839,3.839,0,0,0,.847-.491s-2.011-20.334,0-22.5h0l.035-.039h0v-.026h0l.035-.043h0l.078-.1h0l.1-.122h0c.109-.143.239-.321.386-.539h0a14.907,14.907,0,0,0,2.68-10.076h0q-.039-.3-.1-.595h0a12.407,12.407,0,0,0-1.251-3.526,9.788,9.788,0,0,1-.161-1.394v-1.233a4.178,4.178,0,0,1,.065-.625v-.078a.779.779,0,0,1,.039-.239v-.1a1.133,1.133,0,0,1,.052-.235v-.083c.026-.1.052-.208.087-.313v-.052q.039-.13.087-.256l.039-.1.087-.208.043-.1c.035-.078.074-.156.113-.235l.03-.065q.078-.143.165-.282l.048-.074.143-.2.07-.091.152-.182.069-.078c.078-.083.156-.165.243-.243,2.376-2.171,12.977-18.175,12.977-18.175s2.558-3.6,2.558-5.937C834.636,225.983,839.157,210.913,838.7,206.331ZM810.242,340.853c-.261-2.467-.521-5.524-.76-8.686l4.134,6.445S813.226,340.575,810.242,340.853Z" transform="translate(-476.729 -162.087)" fill="url(#linear-gradient-4)"/>
    <path id="Path_61809" data-name="Path 61809" d="M777.194,525.3s-2.475-3.909-6.193-.352-6.367,15.387-6.367,15.387-1.416,9.555,3.361,7.075c0,0,5.646-7.961,7.253-8.312s3.361-4.777,3.361-4.777Z" transform="translate(-486.79 -347.892)" fill="#493545"/>
    <path id="Path_61810" data-name="Path 61810" d="M842.956,548.615s-3.361-1.594-4.421-.352-4.6,13.619-4.6,13.619-1.06,8.139,2.476,7.783,9.728-13.1,9.728-13.1Z" transform="translate(-526.021 -361.662)" fill="#493545"/>
    <path id="Path_61811" data-name="Path 61811" d="M842.956,548.615s-3.361-1.594-4.421-.352-4.6,13.619-4.6,13.619-1.06,8.139,2.476,7.783,9.728-13.1,9.728-13.1Z" transform="translate(-526.021 -361.662)" opacity="0.05"/>
    <path id="Path_61812" data-name="Path 61812" d="M864.234,466.23l7.6,11.852s-.53,2.654-5.129,2.124l-15.743,9.906s-1.368,12.06,3.005,10.966c.708-.178,5.646-5.307,9.2-4.951l20.877-8.139s4.951-2.832,2.3-12.2-11.426-31.1-11.426-31.1l-13.867,7.757Z" transform="translate(-535.624 -303.332)" fill="#3e3d77"/>
    <path id="Path_61813" data-name="Path 61813" d="M864.234,466.23l7.6,11.852s-.53,2.654-5.129,2.124l-15.743,9.906s-1.368,12.06,3.005,10.966c.708-.178,5.646-5.307,9.2-4.951l20.877-8.139s4.951-2.832,2.3-12.2-11.426-31.1-11.426-31.1l-13.867,7.757Z" transform="translate(-535.624 -303.332)" opacity="0.05"/>
    <path id="Path_61814" data-name="Path 61814" d="M833.673,467.12c1.06,6.723-4.951,7.253-4.951,7.253s-27.065.53-30.249-.178-7.431,1.238-7.431,1.238c-5.485-3.361-1.06-11.674-1.06-11.674s11.322-.352,13.976-.869,16.095-1.251,16.095-1.251-1.06-6.545-8.139-23.17c-4.808-11.292-1.3-17.936,1.464-21.033a11.649,11.649,0,0,1,2.428-2.137l21.758,1.06a28.218,28.218,0,0,0,.122,3.288,35.014,35.014,0,0,0,2.888,10.857c-1.238,0-9.2,7.431-9.2,7.431S832.609,460.4,833.673,467.12Z" transform="translate(-500.286 -286.712)" fill="#3e3d77"/>
    <path id="Path_61815" data-name="Path 61815" d="M791.575,464.483s11.322-.352,13.976-.869,16.095-1.238,16.095-1.238-1.06-6.545-8.139-23.17c-4.808-11.292-1.3-17.936,1.464-21.033a11.649,11.649,0,0,1,2.428-2.137l20.16.982v-.63L815.8,415.33a11.645,11.645,0,0,0-2.428,2.137c-2.753,3.1-6.271,9.741-1.464,21.033,7.1,16.612,8.147,23.156,8.147,23.156s-13.463.708-16.095,1.238-13.976.869-13.976.869-4.421,8.317,1.06,11.691c0,0,.165-.078.434-.191C787.835,471.515,791.575,464.483,791.575,464.483Z" transform="translate(-500.288 -286.729)" opacity="0.1"/>
    <rect id="Rectangle_4075" data-name="Rectangle 4075" width="10.966" height="27.769" transform="translate(312.688 63.666)" fill="#493545"/>
    <rect id="Rectangle_4076" data-name="Rectangle 4076" width="10.966" height="27.769" transform="translate(312.688 63.666)" opacity="0.1"/>
    <path id="Path_61816" data-name="Path 61816" d="M878.325,250.315c.378.1.8.117,1.06.638a3.909,3.909,0,0,1,.256,1.3l.69,8.582a4.778,4.778,0,0,0,.321,1.642c.291.582.773.651,1.151,1.025.76.756.982,2.649.773,4.191a27.532,27.532,0,0,1-1.147,4.256,40.079,40.079,0,0,1-1.811,5.928c-.83,1.685-2.337,2.606-3.309,1.19s-.843-4.273-1.025-6.614c-.3-3.909-1.828-7.279-1.933-11.213-.087-3.183.769-6.154,1.3-9.172.382-2.072.4-4.586.96-6.449C876.079,247.835,876.965,249.941,878.325,250.315Z" transform="translate(-548.399 -190.722)" fill="#493545"/>
    <path id="Path_61817" data-name="Path 61817" d="M878.325,250.315c.378.1.8.117,1.06.638a3.909,3.909,0,0,1,.256,1.3l.69,8.582a4.778,4.778,0,0,0,.321,1.642c.291.582.773.651,1.151,1.025.76.756.982,2.649.773,4.191a27.532,27.532,0,0,1-1.147,4.256,40.079,40.079,0,0,1-1.811,5.928c-.83,1.685-2.337,2.606-3.309,1.19s-.843-4.273-1.025-6.614c-.3-3.909-1.828-7.279-1.933-11.213-.087-3.183.769-6.154,1.3-9.172.382-2.072.4-4.586.96-6.449C876.079,247.835,876.965,249.941,878.325,250.315Z" transform="translate(-548.399 -190.722)" opacity="0.1"/>
    <path id="Path_61818" data-name="Path 61818" d="M762.158,211.261l-4.243,3.539s-.5-.591-1.255-1.546c-2.949-3.765-9.728-13.211-4.938-14.9s8.577,7.522,9.915,11.326C761.976,210.644,762.158,211.261,762.158,211.261Z" transform="translate(-478.655 -163.868)" fill="#c77485"/>
    <path id="Path_61819" data-name="Path 61819" d="M943.791,210.162c-1.768,2.654-4.243,0-4.243,0s-.317-.473-.764-1.238c-1.455-2.462-4.308-7.922-2.419-10.084,2.171-2.471,7.552,5.963,7.717,9.919A2.354,2.354,0,0,1,943.791,210.162Z" transform="translate(-583.695 -164.006)" fill="#c77485"/>
    <path id="Path_61820" data-name="Path 61820" d="M854.08,287.567s3.539,11.322,2.475,14.679,7.609,7.266,7.609,7.266h9.906s3.539-7.253,2.653-9.376-8.49-3.713-8.49-3.713-4.421,0-4.243-11.852Z" transform="translate(-537.501 -212.757)" fill="#c77485"/>
    <path id="Path_61821" data-name="Path 61821" d="M770.758,226.281l-4.243,3.539s-.5-.591-1.255-1.546c1.542-.274,3.935-2.523,4.981-3.574C770.576,225.664,770.758,226.281,770.758,226.281Z" transform="translate(-487.254 -178.888)" opacity="0.1"/>
    <path id="Path_61822" data-name="Path 61822" d="M947.757,223.646c-1.768,2.654-4.243,0-4.243,0s-.317-.473-.764-1.238l.056-.178c1.147.821,4.712.122,5.242,0A2.354,2.354,0,0,1,947.757,223.646Z" transform="translate(-587.662 -177.491)" opacity="0.1"/>
    <path id="Path_61823" data-name="Path 61823" d="M870.32,419.632c-5.472,2.5-23.252-1.95-24.32-2.215a11.646,11.646,0,0,1,2.428-2.137l21.758,1.06A28.243,28.243,0,0,0,870.32,419.632Z" transform="translate(-532.93 -286.7)" opacity="0.1"/>
    <path id="Path_61824" data-name="Path 61824" d="M805.706,262.51s-4.243,1.416-10.258-4.069c0,0-13.463-13.268-14.332-16.451l-10.423-18.24s-4.421,4.777-6.193,4.069l11.674,20.342s2.124,3.909,4.069,4.951c0,0,14.505,18.575,14.679,22.288s6.536,13.659,6.536,13.659,2.124,16.095-1.594,18.926c0,0,20.694,5.307,25.115,1.768,0,0-1.946-19.978,0-22.11,0,0,6.015-7.075,1.946-14.857,0,0-.869-4.243,1.416-6.367s12.56-17.867,12.56-17.867,2.476-3.539,2.476-5.837c0,0,4.6-15.565,3.909-19.634,0,0-4.069.869-5.307,0,0,0-6.015,18.24-6.723,18.926s-5.646,15.035-12.2,16.629-7.6,2.3-7.6,2.3,12.733,7.961,6.545,11.5S805.706,262.51,805.706,262.51Z" transform="translate(-486.824 -177.971)" fill="#ffaac4"/>
    <path id="Path_61825" data-name="Path 61825" d="M864.652,291.195a33.8,33.8,0,0,1-.256-5.025l-9.906,3.005a13.349,13.349,0,0,1,.621,2.032c1.134.5,2.662,1.681,3.978,1.681A9.02,9.02,0,0,0,864.652,291.195Z" transform="translate(-537.732 -213.662)" opacity="0.1"/>
    <circle id="Ellipse_1288" data-name="Ellipse 1288" cx="9.198" cy="9.198" r="9.198" transform="translate(311.98 60.304)" fill="#c77485"/>
    <path id="Path_61826" data-name="Path 61826" d="M829.323,246.458c-2.024.156-4.282,1.555-4.169,3.583.061,1.116.825,2.059,1.16,3.127.8,2.584-.986,5.177-2.558,7.383s-3.04,5.129-1.694,7.466a18.421,18.421,0,0,0,1.242,1.62c1.663,2.245,1.642,5.277,2.38,7.974a13.989,13.989,0,0,0,16.434,9.989,8.747,8.747,0,0,1-1.846-5.915c.1-1.546.6-3.162,0-4.59-.773-1.837-3.04-2.562-4.208-4.169s-1.09-3.835-.525-5.75,1.542-3.691,2.011-5.646a17.026,17.026,0,0,1,.434-1.689c.816-2.319,3.257-3.665,5.646-4.243s4.9-.612,7.231-1.372,4.6-2.541,4.868-4.986c-1.963.786-3.783-1.264-5.676-2.206-3.118-1.546-6.675-.091-9.889.265C836.5,247.7,833.027,246.189,829.323,246.458Z" transform="translate(-519.088 -191.126)" opacity="0.1"/>
    <path id="Path_61827" data-name="Path 61827" d="M828.913,245.648c-2.024.156-4.282,1.555-4.169,3.583.061,1.116.825,2.059,1.16,3.127.8,2.584-.986,5.177-2.558,7.383s-3.04,5.129-1.694,7.465a18.4,18.4,0,0,0,1.242,1.62c1.663,2.245,1.642,5.277,2.38,7.974a13.989,13.989,0,0,0,16.434,9.989,8.747,8.747,0,0,1-1.846-5.915c.1-1.546.6-3.162,0-4.59-.773-1.837-3.04-2.562-4.208-4.169s-1.09-3.835-.525-5.75,1.542-3.691,2.011-5.646a17.007,17.007,0,0,1,.434-1.689c.817-2.319,3.257-3.665,5.646-4.243s4.9-.612,7.231-1.372,4.6-2.541,4.868-4.986c-1.963.786-3.783-1.264-5.676-2.206-3.118-1.546-6.675-.091-9.889.265C836.1,246.89,832.639,245.357,828.913,245.648Z" transform="translate(-518.856 -190.668)" fill="#493545"/>
    <path id="Path_61828" data-name="Path 61828" d="M885.65,326.3s3.683,3.288,4.408,4.738" transform="translate(-555.36 -236.364)" opacity="0.1"/>
    <path id="Path_61829" data-name="Path 61829" d="M885.8,371.51a39.609,39.609,0,0,0-6.723.53c-2.124.53-7.253,0-7.253,0" transform="translate(-547.536 -261.939)" opacity="0.1"/>
    <g id="Group_5696" data-name="Group 5696" transform="translate(277.671 45.095)" opacity="0.1">
      <path id="Path_61830" data-name="Path 61830" d="M888.325,321.706a4.42,4.42,0,0,1-1.273.486,4.864,4.864,0,0,0,3.4-.486c6.193-3.539-6.545-11.5-6.545-11.5H881.78S894.518,318.171,888.325,321.706Z" transform="translate(-830.842 -272.357)"/>
      <path id="Path_61831" data-name="Path 61831" d="M952.265,223.371a1.849,1.849,0,0,0-.043-.321,20.78,20.78,0,0,1-2.2.334,9.755,9.755,0,0,0,2.245-.013Z" transform="translate(-869.446 -223.05)"/>
      <path id="Path_61832" data-name="Path 61832" d="M801.987,314.177c3.713-2.832,1.594-18.926,1.594-18.926s-6.367-9.906-6.545-13.619-14.679-22.288-14.679-22.288c-1.946-1.06-4.069-4.951-4.069-4.951s-12.03-19.634-13.8-20.342l11.674,20.342s2.124,3.909,4.069,4.951c0,0,14.505,18.575,14.679,22.288s6.54,13.632,6.54,13.632,2.124,16.095-1.594,18.927c0,0,12.72,3.262,20.347,2.966C812.562,316.887,801.987,314.177,801.987,314.177Z" transform="translate(-764.49 -229.273)"/>
      <path id="Path_61833" data-name="Path 61833" d="M859,314.015l-.1-.135a2.788,2.788,0,0,1-.369.083C858.695,313.984,858.851,314,859,314.015Z" transform="translate(-817.689 -274.433)"/>
    </g>
    <g id="Group_5697" data-name="Group 5697" transform="translate(337.986 45.074)" opacity="0.1">
      <path id="Path_61834" data-name="Path 61834" d="M928.148,223l-.109.022c-.187,5.433-3.956,18.2-3.956,18.2,0,2.3-2.475,5.837-2.475,5.837s-10.258,15.743-12.56,17.867-1.416,6.367-1.416,6.367l.022.043c-.069-1.429.1-3.644,1.568-5,2.3-2.124,12.56-17.867,12.56-17.867s2.475-3.539,2.475-5.837C924.256,242.656,928.856,227.091,928.148,223Z" transform="translate(-905.686 -223)"/>
      <path id="Path_61835" data-name="Path 61835" d="M903.37,355.456c.265,1.5.087-.087.178,1.416,0,0,4.343-5.094,3.157-11.392A15.486,15.486,0,0,1,903.37,355.456Z" transform="translate(-903.37 -292.288)"/>
    </g>
    <ellipse id="Ellipse_1289" data-name="Ellipse 1289" cx="185.734" cy="17.841" rx="185.734" ry="17.841" transform="translate(18.281 251.624)" fill="#0068ff" opacity="0.1"/>
    <path id="Path_61836" data-name="Path 61836" d="M425.867,608.709s-6.323-21.476,1.186-37.28a33.918,33.918,0,0,0,2.745-21.28,57.047,57.047,0,0,0-3.014-9.989" transform="translate(-293.849 -357.346)" fill="none" stroke="#535461" stroke-miterlimit="10" stroke-width="2"/>
    <path id="Path_61837" data-name="Path 61837" d="M429.537,510.5c0,2.632-4.777,10.262-4.777,10.262s-4.777-7.631-4.777-10.262a4.777,4.777,0,1,1,9.528,0Z" transform="translate(-291.921 -337.664)" fill="#0068ff"/>
    <path id="Path_61838" data-name="Path 61838" d="M447.636,540.777c-1.429,2.211-9.576,6.024-9.576,6.024s.148-8.994,1.577-11.2a4.777,4.777,0,1,1,8,5.181Z" transform="translate(-302.155 -353.368)" fill="#0068ff"/>
    <path id="Path_61839" data-name="Path 61839" d="M444.612,596.134c-2.35,1.186-11.292.365-11.292.365s4.669-7.691,7.018-8.877a4.777,4.777,0,1,1,4.291,8.508Z" transform="translate(-299.474 -383.81)" fill="#0068ff"/>
    <path id="Path_61840" data-name="Path 61840" d="M434.508,640.48c-2.115,1.563-11.087,2.271-11.087,2.271s3.3-8.369,5.42-9.937a4.777,4.777,0,0,1,5.646,7.661Z" transform="translate(-293.873 -409.368)" fill="#0068ff"/>
    <path id="Path_61841" data-name="Path 61841" d="M412.783,554.805c1.889,1.833,10.684,3.735,10.684,3.735s-2.171-8.734-4.043-10.571a4.777,4.777,0,1,0-6.64,6.836Z" transform="translate(-286.893 -360.86)" fill="#0068ff"/>
    <path id="Path_61842" data-name="Path 61842" d="M400.509,605.014c2.349,1.186,11.292.365,11.292.365s-4.651-7.691-7-8.855a4.777,4.777,0,0,0-4.291,8.508Z" transform="translate(-279.601 -389.024)" fill="#0068ff"/>
    <path id="Path_61843" data-name="Path 61843" d="M396.167,655.863c2.115,1.563,11.087,2.271,11.087,2.271s-3.3-8.369-5.42-9.937a4.777,4.777,0,1,0-5.646,7.661Z" transform="translate(-277.169 -417.785)" fill="#0068ff"/>
    <path id="Path_61844" data-name="Path 61844" d="M429.537,510.5c0,2.632-4.777,10.262-4.777,10.262s-4.777-7.631-4.777-10.262a4.777,4.777,0,1,1,9.528,0Z" transform="translate(-291.921 -337.664)" fill="#0068ff" opacity="0.1"/>
    <path id="Path_61845" data-name="Path 61845" d="M447.636,540.777c-1.429,2.211-9.576,6.024-9.576,6.024s.148-8.994,1.577-11.2a4.777,4.777,0,1,1,8,5.181Z" transform="translate(-302.155 -353.368)" fill="#0068ff" opacity="0.1"/>
    <path id="Path_61846" data-name="Path 61846" d="M444.612,596.134c-2.35,1.186-11.292.365-11.292.365s4.669-7.691,7.018-8.877a4.777,4.777,0,1,1,4.291,8.508Z" transform="translate(-299.474 -383.81)" fill="#0068ff" opacity="0.1"/>
    <path id="Path_61847" data-name="Path 61847" d="M434.508,640.48c-2.115,1.563-11.087,2.271-11.087,2.271s3.3-8.369,5.42-9.937a4.777,4.777,0,0,1,5.646,7.661Z" transform="translate(-293.873 -409.368)" fill="#0068ff" opacity="0.1"/>
    <path id="Path_61848" data-name="Path 61848" d="M412.783,554.805c1.889,1.833,10.684,3.735,10.684,3.735s-2.171-8.734-4.043-10.571a4.777,4.777,0,1,0-6.64,6.836Z" transform="translate(-286.893 -360.86)" fill="#0068ff" opacity="0.1"/>
    <path id="Path_61849" data-name="Path 61849" d="M400.509,605.014c2.349,1.186,11.292.365,11.292.365s-4.651-7.691-7-8.855a4.777,4.777,0,0,0-4.291,8.508Z" transform="translate(-279.601 -389.024)" fill="#0068ff" opacity="0.1"/>
    <path id="Path_61850" data-name="Path 61850" d="M396.167,655.863c2.115,1.563,11.087,2.271,11.087,2.271s-3.3-8.369-5.42-9.937a4.777,4.777,0,1,0-5.646,7.661Z" transform="translate(-277.169 -417.785)" fill="#0068ff" opacity="0.1"/>
    <path id="Path_61851" data-name="Path 61851" d="M720.507,609.419s-6.323-21.476,1.186-37.28a33.918,33.918,0,0,0,2.745-21.28,57.036,57.036,0,0,0-3.014-9.989" transform="translate(-460.529 -357.747)" fill="none" stroke="#535461" stroke-miterlimit="10" stroke-width="2"/>
    <path id="Path_61852" data-name="Path 61852" d="M724.174,512.117c0,2.632-4.777,10.262-4.777,10.262s-4.777-7.631-4.777-10.262a4.777,4.777,0,0,1,9.528,0Z" transform="translate(-458.607 -338.978)" fill="#0068ff"/>
    <path id="Path_61853" data-name="Path 61853" d="M742.286,541.476c-1.429,2.211-9.576,6.024-9.576,6.024s.148-8.994,1.576-11.2a4.777,4.777,0,1,1,8,5.181Z" transform="translate(-468.841 -353.763)" fill="#0068ff"/>
    <path id="Path_61854" data-name="Path 61854" d="M739.292,596.823c-2.349,1.186-11.292.365-11.292.365s4.669-7.691,7.018-8.877a4.777,4.777,0,1,1,4.273,8.512Z" transform="translate(-466.176 -384.194)" fill="#0068ff"/>
    <path id="Path_61855" data-name="Path 61855" d="M729.148,641.18c-2.115,1.563-11.088,2.271-11.088,2.271s3.3-8.369,5.42-9.937a4.777,4.777,0,0,1,5.646,7.661Z" transform="translate(-460.553 -409.764)" fill="#0068ff"/>
    <path id="Path_61856" data-name="Path 61856" d="M707.443,555.505c1.889,1.833,10.684,3.735,10.684,3.735s-2.171-8.734-4.043-10.571a4.777,4.777,0,1,0-6.64,6.836Z" transform="translate(-453.584 -361.256)" fill="#0068ff"/>
    <path id="Path_61857" data-name="Path 61857" d="M695.127,605.685c2.349,1.185,11.292.365,11.292.365s-4.669-7.691-7.018-8.877a4.777,4.777,0,0,0-4.291,8.508Z" transform="translate(-446.258 -389.391)" fill="#0068ff"/>
    <path id="Path_61858" data-name="Path 61858" d="M691.708,657.22c2.115,1.563,11.087,2.271,11.087,2.271s-3.3-8.369-5.42-9.937a4.777,4.777,0,0,0-5.646,7.661Z" transform="translate(-444.746 -418.838)" fill="#0068ff"/>
    <path id="Path_61859" data-name="Path 61859" d="M724.174,512.117c0,2.632-4.777,10.262-4.777,10.262s-4.777-7.631-4.777-10.262a4.777,4.777,0,0,1,9.528,0Z" transform="translate(-458.607 -338.978)" fill="#0068ff" opacity="0.1"/>
    <path id="Path_61860" data-name="Path 61860" d="M742.286,541.476c-1.429,2.211-9.576,6.024-9.576,6.024s.148-8.994,1.576-11.2a4.777,4.777,0,1,1,8,5.181Z" transform="translate(-468.841 -353.763)" fill="#0068ff" opacity="0.1"/>
    <path id="Path_61861" data-name="Path 61861" d="M739.292,596.823c-2.349,1.186-11.292.365-11.292.365s4.669-7.691,7.018-8.877a4.777,4.777,0,1,1,4.273,8.512Z" transform="translate(-466.176 -384.194)" fill="#0068ff" opacity="0.1"/>
    <path id="Path_61862" data-name="Path 61862" d="M729.148,641.18c-2.115,1.563-11.088,2.271-11.088,2.271s3.3-8.369,5.42-9.937a4.777,4.777,0,0,1,5.646,7.661Z" transform="translate(-460.553 -409.764)" fill="#0068ff" opacity="0.1"/>
    <path id="Path_61863" data-name="Path 61863" d="M707.443,555.505c1.889,1.833,10.684,3.735,10.684,3.735s-2.171-8.734-4.043-10.571a4.777,4.777,0,1,0-6.64,6.836Z" transform="translate(-453.584 -361.256)" fill="#0068ff" opacity="0.1"/>
    <path id="Path_61864" data-name="Path 61864" d="M695.127,605.685c2.349,1.185,11.292.365,11.292.365s-4.669-7.691-7.018-8.877a4.777,4.777,0,0,0-4.291,8.508Z" transform="translate(-446.258 -389.391)" fill="#0068ff" opacity="0.1"/>
    <path id="Path_61865" data-name="Path 61865" d="M691.708,657.22c2.115,1.563,11.087,2.271,11.087,2.271s-3.3-8.369-5.42-9.937a4.777,4.777,0,0,0-5.646,7.661Z" transform="translate(-444.746 -418.838)" fill="#0068ff" opacity="0.1"/>
    <path id="Path_61866" data-name="Path 61866" d="M758.614,129.575h-2.727a1.911,1.911,0,1,0,0-3.817H733.772a1.911,1.911,0,0,0,0,3.817H736.5a1.911,1.911,0,0,0,0,3.817h-3.817a1.911,1.911,0,1,0,0,3.817h22.1a1.911,1.911,0,1,0,0-3.817h3.835a1.911,1.911,0,0,0,0-3.817Z" transform="translate(-467.692 -122.914)" fill="#dee3f3" opacity="0.5"/>
    <path id="Path_61867" data-name="Path 61867" d="M473.093,156.4h-2.076a1.455,1.455,0,1,0,0-2.905H454.2a1.455,1.455,0,0,0,0,2.905h2.076a1.455,1.455,0,1,0,0,2.905h-2.905a1.455,1.455,0,1,0,0,2.905h16.816a1.455,1.455,0,1,0,0-2.905h2.905a1.455,1.455,0,0,0,0-2.905Z" transform="translate(-309.949 -138.607)" fill="#dee3f3" opacity="0.5"/>
    <path id="Path_61868" data-name="Path 61868" d="M174.209,634s7.6,14.918,1.407,23.078.565,30.4.565,30.4" transform="translate(-152.21 -410.432)" fill="none" stroke="#0068ff" stroke-miterlimit="10" stroke-width="1"/>
    <path id="Path_61869" data-name="Path 61869" d="M175.5,616.471a8.79,8.79,0,0,1-2.111,5.212,7.489,7.489,0,0,1,0-10.423A8.79,8.79,0,0,1,175.5,616.471Z" transform="translate(-151.236 -397.567)" fill="#0068ff"/>
    <path id="Path_61870" data-name="Path 61870" d="M179.852,634s-7.6,14.918-1.407,23.078-.565,30.4-.565,30.4" transform="translate(-153.915 -410.432)" fill="none" stroke="#0068ff" stroke-miterlimit="10" stroke-width="1"/>
    <path id="Path_61871" data-name="Path 61871" d="M179.67,616.471a8.79,8.79,0,0,0,2.111,5.212,7.489,7.489,0,0,0,0-10.423A8.79,8.79,0,0,0,179.67,616.471Z" transform="translate(-155.982 -397.567)" fill="#0068ff"/>
    <path id="Path_61872" data-name="Path 61872" d="M179.67,616.471a8.79,8.79,0,0,0,2.111,5.212,7.489,7.489,0,0,0,0-10.423A8.79,8.79,0,0,0,179.67,616.471Z" transform="translate(-155.982 -397.567)" opacity="0.1"/>
    <path id="Path_61873" data-name="Path 61873" d="M190.429,634s7.6,14.918,1.407,23.078.565,30.4.565,30.4" transform="translate(-161.386 -410.432)" fill="none" stroke="#0068ff" stroke-miterlimit="10" stroke-width="1"/>
    <path id="Path_61874" data-name="Path 61874" d="M191.671,616.471a8.79,8.79,0,0,1-2.111,5.212,7.489,7.489,0,0,1,0-10.423A8.79,8.79,0,0,1,191.671,616.471Z" transform="translate(-160.383 -397.567)" fill="#0068ff"/>
    <path id="Path_61875" data-name="Path 61875" d="M187.753,643.992a8.775,8.775,0,0,1-5.133,2.289,7.477,7.477,0,0,1,7.222-7.5A8.867,8.867,0,0,1,187.753,643.992Z" transform="translate(-157.651 -413.136)" fill="#0068ff"/>
    <path id="Path_61876" data-name="Path 61876" d="M188.213,667.692a8.775,8.775,0,0,1-5.133,2.289,7.477,7.477,0,0,1,7.222-7.5A8.769,8.769,0,0,1,188.213,667.692Z" transform="translate(-157.911 -426.543)" fill="#0068ff"/>
    <path id="Path_61877" data-name="Path 61877" d="M163.477,684.189a8.77,8.77,0,0,1,1.82,5.316,7.48,7.48,0,0,1-6.827-7.865A8.771,8.771,0,0,1,163.477,684.189Z" transform="translate(-143.989 -437.382)" fill="#0068ff"/>
    <path id="Path_61878" data-name="Path 61878" d="M166.827,635.457A8.773,8.773,0,0,1,170,640.1a7.476,7.476,0,0,1-8.682-5.754A8.684,8.684,0,0,1,166.827,635.457Z" transform="translate(-145.601 -410.586)" fill="#0068ff"/>
    <path id="Path_61879" data-name="Path 61879" d="M166.827,635.457A8.773,8.773,0,0,1,170,640.1a7.476,7.476,0,0,1-8.682-5.754A8.684,8.684,0,0,1,166.827,635.457Z" transform="translate(-145.601 -410.586)" opacity="0.1"/>
    <path id="Path_61880" data-name="Path 61880" d="M196.052,634s-7.6,14.918-1.407,23.078-.565,30.4-.565,30.4" transform="translate(-163.079 -410.432)" fill="none" stroke="#0068ff" stroke-miterlimit="10" stroke-width="1"/>
    <path id="Path_61881" data-name="Path 61881" d="M195.87,616.471a8.79,8.79,0,0,0,2.111,5.212,7.489,7.489,0,0,0,0-10.423A8.79,8.79,0,0,0,195.87,616.471Z" transform="translate(-165.147 -397.567)" fill="#0068ff"/>
    <path id="Path_61882" data-name="Path 61882" d="M195.87,616.471a8.79,8.79,0,0,0,2.111,5.212,7.489,7.489,0,0,0,0-10.423A8.79,8.79,0,0,0,195.87,616.471Z" transform="translate(-165.147 -397.567)" opacity="0.1"/>
    <path id="Path_61883" data-name="Path 61883" d="M194.441,648.388a8.894,8.894,0,0,0-2.171,5.212,8.763,8.763,0,0,0,5.159-2.228,8.894,8.894,0,0,0,2.171-5.212A8.762,8.762,0,0,0,194.441,648.388Z" transform="translate(-163.11 -417.311)" fill="#0068ff"/>
    <path id="Path_61884" data-name="Path 61884" d="M194.441,648.388a8.894,8.894,0,0,0-2.171,5.212,8.763,8.763,0,0,0,5.159-2.228,8.894,8.894,0,0,0,2.171-5.212A8.762,8.762,0,0,0,194.441,648.388Z" transform="translate(-163.11 -417.311)" opacity="0.1"/>
    <path id="Path_61885" data-name="Path 61885" d="M203.551,681.2a8.894,8.894,0,0,0-2.171,5.211,8.763,8.763,0,0,0,5.159-2.228,8.894,8.894,0,0,0,2.171-5.211A8.734,8.734,0,0,0,203.551,681.2Z" transform="translate(-168.264 -435.872)" fill="#0068ff"/>
    <path id="Path_61886" data-name="Path 61886" d="M193,667.273s4.573-7.209,11-7.383" transform="translate(-163.523 -425.078)" fill="none" stroke="#0068ff" stroke-miterlimit="10" stroke-width="1"/>
    <path id="Path_61887" data-name="Path 61887" d="M170.446,657.243s-4.573-7.209-11-7.383" transform="translate(-144.544 -419.404)" fill="none" stroke="#0068ff" stroke-miterlimit="10" stroke-width="1"/>
    <path id="Path_61888" data-name="Path 61888" d="M183.4,680.943s4.573-7.209,11-7.383" transform="translate(-158.092 -432.811)" fill="none" stroke="#0068ff" stroke-miterlimit="10" stroke-width="1"/>
    <circle id="Ellipse_1290" data-name="Ellipse 1290" cx="1.186" cy="1.186" r="1.186" transform="translate(39.066 233.587)" fill="#0068ff"/>
    <circle id="Ellipse_1291" data-name="Ellipse 1291" cx="1.186" cy="1.186" r="1.186" transform="translate(13.834 229.331)" fill="#0068ff"/>
    <path id="Path_61889" data-name="Path 61889" d="M176.826,686.383s-4.573-7.209-11-7.383" transform="translate(-148.153 -435.888)" fill="none" stroke="#0068ff" stroke-miterlimit="10" stroke-width="1"/>
    <circle id="Ellipse_1292" data-name="Ellipse 1292" cx="1.186" cy="1.186" r="1.186" transform="translate(16.604 241.995)" fill="#0068ff"/>
    <circle id="Ellipse_1293" data-name="Ellipse 1293" cx="1.186" cy="1.186" r="1.186" transform="translate(35.205 239.624)" fill="#0068ff"/>
    <path id="Path_61890" data-name="Path 61890" d="M193,723.044s-11.022-2.206-13.967-5.146-16.164-8.082-17.637-4.408-19.843,16.169-7.348,18.375,29.4,2.94,33.071,1.468S193,723.044,193,723.044Z" transform="translate(-139.039 -454.678)" fill="#a8a8a8"/>
    <path id="Path_61891" data-name="Path 61891" d="M154.056,744.5c12.495,2.206,29.4,2.94,33.071,1.468,2.8-1.12,4.742-6.515,5.511-9l.369.078s-2.206,8.82-5.88,10.288-20.577.734-33.071-1.468c-3.6-.638-4.638-2.132-4.247-4.021C150.113,743.063,151.372,744.027,154.056,744.5Z" transform="translate(-139.046 -468.682)" opacity="0.2"/>
    <path id="Path_61892" data-name="Path 61892" d="M1006.888,641.78s3.639,4.777-1.681,11.943-9.706,13.25-7.93,17.732c0,0,8.026-13.346,14.557-13.533S1014.076,649.8,1006.888,641.78Z" transform="translate(-618.281 -414.833)" fill="#0068ff"/>
    <path id="Path_61893" data-name="Path 61893" d="M1007.156,641.78a5.894,5.894,0,0,1,.743,1.494c6.375,7.487,9.767,14.475,3.644,14.653-5.707.165-12.551,10.367-14.193,12.946a5.534,5.534,0,0,0,.2.586s8.026-13.346,14.557-13.533S1014.344,649.8,1007.156,641.78Z" transform="translate(-618.549 -414.833)" opacity="0.1"/>
    <path id="Path_61894" data-name="Path 61894" d="M1034.379,654.353c0,1.676-.187,3.04-.434,3.04s-.434-1.359-.434-3.04.234-.869.465-.869S1034.379,652.681,1034.379,654.353Z" transform="translate(-639.005 -421.343)" fill="#ffd037"/>
    <path id="Path_61895" data-name="Path 61895" d="M1037.122,658.856c-1.472.8-2.753,1.3-2.862,1.081s.99-1.021,2.463-1.82.89-.217,1,0S1038.59,658.053,1037.122,658.856Z" transform="translate(-639.425 -423.844)" fill="#ffd037"/>
    <path id="Path_61896" data-name="Path 61896" d="M965.03,641.78s-3.639,4.777,1.681,11.943,9.706,13.25,7.93,17.732c0,0-8.026-13.346-14.558-13.533S957.843,649.8,965.03,641.78Z" transform="translate(-595.645 -414.833)" fill="#0068ff"/>
    <path id="Path_61897" data-name="Path 61897" d="M965.03,641.78a5.894,5.894,0,0,0-.743,1.494c-6.375,7.487-9.767,14.475-3.644,14.653,5.707.165,12.551,10.367,14.193,12.946a5.478,5.478,0,0,1-.2.586s-8.026-13.346-14.557-13.533S957.843,649.8,965.03,641.78Z" transform="translate(-595.645 -414.833)" opacity="0.1"/>
    <path id="Path_61898" data-name="Path 61898" d="M960.09,654.353c0,1.676.187,3.04.434,3.04s.434-1.359.434-3.04-.234-.869-.465-.869S960.09,652.681,960.09,654.353Z" transform="translate(-597.471 -421.343)" fill="#ffd037"/>
    <path id="Path_61899" data-name="Path 61899" d="M953.571,658.856c1.472.8,2.753,1.3,2.862,1.081s-.99-1.021-2.462-1.82-.89-.217-1,0S952.1,658.053,953.571,658.856Z" transform="translate(-593.275 -423.844)" fill="#ffd037"/>
    <path id="Path_61900" data-name="Path 61900" d="M962.76,701.511s10.175-.313,13.242-2.5,15.635-4.777,16.412-1.3,15.291,17.419,3.8,17.511-26.692-1.789-29.753-3.652S962.76,701.511,962.76,701.511Z" transform="translate(-598.981 -445.514)" fill="#a8a8a8"/>
    <path id="Path_61901" data-name="Path 61901" d="M996.422,721.166c-11.487.091-26.692-1.789-29.753-3.652-2.332-1.42-3.262-6.514-3.57-8.864h-.339s.643,8.208,3.7,10.071,18.266,3.748,29.753,3.652c3.318-.026,4.46-1.207,4.4-2.953C1000.157,720.485,998.911,721.145,996.422,721.166Z" transform="translate(-598.981 -452.662)" opacity="0.2"/>
    <path id="Path_61902" data-name="Path 61902" d="M266.814,188.9h-2.727a1.911,1.911,0,1,0,0-3.817h-22.1a1.911,1.911,0,0,0,0,3.817h2.727a1.911,1.911,0,0,0,0,3.817H240.9a1.911,1.911,0,0,0,0,3.817H263a1.911,1.911,0,1,0,0-3.817h3.817a1.911,1.911,0,0,0,0-3.817Z" transform="translate(-189.591 -156.477)" fill="#dee3f3" opacity="0.5"/>
  </g>
</svg>
