<svg id="undraw_proud_coder_7ain" xmlns="http://www.w3.org/2000/svg" width="208.733" height="133.928" viewBox="0 0 208.733 133.928">
  <rect id="Rectangle_2411" data-name="Rectangle 2411" width="143.751" height="92.064" transform="translate(64.983 0.081)" fill="#e6e6e6"/>
  <rect id="Rectangle_2412" data-name="Rectangle 2412" width="135.53" height="75.071" transform="translate(69.093 11.629)" fill="#fff"/>
  <rect id="Rectangle_2413" data-name="Rectangle 2413" width="143.751" height="6.107" transform="translate(64.921)" fill="#0068ff"/>
  <circle id="Ellipse_831" data-name="Ellipse 831" cx="1.132" cy="1.132" r="1.132" transform="translate(68.328 1.99)" fill="#fff"/>
  <circle id="Ellipse_832" data-name="Ellipse 832" cx="1.132" cy="1.132" r="1.132" transform="translate(72.624 1.99)" fill="#fff"/>
  <circle id="Ellipse_833" data-name="Ellipse 833" cx="1.132" cy="1.132" r="1.132" transform="translate(76.92 1.99)" fill="#fff"/>
  <path id="Path_60615" data-name="Path 60615" d="M718.659,242.006H674.535a.392.392,0,0,1,0-.777h44.124a.392.392,0,0,1,0,.777Z" transform="translate(-552.385 -223.346)" fill="#ccc"/>
  <path id="Path_60616" data-name="Path 60616" d="M640.9,260.173H612.842a.392.392,0,0,1,0-.777H640.9a.392.392,0,0,1,0,.777Z" transform="translate(-505.196 -237.242)" fill="#ccc"/>
  <path id="Path_60617" data-name="Path 60617" d="M770.944,260.5H742.89a.392.392,0,0,1,0-.777h28.054a.392.392,0,0,1,0,.777Z" transform="translate(-604.67 -237.495)" fill="#ccc"/>
  <path id="Path_60618" data-name="Path 60618" d="M641.186,278.34H613.132a.392.392,0,0,1,0-.777h28.054a.392.392,0,0,1,0,.777Z" transform="translate(-505.418 -251.138)" fill="#ccc"/>
  <path id="Path_60619" data-name="Path 60619" d="M641.475,296.508H613.421a.392.392,0,0,1,0-.777h28.054a.392.392,0,0,1,0,.777Z" transform="translate(-505.639 -265.035)" fill="#ccc"/>
  <path id="Path_60620" data-name="Path 60620" d="M760.773,278.34h-8.035a.392.392,0,0,1,0-.777h8.035a.392.392,0,0,1,0,.777Z" transform="translate(-612.203 -251.138)" fill="#ccc"/>
  <path id="Path_60621" data-name="Path 60621" d="M760.773,296.178h-8.035a.392.392,0,0,1,0-.777h8.035a.392.392,0,0,1,0,.777Z" transform="translate(-612.203 -264.783)" fill="#ccc"/>
  <path id="Path_60622" data-name="Path 60622" d="M818.123,296.178h-8.035a.392.392,0,0,1,0-.777h8.035a.392.392,0,0,1,0,.777Z" transform="translate(-656.07 -264.783)" fill="#ccc"/>
  <path id="Path_60623" data-name="Path 60623" d="M620.009,242.006h-8.035a.392.392,0,0,1,0-.777h8.035a.392.392,0,0,1,0,.777Z" transform="translate(-504.531 -223.346)" fill="#ccc"/>
  <path id="Path_60624" data-name="Path 60624" d="M640.461,450.311H612.407a.392.392,0,0,1,0-.777h28.054a.392.392,0,0,1,0,.777Z" transform="translate(-504.863 -382.68)" fill="#ccc"/>
  <path id="Path_60625" data-name="Path 60625" d="M639.882,486.646H611.828a.392.392,0,0,1,0-.777h28.054a.392.392,0,0,1,0,.777Z" transform="translate(-504.42 -410.473)" fill="#ccc"/>
  <path id="Path_60626" data-name="Path 60626" d="M640.172,504.814H612.118a.392.392,0,0,1,0-.776h28.054a.392.392,0,0,1,0,.777Z" transform="translate(-504.642 -424.37)" fill="#ccc"/>
  <path id="Path_60627" data-name="Path 60627" d="M756.284,486.977h-8.035a.392.392,0,0,1,0-.777h8.035a.392.392,0,0,1,0,.777Z" transform="translate(-608.77 -410.726)" fill="#ccc"/>
  <path id="Path_60628" data-name="Path 60628" d="M756.284,504.814h-8.035a.392.392,0,0,1,0-.776h8.035a.392.392,0,0,1,0,.777Z" transform="translate(-608.769 -424.37)" fill="#ccc"/>
  <path id="Path_60629" data-name="Path 60629" d="M813.633,486.977H805.6a.392.392,0,0,1,0-.777h8.035a.392.392,0,0,1,0,.777Z" transform="translate(-652.636 -410.726)" fill="#ccc"/>
  <path id="Path_60630" data-name="Path 60630" d="M718.8,468.479H674.68a.392.392,0,0,1,0-.777H718.8a.392.392,0,0,1,0,.777Z" transform="translate(-552.496 -396.577)" fill="#ccc"/>
  <path id="Path_60631" data-name="Path 60631" d="M620.153,468.479h-8.035a.392.392,0,0,1,0-.777h8.035a.392.392,0,0,1,0,.777Z" transform="translate(-504.642 -396.577)" fill="#ccc"/>
  <path id="Path_60632" data-name="Path 60632" d="M512.517,163.221,501.622,173.98l10.895,10.759,2.451-2.451-8.239-8.239,8.307-8.307Z" transform="translate(-383.694 -124.849)" fill="#e6e6e6"/>
  <path id="Path_60633" data-name="Path 60633" d="M608.123,163.221l10.895,10.759-10.895,10.759-2.451-2.451,8.239-8.239-8.307-8.307Z" transform="translate(-463.229 -124.849)" fill="#e6e6e6"/>
  <path id="Path_60634" data-name="Path 60634" d="M512.517,163.221,501.622,173.98l10.895,10.759,2.451-2.451-8.239-8.239,8.307-8.307Z" transform="translate(-383.694 -124.849)" fill="#0068ff"/>
  <path id="Path_60635" data-name="Path 60635" d="M608.123,163.221l10.895,10.759-10.895,10.759-2.451-2.451,8.239-8.239-8.307-8.307Z" transform="translate(-463.229 -124.849)" fill="#0068ff"/>
  <path id="Path_60636" data-name="Path 60636" d="M619.514,674.03c3.39,4.54,10.427,5.018,10.427,5.018s1.541-6.883-1.849-11.423-10.427-5.018-10.427-5.018S616.123,669.49,619.514,674.03Z" transform="translate(-508.878 -545.66)" fill="#e6e6e6"/>
  <path id="Path_60637" data-name="Path 60637" d="M676.987,693.931c-2.237,3-6.88,3.311-6.88,3.311s-1.017-4.542,1.22-7.537,6.88-3.311,6.88-3.311S679.224,690.935,676.987,693.931Z" transform="translate(-549.082 -563.855)" fill="#e6e6e6"/>
  <path id="Path_60638" data-name="Path 60638" d="M131.567,459.168v11.784H128.2l-2.244-12.345Z" transform="translate(-96.345 -350.791)" fill="#ffb9b9"/>
  <path id="Path_60639" data-name="Path 60639" d="M18.187,459.168v11.784H14.821l-2.245-12.345Z" transform="translate(-9.619 -350.791)" fill="#ffb9b9"/>
  <path id="Path_60640" data-name="Path 60640" d="M248.042,248.4s-5.41-3.889-6.087-2.029,4.058,5.241,4.058,5.241Z" transform="translate(-221.712 -226.895)" fill="#ffb9b9"/>
  <path id="Path_60641" data-name="Path 60641" d="M186.433,238.25c0,6.723,2.895,6.932,7.61,6.932s9.466-.209,9.466-6.932-3.823-12.174-8.538-12.174S186.433,231.527,186.433,238.25Z" transform="translate(-179.293 -211.755)" fill="#2f2e41"/>
  <path id="Path_60642" data-name="Path 60642" d="M209.843,276.026s-.676,5.072,2.536,5.41-10.483,1.353-10.483,1.353,3.551-3.212,1.691-5.749S209.843,276.026,209.843,276.026Z" transform="translate(-191.121 -249.616)" fill="#ffb9b9"/>
  <path id="Path_60643" data-name="Path 60643" d="M287.569,662.983l1.184,9.976s5.918,7.27,2.2,6.763-6.087.108-6.087-.569-.087-3.093-.595-3.093-.927,3.816-.927,3.816a7.043,7.043,0,0,1-1.691-.284c-.169-.169-.338-9.846-.338-9.846s-.507-2.874.507-4.227a3.7,3.7,0,0,0,.845-2.536Z" transform="translate(-251.771 -545.948)" fill="#2f2e41"/>
  <path id="Path_60644" data-name="Path 60644" d="M173,662.517l1.184,9.976s5.918,7.27,2.2,6.763-6.087.108-6.087-.568-.087-3.093-.595-3.093-.927,3.816-.927,3.816a7.039,7.039,0,0,1-1.691-.284c-.169-.169-.338-9.846-.338-9.846s-.507-2.874.507-4.227a3.7,3.7,0,0,0,.845-2.536Z" transform="translate(-164.133 -545.591)" fill="#2f2e41"/>
  <path id="Path_60645" data-name="Path 60645" d="M189.883,410.548s5.41,15.386,5.749,18.767-.338,14.879-.338,14.879,4.9,19.865,3.889,20.034-6.664.971-6.833.125-.772-2.154-.6-2.661-.507-2.367-.507-3.381-2.371-6.339-2.2-7.184-2.874-13.357-3.382-14.371-1.86-8.116-1.86-8.116-7.608,20.8-7.778,21.3-.845,1.353-.507,1.522-.507,1.353-.507,1.353-1.752,7.015-1.752,7.353.338,4.166-.338,4.335-7.584.158-7.923-1.025,3.588-14.89,3.588-14.89,2.874-8.623,2.029-10.821.845-15.386,1.522-16.4.845-7.1.845-7.1Z" transform="translate(-162.877 -352.859)" fill="#2f2e41"/>
  <circle id="Ellipse_834" data-name="Ellipse 834" cx="5.41" cy="5.41" r="5.41" transform="translate(10.352 18.379)" fill="#ffb9b9"/>
  <path id="Path_60646" data-name="Path 60646" d="M186.188,294.09s-6.087.169-6.425-.338-8.792,1.184-8.792,4.565,4.9,16.569,4.9,16.569,1.86,9.468,1.353,10.483,18.768-2.2,18.26-3.889-3.382-5.41.338-8.623a21.364,21.364,0,0,0,5.241-6.594l-4.4-11.666s-4.4-.676-5.41,0S186.188,294.09,186.188,294.09Z" transform="translate(-167.466 -263.453)" fill="#0068ff"/>
  <path id="Path_60647" data-name="Path 60647" d="M262.248,276.547l1.184-.845s10.99-11.5,8.116-13.7-7.1-4.227-9.13-4.4a7.275,7.275,0,0,1-3.72-1.691s-2.2-3.889-3.889-1.353-3.551,3.382-1.184,4.227,3.889.507,5.072,1.353,5.749,2.2,3.72,2.705a18.146,18.146,0,0,0-3.382,1.184l-2.2,3.889Z" transform="translate(-229.831 -232.891)" fill="#0068ff"/>
  <path id="Path_60648" data-name="Path 60648" d="M201.132,472.4s4.4,6.425,1.184,6.087-4.734-4.734-4.734-4.734Z" transform="translate(-187.821 -400.169)" fill="#ffb9b9"/>
  <path id="Path_60649" data-name="Path 60649" d="M166.531,309.862l-1.184.845s-3.889,21.3,0,26.883,4.227,5.241,4.227,5.241.676-.507,1.014,2.874-.169,4.734.845,4.734,5.58-1.014,5.241-1.86-2.536-5.749-2.705-6.932-1.014-3.889-1.353-5.411,1.522-2.367.676-5.579a80.829,80.829,0,0,1-2.029-10.145C171.265,319.33,166.531,309.862,166.531,309.862Z" transform="translate(-161.843 -275.843)" fill="#0068ff"/>
  <path id="Path_60650" data-name="Path 60650" d="M200.817,235.127c0,1.821,2.5,3.3,5.58,3.3s5.918.976,5.918-.845-2.836-5.749-5.918-5.749S200.817,233.306,200.817,235.127Z" transform="translate(-190.296 -216.156)" fill="#2f2e41"/>
  <path id="Path_60651" data-name="Path 60651" d="M231.617,282.712s.228,6.129-5.863,5.791.823-5.239.823-5.239Z" transform="translate(-207.451 -255.076)" fill="#2f2e41"/>
  <rect id="Rectangle_2414" data-name="Rectangle 2414" width="165.249" height="0.527" transform="translate(0 133.387)" fill="#3f3d56"/>
</svg>
