<svg xmlns="http://www.w3.org/2000/svg" width="189.078" height="170" viewBox="0 0 189.078 170">
  <g id="undraw_online_learning_ao11" transform="translate(0 0)">
    <path id="Path_61076" data-name="Path 61076" d="M258.341,108.529h-.894V84.035a14.177,14.177,0,0,0-14.177-14.177H191.376A14.177,14.177,0,0,0,177.2,84.035V218.413a14.177,14.177,0,0,0,14.177,14.177H243.27a14.177,14.177,0,0,0,14.177-14.177V125.965h.894Z" transform="translate(-177.199 -69.858)" fill="#3f3d56"/>
    <path id="Path_61077" data-name="Path 61077" d="M257.425,86.353h-6.774a5.03,5.03,0,0,1-4.657,6.93h-29.73a5.03,5.03,0,0,1-4.657-6.93H205.28A10.587,10.587,0,0,0,194.693,96.94V231.122a10.587,10.587,0,0,0,10.587,10.587h52.145a10.587,10.587,0,0,0,10.587-10.587h0V96.94a10.587,10.587,0,0,0-10.587-10.587Z" transform="translate(-190.782 -82.665)" fill="#fff"/>
    <rect id="Rectangle_3893" data-name="Rectangle 3893" width="60.052" height="102.589" transform="translate(10.545 30.071)" fill="#e6e6e6"/>
    <path id="Path_61078" data-name="Path 61078" d="M932.439,603.068l.453,15.842,4.828,18.558s-1.056,3.169-.3,3.923,4.225,2.112,4.225,2.112l-2.867-39.53Z" transform="translate(-763.567 -483.842)" fill="#e6e6e6"/>
    <path id="Path_61079" data-name="Path 61079" d="M932.182,772.919s1.722,3.788-.689,4.132-13.545,1.263-12.856-.689,9.068-3.788,9.068-3.788Z" transform="translate(-752.827 -615.447)" fill="#2f2e41"/>
    <path id="Path_61080" data-name="Path 61080" d="M945.146,540.147s-1.811,9.807-3.018,11.467.6,13.73.6,13.73,2.716,17.351,1.509,20.067-.905,1.811-.754,3.319.453,2.716,0,4.074a11.93,11.93,0,0,0-.6,1.961c-.151.754,0,4.828,0,4.828s-6.488,2.263-7.544-1.056c0,0,1.509-2.112,1.056-3.772a20.1,20.1,0,0,1-.754-5.13v-3.169l-6.94-25.951-1.659-9.354s.453-9.505,2.112-10.411S945.146,540.147,945.146,540.147Z" transform="translate(-759.376 -434.953)" fill="#e6e6e6"/>
    <path id="Path_61081" data-name="Path 61081" d="M933.909,801.23s2.263,4.979-.905,5.432-17.8,1.66-16.9-.905,11.92-4.979,11.92-4.979Z" transform="translate(-750.854 -637.343)" fill="#2f2e41"/>
    <circle id="Ellipse_841" data-name="Ellipse 841" cx="6.035" cy="6.035" r="6.035" transform="translate(174.152 49.677)" fill="#ffb9b9"/>
    <path id="Path_61082" data-name="Path 61082" d="M975.928,330.025l-.112,7.707-7.4.025s1.878-6.033,1.037-7.3S975.928,330.025,975.928,330.025Z" transform="translate(-791.499 -271.647)" fill="#ffb9b9"/>
    <path id="Path_61083" data-name="Path 61083" d="M933.517,368.369s5.281-6.79,9.355-3.923,5.584,9.656,5.584,9.656l-.905,19.011s-2.112,9.656-1.66,10.109-.453.754-.453.754l-15.993.453s.453-.6-.905-2.414.3-4.225,0-5.13S933.517,368.369,933.517,368.369Z" transform="translate(-760.118 -298.028)" fill="#3f3d56"/>
    <path id="Path_61084" data-name="Path 61084" d="M941.328,553.294s-.3,3.772-2.565,4.375a1.775,1.775,0,0,1-1.949-.833,3.705,3.705,0,0,1-.119-4.157l.559-.894Z" transform="translate(-766.421 -444.026)" fill="#ffb9b9"/>
    <path id="Path_61085" data-name="Path 61085" d="M967.889,348.483a26.38,26.38,0,0,1,0,3.47,1.443,1.443,0,0,0,0,1.358,2.5,2.5,0,0,1-.151,2.112c-.3.151.6,1.509.3,2.414a6.546,6.546,0,0,1-.754,1.509c-.151.3-.394.842-.394.842s-4.434-9.443-8.055-7.179a26.244,26.244,0,0,1-6.488,3.018S954.309,345.465,967.889,348.483Z" transform="translate(-779.024 -285.762)" fill="#3f3d56"/>
    <path id="Path_61086" data-name="Path 61086" d="M951,381.616s4.828.453,4.526,6.79.453,16.3.453,16.3-8.3,12.674-9.656,13.579-1.509.754-1.358,1.509.3,1.358-.3,1.961a5.209,5.209,0,0,1-1.207.905s-4.828-1.66-4.375-3.168a15.524,15.524,0,0,1,2.565-3.923s3.621-5.884,3.772-6.79.151-.754.6-1.207a7.084,7.084,0,0,0,1.66-3.168v-2.866l-1.265-15.32a4.441,4.441,0,0,1,1.178-3.439A3.842,3.842,0,0,1,951,381.616Z" transform="translate(-768.702 -311.879)" fill="#3f3d56"/>
    <path id="Path_61087" data-name="Path 61087" d="M955.666,282.394a2.459,2.459,0,0,1-2.279-.522,1.861,1.861,0,0,1-.368-2.228,2.939,2.939,0,0,1,1.738-1.105,15.386,15.386,0,0,1,4.569-.7,4.1,4.1,0,0,1,2.142.445c.313.189.578.449.887.644a11.066,11.066,0,0,0,1.876.726,4.812,4.812,0,0,1,2.742,2.9,5.8,5.8,0,0,1,.267,1.364,7.476,7.476,0,0,1-.652,3.7c-.842,1.836-2.444,3.379-2.671,5.386-.863-.724-1.115-1.939-1.783-2.845a3.69,3.69,0,0,0-2.014-1.367,1.173,1.173,0,0,1-.61-.273,1.011,1.011,0,0,1-.191-.55L958.905,285a2.569,2.569,0,0,0-.664-1.668,2.36,2.36,0,0,0-.989-.429,15.947,15.947,0,0,0-2.581-.421" transform="translate(-779.371 -231.337)" fill="#2f2e41"/>
    <path id="Path_61088" data-name="Path 61088" d="M982.071,494.622l-8.47,10.992S981.4,499.094,982.071,494.622Z" transform="translate(-795.525 -399.645)" opacity="0.1"/>
    <path id="Path_61089" data-name="Path 61089" d="M781.12,370.338l.08,10.381-4.919,7.379,4.025-8.273Z" transform="translate(-602.704 -287.53)" opacity="0.1"/>
    <path id="Path_61090" data-name="Path 61090" d="M678.679,189.5a120.794,120.794,0,0,1,1.869,33.837q-.383,4.418-1.093,8.8c-.216,1.328-.462,2.649-.715,3.97-.145.757-.449,1.7.027,2.412.927,1.388,4.1,1.026,5.5,1.071,2.912.094,5.829.11,8.742.161l8.765.153,4.22.074a31.507,31.507,0,0,0,4.439.064c1.877-.242,1.42-2.208,1.392-3.669q-.084-4.332-.231-8.662-.581-17.16-2.139-34.268a27.156,27.156,0,0,0-.442-4.6c-.158-.569-.316-.733-.934-.835a28.124,28.124,0,0,0-4.533.022l-4.787.033L679.3,188.2a.489.489,0,0,0,0,.977l15.957-.111,7.021-.049,3.83-.027c.787-.005,1.523-.244,2.016.622a8.489,8.489,0,0,1,.244,2.556q1.43,15.338,2.075,30.736.161,3.848.273,7.7.047,1.6.085,3.208.023.963.043,1.925a8.736,8.736,0,0,1,.047,2.567c-.513,1.3-2.8.739-3.914.719l-3.9-.068-7.791-.136-7.791-.136c-1.288-.022-2.578-.032-3.865-.087-.427-.018-.855-.039-1.281-.069-1.27-.09-2.637.21-2.788-1.545a16.961,16.961,0,0,1,.684-3.66q.313-1.835.569-3.68.479-3.446.763-6.915a121.814,121.814,0,0,0-1.956-33.478c-.122-.616-1.064-.355-.942.26Z" transform="translate(-566.417 -161.51)" fill="#0068ff"/>
    <path id="Path_61091" data-name="Path 61091" d="M697.723,202.914h6.464a.489.489,0,0,0,0-.977h-6.464a.489.489,0,0,0,0,.977Z" transform="translate(-580.967 -172.404)" fill="#0068ff"/>
    <path id="Path_61092" data-name="Path 61092" d="M697.723,211.971l6.093-.23c.627-.024.63-1,0-.977l-6.093.23C697.1,211.018,697.093,212,697.723,211.971Z" transform="translate(-580.967 -179.257)" fill="#0068ff"/>
    <path id="Path_61093" data-name="Path 61093" d="M697.723,221.085h5.91a.489.489,0,0,0,0-.977h-5.91a.489.489,0,0,0,0,.977Z" transform="translate(-580.967 -186.512)" fill="#0068ff"/>
    <path id="Path_61094" data-name="Path 61094" d="M777.326,203.528c-1.327-.692-2.531.446-2.717,1.746a2.913,2.913,0,0,0,.294,2.045,2.561,2.561,0,0,0,1.87.824,2.746,2.746,0,0,0,2.914-1.918,2.394,2.394,0,0,0-1.49-2.838c-.6-.206-.851.737-.26.942a1.371,1.371,0,0,1,.836,1.419,1.569,1.569,0,0,1-1.306,1.37c-.807.186-1.752-.014-1.908-.924-.117-.681.253-2.356,1.273-1.823C777.39,204.663,777.884,203.819,777.326,203.528Z" transform="translate(-640.985 -173.477)" fill="#0068ff"/>
    <path id="Path_61095" data-name="Path 61095" d="M703.5,242.766q10.665.112,21.308-.659l-.471-.619c-1.161,2.943-1.13,6.045-.976,9.158a11.588,11.588,0,0,1,.125,2.6c-.2.972-1.071.739-1.939.767q-2.866.093-5.733.133-2.708.038-5.416.03-1.274,0-2.549-.018c-1-.011-2.132.279-2.389-.877a12.371,12.371,0,0,1,0-2.475l0-2.784,0-5.569a.489.489,0,0,0-.977,0l0,6.806,0,3.094a5.486,5.486,0,0,0,.1,1.94c.528,1.342,2.808.838,3.9.849q3.345.031,6.69-.01t6.688-.152c.96-.032,2.289.186,2.58-1a10.329,10.329,0,0,0-.077-2.76c-.05-.967-.1-1.934-.116-2.9a17,17,0,0,1,1.026-6.577.491.491,0,0,0-.471-.619q-10.638.771-21.308.659a.489.489,0,0,0,0,.977Z" transform="translate(-585.455 -202.834)" fill="#0068ff"/>
    <path id="Path_61096" data-name="Path 61096" d="M713.046,247.443a71.716,71.716,0,0,1,8.881,3.835c2.576,1.331,5.948,2.785,7.72,5.164.372.5,1.22.012.844-.493-1.81-2.429-4.926-3.859-7.544-5.24a73.433,73.433,0,0,0-9.642-4.209c-.594-.211-.849.733-.26.942Z" transform="translate(-592.97 -206.98)" fill="#0068ff"/>
    <path id="Path_61097" data-name="Path 61097" d="M734.619,242.885c-3.23,1.381-5.966,4.042-8.852,6.013q-4.686,3.2-9.651,5.958c-.549.307-.057,1.151.493.844q4.954-2.767,9.651-5.958c2.885-1.971,5.623-4.633,8.852-6.013.577-.247.079-1.089-.493-.844Z" transform="translate(-595.427 -204.162)" fill="#0068ff"/>
    <path id="Path_61098" data-name="Path 61098" d="M703.5,330.182q10.665.112,21.308-.659l-.471-.619c-1.161,2.943-1.129,6.045-.975,9.158a11.58,11.58,0,0,1,.125,2.6c-.2.972-1.071.739-1.939.767q-2.866.093-5.733.133-2.708.038-5.416.03-1.274,0-2.549-.018c-1-.011-2.132.279-2.389-.877a12.366,12.366,0,0,1,0-2.475l0-2.784,0-5.569a.489.489,0,0,0-.977,0l0,6.806,0,3.094a5.486,5.486,0,0,0,.1,1.94c.528,1.342,2.808.838,3.9.849q3.345.031,6.69-.01t6.688-.152c.96-.032,2.289.186,2.58-1a10.326,10.326,0,0,0-.077-2.76c-.05-.967-.1-1.934-.116-2.9a17,17,0,0,1,1.026-6.577.491.491,0,0,0-.471-.619q-10.638.771-21.308.659a.489.489,0,0,0,0,.977Z" transform="translate(-585.455 -270.703)" fill="#0068ff"/>
    <path id="Path_61099" data-name="Path 61099" d="M713.046,334.858a71.707,71.707,0,0,1,8.881,3.835c2.576,1.331,5.948,2.785,7.72,5.164.372.5,1.22.012.844-.493-1.81-2.429-4.926-3.859-7.544-5.24a73.43,73.43,0,0,0-9.642-4.209C712.712,333.7,712.456,334.649,713.046,334.858Z" transform="translate(-592.97 -274.849)" fill="#0068ff"/>
    <path id="Path_61100" data-name="Path 61100" d="M734.619,330.3c-3.23,1.381-5.966,4.042-8.852,6.013q-4.686,3.2-9.651,5.958c-.549.307-.057,1.151.493.844q4.954-2.766,9.651-5.958c2.885-1.971,5.623-4.633,8.852-6.013C735.688,330.9,735.191,330.055,734.619,330.3Z" transform="translate(-595.427 -272.031)" fill="#0068ff"/>
    <path id="Path_61101" data-name="Path 61101" d="M560.646,305.1H578.93a.489.489,0,0,0,0-.977H560.646a.489.489,0,0,0,0,.977Z" transform="translate(-474.54 -251.742)" fill="#0068ff"/>
    <path id="Path_61102" data-name="Path 61102" d="M632.584,284.182l2.857,2.607a8.274,8.274,0,0,1,1.428,1.3c.42.806-.031.622-.75.9a16.08,16.08,0,0,0-4.809,2.987c-.473.417.221,1.106.691.691a14.93,14.93,0,0,1,4.378-2.735c.576-.228,1.67-.361,1.943-1.048.335-.84-.732-1.46-1.238-1.922l-3.809-3.477c-.464-.423-1.157.266-.691.691Z" transform="translate(-529.647 -235.62)" fill="#0068ff"/>
    <ellipse id="Ellipse_842" data-name="Ellipse 842" cx="10.487" cy="2.653" rx="10.487" ry="2.653" transform="translate(23.367 82.053)" fill="#2f2e41"/>
    <path id="Path_61103" data-name="Path 61103" d="M314.892,290.757c.632,1.9-1.263,4.169-1.263,4.169l2.653,3.285,4.169.758s2.78-1.9,1.769-2.527-1.137-5.685-1.137-5.685Z" transform="translate(-283.123 -241.364)" fill="#a0616a"/>
    <rect id="Rectangle_3894" data-name="Rectangle 3894" width="34.227" height="0.253" transform="translate(22.926 120.066) rotate(-82.363)" fill="#2f2e41"/>
    <rect id="Rectangle_3895" data-name="Rectangle 3895" width="33.607" height="0.253" transform="matrix(0.086, -0.996, 0.996, 0.086, 28.737, 120.135)" fill="#2f2e41"/>
    <rect id="Rectangle_3896" data-name="Rectangle 3896" width="0.253" height="38.76" transform="translate(39.36 81.495) rotate(-5.21)" fill="#2f2e41"/>
    <rect id="Rectangle_3897" data-name="Rectangle 3897" width="39.39" height="0.253" transform="translate(34.928 120.205) rotate(-87.941)" fill="#2f2e41"/>
    <path id="Path_61104" data-name="Path 61104" d="M341.111,402.635,333.4,409.2l13.14,3.285s-4.675,4.043-6.317,4.422a27.927,27.927,0,0,0-5.18,2.527s5.812,3.917,6.191,3.79,2.527-.632,2.527-.632,11.624-8.086,14.024-12.887S345.66,403.9,345.66,403.9Z" transform="translate(-298.477 -328.226)" fill="#2f2e41"/>
    <path id="Path_61105" data-name="Path 61105" d="M294.821,425.7c-.505,1.643,3.285,3.411,3.285,3.411s3.538,4.675,4.548,5.18,1.39,3.538,1.39,3.538c-1.769,4.8,0,19.078,0,21.1s6.191,0,6.191,0-1.137-15.414.505-20.066-6.7-16.448-6.7-16.448S295.326,424.054,294.821,425.7Z" transform="translate(-268.484 -343.581)" fill="#2f2e41"/>
    <path id="Path_61106" data-name="Path 61106" d="M310.238,261.323a5.056,5.056,0,1,1,5.057,5.058,5.056,5.056,0,0,1-5.057-5.058Z" transform="translate(-280.49 -214.588)" fill="#a0616a"/>
    <path id="Path_61107" data-name="Path 61107" d="M309.872,323.944l-5.227-1.814c-.2-1.822-.5-4.063-.789-6.141l1.594-8.47.138-3.911c-.894-1.565-6.795-3.67-6.795-3.67s.117.412.281,1.068a.228.228,0,0,0-.13.044s.693,4.067-2.971,3.057a5.305,5.305,0,0,1-2.691-1.622,4.644,4.644,0,0,1-.9-3s-7.081,5.537-7.587,6.8,1.342,12.074,1.342,12.074-2.037,11.137.49,14.043c0,0-.884-1.516,3.79-1.516s6.949-.884,7.075-1.011a16.846,16.846,0,0,1,2.527,0s.045-.919.081-2.377c2.433-.6,4.468-1.288,4.72-1.666a1.034,1.034,0,0,0,.068-.434Z" transform="translate(-260.667 -248.145)" fill="#fff"/>
    <path id="Path_61108" data-name="Path 61108" d="M364.049,416.349l.476,3.377s3.917,5.812,5.938,4.548-3.032-5.938-3.032-5.938V416.82Z" transform="translate(-322.269 -338.874)" fill="#a0616a"/>
    <path id="Path_61109" data-name="Path 61109" d="M329.473,477.786s-4.422,3.032-4.548,3.79,9.223,9.855,11.371,9.1-2.653-8.086-2.653-8.086l1.39-2.022Z" transform="translate(-291.892 -386.573)" fill="#2f2e41"/>
    <path id="Path_61110" data-name="Path 61110" d="M334.954,581.188s-1.9,3.538-.884,5.054a34,34,0,0,1,2.4,4.8c.632,1.39,5.18,2.021,7.2,1.516s-2.4-6.317-2.4-6.317l-1.137-5.054Z" transform="translate(-298.763 -466.854)" fill="#2f2e41"/>
    <path id="Path_61111" data-name="Path 61111" d="M366.771,316.71a4.266,4.266,0,0,0-2.274-3.917l-1.39,15.54.148.01-.148.242-.884,8.718c1.011-1.263,4.169,0,4.169,0l.379-8.718h0S366.9,319.743,366.771,316.71Z" transform="translate(-320.851 -258.473)" fill="#fff"/>
    <path id="Path_61112" data-name="Path 61112" d="M354.876,425.7l1.643,1.263a4.981,4.981,0,0,0,6.57,1.39c4.169-2.148-5.18-5.18-5.18-5.18l-2.4-.758Z" transform="translate(-315.147 -343.581)" fill="#a0616a"/>
    <path id="Path_61113" data-name="Path 61113" d="M280.33,326.229c-1.263,1.516,1.642,11.75,2.4,14.782s7.581,5.685,9.223,5.812,3.285,3.159,4.422,3.664,1.263-2.906,1.907-4.508-3.676-1.43-3.676-1.43l-6.317-4.169s-.632-5.812-1.137-10.234a7.8,7.8,0,0,0-3.917-6.065C282.226,323.449,281.594,324.713,280.33,326.229Z" transform="translate(-257.026 -267.108)" fill="#fff"/>
    <path id="Path_61114" data-name="Path 61114" d="M348.776,264.969a17.112,17.112,0,0,0,3.381,1.625c.6-.014.742-.581.3-1.362s-2.463-.75-2.463-.75Z" transform="translate(-310.411 -220.965)" fill="#3f3d56"/>
    <path id="Path_61115" data-name="Path 61115" d="M348.776,264.969a17.112,17.112,0,0,0,3.381,1.625c.6-.014.742-.581.3-1.362s-2.463-.75-2.463-.75Z" transform="translate(-310.411 -220.965)" opacity="0.1"/>
    <path id="Path_61116" data-name="Path 61116" d="M316.318,261.116l3.1-1.305,2.728.076,2.807,1.182c-1.1-.449-3.775,1.04-5.665,2.914s-3.2.657-3.2.657l-1.383-1.2Z" transform="translate(-283.956 -217.337)" fill="#0068ff"/>
    <path id="Path_61117" data-name="Path 61117" d="M308.163,253.2a4.755,4.755,0,0,1,1.351-3.553,1.721,1.721,0,0,1,1.048-.568h0c.016-.016.033-.033.052-.05a10.144,10.144,0,0,1,3.017-1.1c.7-.193,2.036.567,2.036.567l2.474,2.7a5.234,5.234,0,0,0-3.078.021,11.726,11.726,0,0,0-4.67,2.62,17.211,17.211,0,0,0-1.735,1.7S308.461,255.377,308.163,253.2Z" transform="translate(-278.857 -208.094)" fill="#0068ff"/>
    <path id="Path_61118" data-name="Path 61118" d="M315.439,264.377c5.22-4.4,8.142-3.437,8.264-3.394l-.084.238c-.029-.01-2.924-.943-8.017,3.349Z" transform="translate(-284.528 -218.156)" opacity="0.1"/>
    <ellipse id="Ellipse_843" data-name="Ellipse 843" cx="0.758" cy="0.505" rx="0.758" ry="0.505" transform="translate(30.924 40.806) rotate(-30)" fill="#0068ff"/>
    <ellipse id="Ellipse_844" data-name="Ellipse 844" cx="0.632" cy="0.379" rx="0.632" ry="0.379" transform="translate(30.103 47.373) rotate(-81.689)" fill="#a0616a"/>
    <path id="Path_61119" data-name="Path 61119" d="M138.9,296.047l.383,7.192,6.1,3.764-5.366-4.025Z" transform="translate(-107.84 -229.851)" opacity="0.2"/>
    <path id="Path_61120" data-name="Path 61120" d="M182.569,301.047l-.447,9.838-.224-9.838Z" transform="translate(-141.225 -233.733)" opacity="0.2"/>
  </g>
</svg>
