<svg id="undraw_shared_goals_3d12" xmlns="http://www.w3.org/2000/svg" width="287.866" height="174.953" viewBox="0 0 287.866 174.953">
  <path id="Path_61390" data-name="Path 61390" d="M287.734,520.9H0v-.731H287.866Z" transform="translate(0 -345.949)" fill="#3f3d56"/>
  <path id="Path_61391" data-name="Path 61391" d="M842.313,355.573l-7.281,14.415-21.771,9.9c-2.325,3.929-9.713,4.23-10.25,1.689-.6-2.85,8.971-7.438,8.971-7.438l18.21-12.317,1.593-10.6Z" transform="translate(-591.065 -296.825)" fill="#a0616a"/>
  <path id="Path_61392" data-name="Path 61392" d="M733.184,464.215l1.343,10.742-7.788.537-.806-11.279Z" transform="translate(-482.794 -308.734)" fill="#a0616a"/>
  <path id="Path_61393" data-name="Path 61393" d="M874.346,670.143a21.083,21.083,0,0,0,1.922-2.35c1.116-1.545,2.107,6.379,2.107,6.379s1.074,3.223.806,4.834-6.445,1.611-7.52,1.343a50.81,50.81,0,0,0-6.445,0h-8.057c-6.982-3.223,0-5.371,0-5.371,2.148-.269,9.4-6.982,9.4-6.982l1.611-2.954c1.074-.269,2.148,3.76,2.148,3.76Z" transform="translate(-625.03 -505.532)" fill="#2f2e41"/>
  <path id="Path_61394" data-name="Path 61394" d="M793.32,464.616l1.343,10.742-7.788.537-.806-11.28Z" transform="translate(-522.789 -309.001)" fill="#a0616a"/>
  <path id="Path_61395" data-name="Path 61395" d="M934.482,670.544a21.09,21.09,0,0,0,1.922-2.35c1.116-1.545,2.106,6.379,2.106,6.379s1.074,2.954.806,4.565-6.445,1.611-7.52,1.343-6.445.269-6.445.269h-8.057c-6.982-3.223,0-5.371,0-5.371,2.148-.269,9.4-6.982,9.4-6.982l1.611-2.954c1.074-.269,2.149,3.76,2.149,3.76Z" transform="translate(-665.025 -505.798)" fill="#2f2e41"/>
  <path id="Path_61396" data-name="Path 61396" d="M891.262,445.385c1.074,1.343.537,5.908.537,5.908s1.88,14.771,1.074,16.113.537,2.417,1.343,4.3a42.905,42.905,0,0,1,1.611,6.445c4.565,3.76,4.3,20.947,4.3,20.947l1.611,15.308c-.537,1.611-8.057,1.88-9.131,1.611s-4.3-24.439-4.3-24.439l-7.251-13.7s.537,36.524.537,38.135-7.251.806-8.862.806-1.611-26.856-1.611-26.856l-1.611-6.983-8.594-31.958v-3.76l1.343-1.88S890.187,444.042,891.262,445.385Z" transform="translate(-629.593 -359.057)" fill="#2f2e41"/>
  <circle id="Ellipse_895" data-name="Ellipse 895" cx="8.325" cy="8.325" r="8.325" transform="translate(241.527 8.715)" fill="#a0616a"/>
  <path id="Path_61397" data-name="Path 61397" d="M898.479,251.326c1.688,3.758.688,9.006-2.686,14.771l13.7-6.445-2.148-1.88.537-5.371Z" transform="translate(-652.79 -230.392)" fill="#a0616a"/>
  <path id="Path_61398" data-name="Path 61398" d="M875.549,272.719a8.593,8.593,0,0,0-3.482,5.019,47.569,47.569,0,0,0-2.044,11.364l-.651,11.547-8.057,30.615c6.982,5.908,11.011,4.565,20.41-.269s10.474,1.611,10.474,1.611.806-.269,0-1.074,0,0,.806-.806,0,0-.269-.806,0-.269.269-.537-1.074-2.686-1.074-2.686l2.148-20.142,2.686-28.467c-3.223-4.028-12.354-7.52-12.354-7.52l-8.325,5.908c-2.685,1.074-.537-3.223-.537-3.223Z" transform="translate(-629.859 -243.191)" fill="#0068ff"/>
  <path id="Path_61399" data-name="Path 61399" d="M944.847,343.937l1.074,16.113-13.7,19.6c0,4.565-2.417,5.64-2.417,5.64a35.492,35.492,0,0,1-2.417-4.565,5.213,5.213,0,0,1,.806-5.371l9.4-19.873-4.028-9.937Z" transform="translate(-673.51 -291.984)" fill="#a0616a"/>
  <path id="Path_61400" data-name="Path 61400" d="M947.269,292.322c4.565,1.611,5.371,19.067,5.371,19.067-5.371-2.954-11.817,1.88-11.817,1.88s-1.343-4.565-2.954-10.474a10.264,10.264,0,0,1,2.149-9.668S942.7,290.711,947.269,292.322Z" transform="translate(-680.498 -257.289)" fill="#0068ff"/>
  <path id="Path_61401" data-name="Path 61401" d="M907.063,219.273c-1.06-.848-2.506.693-2.506.693l-.848-7.631s-5.3.636-8.691-.212S891.1,215.2,891.1,215.2a27.212,27.212,0,0,1-.106-4.769c.212-1.908,2.968-3.815,7.843-5.087s7.419,4.24,7.419,4.24C909.645,211.276,908.123,220.121,907.063,219.273Z" transform="translate(-649.557 -199.682)" fill="#2f2e41"/>
  <path id="Path_61402" data-name="Path 61402" d="M210.665,492.989c.915,3.633,8.72,11.8,16.774,19.478C215.02,481.792,222.1,448.22,222.1,448.22c-2.306,13.185,29.3,79.536,29.3,79.536L244.2,532l-2.432,3.422C217.388,524.227,210.665,492.989,210.665,492.989Z" transform="translate(-197.133 -361.34)" fill="#e6e6e6"/>
  <rect id="Rectangle_3975" data-name="Rectangle 3975" width="101.81" height="20.101" transform="translate(121.744 63.628)" fill="#e6e6e6"/>
  <rect id="Rectangle_3976" data-name="Rectangle 3976" width="101.81" height="20.101" transform="translate(121.744 31.866)" fill="#e6e6e6"/>
  <rect id="Rectangle_3977" data-name="Rectangle 3977" width="101.81" height="20.101" transform="translate(121.744)" fill="#e6e6e6"/>
  <path id="Path_61403" data-name="Path 61403" d="M540.23,211.064H637.7V195.3H540.23Z" transform="translate(-416.316 -193.133)" fill="#fff"/>
  <path id="Path_61404" data-name="Path 61404" d="M540.23,306.415H637.7v-15.76H540.23Z" transform="translate(-416.316 -256.548)" fill="#fff"/>
  <path id="Path_61405" data-name="Path 61405" d="M540.23,401.036H637.7v-15.76H540.23Z" transform="translate(-416.316 -319.478)" fill="#fff"/>
  <circle id="Ellipse_896" data-name="Ellipse 896" cx="6.004" cy="6.004" r="6.004" transform="translate(126.443 3.916)" fill="#0068ff"/>
  <rect id="Rectangle_3978" data-name="Rectangle 3978" width="59.259" height="1.305" transform="translate(146.805 7.57)" fill="#0068ff"/>
  <rect id="Rectangle_3979" data-name="Rectangle 3979" width="59.259" height="1.305" transform="translate(146.805 10.964)" fill="#0068ff"/>
  <circle id="Ellipse_897" data-name="Ellipse 897" cx="6.004" cy="6.004" r="6.004" transform="translate(126.443 36.043)" fill="#ccc"/>
  <rect id="Rectangle_3980" data-name="Rectangle 3980" width="59.259" height="1.305" transform="translate(146.805 39.698)" fill="#ccc"/>
  <rect id="Rectangle_3981" data-name="Rectangle 3981" width="59.259" height="1.305" transform="translate(146.805 43.091)" fill="#ccc"/>
  <circle id="Ellipse_898" data-name="Ellipse 898" cx="6.004" cy="6.004" r="6.004" transform="translate(126.443 67.805)" fill="#ccc"/>
  <rect id="Rectangle_3982" data-name="Rectangle 3982" width="59.259" height="1.305" transform="translate(146.805 71.46)" fill="#ccc"/>
  <rect id="Rectangle_3983" data-name="Rectangle 3983" width="59.259" height="1.305" transform="translate(146.805 74.853)" fill="#ccc"/>
  <path id="Path_61406" data-name="Path 61406" d="M309.346,357.084s-1.4,8.824,4.412,8.021c0,0,23.062-5.214,24.265-4.011s8.684,1.613,8.293-3.46c-.392-5.09-7.892-2.155-7.892-2.155s-11.631,1.6-14.038.4-9.225-.8-9.225-.8Z" transform="translate(-262.663 -299.101)" fill="#a0616a"/>
  <path id="Path_61407" data-name="Path 61407" d="M328.759,447.853l-3.2,30.34s-1,12.032-4.011,14.639c0,0,0,3.81-1,5.013l-1.4,15.843s2.005,5.816,1.8,6.818.8,4.211.6,4.612-9.626,0-9.626,0l2.005-32.287,6.217-44.92Z" transform="translate(-264.477 -361.096)" fill="#2f2e41"/>
  <path id="Path_61408" data-name="Path 61408" d="M304.477,671.928s-4.206,10.606-2.011,11.886,25.234.366,25.234.366,3.84-2.377-.549-4.023a15.064,15.064,0,0,1-6.034-1.646,34.959,34.959,0,0,1-5.12-4.205s-.183-4.023-1.646-3.109a3.758,3.758,0,0,0-1.646,2.56Z" transform="translate(-257.765 -509.544)" fill="#2f2e41"/>
  <path id="Path_61409" data-name="Path 61409" d="M284.608,667.467S280,679.1,282.4,680.5s27.674.4,27.674.4,4.211-2.607-.6-4.412a16.521,16.521,0,0,1-6.618-1.8,38.336,38.336,0,0,1-5.615-4.613s-.2-4.412-1.8-3.409a4.121,4.121,0,0,0-1.8,2.807Z" transform="translate(-244.38 -506.522)" fill="#2f2e41"/>
  <path id="Path_61410" data-name="Path 61410" d="M302.656,436.27s-2.206,20.655-3.209,25.067a57.037,57.037,0,0,0-1.2,8.824s-.2,6.417-2.005,8.222a5.42,5.42,0,0,0-1.6,4.011s-1.8,20.254-.8,22.661,2.364,5.533,1.361,7.137-12.391.483-12.391-.72,0-2.206-.6-2.808,0-4.412,0-4.412-2.406-17.848-.2-23.062,3.209-19.452,3.209-19.452-1.6-16.244-3.61-18.851.4-11.832.4-11.832Z" transform="translate(-243.778 -349.924)" fill="#2f2e41"/>
  <path id="Path_61411" data-name="Path 61411" d="M329.2,243.656a2.7,2.7,0,0,0,1.3,1.107,38.853,38.853,0,0,1,7.837,6.3,9.2,9.2,0,0,1,.365-6.222,3.208,3.208,0,0,0,.463-2.094,2.608,2.608,0,0,0-1.017-1.217,31.529,31.529,0,0,0-3.1-2.116c-.751-.449-2.295-1.645-3.156-1.515a8,8,0,0,1-.579,3.293C331.185,241.449,329.284,243.859,329.2,243.656Z" transform="translate(-275.963 -221.454)" fill="#a0616a"/>
  <circle id="Ellipse_899" data-name="Ellipse 899" cx="8.222" cy="8.222" r="8.222" transform="translate(55.268 8.336)" fill="#a0616a"/>
  <path id="Path_61412" data-name="Path 61412" d="M302.936,267.265s1.4-7.019-2.607-9.425-8.623-5.214-8.623-5.214-1.4-.2-2.005,2.808c0,0-11.431,2.206-12.634,13.035s.8,26.672.8,26.672-1.8,13.837-4.011,21.257c0,0-1.8,1.6,6.217-.8s22.059,6.818,22.059,6.818,1.4-1.4,1.4-2.406,3.008-31.484,3.61-34.292S304.741,267.666,302.936,267.265Z" transform="translate(-239.045 -231.254)" fill="#e6e6e6"/>
  <path id="Path_61413" data-name="Path 61413" d="M336.308,213.545a3.429,3.429,0,0,1,1.613-.429,3.069,3.069,0,0,0,1.6-.475c.777-.6.834-1.749,1.4-2.546.823-1.155,2.464-1.293,3.88-1.236a4.3,4.3,0,0,0,2.529-.381,3.8,3.8,0,0,0,1.341-2.241c.3-1.009.492-2.244-.248-2.992-.514-.52-1.325-.623-1.9-1.079a83.552,83.552,0,0,0-8.227-2.131,8.013,8.013,0,0,0-9.346,5.072,24.812,24.812,0,0,0-1.566,5.215c.375,2.364,2.466,4.244,2.61,6.633A4.072,4.072,0,0,1,332.48,214a.778.778,0,0,1,.506-.061c.208.066.329.274.46.448.343.457,1.423,1.15,2.034.826C336.029,214.922,335.62,214.012,336.308,213.545Z" transform="translate(-274.756 -196.14)" fill="#3f3d56"/>
  <path id="Path_61414" data-name="Path 61414" d="M364.719,337.365a.915.915,0,0,0-.019,1.287l5.782,5.984a.913.913,0,0,0,1.3.013l17.642-17.566a.913.913,0,0,0-.146-1.411l-6.937-4.518a.907.907,0,0,0-1.136.112Z" transform="translate(-299.407 -276.732)" fill="#3f3d56"/>
  <path id="Path_61415" data-name="Path 61415" d="M389.452,335.737a.923.923,0,0,1-.121.149l-17.6,17.9a.913.913,0,0,1-1.3-.013l-5.906-6.233a.908.908,0,0,1-.108-.136.819.819,0,0,0,.191,1.049l5.782,5.984a.913.913,0,0,0,1.3.013l17.642-17.566a.913.913,0,0,0,.121-1.145Z" transform="translate(-299.313 -286.531)" fill="#0068ff"/>
  <path id="Path_61416" data-name="Path 61416" d="M389.735,327.956l-.718-.458a.684.684,0,0,1-.985.9l-4.646-3.194a.684.684,0,0,1,.181-1.215l-.37-.236a.249.249,0,0,0-.311.035l-15.629,15.359a.249.249,0,0,0,.006.356l5.676,5.531a.249.249,0,0,0,.346,0l16.49-16.685a.249.249,0,0,0-.042-.386Z" transform="translate(-301.23 -278.533)" fill="#fff"/>
  <path id="Path_61417" data-name="Path 61417" d="M210.391,149.965l4.795,4.521,11.4-11.267-5.788-3.767Z" transform="translate(-139.924 -92.744)" fill="#e6e6e6"/>
  <path id="Path_61418" data-name="Path 61418" d="M427.6,345.284a.17.17,0,0,0,.235,0l1-1a.166.166,0,0,0,0-.235.17.17,0,0,0-.235,0l-1,1a.166.166,0,0,0,0,.235Z" transform="translate(-341.375 -292.029)" fill="#3f3d56"/>
  <path id="Path_61419" data-name="Path 61419" d="M422.581,350.3a.166.166,0,0,0,.235,0l1-1a.166.166,0,0,0-.235-.235l-1,1A.166.166,0,0,0,422.581,350.3Z" transform="translate(-338.039 -295.362)" fill="#3f3d56"/>
  <circle id="Ellipse_900" data-name="Ellipse 900" cx="1.12" cy="1.12" r="1.12" transform="translate(69.458 59.98)" fill="#0068ff"/>
  <path id="Path_61420" data-name="Path 61420" d="M291.87,347.764s-1.4,8.824,4.412,8.021c0,0,23.062-5.214,24.265-4.011s8.684,1.613,8.293-3.46c-.392-5.09-7.892-2.155-7.892-2.155s-11.631,1.6-14.038.4-9.225-.8-9.225-.8Z" transform="translate(-251.04 -292.903)" fill="#a0616a"/>
  <path id="Path_61421" data-name="Path 61421" d="M298.795,269.4s-9.024,1-9.024,14.038v16.645l11.03-4.612s4.612-10.829,4.211-13.837S304.811,269.8,298.795,269.4Z" transform="translate(-249.743 -242.41)" fill="#e6e6e6"/>
</svg>
