<svg id="undraw_Questions_re_1fy7" xmlns="http://www.w3.org/2000/svg" width="277.472" height="195.54" viewBox="0 0 277.472 195.54">
  <circle id="Ellipse_881" data-name="Ellipse 881" cx="15.111" cy="15.111" r="15.111" transform="translate(126.6 164.905)" fill="#0068ff"/>
  <path id="Path_61359" data-name="Path 61359" d="M492.68,378.137c8.454-2.539,17.441-5.186,24.145-11.222,5.991-5.393,10.036-13.629,7.554-21.717-2.477-8.072-9.9-13.454-17.555-16.131a72.029,72.029,0,0,0-13.433-3.022c-4.939-.719-9.9-1.309-14.858-1.876q-30.115-3.444-60.458-4.208c-9.981-.251-19.961-.245-29.943-.1-8.915.129-18.3.126-26.575-3.663-6.431-2.947-12.269-8.307-14.061-15.352-2.069-8.132,1.747-16.413,7.22-22.3a58.46,58.46,0,0,1,9.735-8.12c3.774-2.606,7.679-5.028,11.668-7.289a162.492,162.492,0,0,1,24.561-11.323c4.187-1.522,8.436-2.836,12.722-4.048a108.853,108.853,0,0,0,10.747-3.442c6.762-2.695,13.193-7.26,14.912-14.743,1.629-7.093-1.118-14.792-5.934-20.061-5.572-6.1-13.974-8.768-22.029-9.2-9.043-.485-17.878,1.778-26.377,4.65-9.065,3.064-17.935,6.586-27.192,9.068a182.959,182.959,0,0,1-27.986,5.2,75.917,75.917,0,0,1-14.045.672c-3.9-.316-7.78-1.463-10.654-4.231a10.537,10.537,0,0,1-3.428-9.077c.092-.625,1.041-.359.95.262-.614,4.19,2.234,8.051,5.743,10.029,4.056,2.286,8.992,2.289,13.508,2.027a176.677,176.677,0,0,0,29.077-4.2,233.673,233.673,0,0,0,27.5-8.488c8.592-3.111,17.376-6.148,26.556-6.822,7.965-.585,16.343.576,23.282,4.738A25.756,25.756,0,0,1,440.039,220.9a19.426,19.426,0,0,1-5.716,18.5c-5.362,4.943-12.713,7.056-19.564,9a179.241,179.241,0,0,0-25.423,9.1,159.6,159.6,0,0,0-23.914,13.445c-7.308,4.994-14.52,11.277-16.831,20.186a18.6,18.6,0,0,0,.924,12.471,22.791,22.791,0,0,0,7.313,8.678c7.332,5.4,16.573,6.5,25.43,6.613,9.947.124,19.895-.212,29.845-.049q30.418.5,60.712,3.7,7.591.8,15.163,1.776a137.107,137.107,0,0,1,13.56,2.2c7.937,1.842,15.661,5.385,20.594,12.114a19.157,19.157,0,0,1,1.632,20.947c-3.788,7.454-10.884,12.195-18.42,15.309a130.687,130.687,0,0,1-12.4,4.187.493.493,0,0,1-.262-.95Z" transform="translate(-260.697 -183.86)" fill="#f2f2f2"/>
  <circle id="Ellipse_882" data-name="Ellipse 882" cx="7.884" cy="7.884" r="7.884" transform="translate(33.471 14.947)" fill="#f2f2f2"/>
  <circle id="Ellipse_883" data-name="Ellipse 883" cx="7.884" cy="7.884" r="7.884" transform="translate(88.166 29.893)" fill="#f2f2f2"/>
  <circle id="Ellipse_884" data-name="Ellipse 884" cx="7.884" cy="7.884" r="7.884" transform="translate(134.484)" fill="#f2f2f2"/>
  <circle id="Ellipse_885" data-name="Ellipse 885" cx="7.884" cy="7.884" r="7.884" transform="translate(163.391 33.506)" fill="#f2f2f2"/>
  <circle id="Ellipse_886" data-name="Ellipse 886" cx="7.884" cy="7.884" r="7.884" transform="translate(124.3 72.269)" fill="#f2f2f2"/>
  <circle id="Ellipse_887" data-name="Ellipse 887" cx="7.884" cy="7.884" r="7.884" transform="translate(74.697 90.993)" fill="#f2f2f2"/>
  <circle id="Ellipse_888" data-name="Ellipse 888" cx="7.884" cy="7.884" r="7.884" transform="translate(127.257 120.229)" fill="#f2f2f2"/>
  <circle id="Ellipse_889" data-name="Ellipse 889" cx="7.884" cy="7.884" r="7.884" transform="translate(183.758 136.654)" fill="#f2f2f2"/>
  <circle id="Ellipse_890" data-name="Ellipse 890" cx="7.884" cy="7.884" r="7.884" transform="translate(249.785 133.04)" fill="#f2f2f2"/>
  <path id="Path_61360" data-name="Path 61360" d="M515.63,220.371a43.728,43.728,0,0,0-43.288,42.972c0,.218,0,1.751,0,3.756a11.086,11.086,0,0,0,11.084,11.085h0a11.092,11.092,0,0,0,11.09-11.1c0-1.366,0-2.31,0-2.368a21.024,21.024,0,1,1,32.363,17.7l0,0s-15.777,10.157-20.587,24.09h0a30.877,30.877,0,0,0-1.272,8.793c0,1.224.072,11.931.211,20.622a11.427,11.427,0,0,0,11.428,11.242h0a11.43,11.43,0,0,0,11.43-11.5c-.048-7.959-.074-17.227-.074-17.9,0-8.556,8.253-17.08,15.033-22.639a45.6,45.6,0,0,0,15.681-24.965,28.5,28.5,0,0,0,.821-6.187,43.608,43.608,0,0,0-43.923-43.606Z" transform="translate(-375.538 -198.032)" fill="#0068ff"/>
  <path id="Path_61361" data-name="Path 61361" d="M454.744,746.032H178.053a.391.391,0,1,1,0-.782H454.743a.391.391,0,1,1,0,.782Z" transform="translate(-177.662 -550.491)" fill="#3f3d56"/>
  <circle id="Ellipse_891" data-name="Ellipse 891" cx="9.855" cy="9.855" r="9.855" transform="translate(196.588 69.968)" fill="#2f2e41"/>
  <path id="Path_61362" data-name="Path 61362" d="M560.863,550.375h-4.027l-1.916-15.534h5.944Z" transform="translate(-372.632 -359.148)" fill="#a0616a"/>
  <path id="Path_61363" data-name="Path 61363" d="M542,578.626h7.767v4.89H537.109a4.89,4.89,0,0,1,4.89-4.89Z" transform="translate(-360.671 -388.55)" fill="#2f2e41"/>
  <path id="Path_61364" data-name="Path 61364" d="M655.863,550.375h-4.027l-1.916-15.534h5.944Z" transform="translate(-436.424 -359.148)" fill="#a0616a"/>
  <path id="Path_61365" data-name="Path 61365" d="M637,578.626h7.767v4.89H632.109A4.89,4.89,0,0,1,637,578.626Z" transform="translate(-424.464 -388.55)" fill="#2f2e41"/>
  <circle id="Ellipse_892" data-name="Ellipse 892" cx="8.068" cy="8.068" r="8.068" transform="translate(196.877 73.599)" fill="#a0616a"/>
  <path id="Path_61366" data-name="Path 61366" d="M757.223,457.709l3.61-8.294a10.309,10.309,0,0,0-2.283-11.694,10.49,10.49,0,0,0-1.009-.877,10.163,10.163,0,0,0-6.238-2.158,10.571,10.571,0,0,0-4.4.979c-.118.053-.233.108-.352.164-.227.108-.45.227-.667.348a10.406,10.406,0,0,0-5.157,7.844l-1.593,13.35c-.4,1.048-14.7,38.891-9.7,67.782a1.467,1.467,0,0,0,1.255,1.206l5.069.69a1.477,1.477,0,0,0,1.646-1.16l8.5-40.54a1.151,1.151,0,0,1,2.234-.076l12.016,42.632a1.469,1.469,0,0,0,1.416,1.078,1.681,1.681,0,0,0,.286-.026l6.192-1.192a1.469,1.469,0,0,0,1.193-1.58C768.336,516.037,763.5,465.209,757.223,457.709Z" transform="translate(-547.469 -341.946)" fill="#2f2e41"/>
  <path id="Path_61367" data-name="Path 61367" d="M706.056,415.373a3.3,3.3,0,0,0,3.48,3.68l4.51,10.838,3.411-5.057-4.806-9.516a3.321,3.321,0,0,0-6.6.055Z" transform="translate(-532.467 -326.992)" fill="#a0616a"/>
  <path id="Path_61368" data-name="Path 61368" d="M792.551,510.824a3.3,3.3,0,0,0,2.768-4.242l9.489-6.911-5.713-2.139-8.135,6.891a3.321,3.321,0,0,0,1.591,6.4Z" transform="translate(-588.053 -384.148)" fill="#a0616a"/>
  <path id="Path_61369" data-name="Path 61369" d="M729.263,454.559a5.605,5.605,0,0,1-1.083-.107,5.356,5.356,0,0,1-3.925-3.159l-6.318-7.7a1.478,1.478,0,0,1,.365-2.195l4.5-2.783a1.478,1.478,0,0,1,2.042.49l4.453,7.337,8.528-6.3a3.193,3.193,0,0,1,3.715,5.112l-8.512,7.765A5.339,5.339,0,0,1,729.263,454.559Z" transform="translate(-540.234 -344.434)" fill="#2f2e41"/>
  <path id="Path_61370" data-name="Path 61370" d="M812.061,471.07h-.035a1.481,1.481,0,0,1-1.088-.516l-4-4.662a1.478,1.478,0,0,1,.3-2.192l7.484-4.989-6.78-8.151a3.193,3.193,0,0,1,4.891-4l8.24,8.052a5.428,5.428,0,0,1-1.207,8.85l-6.735,7.146a1.481,1.481,0,0,1-1.076.464Z" transform="translate(-599.987 -349.358)" fill="#2f2e41"/>
  <path id="Path_61371" data-name="Path 61371" d="M786.184,444.8a1.525,1.525,0,0,1-.191-.012,1.465,1.465,0,0,1-1.219-1.008l-3-9.207a1.013,1.013,0,0,1,.524-1.224l.1-.046c.088-.042.176-.084.265-.123a10.7,10.7,0,0,1,4.469-.993,10.29,10.29,0,0,1,5.637,1.694,1.028,1.028,0,0,1,.3,1.411l-5.634,8.826a1.463,1.463,0,0,1-1.241.683Z" transform="translate(-583.29 -340.267)" fill="#e6e6e6"/>
  <circle id="Ellipse_893" data-name="Ellipse 893" cx="3.225" cy="3.225" r="3.225" transform="translate(210.987 68.974)" fill="#2f2e41"/>
  <path id="Path_61372" data-name="Path 61372" d="M778.652,361.365h0a8.541,8.541,0,0,0-8.541,8.541v3.613h4.444l2.126-3.613.638,3.613h13.488l-3.614-3.613a8.541,8.541,0,0,0-8.541-8.541Z" transform="translate(-575.495 -292.711)" fill="#2f2e41"/>
  <path id="Path_61373" data-name="Path 61373" d="M834.809,358.356a4.977,4.977,0,0,1,5.414-3.415,6.9,6.9,0,0,1,4.648,3.84,37.825,37.825,0,0,1,2.066,5.889,10.667,10.667,0,0,0,3.217,5.251c1.643,1.281,4.164,1.629,5.778.311a6.609,6.609,0,0,1-12.311,2.359,14.293,14.293,0,0,1-1.324-5.01,10.949,10.949,0,0,0-1.6-4.908,4.059,4.059,0,0,0-4.534-1.688Z" transform="translate(-618.94 -288.366)" fill="#2f2e41"/>
  <path id="Path_61374" data-name="Path 61374" d="M486.235,309.84h0a11.086,11.086,0,0,1-11.085-11.084c0-2.006,0-3.539,0-3.757a43.2,43.2,0,0,1,5.045-19.68,43.3,43.3,0,0,0-8.33,24.936c0,.218,0,1.751,0,3.756A11.086,11.086,0,0,0,482.949,315.1h0a11.094,11.094,0,0,0,10.672-8.078A11.045,11.045,0,0,1,486.235,309.84Z" transform="translate(-375.221 -234.931)" fill="#3f3d56"/>
  <path id="Path_61375" data-name="Path 61375" d="M571.653,280.685a21.025,21.025,0,0,1,18.284,29.372,21.023,21.023,0,1,0-35.289-22A20.981,20.981,0,0,1,571.653,280.685Z" transform="translate(-430.81 -234.988)" fill="#3f3d56"/>
  <path id="Path_61376" data-name="Path 61376" d="M586.289,498.767h0a11.428,11.428,0,0,1-11.428-11.244c-.139-8.688-.211-19.4-.211-20.62a30.88,30.88,0,0,1,1.272-8.793h0a31.219,31.219,0,0,1,1.8-4.172,36.151,36.151,0,0,0-5.09,9.428h0a30.88,30.88,0,0,0-1.272,8.793c0,1.224.072,11.931.211,20.622A11.427,11.427,0,0,0,583,504.023h0a11.432,11.432,0,0,0,10.972-8.226A11.386,11.386,0,0,1,586.289,498.767Z" transform="translate(-442.035 -354.873)" fill="#3f3d56"/>
  <path id="Path_61377" data-name="Path 61377" d="M126.539,550.83h4.027l1.916-15.534h-5.944Z" transform="translate(-84.971 -359.454)" fill="#ffb8b8"/>
  <path id="Path_61378" data-name="Path 61378" d="M0,0H12.657V4.89H4.89A4.89,4.89,0,0,1,0,0Z" transform="translate(53.361 195.116) rotate(179.997)" fill="#2f2e41"/>
  <path id="Path_61379" data-name="Path 61379" d="M82.539,550.83h4.027L88.482,535.3H82.538Z" transform="translate(-55.425 -359.454)" fill="#ffb8b8"/>
  <path id="Path_61380" data-name="Path 61380" d="M0,0H12.657V4.89H4.89A4.89,4.89,0,0,1,0,0Z" transform="translate(38.907 195.116) rotate(179.997)" fill="#2f2e41"/>
  <path id="Path_61381" data-name="Path 61381" d="M259.9,610.242l-3.934-.207a1.535,1.535,0,0,1-1.451-1.632l4.7-52.055,21.651,5.842,2.086-.569L276.433,607.7A1.543,1.543,0,0,1,275,609l-4.241.2a1.535,1.535,0,0,1-1.62-1.575l.768-27.658a.512.512,0,0,0-1.013-.118l-7.41,29.174a1.526,1.526,0,0,1-1.5,1.224Z" transform="translate(-229.268 -423.643)" fill="#2f2e41"/>
  <circle id="Ellipse_894" data-name="Ellipse 894" cx="8.068" cy="8.068" r="8.068" transform="translate(34.223 73.976)" fill="#ffb8b8"/>
  <path id="Path_61382" data-name="Path 61382" d="M265.483,448.156l.887,19.141.321,6.964a1.525,1.525,0,0,0,1.01,1.372l20.806,7.537a1.469,1.469,0,0,0,.525.092,1.525,1.525,0,0,0,1.532-1.573l-.853-34.416a12.131,12.131,0,0,0-10.1-11.72c-.2-.031-.406-.061-.611-.089a11.908,11.908,0,0,0-9.581,3.1,12.232,12.232,0,0,0-3.937,9.591Z" transform="translate(-236.625 -342.408)" fill="#ccc"/>
  <path id="Path_61383" data-name="Path 61383" d="M347.827,539.072a3.306,3.306,0,0,1-1.764-5l-7.055-9.382,6.088-.377,5.767,8.967a3.321,3.321,0,0,1-3.036,5.794Z" transform="translate(-286.007 -402.13)" fill="#ffb8b8"/>
  <path id="Path_61384" data-name="Path 61384" d="M326.664,483.779a1.525,1.525,0,0,1-.835-.827L315.2,457.627a4.094,4.094,0,1,1,7.55-3.169l10.629,25.325a1.537,1.537,0,0,1-.821,2.01l-4.719,1.98a1.525,1.525,0,0,1-1.175.006Z" transform="translate(-269.804 -353.537)" fill="#ccc"/>
  <path id="Path_61385" data-name="Path 61385" d="M298.137,504.414l10.209-19.548a1.6,1.6,0,0,1,2.16-.678l14.819,7.739a1.6,1.6,0,0,1,.678,2.16l-10.209,19.548a1.6,1.6,0,0,1-2.16.678l-14.819-7.739A1.6,1.6,0,0,1,298.137,504.414Z" transform="translate(-258.44 -375.065)" fill="#3f3d56"/>
  <path id="Path_61386" data-name="Path 61386" d="M288.9,502.683a3.306,3.306,0,0,0-5.1-1.465l-9.782-6.489-.017,6.1,9.292,5.227a3.321,3.321,0,0,0,5.6-3.373Z" transform="translate(-242.357 -382.265)" fill="#ffb8b8"/>
  <path id="Path_61387" data-name="Path 61387" d="M257.5,470.02l-7.995-6.333a5.638,5.638,0,0,1-2.57-8.914l7.259-9.513a3.316,3.316,0,0,1,5.627,3.378l-5.743,9.395,8.44,4a1.535,1.535,0,0,1,.64,2.207l-3.407,5.392a1.538,1.538,0,0,1-1.04.693l-.025,0A1.542,1.542,0,0,1,257.5,470.02Z" transform="translate(-223.326 -348.23)" fill="#ccc"/>
  <path id="Path_61388" data-name="Path 61388" d="M279.736,384.3a.7.7,0,0,1,.61-.926,1.62,1.62,0,0,1,1.142.563,4.541,4.541,0,0,0,1.009.866.868.868,0,0,0,1.142-.206,1.589,1.589,0,0,0-.061-1.233,12.125,12.125,0,0,1-.535-3.209,5.651,5.651,0,0,1,.808-3.432,4.541,4.541,0,0,1,3.891-1.654,26.151,26.151,0,0,1,4.371.774,1.468,1.468,0,0,0,1.429-.24,1.842,1.842,0,0,0,.074-1.644,11.416,11.416,0,0,0-1.73-4.123,6.208,6.208,0,0,0-3.962-2.23,9.507,9.507,0,0,0-4.422.5,11.857,11.857,0,0,0-5.809,4.047,9.6,9.6,0,0,0-1.832,7.1,8.76,8.76,0,0,0,3.247,5.537Z" transform="translate(-243.542 -296.852)" fill="#2f2e41"/>
  <path id="Path_61389" data-name="Path 61389" d="M574.782,687.144a15.109,15.109,0,0,1-5.607-23.484,15.11,15.11,0,1,0,20.554,21.833A15.1,15.1,0,0,1,574.782,687.144Z" transform="translate(-436.401 -495.704)" fill="#3f3d56"/>
</svg>
