<svg xmlns="http://www.w3.org/2000/svg" width="324.122" height="147.191" viewBox="0 0 324.122 147.191">
  <g id="undraw_shared_workspace_hwky" transform="translate(-0.001 0)">
    <path id="Path_61422" data-name="Path 61422" d="M562.454,553.358c4.844,5.2,5.095,12.839,5.095,12.839s-7.6-.788-12.448-5.986-5.095-12.839-5.095-12.839S557.61,548.16,562.454,553.358Z" transform="translate(-403.806 -430.988)" fill="#0068ff"/>
    <path id="Path_61423" data-name="Path 61423" d="M606.943,564.722c-5.2,4.845-12.839,5.095-12.839,5.095s.788-7.6,5.986-12.448,12.839-5.095,12.839-5.095S612.141,559.878,606.943,564.722Z" transform="translate(-433.044 -434.239)" fill="#0068ff"/>
    <path id="Path_61424" data-name="Path 61424" d="M578.712,610.468h-19.12a1.956,1.956,0,0,1-1.759-1.1l-4.163-8.557A1.956,1.956,0,0,1,555.429,598h27.446a1.956,1.956,0,0,1,1.759,2.811l-4.163,8.557a1.955,1.955,0,0,1-1.758,1.1Z" transform="translate(-406.105 -464.556)" fill="#3f3d56"/>
    <circle id="Ellipse_901" data-name="Ellipse 901" cx="15.92" cy="15.92" r="15.92" transform="translate(242.553 9.714)" fill="#ffb8b8"/>
    <path id="Path_61425" data-name="Path 61425" d="M843.849,301.692s3,22.611-1.615,25.149,27.457,2.769,27.457,2.769S862.538,310,865.768,304Z" transform="translate(-597.258 -268.098)" fill="#ffb8b8"/>
    <path id="Path_61426" data-name="Path 61426" d="M851.1,361.45,848.435,373.6l-5.64,25.7-.169,1.407L840.68,416.99l-1.295,10.823-.868,7.27c-5.278,2.713-9.1,4.585-9.1,4.585s-.329-1.65-.859-3.76a80.725,80.725,0,0,1-16.367,3.321c2.115,2.358,3.087,4.572,1.769,6.207-3.979,4.927-20.407-5.4-26.152-9.244a15.55,15.55,0,0,0-.152,2.784l-4.4-3.382.435-7.781.734-13.165.922-16.51a17.373,17.373,0,0,1-.729-2.171c-1.347-4.789-2.981-14.351-4.235-22.37-1.009-6.454-1.766-11.907-1.927-13.068l-.033-.229,24.34-10.755c1.73,4.012,9.807,5.217,9.807,5.217a27.09,27.09,0,0,0,11.937-3.99Z" transform="translate(-555.251 -299.824)" fill="#d0cde1"/>
    <path id="Path_61427" data-name="Path 61427" d="M877.811,588.717s-1.031.353-2.706.853a80.729,80.729,0,0,1-16.367,3.321c-5,.32-9.227-.45-10-3.713a3.448,3.448,0,0,1,1.162-3.505c3.057-2.834,11.041-3.849,17.374-4.2,1.788-.1,3.442-.143,4.819-.16,2.338-.03,3.871.017,3.871.017l.037.143Z" transform="translate(-601.802 -453.486)" fill="#ffb8b8"/>
    <path id="Path_61428" data-name="Path 61428" d="M835.588,212.575l-2.977-1.192s6.224-6.852,14.883-6.256l-2.436-2.681s5.953-2.383,11.365,3.873c2.845,3.289,6.137,7.155,8.189,11.509H867.8l-1.33,2.93,4.657,2.93-4.78-.526a16.37,16.37,0,0,1,.13,4.859,6.287,6.287,0,0,1-2.3,4.113h0s-3.692-7.641-3.692-8.833v2.979s-2.977-2.681-2.977-4.469l-1.624,2.085-.812-3.277L845.059,223.9l1.624-2.681-6.224.894,2.435-3.277s-7.036,3.873-7.306,7.15a15.734,15.734,0,0,1-2.33,6.382S827.74,217.044,835.588,212.575Z" transform="translate(-590.359 -202)" fill="#2f2e41"/>
    <path id="Path_61429" data-name="Path 61429" d="M959.2,440.714c-1.622,1.758-5.64,4.406-10.511,7.272-1.812,1.065-3.741,2.163-5.709,3.254-4.7,2.6-9.612,5.185-13.669,7.27-5.278,2.713-9.1,4.585-9.1,4.585s-.329-1.65-.859-3.76c-.71-2.825-1.779-6.478-2.895-8.095-.039-.056-.078-.108-.117-.16-.325-.426-.652-.675-.974-.675l16.112-9.987,6.962-4.317-5.016-11.974-6.291-15.02,3.8-12.082,3.817-12.145h7.153s2.368,5.17,5.4,12.379c.453,1.078.92,2.2,1.4,3.362C954.918,415.774,962.685,436.936,959.2,440.714Z" transform="translate(-646.043 -323.252)" fill="#d0cde1"/>
    <path id="Path_61430" data-name="Path 61430" d="M828.486,595.066c-3.979,4.927-20.407-5.4-26.152-9.244-1.251-.838-2-1.368-2-1.368l5.256-7.01,1.665-2.219s1.489.79,3.691,2.076l.242.143c1.9,1.115,4.282,2.572,6.687,4.2a50.468,50.468,0,0,1,8.837,7.218C828.832,591.216,829.8,593.431,828.486,595.066Z" transform="translate(-569.781 -449.455)" fill="#ffb8b8"/>
    <path id="Path_61431" data-name="Path 61431" d="M757.081,449.283a10.349,10.349,0,0,0-1.754.143c-4.977.855-6.445,5.36-6.863,8.378a15.544,15.544,0,0,0-.152,2.784l-4.4-3.382-1.6-1.232a29.2,29.2,0,0,1-10.271-6.549,51.623,51.623,0,0,1-6.917-8.2,72.337,72.337,0,0,1-5.352-9.179,6.751,6.751,0,0,1-.093-5.726l5.445-12.134,7.958-17.735q.088-.633.193-1.238c1.578-9.049,5.806-13.068,5.806-13.068h3.23l2.161,13.068,2.684,16.235-1.881,6.135-4.347,14.17,4.155,4.512Z" transform="translate(-515.913 -321.437)" fill="#d0cde1"/>
    <path id="Path_61432" data-name="Path 61432" d="M828.323,453.648l2.761,3.222c1.026-.2,2.1-.425,3.2-.684l-.793-2.538,1.939,2.262a261.91,261.91,0,0,0,26.18-8.465s-15.643,1.147-27.323-1.4a11.114,11.114,0,0,0-12.606,6.279c-1.233,2.817-1.039,5.257,3.333,5.257a28.882,28.882,0,0,0,4.406-.414Z" transform="translate(-583.499 -363.628)" fill="#0068ff"/>
    <path id="Path_61433" data-name="Path 61433" d="M827.834,619.1v1.314a2.889,2.889,0,0,1-.2,1.054,2.969,2.969,0,0,1-.21.433,2.909,2.909,0,0,1-2.5,1.42H728.25a2.909,2.909,0,0,1-2.5-1.42,2.97,2.97,0,0,1-.21-.433,2.889,2.889,0,0,1-.2-1.054V619.1a2.907,2.907,0,0,1,2.907-2.908h5.573v-.613a.121.121,0,0,1,.121-.121h2.908a.121.121,0,0,1,.121.121v.613h1.816v-.613a.121.121,0,0,1,.121-.121h2.907a.121.121,0,0,1,.121.121v.613h1.819v-.613a.121.121,0,0,1,.121-.121h2.907a.121.121,0,0,1,.121.121v.613h1.816v-.613a.121.121,0,0,1,.121-.121h2.908a.121.121,0,0,1,.121.121v.613h1.816v-.613a.121.121,0,0,1,.121-.121h2.908a.121.121,0,0,1,.121.121v.613h1.818v-.613a.121.121,0,0,1,.121-.121h2.907a.121.121,0,0,1,.121.121v.613h1.816v-.613a.121.121,0,0,1,.121-.121h22.775a.121.121,0,0,1,.121.121v.613h1.818v-.613a.121.121,0,0,1,.121-.121h2.908a.123.123,0,0,1,.121.121v.613h1.816v-.613a.121.121,0,0,1,.121-.121h2.908a.121.121,0,0,1,.121.121v.613h1.816v-.613a.121.121,0,0,1,.121-.121h2.907a.121.121,0,0,1,.121.121v.613h1.818v-.613a.121.121,0,0,1,.121-.121h2.908a.121.121,0,0,1,.119.121v.613h1.819v-.613a.121.121,0,0,1,.121-.121h2.907a.121.121,0,0,1,.121.121v.613H813.3v-.613a.121.121,0,0,1,.121-.121h2.907a.121.121,0,0,1,.121.121v.613h8.48A2.907,2.907,0,0,1,827.834,619.1Z" transform="translate(-520.058 -476.133)" fill="#3f3d56"/>
    <path id="Path_61434" data-name="Path 61434" d="M827.357,460.576H791.322v-.743H774.983v.743H738.8a2.437,2.437,0,0,0-2.437,2.437v49.342a2.437,2.437,0,0,0,2.437,2.438h88.556a2.438,2.438,0,0,0,2.438-2.437V463.013a2.437,2.437,0,0,0-2.437-2.437Z" transform="translate(-527.365 -372.948)" fill="#3f3d56"/>
    <circle id="Ellipse_902" data-name="Ellipse 902" cx="5.412" cy="5.412" r="5.412" transform="translate(250.372 99.441)" fill="none" stroke="#d0cde1" stroke-miterlimit="10" stroke-width="2"/>
    <circle id="Ellipse_903" data-name="Ellipse 903" cx="5.412" cy="5.412" r="5.412" transform="translate(248.64 101.39)" fill="#d0cde1"/>
    <circle id="Ellipse_904" data-name="Ellipse 904" cx="7.879" cy="7.879" r="7.879" transform="translate(87.254 47.96)" fill="#2f2e41"/>
    <path id="Path_61435" data-name="Path 61435" d="M392.876,342.65a7.88,7.88,0,0,1,6.936,11.619,7.878,7.878,0,1,0-13.088-8.656A7.86,7.86,0,0,1,392.876,342.65Z" transform="translate(-295.548 -294.474)" fill="#2f2e41"/>
    <circle id="Ellipse_905" data-name="Ellipse 905" cx="23.146" cy="23.146" r="23.146" transform="translate(57.264 9.531)" fill="#2f2e41"/>
    <path id="Path_61436" data-name="Path 61436" d="M287.052,239.018a23.142,23.142,0,0,1,32.077-2.427c-.189-.18-.377-.361-.573-.536a23.146,23.146,0,0,0-30.757,34.6c.2.175.4.34.6.506a23.142,23.142,0,0,1-1.347-32.141Z" transform="translate(-224.808 -220.702)" fill="#2f2e41"/>
    <circle id="Ellipse_906" data-name="Ellipse 906" cx="14.908" cy="14.908" r="14.908" transform="translate(65.306 25.812)" fill="#a0616a"/>
    <path id="Path_61437" data-name="Path 61437" d="M319.818,336.8s1.961,18.046-1.177,20.007,18.046,4.708,18.046,4.708-3.138-19.615,4.708-24.715Z" transform="translate(-250.197 -291.378)" fill="#a0616a"/>
    <path id="Path_61438" data-name="Path 61438" d="M279.839,375.868s5.842-2.728-2.572-1.756a30.452,30.452,0,0,1-15.672-2.755s-2.549-2.55-2.941.2,1.177,7.846-7.454,8.631-16.477-1.569-19.615,4.315-1.569,31.384-1.569,31.384,5.885,21.184,10.592,24.323,45.9-1.177,45.9-1.177l11.769-21.184V393.129s-1.569-8.631-12.554-6.277c0,0-7.061-1.569-6.669-5.1S279.839,375.868,279.839,375.868Z" transform="translate(-191.386 -313.572)" fill="#d0cde1"/>
    <path id="Path_61439" data-name="Path 61439" d="M263.777,566.537c.242-1.056.4-1.654.4-1.654l-.126-.859-1.292-8.777-.543-3.7c4.707-1.961,5.884-10.985,5.884-10.985l.177-.106.8-.481v0l2.884-1.73.058-.035,1.165.775,2.366,1.578a27.825,27.825,0,0,0,21.911,5.021,24.128,24.128,0,0,0,5.157-1.49l5.707-1.9.177-.058.175.026,3.347.507.061.011.277.041-.775,5.358-1.124,7.787c2.968,1.572,5.607,4.525,7.915,8.164q.766,1.208,1.485,2.513c.624,1.126,1.219,2.3,1.786,3.5.069.143.136.288.2.433.219.47.435.944.645,1.42h-59.77c.078-.479.156-.935.232-1.375a.324.324,0,0,0,.009-.045c.028-.147.054-.29.078-.433C263.321,568.6,263.576,567.411,263.777,566.537Z" transform="translate(-212.999 -424.911)" fill="#2f2e41"/>
    <path id="Path_61440" data-name="Path 61440" d="M259.892,396.448a30.1,30.1,0,0,1,2.746,17.654c-1.569,9.807,4.708,34.13,4.708,34.13l4.708-1.177s-3.138-20.4-2.354-25.107.785-23.146-3.138-25.5S259.892,396.448,259.892,396.448Z" transform="translate(-211.455 -330.229)" fill="#2f2e41"/>
    <path id="Path_61441" data-name="Path 61441" d="M395.276,418.238l1.649,43.434,3.138,1.962s4.512-47.665,2.158-47.665h-4.789a2.159,2.159,0,0,0-2.156,2.269Z" transform="translate(-301.216 -343.866)" fill="#2f2e41"/>
    <circle id="Ellipse_907" data-name="Ellipse 907" cx="1.962" cy="1.962" r="1.962" transform="translate(56.087 113.099)" fill="#0068ff"/>
    <circle id="Ellipse_908" data-name="Ellipse 908" cx="1.962" cy="1.962" r="1.962" transform="translate(95.317 115.061)" fill="#0068ff"/>
    <path id="Path_61442" data-name="Path 61442" d="M200.2,65.536V80.444h3.452l4.394-4.708-.588,4.708h15.261l-.941-4.708,1.883,4.708h2.432V65.536Z" transform="translate(-132.736 -43.452)" fill="#2f2e41"/>
    <ellipse id="Ellipse_909" data-name="Ellipse 909" cx="1.177" cy="2.158" rx="1.177" ry="2.158" transform="translate(63.933 35.423)" fill="#a0616a"/>
    <ellipse id="Ellipse_910" data-name="Ellipse 910" cx="1.177" cy="2.158" rx="1.177" ry="2.158" transform="translate(94.14 35.423)" fill="#a0616a"/>
    <path id="Path_61443" data-name="Path 61443" d="M385.347,546.833s-17.85-3.335-19.027,2.55,19.811,3.335,19.811,3.335Z" transform="translate(-281.988 -430.007)" fill="#a0616a"/>
    <path id="Path_61444" data-name="Path 61444" d="M416.309,428.775s42.761,34.13,34.915,42.369-37.661,5.885-37.661,5.885l1.962-9.808,17.261-1.962-8.631-8.631-7.846.785Z" transform="translate(-313.342 -352.356)" fill="#d0cde1"/>
    <path id="Path_61445" data-name="Path 61445" d="M234.28,586.774l5.492,4.315s3.923,12.161,9.808,8.631-5.492-16.084-5.492-16.084l-6.669-2.354Z" transform="translate(-194.474 -453.471)" fill="#a0616a"/>
    <path id="Path_61446" data-name="Path 61446" d="M161.453,410.148l-5.477,1.648s-38.068,28.167-39.637,36.013,7.454,12.161,7.454,12.161l34.13,16.084,3.531-9.415L145.369,458.4s1.177-2.354-3.531-2.746-5.492-5.492-5.492-5.492,9.415-14.515,14.515-11.377,6.669,5.492,6.669,5.492Z" transform="translate(-116.155 -340.006)" fill="#d0cde1"/>
    <path id="Path_61447" data-name="Path 61447" d="M280.762,619.1v1.314a2.887,2.887,0,0,1-.2,1.054,2.957,2.957,0,0,1-.21.433,2.909,2.909,0,0,1-2.5,1.42H181.179a2.909,2.909,0,0,1-2.5-1.42,2.966,2.966,0,0,1-.21-.433,2.888,2.888,0,0,1-.2-1.054V619.1a2.907,2.907,0,0,1,2.908-2.908h5.573v-.613a.121.121,0,0,1,.121-.121h2.908a.121.121,0,0,1,.121.121v.613h1.816v-.613a.121.121,0,0,1,.121-.121h2.908a.121.121,0,0,1,.121.121v.613h1.819v-.613a.121.121,0,0,1,.121-.121h2.908a.121.121,0,0,1,.121.121v.613h1.816v-.613a.121.121,0,0,1,.121-.121h2.908a.121.121,0,0,1,.121.121v.613h1.816v-.613a.121.121,0,0,1,.121-.121h2.908a.121.121,0,0,1,.121.121v.613h1.819v-.613a.121.121,0,0,1,.121-.121h2.908a.121.121,0,0,1,.121.121v.613h1.816v-.613a.121.121,0,0,1,.121-.121h22.775a.121.121,0,0,1,.121.121v.613h1.819v-.613a.121.121,0,0,1,.121-.121h2.908a.122.122,0,0,1,.121.121v.613h1.816v-.613a.121.121,0,0,1,.121-.121h2.908a.121.121,0,0,1,.121.121v.613h1.816v-.613a.121.121,0,0,1,.121-.121h2.908a.121.121,0,0,1,.121.121v.613h1.819v-.613a.121.121,0,0,1,.121-.121h2.908a.12.12,0,0,1,.119.121v.613h1.819v-.613a.121.121,0,0,1,.121-.121h2.908a.121.121,0,0,1,.121.121v.613h1.816v-.613a.121.121,0,0,1,.121-.121h2.908a.121.121,0,0,1,.121.121v.613h8.48A2.907,2.907,0,0,1,280.762,619.1Z" transform="translate(-157.339 -476.133)" fill="#3f3d56"/>
    <path id="Path_61448" data-name="Path 61448" d="M280.283,460.573H244.249v-.743H227.91v.743H191.727a2.437,2.437,0,0,0-2.437,2.437v49.342a2.437,2.437,0,0,0,2.437,2.437h88.556a2.437,2.437,0,0,0,2.437-2.437V463.01a2.437,2.437,0,0,0-2.437-2.437Z" transform="translate(-164.644 -372.946)" fill="#3f3d56"/>
    <circle id="Ellipse_911" data-name="Ellipse 911" cx="5.412" cy="5.412" r="5.412" transform="translate(66.019 99.44)" fill="none" stroke="#d0cde1" stroke-miterlimit="10" stroke-width="2"/>
    <circle id="Ellipse_912" data-name="Ellipse 912" cx="5.412" cy="5.412" r="5.412" transform="translate(64.287 101.389)" fill="#d0cde1"/>
    <rect id="Rectangle_3984" data-name="Rectangle 3984" width="320.131" height="0.674" transform="translate(3.992 145.575)" fill="#3f3d56"/>
  </g>
</svg>
