<svg id="undraw_candidate_ubwv" xmlns="http://www.w3.org/2000/svg" width="222.076" height="143" viewBox="0 0 222.076 143">
  <path id="Path_61329" data-name="Path 61329" d="M797.236,668.422l-1.154-14.342-3.3,15.166s.043,3.826.153,8.017h4.224C797.3,672.472,797.236,668.422,797.236,668.422Z" transform="translate(-636.104 -534.263)" fill="#f2f2f2"/>
  <path id="Path_61330" data-name="Path 61330" d="M525.372,670.249a29.188,29.188,0,0,1-.686-4.077l-.462-4.961c-.194-1.359-.393-2.556-.594-3.613-1.47-7.534-2.987-7.807-2.987-7.807-.065.05-.129.105-.194.162a4.892,4.892,0,0,0-.5.524c-2.416,3.071-4.056,11.037-4.917,16.322-.476,2.919-.713,5.019-.713,5.019s.215.895.509,2.171h11.027A19.618,19.618,0,0,0,525.372,670.249Z" transform="translate(-423.57 -530.99)" fill="#f2f2f2"/>
  <path id="Path_61331" data-name="Path 61331" d="M319.509,148H164.567A33.666,33.666,0,0,0,131,181.567v75.866A33.666,33.666,0,0,0,164.567,291h49.108l-.634-2.983s-1.63-10.518,0-18.719a61.568,61.568,0,0,0,1.081-7.8,46.967,46.967,0,0,1,1.443-8.753c.043-.165.092-.329.136-.494-.4-.108-.58-.195-.488-.249.255-.15.395-.611.465-1.2a57.229,57.229,0,0,1,2.471-11.387c-1.647,1.034-2.741,1.144-3.456.743-2.516-.687-1.471-6.345-1.471-6.345s1.563-12.238,2.083-16.669c.3-2.547,4.124-3.99,7.511-4.774a3.761,3.761,0,0,0,.451-2.346c-.011-.055-.027-.107-.041-.16-.431-.956-1.306-1.743-1.634-2.734a2.885,2.885,0,0,1-.3-.853c-.291-1.7,1.3-3.165,1.755-4.8a3.953,3.953,0,0,1-1.015-1.628c-.7-1.431-.358-3.148,1.883-4.474.447-.265.921-.5,1.4-.723a2.181,2.181,0,0,1,.57-.261c1.6-.725,3.214-1.427,4.173-2.838a2.52,2.52,0,0,1,.863-.976,1.665,1.665,0,0,1,.595-.133c3.089-.237,5.885,2.411,8.959,2.032a6.657,6.657,0,0,1,2.776-.225,3.285,3.285,0,0,1,1.44,1.1,11.365,11.365,0,0,1,2.465,9.359c-.39,2.025-1.338,4.112-.655,6.06.5,1.432,1.845,2.593,1.855,4.108.008,1.246-.877,2.24-1.731,3.21q.167.17.325.35c2.088,2.379,1.694,4.41,1.4,5.223h0l-1.074,10.364-.906,6.953s-.224,2.853-2.333,3.479a3.4,3.4,0,0,1-2.477.037c-.687-.209-1.265-.418-1.756-.621a23.187,23.187,0,0,1,1.133,7.444c-.181,4.1.362,4.457.362,4.457a.734.734,0,0,1-.115.114,16.806,16.806,0,0,1-.066,14.5c-2.536,5.527.181,18.362.181,18.362s.193,2,.28,4.231h38.9c-.619-5.9-1.362-11.808-1.692-12.468-.544-1.089.147-19.022.4-25.251-.115-.029-.227-.058-.332-.089-.184-.053-.349-.108-.5-.164a3.66,3.66,0,0,0,.1.942c.229.534-.32.927-1.253,1.195.543,2.648,1.213,7.576-1.055,8.531-2.333.982-2.379-4.984-2.251-8.094-.294.011-.589.017-.881.017-2.8,0,.824-32.475.659-34.618s1.319-10.88,1.319-10.88.495-1.813,1.978-2.143,8.572-4.451,8.572-4.451a5.294,5.294,0,0,1,1.484-1.4v-.244a5.445,5.445,0,0,1,.588-.476c-.087-1.44-.281-3.3-.423-4.554a5.754,5.754,0,0,1-1.547-2.959,9.075,9.075,0,0,1-.863-.767,4.5,4.5,0,0,1-1.106-2.807,8.871,8.871,0,0,1,.44-3.03,3.629,3.629,0,0,1,.382-.925,3.349,3.349,0,0,1,.863-.856c.1-.074.2-.144.306-.214a2.887,2.887,0,0,1,.933-1.059,5.038,5.038,0,0,1,2.93-.482h.046q.28-.045.562-.075a.576.576,0,0,0,.451-.441l.409.392q.307,0,.613.011a4.376,4.376,0,0,1,.318-.6l.224.639c.205.022.409.049.613.085l.481-.382c.036-.028.163.389.227.532.11.028.22.058.329.092.17-.008.359-.04.465-.038a3.109,3.109,0,0,1,1.657.413,3.558,3.558,0,0,1,1.053,1.215,7.872,7.872,0,0,1,1.175,3.391,3.931,3.931,0,0,1,.652,1.457c.272,1.655-1.3,3.038-1.612,4.685-.166.879.024,1.853-.424,2.627a2.744,2.744,0,0,1-.755.792,5.7,5.7,0,0,1-.558.368,14.329,14.329,0,0,0,.341,2.963l.212.813c.33.238.685.513,1.076.835,0,0,4.616,1.978,6.264,2.967,1.449.87,3.025.976,3.5,2.108l.13.035s1.648,18.3,1.813,21.43,2.143,22.419,1.813,23.243c-.122.305-.9.655-1.838.933.548,2.5,1.432,7.948-.964,8.957-2.429,1.023-2.379-5.491-2.235-8.465-.324-.029-.536-.114-.568-.271-.027-.134-.113-.739-.237-1.662l-.645.1-.14.021c2.09,6.574-2.539,24.01-3.429,27.423A101.547,101.547,0,0,0,299.12,291h20.39a33.666,33.666,0,0,0,33.567-33.567V181.567A33.666,33.666,0,0,0,319.509,148Z" transform="translate(-131 -148)" fill="#f2f2f2"/>
  <ellipse id="Ellipse_875" data-name="Ellipse 875" cx="22.492" cy="20.467" rx="22.492" ry="20.467" transform="translate(27.227 19.544)" fill="#3f3d56"/>
  <path id="Path_61332" data-name="Path 61332" d="M469.26,534.325h0s7.576-5.209,7.576-7.576,5.209-17.757,8.05-10.891-4.025,16.573-4.025,16.573-7.576,13.732-12.074,16.1a10.8,10.8,0,0,1-8.286.947v-6.392l4.328-6.406A5.348,5.348,0,0,1,469.26,534.325Z" transform="translate(-382.489 -427.43)" fill="#ffb9b9"/>
  <path id="Path_61333" data-name="Path 61333" d="M406.544,446.336s11.354,3.59,12.538,5.247,1.657-1.184,4.972,9.707a113.825,113.825,0,0,1,4.143,21.426s-8.168,2.723-7.221,13.377-1.421,22.255-1.421,22.255H416.6l-6.515-20.124,7.813-30.541S406.791,448.9,406.544,446.336Z" transform="translate(-341.308 -375.703)" fill="#575a89"/>
  <circle id="Ellipse_876" data-name="Ellipse 876" cx="14.205" cy="14.205" r="14.205" transform="translate(47.233 32.317)" fill="#ffb9b9"/>
  <path id="Path_61334" data-name="Path 61334" d="M341.755,371.7s-4.025,13.258-.474,15.152,7.576,10.417,7.576,10.417l-6.156,6.866H328.5l-6.392-7.1-2.6-12.075,3.551-2.841s3.788-9.47,3.788-14.442S341.755,371.7,341.755,371.7Z" transform="translate(-274.872 -314.519)" fill="#ffb9b9"/>
  <path id="Path_61335" data-name="Path 61335" d="M324.621,436.628s-2.841-.71-1.184,2.131,3.315,8.05-2.6,8.286S309,444.2,307.1,437.811s-2.6-5.919-3.315-5.682-8.286,8.05-8.286,8.05l2.6,14.679.947,52.56h34.566s1.421-15.152-.947-18.7,2.131-12.548,2.131-12.548,4.025-6.156.947-17.993S325.8,436.628,324.621,436.628Z" transform="translate(-256.554 -364.772)" fill="#0068ff"/>
  <path id="Path_61336" data-name="Path 61336" d="M263.465,430.951a6.231,6.231,0,0,0-6.629,1.184c-3.078,2.841-9.944,5.209-9.944,6.629s5.919,41.906,1.894,49.008-8.286,18.467-8.286,18.467h19.749s3.217-11.838,6.531-18.23,3.078-24.386,2.131-29.831S263.465,430.951,263.465,430.951Z" transform="translate(-214.575 -363.594)" fill="#575a89"/>
  <path id="Path_61337" data-name="Path 61337" d="M118.5,539.578l1.153,12.548h12.8L131.285,536.5Z" transform="translate(-90.445 -409.481)" fill="#ffb9b9"/>
  <path id="Path_61338" data-name="Path 61338" d="M364.5,458.914l3.078,19.177H436l5.919-38.591Z" transform="translate(-278.203 -335.446)" fill="#3f3d56"/>
  <path id="Path_61339" data-name="Path 61339" d="M419.336,428.5l.71,3.551L331.5,453.359v-3.078Z" transform="translate(-253.016 -327.051)" fill="#3f3d56"/>
  <path id="Path_61340" data-name="Path 61340" d="M542.974,453.21l-.474,4.025,5.209-.71-2.131-4.025Z" transform="translate(-414.06 -345.368)" fill="#3f3d56"/>
  <path id="Path_61341" data-name="Path 61341" d="M554.5,431.448s10.417-.71,13.258,7.339,9.47,22.492,12.075,24.623,5.445,7.813,4.972,9.707" transform="translate(-454.234 -364.328)" fill="none" stroke="#3f3d56" stroke-miterlimit="10" stroke-width="5"/>
  <path id="Path_61342" data-name="Path 61342" d="M541.919,424.512c0,1.111-1.182,2.012-3.078,2.012s-2.841-.9-2.841-2.012.945-2.012,2.841-2.012S541.919,423.4,541.919,424.512Z" transform="translate(-440.114 -357.511)" fill="#0068ff"/>
  <path id="Path_61343" data-name="Path 61343" d="M425.592,479.639s1.776-7.458-1.539-18.349-3.788-8.05-4.972-9.707-12.538-5.247-12.538-5.247c.081.843,1.335,3.437,2.982,6.54a12.6,12.6,0,0,0-1.335-3.187c-1.657-2.841,1.184-2.131,1.184-2.131,1.184,0,8.05,9.707,11.127,21.545s-.947,17.993-.947,17.993Z" transform="translate(-341.307 -375.704)" fill="#575a89"/>
  <path id="Path_61344" data-name="Path 61344" d="M407,446s1.4,5.317,2.595,6.091,8.27,8.127,8.27,8.127l-.921-5.932-3.788-5.682-1.008-.731Z" transform="translate(-341.656 -375.447)" fill="#575a89"/>
  <path id="Path_61345" data-name="Path 61345" d="M247.183,475.693l.33-12.193s-7.788,3.315-8.5,17.52,1.184,40.959,3.788,41.2,14.916-2.6,14.916-2.6,1.894-34.329,1.184-38.828S247.183,475.693,247.183,475.693Z" transform="translate(-213.327 -388.804)" opacity="0.1"/>
  <path id="Path_61346" data-name="Path 61346" d="M242.432,463.5h-1.919s-7.788,3.315-8.5,17.52,1.184,40.959,3.788,41.2,14.916-2.6,14.916-2.6,1.894-34.329,1.184-38.828S242.432,463.5,242.432,463.5Z" transform="translate(-207.984 -388.804)" fill="#575a89"/>
  <ellipse id="Ellipse_877" data-name="Ellipse 877" cx="15" cy="16.5" rx="15" ry="16.5" transform="translate(29.811 27)" fill="#3f3d56"/>
  <ellipse id="Ellipse_878" data-name="Ellipse 878" cx="3.5" cy="4" rx="3.5" ry="4" transform="translate(50.811 48)" fill="#ffb9b9"/>
  <ellipse id="Ellipse_879" data-name="Ellipse 879" cx="11.5" cy="12" rx="11.5" ry="12" transform="translate(18.811 14)" fill="#3f3d56"/>
  <path id="Path_61347" data-name="Path 61347" d="M206.749,268.859a12.074,12.074,0,0,1-17.494-9.615,12.073,12.073,0,1,0,23.954.672A12.056,12.056,0,0,1,206.749,268.859Z" transform="translate(-175.357 -232.906)" fill="#3f3d56"/>
  <path id="Path_61348" data-name="Path 61348" d="M211.325,206.133a12.074,12.074,0,0,1,6.08-19.014,12.073,12.073,0,1,0,3.936,23.638A12.056,12.056,0,0,1,211.325,206.133Z" transform="translate(-188.118 -177.857)" fill="#3f3d56"/>
  <ellipse id="Ellipse_880" data-name="Ellipse 880" cx="8.5" cy="6" rx="8.5" ry="6" transform="translate(53.811 30)" fill="#3f3d56"/>
</svg>
