<svg id="undraw_meet_the_team_e5b7" xmlns="http://www.w3.org/2000/svg" width="281.866" height="180.602" viewBox="0 0 281.866 180.602">
  <rect id="Rectangle_3985" data-name="Rectangle 3985" width="281.746" height="180.443" transform="translate(0.12 0.16)" fill="#e2e2e2"/>
  <rect id="Rectangle_3986" data-name="Rectangle 3986" width="265.633" height="153.045" transform="translate(8.177 19.811)" fill="#fff"/>
  <rect id="Rectangle_3987" data-name="Rectangle 3987" width="281.746" height="11.97" fill="#0068ff"/>
  <circle id="Ellipse_913" data-name="Ellipse 913" cx="2.403" cy="2.403" r="2.403" transform="translate(6.492 3.717)" fill="#fff"/>
  <circle id="Ellipse_914" data-name="Ellipse 914" cx="2.403" cy="2.403" r="2.403" transform="translate(14.913 3.717)" fill="#fff"/>
  <circle id="Ellipse_915" data-name="Ellipse 915" cx="2.403" cy="2.403" r="2.403" transform="translate(23.334 3.717)" fill="#fff"/>
  <rect id="Rectangle_3988" data-name="Rectangle 3988" width="57.22" height="49.976" transform="translate(112.56 54.633)" fill="#e2e2e2"/>
  <path id="Path_61449" data-name="Path 61449" d="M416.738,183.627l1.757,7.026-.753,10.288,6.775,5.269,2.258-17.565-1.255-4.266Z" transform="translate(-284.415 -125.321)" fill="#ffb8b8"/>
  <path id="Path_61450" data-name="Path 61450" d="M419.235,208.6l1.255-6.775L423,197.061l6.273,25.343-14.3,2.007-3.764-20.325,3.21-5.479,2.311,4.225Z" transform="translate(-280.639 -134.49)" fill="#fff"/>
  <path id="Path_61451" data-name="Path 61451" d="M436.178,317.843H412.383l.128-1.89,5.518-3.512h7.528l10.54,4.517Z" transform="translate(-281.443 -213.234)" fill="#2f2e41"/>
  <circle id="Ellipse_916" data-name="Ellipse 916" cx="6.022" cy="6.022" r="6.022" transform="translate(131.069 50.025)" fill="#ffb8b8"/>
  <path id="Path_61452" data-name="Path 61452" d="M577.3,383.819l-5.771-4.769.577,12.474.056,1.2.072,1.582.16,3.452.256,5.518H560.084l-.857-2.643-.34,2.643H547.4c-.08-1.386-.124-3.055-.052-4.741a23.471,23.471,0,0,1,.589-4.593,7.489,7.489,0,0,1,1.257-2.843l-2.258-8.029-1.005,5.018-7.024.5s0-.128.016-.368v0c.1-2.471.841-16.454,4.5-19.2l7.452-7.324s0,.533.076,1.43v0c.056.761.16,1.782.348,2.963v.012a29.31,29.31,0,0,0,2.911,9.186c.613,1.129,1.109,2.09,1.514,2.907,1.75,3.544,1.75,4.373,1.75,4.373l.725-8.638,0-.032,0-.032.965-11.565.144-1.726v0s11.457,1.922,14.969,7.192c2.823,4.229,8.073,11.056,10.027,13.575.024.028.044.056.068.084l.292.38c.056.072.108.136.152.2s.088.108.12.152l.128.164Z" transform="translate(-417.371 -298.664)" fill="#0068ff"/>
  <circle id="Ellipse_917" data-name="Ellipse 917" cx="0.753" cy="0.753" r="0.753" transform="translate(139.851 86.911)" fill="#2f2e41"/>
  <circle id="Ellipse_918" data-name="Ellipse 918" cx="0.753" cy="0.753" r="0.753" transform="translate(140.854 93.686)" fill="#2f2e41"/>
  <path id="Path_61453" data-name="Path 61453" d="M486.093,299.368l-2.258,2.258-1.506-4.015,1.637-1.383Z" transform="translate(-329.179 -202.169)" fill="#ffb8b8"/>
  <path id="Path_61454" data-name="Path 61454" d="M404.094,302.266l2.258,2.258.5-5.018-1.506-.5Z" transform="translate(-275.786 -204.064)" fill="#ffb8b8"/>
  <path id="Path_61455" data-name="Path 61455" d="M563.888,313.756s-1.756-2.228,0-3.342v.557s3.764-4.178,6.022-3.064l2.007-.557v.557l1.255-.557-.251.836h1.756l-.753.557s5.771-.279,2.258,3.9c0,0,1.67,2.5.082,3.9,0,0-1.337-3.063-3.093-2.227a2.8,2.8,0,0,1-3.011-.279s-3.513-.279-3.011,1.393.251,2.228.251,2.228-1.255.836-1,1.393a8.659,8.659,0,0,1,.251,2.228s-1.255-1.95-1.756-1.671S561.629,317.1,563.888,313.756Z" transform="translate(-433.823 -262.343)" fill="#2f2e41"/>
  <path id="Path_61456" data-name="Path 61456" d="M539.907,443.487l-1,.643v.612a5.98,5.98,0,0,0,1,3.011c1,1.506,6.524,6.524,6.524,6.524l1.506-5.269-2.007-5.018-1.255-1.506Z" transform="translate(-417.369 -354.569)" fill="#0068ff"/>
  <path id="Path_61457" data-name="Path 61457" d="M650.594,425.1l2.753.279.76.975s.5,2.258-.5,3.513-9.786,11.542-9.786,11.542l-3.764-4.517,6.524-8.03-.251-1Z" transform="translate(-486.404 -342.704)" fill="#0068ff"/>
  <rect id="Rectangle_3989" data-name="Rectangle 3989" width="57.781" height="50.466" transform="translate(198.655 54.142)" fill="#e2e2e2"/>
  <path id="Path_61458" data-name="Path 61458" d="M706.253,179.715l-13.048.251-1.756-12.044h14.8Z" transform="translate(-471.898 -114.603)" fill="#2f2e41"/>
  <path id="Path_61459" data-name="Path 61459" d="M907.9,376.6a5.1,5.1,0,0,1,5.018,4.767c.5,4.768-1.255,17.063-1.255,17.063l-1.505,15.808H906.62l.276-12.044,1-17.314-3.011-3.262Z" transform="translate(-667.146 -309.603)" fill="#a0616a"/>
  <path id="Path_61460" data-name="Path 61460" d="M821.619,376.453s-4.266-1-8.281,4.768c0,0-10.288,7.528-7.026,10.288s12.044,4.517,12.044,4.517-3.262,6.775-1.255,7.026,5.018-7.277,4.266-8.531-3.513-2.007-3.513-2.007l-6.524-3.262s8.371-7.191,8.828-4.1l2.464-1.172Z" transform="translate(-599.435 -309.459)" fill="#a0616a"/>
  <path id="Path_61461" data-name="Path 61461" d="M870.031,349.728a12.46,12.46,0,0,0,7.277,8.03l-6.524,5.52L863,358.259a5.276,5.276,0,0,0,2.007-5.52Z" transform="translate(-638.562 -291.265)" fill="#a0616a"/>
  <circle id="Ellipse_919" data-name="Ellipse 919" cx="6.022" cy="6.022" r="6.022" transform="translate(220.428 50.433)" fill="#a0616a"/>
  <path id="Path_61462" data-name="Path 61462" d="M839.787,373.086l4.58-.9s1.442,3.407,6.21,2.905,5.608-2.561,5.608-2.561l4.429,1.056s-2.509,2.76-1.255,8.28c0,0,.5,9.033-2.258,12.3l-.251,5.018s3.262,8.531,1.506,12.044h-24.59s1-12.546,5.52-15.808l1-2.258s-2.007-8.782-1-10.288C839.285,382.872,840.038,373.338,839.787,373.086Z" transform="translate(-618.606 -306.594)" fill="#0068ff"/>
  <path id="Path_61463" data-name="Path 61463" d="M851.537,328.215a4.637,4.637,0,0,1-2.049-3.995c-.045-1.559.333-3.1.362-4.661a3.6,3.6,0,0,0-.081-.95,3.651,3.651,0,0,0-.523-1.082,10.1,10.1,0,0,0-8.123-4.67,3.608,3.608,0,0,0-1.375.253c-.337.135-.447.118-.511.531a3.44,3.44,0,0,0-2.361.075,7.99,7.99,0,0,0-2.064,1.229,9.323,9.323,0,0,0-1.044.9,7.8,7.8,0,0,0-1.618,6.955c.162.789-.615,1.55-1.259,2.035a4.673,4.673,0,0,0-1.7,1.67,7.233,7.233,0,0,0-.2,2.3,3.933,3.933,0,0,1-2.509,3.3,1.21,1.21,0,0,0,1.168.411,2.874,2.874,0,0,0,1.217-.579,7.239,7.239,0,0,0,2.7-4,11.738,11.738,0,0,1,.109,2.625,7.331,7.331,0,0,1-.532,2.867,4.2,4.2,0,0,1-1.933,2.129,2.28,2.28,0,0,0,2.489-.5,5.2,5.2,0,0,0,1.432-2.386,11.892,11.892,0,0,0,.573-4.513,6.444,6.444,0,0,1,.809,4.394,6.718,6.718,0,0,1-2.278,3.955,13.087,13.087,0,0,0,5.99-1.508,3.391,3.391,0,0,0,1.228-.946,3.928,3.928,0,0,0,.287-2.953c-.132-.793.859-1.94.292-2.509a.9.9,0,0,0-.548-.261,6.169,6.169,0,0,1-4.792-3.348,5.884,5.884,0,0,1-.617-2.478,6.022,6.022,0,1,1,11.448,2.617,16.271,16.271,0,0,1-.6,3.586,6.172,6.172,0,0,1-2.5,3.8,3.906,3.906,0,0,0,1.488.315,9.142,9.142,0,0,0,4.994-.6A4.418,4.418,0,0,0,851.537,328.215Z" transform="translate(-613.638 -266.101)" fill="#2f2e41"/>
  <path id="Path_61464" data-name="Path 61464" d="M863.264,326.116c-4.514-1.809-8.965-2.2-13.3,0v-3.647a2.375,2.375,0,0,1,2.375-2.375h9.047a1.877,1.877,0,0,1,1.876,1.876Z" transform="translate(-629.663 -271.04)" fill="#2f2e41"/>
  <ellipse id="Ellipse_920" data-name="Ellipse 920" cx="0.941" cy="1.506" rx="0.941" ry="1.506" transform="translate(231.531 54.322)" fill="#a0616a"/>
  <rect id="Rectangle_3990" data-name="Rectangle 3990" width="57.396" height="50.128" transform="translate(29.666 54.481)" fill="#e2e2e2"/>
  <path id="Path_61465" data-name="Path 61465" d="M170.344,172.405l-12.3-.251V155.092l12.3,1.255Z" transform="translate(-107.865 -105.847)" fill="#2f2e41"/>
  <path id="Path_61466" data-name="Path 61466" d="M331.271,451.835H304.7a11.419,11.419,0,0,1,.881-2.8,43.636,43.636,0,0,0,2.447-7.06c.436-1.546.809-2.975,1.045-3.9.172-.677.272-1.085.272-1.085l13.047-5.27s.368.669.961,1.794a.3.3,0,0,0,.028.048c.42.8.949,1.822,1.534,3h0C327.058,440.823,329.977,447.078,331.271,451.835Z" transform="translate(-257.532 -347.226)" fill="#2f2e41"/>
  <path id="Path_61467" data-name="Path 61467" d="M318.323,352.308l-1.757,8.782,6.022.5s1-7.779,1.255-8.03S318.323,352.308,318.323,352.308Z" transform="translate(-265.629 -293.026)" fill="#ffb8b8"/>
  <circle id="Ellipse_921" data-name="Ellipse 921" cx="6.022" cy="6.022" r="6.022" transform="translate(50.56 50.123)" fill="#ffb8b8"/>
  <path id="Path_61468" data-name="Path 61468" d="M296.071,372.064s5.771,1.255,6.022,1,7.026,1,7.528,3.262-.753,11.041-.753,11.041,2.76,1.255,2.509,1.756,1.506,1,1,1.756-9.535,13.8-13.8,13.55-12.044-28.605-12.044-28.605.251-3.513,3.513-3.513S296.071,372.064,296.071,372.064Z" transform="translate(-245.135 -306.509)" fill="#0068ff"/>
  <path id="Path_61469" data-name="Path 61469" d="M361.959,435.68s-3.517.8-2.888,2.405,4.393,1.107,4.393,1.107Z" transform="translate(-294.587 -349.926)" fill="#ffb8b8"/>
  <path id="Path_61470" data-name="Path 61470" d="M297.909,414.627h-9.226c-.028.144-.06.292-.092.44a8.936,8.936,0,0,0-1.37-.44c-.1-.024-.164-.036-.164-.036s-2.01-7.528-4.769-16.811c-2.447-8.237.04-16.675.633-18.473v0c.076-.224.12-.344.12-.344L285.3,377.2l7.757,23.666,2.03,6.191s.064.344.172.877c.328,1.586,1.081,4.833,1.834,5.4A3.111,3.111,0,0,1,297.909,414.627Z" transform="translate(-241.514 -310.018)" fill="#0068ff"/>
  <path id="Path_61471" data-name="Path 61471" d="M348.571,382.733l3.131.325,7.157,8.959s2.76,2.509,1,3.513a6.464,6.464,0,0,0-2.509,3.011s2.258,5.018-1,5.771c0,0-2.258-5.018-3.011-5.52s1-2.509,1-2.509l-5.771-3.764Z" transform="translate(-287.472 -313.791)" fill="#0068ff"/>
  <path id="Path_61472" data-name="Path 61472" d="M309,311.39s-7.026-1.255-8.28,5.018a31.955,31.955,0,0,0-.595,4.416,24.765,24.765,0,0,1-2.918,10.388h0l11.292,3.262s-3.011-4.767-2.509-6.775a3.9,3.9,0,0,0-.021-1.521,6.021,6.021,0,1,1,4.95.622c-.84,1.827-1.3,3.8-.162,5.164a22.267,22.267,0,0,0,5.018,4.517s-1.255-6.022.753-9.535S316.526,311.891,309,311.39Z" transform="translate(-252.416 -265.03)" fill="#2f2e41"/>
  <path id="Path_61473" data-name="Path 61473" d="M171.851,160.185l-11.773.691-.324-5.516L170,154.991Z" transform="translate(-109.029 -105.778)" fill="#2f2e41"/>
  <circle id="Ellipse_922" data-name="Ellipse 922" cx="2.002" cy="2.002" r="2.002" transform="translate(30.021 121.283)" fill="#e2e2e2"/>
  <circle id="Ellipse_923" data-name="Ellipse 923" cx="2.002" cy="2.002" r="2.002" transform="translate(30.021 132.496)" fill="#e2e2e2"/>
  <circle id="Ellipse_924" data-name="Ellipse 924" cx="2.002" cy="2.002" r="2.002" transform="translate(30.021 143.709)" fill="#e2e2e2"/>
  <rect id="Rectangle_3991" data-name="Rectangle 3991" width="38.043" height="3.204" transform="translate(40.433 121.684)" fill="#e2e2e2"/>
  <rect id="Rectangle_3992" data-name="Rectangle 3992" width="38.043" height="3.204" transform="translate(40.433 132.897)" fill="#e2e2e2"/>
  <rect id="Rectangle_3993" data-name="Rectangle 3993" width="38.043" height="3.204" transform="translate(40.433 144.109)" fill="#e2e2e2"/>
  <circle id="Ellipse_925" data-name="Ellipse 925" cx="2.002" cy="2.002" r="2.002" transform="translate(116.943 121.283)" fill="#e2e2e2"/>
  <circle id="Ellipse_926" data-name="Ellipse 926" cx="2.002" cy="2.002" r="2.002" transform="translate(116.943 132.496)" fill="#e2e2e2"/>
  <circle id="Ellipse_927" data-name="Ellipse 927" cx="2.002" cy="2.002" r="2.002" transform="translate(116.943 143.709)" fill="#e2e2e2"/>
  <rect id="Rectangle_3994" data-name="Rectangle 3994" width="38.043" height="3.204" transform="translate(127.355 121.684)" fill="#e2e2e2"/>
  <rect id="Rectangle_3995" data-name="Rectangle 3995" width="38.043" height="3.204" transform="translate(127.355 132.897)" fill="#e2e2e2"/>
  <rect id="Rectangle_3996" data-name="Rectangle 3996" width="38.043" height="3.204" transform="translate(127.355 144.109)" fill="#e2e2e2"/>
  <circle id="Ellipse_928" data-name="Ellipse 928" cx="2.002" cy="2.002" r="2.002" transform="translate(203.318 121.283)" fill="#e2e2e2"/>
  <circle id="Ellipse_929" data-name="Ellipse 929" cx="2.002" cy="2.002" r="2.002" transform="translate(203.318 132.496)" fill="#e2e2e2"/>
  <circle id="Ellipse_930" data-name="Ellipse 930" cx="2.002" cy="2.002" r="2.002" transform="translate(203.318 143.709)" fill="#e2e2e2"/>
  <rect id="Rectangle_3997" data-name="Rectangle 3997" width="38.043" height="3.204" transform="translate(213.73 121.684)" fill="#e2e2e2"/>
  <rect id="Rectangle_3998" data-name="Rectangle 3998" width="38.043" height="3.204" transform="translate(213.73 132.897)" fill="#e2e2e2"/>
  <rect id="Rectangle_3999" data-name="Rectangle 3999" width="38.043" height="3.204" transform="translate(213.73 144.109)" fill="#e2e2e2"/>
</svg>
