<svg xmlns="http://www.w3.org/2000/svg" xmlns:xlink="http://www.w3.org/1999/xlink" width="294.795" height="203.479" viewBox="0 0 294.795 203.479">
  <defs>
    <linearGradient id="linear-gradient" x1="0.5" y1="1" x2="0.5" gradientUnits="objectBoundingBox">
      <stop offset="0" stop-color="gray" stop-opacity="0.251"/>
      <stop offset="0.54" stop-color="gray" stop-opacity="0.122"/>
      <stop offset="1" stop-color="gray" stop-opacity="0.102"/>
    </linearGradient>
  </defs>
  <g id="undraw_maker_launch_crhe" transform="translate(0.001)">
    <path id="Path_61568" data-name="Path 61568" d="M31.983,235.505c5.211-8.511,16.994-7.028,25.35-2.585s16.694,11.075,25.89,9.8c7.754-1.075,14.112-7.837,17.547-15.637s4.443-16.6,5.41-25.21q1.822-16.234,3.642-32.489c.445-3.962.969-8.144,3.2-11.279,2.944-4.135,8.341-5.407,12.957-4.164s8.553,4.577,11.92,8.3c10.788,11.91,16.9,28.01,26.332,41.263,1.92,2.7,4.089,5.366,6.958,6.668,4.135,1.874,8.883.548,12.923-1.538,13.182-6.795,22.036-20.661,30.739-33.6,4.234-6.288,9.4-13.014,16.438-13.7,7.41-.737,13.843,5.578,18.2,12.264,13.978,21.514,16.973,50.886,33.859,69.65a27.448,27.448,0,0,0,7.074,5.921,18.258,18.258,0,0,0,2.74,1.2c14.732,5.1,19.643,25.57,8.746,37.707-.235.258-.476.517-.719.775-1.618,1.708-3.45,3.324-5.637,3.833a12.312,12.312,0,0,1-6.151-.659c-12.887-3.761-25.619-9.509-38.943-9.23-12.964.258-25.262,6.247-38.082,8.4-8.62,1.45-17.389,1.16-26.1.848Q142.727,290.483,99.2,288.4C84.8,287.743,70.4,287.112,56,286.376,44.9,285.8,37.838,284.53,36.55,271.656,35.424,260.382,25.3,246.423,31.983,235.505Z" transform="translate(-29.72 -128.383)" fill="#0068ff" opacity="0.1"/>
    <ellipse id="Ellipse_944" data-name="Ellipse 944" cx="69.782" cy="9.752" rx="69.782" ry="9.752" transform="translate(134.376 183.976)" fill="#30374e"/>
    <path id="Path_61569" data-name="Path 61569" d="M178.46,642.768s3.412-.775,5.647,1.517c0,0-1.437,1.292-4.818-.14Z" transform="translate(-140.017 -491.11)" fill="#0068ff"/>
    <path id="Path_61570" data-name="Path 61570" d="M173.657,643s-2.021,2.864-.739,5.8c0,0,1.747-.84,1.7-4.51Z" transform="translate(-135.592 -491.376)" fill="#0068ff"/>
    <path id="Path_61571" data-name="Path 61571" d="M168.2,623.376s1.212-2.623,6.978.548a3.1,3.1,0,0,1-3.071,1.778A3.753,3.753,0,0,1,168.2,623.376Z" transform="translate(-132.409 -476.068)" fill="#0068ff"/>
    <path id="Path_61572" data-name="Path 61572" d="M158.945,625.679s-2.887-.134-2.724,6.441a3.1,3.1,0,0,0,2.993-1.907A3.749,3.749,0,0,0,158.945,625.679Z" transform="translate(-123.521 -478.532)" fill="#0068ff"/>
    <path id="Path_61573" data-name="Path 61573" d="M159,598.187s1.292-4.57,7.358-1.778c0,0-1.06,4.184-6.668,3.267Z" transform="translate(-125.587 -456.157)" fill="#0068ff"/>
    <path id="Path_61574" data-name="Path 61574" d="M150.29,573.695s2.735-4.714,8.4-.889c0,0-1.6,4.36-7.829,2.468Z" transform="translate(-119.128 -438.214)" fill="#0068ff"/>
    <path id="Path_61575" data-name="Path 61575" d="M146.15,550.009s3.264-4.381,8.881-.6c0,0-3.117,3.861-8.811,1.654Z" transform="translate(-116.058 -420.835)" fill="#0068ff"/>
    <path id="Path_61576" data-name="Path 61576" d="M142.41,525.841s3.3-4.564,8.682-.814c0,0-3.794,4.091-8.615,1.827Z" transform="translate(-113.285 -402.797)" fill="#0068ff"/>
    <path id="Path_61577" data-name="Path 61577" d="M142.23,501.221s3.4-5.823,8.439-2.37c0,0-3.727,5.058-8.366,3.427Z" transform="translate(-113.151 -383.672)" fill="#0068ff"/>
    <path id="Path_61578" data-name="Path 61578" d="M144,476.926s3.618-5.79,8.553-1.856c0,0-4.42,5.1-8.5,2.882Z" transform="translate(-114.464 -365.833)" fill="#0068ff"/>
    <path id="Path_61579" data-name="Path 61579" d="M147.3,452.034s4.394-5.508,8.671-3.714c0,0-4.57,5.841-8.788,5.107Z" transform="translate(-116.822 -346.746)" fill="#0068ff"/>
    <path id="Path_61580" data-name="Path 61580" d="M151.733,427.535s5.05-6.72,8.366-4.813c0,0-3.7,5.193-8.679,6.035Z" transform="translate(-119.966 -327.779)" fill="#0068ff"/>
    <path id="Path_61581" data-name="Path 61581" d="M158.693,404.211s4.438-5.51,8.012-4.456c0,0-3.735,5.658-8.555,6.12Z" transform="translate(-124.956 -310.901)" fill="#0068ff"/>
    <path id="Path_61582" data-name="Path 61582" d="M166.648,380.664s4.957-5.324,7.317-4.606c0,0-3.45,5.779-7.475,5.725Z" transform="translate(-131.141 -293.379)" fill="#0068ff"/>
    <path id="Path_61583" data-name="Path 61583" d="M173.87,355.425s4.159-6.242,6.673-5.945c0,0-2.406,5.477-6.632,6.547Z" transform="translate(-136.613 -273.712)" fill="#0068ff"/>
    <path id="Path_61584" data-name="Path 61584" d="M180.667,329.377s3.719-4.823,5.9-4.957c0,0-2.768,6.291-5.963,6.462Z" transform="translate(-141.604 -255.137)" fill="#0068ff"/>
    <path id="Path_61585" data-name="Path 61585" d="M183.807,296.441l3.251-9.741s.775,8.555-3.618,11.533Z" transform="translate(-143.71 -227.166)" fill="#0068ff"/>
    <path id="Path_61586" data-name="Path 61586" d="M187.264,258.933s.114-7.958-.344-8.573c0,0,3.223,6.394.553,12.073Z" transform="translate(-146.29 -200.218)" fill="#0068ff"/>
    <path id="Path_61587" data-name="Path 61587" d="M139.992,604.412s-4.2-2.228-6.4,4.066c0,0,3.748,2.14,6.978-2.535Z" transform="translate(-106.744 -462.477)" fill="#0068ff"/>
    <path id="Path_61588" data-name="Path 61588" d="M129.439,578.832s-5.1-1.926-7.069,4.621c0,0,4,2.365,7.627-3.04Z" transform="translate(-98.424 -443.597)" fill="#0068ff"/>
    <path id="Path_61589" data-name="Path 61589" d="M119.881,553.165s-3.823-3.905-8.881.6c0,0,3.6,3.409,8.951.463Z" transform="translate(-89.993 -423.596)" fill="#0068ff"/>
    <path id="Path_61590" data-name="Path 61590" d="M116.943,527.536s-3.877-4.086-8.713.352c0,0,4.306,3.549,8.788.659Z" transform="translate(-87.939 -404.482)" fill="#0068ff"/>
    <path id="Path_61591" data-name="Path 61591" d="M118.667,500.646s-2.936-6.066-8.227-3.016c0,0,3.324,5.332,8.074,4.068Z" transform="translate(-89.578 -382.942)" fill="#0068ff"/>
    <path id="Path_61592" data-name="Path 61592" d="M121.4,474.984s-2.928-6.177-8.286-2.861c0,0,3.789,5.585,8.1,3.859Z" transform="translate(-91.558 -363.939)" fill="#0068ff"/>
    <path id="Path_61593" data-name="Path 61593" d="M132.237,443.033s-1.458-6.888-6.087-7.2c0,0,1.468,7.271,5.56,8.5Z" transform="translate(-101.227 -337.751)" fill="#0068ff"/>
    <path id="Path_61594" data-name="Path 61594" d="M139.4,418.27s-.949-8.351-4.771-8.39c0,0,.556,6.35,4.422,9.6Z" transform="translate(-107.515 -318.508)" fill="#0068ff"/>
    <path id="Path_61595" data-name="Path 61595" d="M146.541,394.845s-1.605-6.891-5.291-7.5c0,0,.9,6.72,5.048,9.232Z" transform="translate(-112.424 -301.802)" fill="#0068ff"/>
    <path id="Path_61596" data-name="Path 61596" d="M160.33,370.7s-.517-7.255-2.817-8.173c0,0-.933,6.663,2.236,9.144Z" transform="translate(-124.388 -283.397)" fill="#0068ff"/>
    <path id="Path_61597" data-name="Path 61597" d="M165.341,348.194s-.814-7.457-3.182-8.354c0,0-.388,5.968,2.869,8.865Z" transform="translate(-127.918 -266.571)" fill="#0068ff"/>
    <path id="Path_61598" data-name="Path 61598" d="M175.286,324.6s-.424-6.076-2.158-7.395c0,0-1.184,6.769,1.383,8.674Z" transform="translate(-135.861 -249.79)" fill="#0068ff"/>
    <path id="Path_61599" data-name="Path 61599" d="M176.576,294.553,174.3,284.54s-1.61,8.436,2.473,11.832Z" transform="translate(-136.702 -225.564)" fill="#0068ff"/>
    <path id="Path_61600" data-name="Path 61600" d="M169.66,263.354s-4.557-6.534-4.521-7.294c0,0,.915,7.1,6.309,10.31Z" transform="translate(-130.139 -204.445)" fill="#0068ff"/>
    <path id="Path_61601" data-name="Path 61601" d="M165.884,247.47s-4.513-9.405-6.314-10.08a12.281,12.281,0,0,1,6.619,9.77Z" transform="translate(-126.009 -190.601)" fill="#0068ff"/>
    <path id="Path_61602" data-name="Path 61602" d="M179.8,293.527l-.258-.065c2.546-10.855,2.905-17.7,1.008-19.271l.176-.212C182.724,275.645,182.409,282.406,179.8,293.527Z" transform="translate(-140.818 -217.734)" fill="#444053"/>
    <path id="Path_61603" data-name="Path 61603" d="M151.111,372.8l-.4-.111c.282-1,.587-2.013.912-3.014,2.843-8.715,5.205-16.8,6.655-22.988l.328-.194c-1.453,6.2-3.75,14.585-6.588,23.308C151.695,370.8,151.39,371.8,151.111,372.8Z" transform="translate(-119.439 -271.502)" fill="#444053"/>
    <path id="Path_61604" data-name="Path 61604" d="M155.779,503.666a53.857,53.857,0,0,1-10.111-15.57,60.059,60.059,0,0,1-4.81-18.291,70.362,70.362,0,0,1,2.585-25.045l.331.341c-5.169,18.431-1.6,33.688,2.386,42.75a53.409,53.409,0,0,0,10,15.42Z" transform="translate(-111.947 -344.373)" fill="#444053"/>
    <path id="Path_61605" data-name="Path 61605" d="M223.53,558.238a3.915,3.915,0,0,1,3.417.918s-.871.775-2.913-.085Z" transform="translate(-173.438 -428.464)" fill="#0068ff"/>
    <path id="Path_61606" data-name="Path 61606" d="M220.645,558.39a3.911,3.911,0,0,0-.445,3.507s1.055-.517,1.034-2.727Z" transform="translate(-170.777 -428.634)" fill="#0068ff"/>
    <path id="Path_61607" data-name="Path 61607" d="M217.34,546.516s.731-1.584,4.213.333a1.876,1.876,0,0,1-1.856,1.073A2.264,2.264,0,0,1,217.34,546.516Z" transform="translate(-168.848 -419.373)" fill="#0068ff"/>
    <path id="Path_61608" data-name="Path 61608" d="M211.738,547.91s-1.747-.08-1.649,3.892a1.876,1.876,0,0,0,1.809-1.153A2.267,2.267,0,0,0,211.738,547.91Z" transform="translate(-163.468 -420.863)" fill="#0068ff"/>
    <path id="Path_61609" data-name="Path 61609" d="M211.75,531.282s.793-2.763,4.453-1.08c0,0-.638,2.53-4.029,1.975Z" transform="translate(-164.703 -407.328)" fill="#0068ff"/>
    <path id="Path_61610" data-name="Path 61610" d="M206.51,516.491s1.652-2.843,5.076-.538c0,0-.969,2.636-4.732,1.491Z" transform="translate(-160.817 -396.497)" fill="#0068ff"/>
    <path id="Path_61611" data-name="Path 61611" d="M204,502.162s1.975-2.649,5.368-.362a4.61,4.61,0,0,1-5.324,1Z" transform="translate(-158.956 -385.981)" fill="#0068ff"/>
    <path id="Path_61612" data-name="Path 61612" d="M201.74,487.552s2-2.76,5.249-.491c0,0-2.293,2.473-5.208,1.1Z" transform="translate(-157.28 -375.077)" fill="#0068ff"/>
    <path id="Path_61613" data-name="Path 61613" d="M201.64,472.666s2.068-3.518,5.1-1.432c0,0-2.254,3.058-5.058,2.068Z" transform="translate(-157.206 -363.515)" fill="#0068ff"/>
    <path id="Path_61614" data-name="Path 61614" d="M202.68,457.971s2.194-3.5,5.169-1.132c0,0-2.673,3.086-5.138,1.742Z" transform="translate(-157.977 -352.72)" fill="#0068ff"/>
    <path id="Path_61615" data-name="Path 61615" d="M204.715,442.939s2.654-3.329,5.242-2.243c0,0-2.763,3.531-5.306,3.086Z" transform="translate(-159.438 -341.198)" fill="#0068ff"/>
    <path id="Path_61616" data-name="Path 61616" d="M207.379,428.122s3.052-4.06,5.058-2.91c0,0-2.236,3.14-5.247,3.649Z" transform="translate(-161.321 -329.725)" fill="#0068ff"/>
    <path id="Path_61617" data-name="Path 61617" d="M211.61,414.04s2.683-3.332,4.849-2.693c0,0-2.256,3.419-5.169,3.7Z" transform="translate(-164.362 -319.536)" fill="#0068ff"/>
    <path id="Path_61618" data-name="Path 61618" d="M216.4,399.788s3-3.218,4.422-2.784c0,0-2.083,3.492-4.518,3.461Z" transform="translate(-168.077 -308.931)" fill="#0068ff"/>
    <path id="Path_61619" data-name="Path 61619" d="M220.76,384.521s2.515-3.774,4.035-3.6c0,0-1.453,3.311-4.009,3.96Z" transform="translate(-171.384 -297.031)" fill="#0068ff"/>
    <path id="Path_61620" data-name="Path 61620" d="M224.881,368.778s2.249-2.915,3.564-3c0,0-1.675,3.8-3.606,3.9Z" transform="translate(-174.41 -285.807)" fill="#0068ff"/>
    <path id="Path_61621" data-name="Path 61621" d="M226.743,348.883,228.7,343s.465,5.169-2.194,6.978Z" transform="translate(-175.648 -268.914)" fill="#0068ff"/>
    <path id="Path_61622" data-name="Path 61622" d="M228.859,326.192s.067-4.81-.209-5.182c0,0,1.949,3.864.333,7.3Z" transform="translate(-177.235 -252.608)" fill="#0068ff"/>
    <path id="Path_61623" data-name="Path 61623" d="M200.257,535.054s-2.538-1.349-3.877,2.455c0,0,2.267,1.292,4.221-1.53Z" transform="translate(-153.305 -411.157)" fill="#0068ff"/>
    <path id="Path_61624" data-name="Path 61624" d="M193.9,519.543s-3.083-1.163-4.275,2.794c0,0,2.417,1.429,4.611-1.835Z" transform="translate(-148.3 -399.709)" fill="#0068ff"/>
    <path id="Path_61625" data-name="Path 61625" d="M188.118,504.067s-2.308-2.36-5.368.362a4.588,4.588,0,0,0,5.412.279Z" transform="translate(-143.198 -387.647)" fill="#0068ff"/>
    <path id="Path_61626" data-name="Path 61626" d="M186.347,488.577s-2.344-2.468-5.267.215c0,0,2.6,2.143,5.309.4Z" transform="translate(-141.96 -376.097)" fill="#0068ff"/>
    <path id="Path_61627" data-name="Path 61627" d="M187.385,472.279s-1.776-3.668-4.975-1.825c0,0,2.011,3.223,4.882,2.461Z" transform="translate(-142.946 -363.043)" fill="#0068ff"/>
    <path id="Path_61628" data-name="Path 61628" d="M189.017,456.791s-1.77-3.735-5.017-1.729c0,0,2.29,3.378,4.9,2.326Z" transform="translate(-144.125 -351.574)" fill="#0068ff"/>
    <path id="Path_61629" data-name="Path 61629" d="M195.59,437.505s-.881-4.166-3.68-4.355c0,0,.887,4.394,3.36,5.136Z" transform="translate(-149.991 -335.764)" fill="#0068ff"/>
    <path id="Path_61630" data-name="Path 61630" d="M199.895,422.514s-.569-5.048-2.895-5.074c0,0,.336,3.841,2.672,5.808Z" transform="translate(-153.765 -324.115)" fill="#0068ff"/>
    <path id="Path_61631" data-name="Path 61631" d="M204.237,408.353s-.969-4.166-3.2-4.533c0,0,.548,4.06,3.052,5.58Z" transform="translate(-156.761 -314.015)" fill="#0068ff"/>
    <path id="Path_61632" data-name="Path 61632" d="M212.577,393.762s-.318-4.394-1.7-4.942c0,0-.566,4.029,1.349,5.529Z" transform="translate(-163.997 -302.892)" fill="#0068ff"/>
    <path id="Path_61633" data-name="Path 61633" d="M215.608,380.15s-.491-4.508-1.923-5.05c0,0-.235,3.618,1.734,5.36Z" transform="translate(-166.131 -292.718)" fill="#0068ff"/>
    <path id="Path_61634" data-name="Path 61634" d="M221.649,365.891s-.258-3.673-1.292-4.471c0,0-.716,4.094.835,5.244Z" transform="translate(-170.963 -282.574)" fill="#0068ff"/>
    <path id="Path_61635" data-name="Path 61635" d="M222.421,347.723l-1.375-6.053s-.974,5.1,1.494,7.154Z" transform="translate(-171.455 -267.928)" fill="#0068ff"/>
    <path id="Path_61636" data-name="Path 61636" d="M218.222,328.869s-2.753-3.947-2.732-4.409c0,0,.551,4.293,3.812,6.232Z" transform="translate(-167.476 -255.166)" fill="#0068ff"/>
    <path id="Path_61637" data-name="Path 61637" d="M215.908,319.277s-2.729-5.686-3.818-6.087a7.42,7.42,0,0,1,4,5.908Z" transform="translate(-164.955 -246.809)" fill="#0068ff"/>
    <path id="Path_61638" data-name="Path 61638" d="M224.323,347.1l-.163-.039c1.551-6.562,1.758-10.7.61-11.649l.106-.129C226.093,336.288,225.9,340.377,224.323,347.1Z" transform="translate(-173.905 -263.19)" fill="#444053"/>
    <path id="Path_61639" data-name="Path 61639" d="M207,395.055l-.243-.07c.171-.6.357-1.215.553-1.809,1.714-5.27,3.145-10.158,4.022-13.9l.2-.119c-.879,3.748-2.267,8.819-3.983,14.094C207.354,393.851,207.171,394.453,207,395.055Z" transform="translate(-161.003 -295.728)" fill="#444053"/>
    <path id="Path_61640" data-name="Path 61640" d="M209.82,474.144a32.6,32.6,0,0,1-6.113-9.413,36.371,36.371,0,0,1-2.908-11.057,42.4,42.4,0,0,1,1.566-15.143l.2.207a38.474,38.474,0,0,0,1.442,25.846,32.127,32.127,0,0,0,6.048,9.32Z" transform="translate(-156.468 -339.754)" fill="#444053"/>
    <path id="Path_61641" data-name="Path 61641" d="M187.415,518.879a9.883,9.883,0,0,0-1.938.553c-13.941,5.567-13.709,42.01-13.709,42.01h-4.1a259.121,259.121,0,0,0-6.924-37.953c-5.074-20.075,15.735-38.066,19.961-41.478.476-.38.739-.582.739-.582C202.4,489.132,187.415,518.879,187.415,518.879Z" transform="translate(-126.289 -371.566)" fill="#afc0e0"/>
    <path id="Path_61642" data-name="Path 61642" d="M183,482.078c-.483-.222-.982-.434-1.512-.628,0,0-.258.2-.739.582-4.226,3.412-25.035,21.4-19.961,41.478a257.819,257.819,0,0,1,6.911,37.947h2.308a256.985,256.985,0,0,0-6.924-37.953C158.031,503.523,178.638,485.6,183,482.078Z" transform="translate(-126.326 -371.58)" fill="#fff" opacity="0.2"/>
    <path id="Path_61643" data-name="Path 61643" d="M442.332,523.495a256.222,256.222,0,0,0-6.916,37.947H431.3s.258-38.087-14.663-42.339a8.148,8.148,0,0,0-.985-.23s-14.991-29.746,5.976-37.443c0,0,.212.158.594.465C426.111,485,447.462,503.187,442.332,523.495Z" transform="translate(-312.057 -371.565)" fill="#afc0e0"/>
    <path id="Path_61644" data-name="Path 61644" d="M246.955,518.893a9.879,9.879,0,0,0-1.938.553,253.093,253.093,0,0,1-4.776-37.415c.476-.38.739-.582.739-.582C261.938,489.147,246.955,518.893,246.955,518.893Z" transform="translate(-185.829 -371.58)" opacity="0.1"/>
    <path id="Path_61645" data-name="Path 61645" d="M422.256,481.944a232.875,232.875,0,0,1-5.585,37.219,8.15,8.15,0,0,0-.985-.23s-14.991-29.746,5.976-37.443C421.654,481.478,421.866,481.636,422.256,481.944Z" transform="translate(-312.079 -371.609)" opacity="0.1"/>
    <path id="Path_61646" data-name="Path 61646" d="M289.663,209.313q-2.171,8.565-5.089,17.575s-9.232,9.617-31.532,0a169.152,169.152,0,0,1-4.678-16.958c-5.394-23.476-11.863-68.213,1.92-114.165A171.036,171.036,0,0,1,267.647,56.36s11.776,13.52,20.419,39.4S302.208,159.874,289.663,209.313Z" transform="translate(-187.16 -56.36)" fill="#e3e8f4"/>
    <circle id="Ellipse_945" data-name="Ellipse 945" cx="18.514" cy="18.514" r="18.514" transform="translate(63.847 57.371)" fill="#afc0e0"/>
    <path id="Path_61647" data-name="Path 61647" d="M323.847,312.337a13.13,13.13,0,0,1-21.452,10.155,13.266,13.266,0,0,1-2.461-2.67,12.924,12.924,0,0,1-.848-1.393,13.1,13.1,0,0,1-1.5-6.092v-.313a13.145,13.145,0,0,1,9.563-12.334,13.58,13.58,0,0,1,3.164-.481h.393A13.13,13.13,0,0,1,323.847,312.337Z" transform="translate(-228.356 -236.442)" fill="#0068ff"/>
    <path id="Path_61648" data-name="Path 61648" d="M311.692,95.757c-21.005,10.057-37.792,0-37.792,0a171.039,171.039,0,0,1,17.376-39.4S303.052,69.88,311.692,95.757Z" transform="translate(-210.789 -56.36)" fill="#afc0e0"/>
    <path id="Path_61649" data-name="Path 61649" d="M307.79,648.14q-1.473,5.8-3.282,11.8-.858,2.861-1.809,5.769s-9.232,9.617-31.532,0c0,0-.724-2.039-1.809-5.769-.812-2.817-1.822-6.593-2.877-11.189a55.948,55.948,0,0,0,20.085,3.544A55.34,55.34,0,0,0,307.79,648.14Z" transform="translate(-205.287 -495.187)" fill="#afc0e0"/>
    <path id="Path_61650" data-name="Path 61650" d="M312.761,693.79q-.858,2.861-1.809,5.769s-9.232,9.617-31.532,0c0,0-.724-2.039-1.809-5.769C277.607,693.79,300.337,700.329,312.761,693.79Z" transform="translate(-213.54 -529.038)" fill="#e3e8f4"/>
    <path id="Path_61651" data-name="Path 61651" d="M307.176,299.621l-.028.021-9.537,12.313v.313a13.1,13.1,0,0,0,1.5,6.092l11.238-19.219Z" transform="translate(-228.371 -236.391)" fill="#fff" opacity="0.2"/>
    <path id="Path_61652" data-name="Path 61652" d="M316.931,341.242l-7.811,11.7a13.265,13.265,0,0,1-2.461-2.67l9.3-9.987Z" transform="translate(-235.082 -266.897)" fill="#fff" opacity="0.2"/>
    <path id="Path_61653" data-name="Path 61653" d="M257.992,226.89a169.412,169.412,0,0,1-4.678-16.958c-5.394-23.479-11.863-68.216,1.92-114.168a171.668,171.668,0,0,1,15.211-35.691c-1.75-2.453-2.843-3.7-2.843-3.7a171.021,171.021,0,0,0-17.369,39.395c-13.784,45.952-7.314,90.689-1.92,114.168a169.4,169.4,0,0,0,4.678,16.958c8.811,3.8,15.58,4.593,20.548,4.169A48.951,48.951,0,0,1,257.992,226.89Z" transform="translate(-187.123 -56.367)" fill="#fff" opacity="0.2"/>
    <path id="Path_61654" data-name="Path 61654" d="M966.7,627.735s12.081-15.032,11.279-30.088a29.219,29.219,0,0,1,4.792-17.849,49.163,49.163,0,0,1,5.686-6.979" transform="translate(-724.527 -439.335)" fill="none" stroke="#535461" stroke-miterlimit="10" stroke-width="2"/>
    <path id="Path_61655" data-name="Path 61655" d="M1048.257,528.844c-.863,2.1.429,9.739.429,9.739s6.3-4.518,7.162-6.614a4.1,4.1,0,0,0-7.591-3.125Z" transform="translate(-784.784 -404.839)" fill="#0068ff"/>
    <path id="Path_61656" data-name="Path 61656" d="M1006.128,557.142c.416,2.228,5.655,7.94,5.655,7.94s2.843-7.214,2.417-9.444a4.105,4.105,0,1,0-8.072,1.5Z" transform="translate(-753.712 -424.106)" fill="#0068ff"/>
    <path id="Path_61657" data-name="Path 61657" d="M972.927,628.816c1.484,1.714,8.891,4,8.891,4s-1.2-7.658-2.683-9.374a4.1,4.1,0,1,0-6.2,5.374Z" transform="translate(-728.405 -475.822)" fill="#0068ff"/>
    <path id="Path_61658" data-name="Path 61658" d="M964.141,694.058c1.171,1.941,8.085,5.446,8.085,5.446s.114-7.754-1.057-9.692a4.105,4.105,0,0,0-7.028,4.247Z" transform="translate(-722.19 -524.618)" fill="#0068ff"/>
    <path id="Path_61659" data-name="Path 61659" d="M1030.474,593.35c-2.1.84-9.734-.53-9.734-.53s4.58-6.252,6.686-7.095a4.106,4.106,0,0,1,3.047,7.625Z" transform="translate(-764.599 -448.686)" fill="#0068ff"/>
    <path id="Path_61660" data-name="Path 61660" d="M1019.629,666.813c-2.259.173-9.129-3.417-9.129-3.417s6.239-4.6,8.5-4.771a4.107,4.107,0,1,1,.628,8.189Z" transform="translate(-757.006 -502.953)" fill="#0068ff"/>
    <path id="Path_61661" data-name="Path 61661" d="M996.216,737.642c-2.2.553-9.576-1.825-9.576-1.825s5.373-5.585,7.573-6.136a4.1,4.1,0,0,1,2,7.961Z" transform="translate(-739.313 -555.56)" fill="#0068ff"/>
    <path id="Path_61662" data-name="Path 61662" d="M1048.257,528.844c-.863,2.1.429,9.739.429,9.739s6.3-4.518,7.162-6.614a4.1,4.1,0,0,0-7.591-3.125Z" transform="translate(-784.784 -404.839)" opacity="0.25"/>
    <path id="Path_61663" data-name="Path 61663" d="M1006.128,557.142c.416,2.228,5.655,7.94,5.655,7.94s2.843-7.214,2.417-9.444a4.105,4.105,0,1,0-8.072,1.5Z" transform="translate(-753.712 -424.106)" opacity="0.25"/>
    <path id="Path_61664" data-name="Path 61664" d="M972.927,628.816c1.484,1.714,8.891,4,8.891,4s-1.2-7.658-2.683-9.374a4.1,4.1,0,1,0-6.2,5.374Z" transform="translate(-728.405 -475.822)" opacity="0.25"/>
    <path id="Path_61665" data-name="Path 61665" d="M964.141,694.058c1.171,1.941,8.085,5.446,8.085,5.446s.114-7.754-1.057-9.692a4.105,4.105,0,0,0-7.028,4.247Z" transform="translate(-722.19 -524.618)" opacity="0.25"/>
    <path id="Path_61666" data-name="Path 61666" d="M1030.474,593.35c-2.1.84-9.734-.53-9.734-.53s4.58-6.252,6.686-7.095a4.106,4.106,0,0,1,3.047,7.625Z" transform="translate(-764.599 -448.686)" opacity="0.25"/>
    <path id="Path_61667" data-name="Path 61667" d="M1019.629,666.813c-2.259.173-9.129-3.417-9.129-3.417s6.239-4.6,8.5-4.771a4.107,4.107,0,1,1,.628,8.189Z" transform="translate(-757.006 -502.953)" opacity="0.25"/>
    <path id="Path_61668" data-name="Path 61668" d="M996.216,737.642c-2.2.553-9.576-1.825-9.576-1.825s5.373-5.585,7.573-6.136a4.1,4.1,0,0,1,2,7.961Z" transform="translate(-739.313 -555.56)" opacity="0.25"/>
    <path id="Path_61669" data-name="Path 61669" d="M967.12,664.118s17.136-8.85,22.5-22.936A29.206,29.206,0,0,1,1001.24,626.8a49.085,49.085,0,0,1,8.012-4.073" transform="translate(-724.838 -476.345)" fill="none" stroke="#535461" stroke-miterlimit="10" stroke-width="2"/>
    <path id="Path_61670" data-name="Path 61670" d="M1133.224,585.17c-1.639,1.569-3.554,9.08-3.554,9.08s7.589-1.579,9.227-3.145a4.109,4.109,0,0,0-5.673-5.945Z" transform="translate(-845.375 -447.642)" fill="#0068ff"/>
    <path id="Path_61671" data-name="Path 61671" d="M1089.956,594.013c-.517,2.207,1.951,9.563,1.951,9.563s5.5-5.446,6.035-7.666a4.1,4.1,0,1,0-7.987-1.9Z" transform="translate(-815.873 -452.709)" fill="#0068ff"/>
    <path id="Path_61672" data-name="Path 61672" d="M1030.425,646.074c.662,2.168,6.508,7.26,6.508,7.26s2.008-7.5,1.347-9.654a4.106,4.106,0,0,0-7.855,2.393Z" transform="translate(-771.648 -489.723)" fill="#0068ff"/>
    <path id="Path_61673" data-name="Path 61673" d="M995.965,702.169c.284,2.251,5.185,8.255,5.185,8.255s3.246-7.038,2.959-9.289a4.1,4.1,0,1,0-8.144,1.034Z" transform="translate(-746.203 -531.824)" fill="#0068ff"/>
    <path id="Path_61674" data-name="Path 61674" d="M1094.614,641.76c-2.267-.083-8.684-4.427-8.684-4.427s6.72-3.859,8.987-3.776a4.1,4.1,0,0,1-.3,8.2Z" transform="translate(-812.94 -484.372)" fill="#0068ff"/>
    <path id="Path_61675" data-name="Path 61675" d="M1057.953,705.334c-2.137-.757-6.963-6.823-6.963-6.823s7.57-1.672,9.705-.915a4.1,4.1,0,0,1-2.742,7.738Z" transform="translate(-787.031 -531.714)" fill="#0068ff"/>
    <path id="Path_61676" data-name="Path 61676" d="M1006.132,760.28c-2.233-.385-8.012-5.549-8.012-5.549s7.177-2.926,9.411-2.541a4.1,4.1,0,1,1-1.4,8.09Z" transform="translate(-747.826 -572.318)" fill="#0068ff"/>
    <path id="Path_61677" data-name="Path 61677" d="M751.426,444.927l-13.282-19.263s-.258-4.769-1.117-5.883-.186-3.593-.186-3.593.93-1.362.124-1.486-.124-3.161-.124-3.161l-.062-4.831s.744-4.652.124-5.759a1.827,1.827,0,0,1,.062-1.982s.744-2.665,0-3.345-.558-4.833-.372-8.116-1.305-5.141-1.305-5.637-4.911-5.327-4.911-5.759-3.1-2.231-4.965-2.727-2.794-.866-2.732-1.114-2.918-1.238-2.918-1.238-2.608-.186-3.6-1.489-4.029-1.675-4.117-1.688c-.018-.085-.039-.173-.057-.258s-.039-.186-.057-.279c.235-.4.452-.8.649-1.215.059-.127.116-.258.171-.377a5.3,5.3,0,0,0,3.057-.949,4.163,4.163,0,0,0,1.486-2.97,6.511,6.511,0,0,0-.726-3.3c-.543-1.117-1.341-2.272-1.067-3.481.121-.517.434-.982.594-1.494a3.934,3.934,0,0,0-.447-2.934c-.47-.9-1.124-1.69-1.646-2.561a10,10,0,0,1-1.31-3.618,5.659,5.659,0,0,0-.486-1.972,3.673,3.673,0,0,0-1.088-1.1,10.873,10.873,0,0,0-6.673-2.024c-1.69.059-3.376.517-5.053.308a18.188,18.188,0,0,1-2.952-.775c-2.083-.615-4.484-.868-6.3.323s-2.535,3.536-3.763,5.368c-1.086,1.623-2.678,2.983-3.5,4.7a.37.37,0,0,1,.026-.1,5.627,5.627,0,0,0-.463,1.251,8.916,8.916,0,0,0,.277,4.107,2.85,2.85,0,0,0,1,1.835,5.968,5.968,0,0,0,2.169.426c-.026.116-.057.235-.083.354a14.19,14.19,0,0,0,9.845,16.542v.377a9.407,9.407,0,0,1-.065,1.065h0s-6.242-1.292-7.919-.414-4.968,1.551-5.464,2.042-1.737.124-2.843,3.037-1.241,5.883-2.67,7.237-2.171,2.293-2.233,3.285.186,1.238-.375,1.551-1.365,1.61-1.117,2.106a1.761,1.761,0,0,1-.682,1.856,2.075,2.075,0,0,0-.871,1.858s-.372,1.365-1.241,1.672-1.429,2.355-1.429,2.355l-2.825,3.244-5.58-6.177a2.352,2.352,0,0,0-3.321-.171l-2.74,2.471a5.412,5.412,0,0,0-2.742,1.633,7.067,7.067,0,0,0-1.419,2.114l-1.5,1.349a3.812,3.812,0,0,0-.385,4.208l3.575,3.952.023.034a6.314,6.314,0,0,0-3.458,1.409c-5.337,4.707-5.4,9.046-4.593,11.023s7.573,9.6,7.573,9.6a30.26,30.26,0,0,0,9.607,7.829h0l-.044.044c-.111.119-.222.258-.331.388l-.093.119-.085.119-.1.15c-.028.039-.054.08-.08.121s-.072.116-.106.178l-.07.119c-.041.078-.085.158-.127.24l-.041.08c-.052.109-.1.22-.153.336-.018.041-.034.085-.052.127-.031.08-.065.163-.1.258s-.039.106-.057.16-.054.16-.08.243-.036.116-.052.173-.052.181-.075.274-.028.109-.044.168c-.034.142-.067.289-.1.445a1.1,1.1,0,0,1-.031.176q-.031.155-.054.318c-.013.075-.021.15-.031.225s-.026.2-.039.308l-.023.238c0,.114-.021.233-.028.352a1.224,1.224,0,0,1-.013.217c0,.2-.021.393-.023.6-.124,7.237.3,8.3.3,8.3a4.02,4.02,0,0,0,3.3,2.473,4.213,4.213,0,0,0,1.062-.057c3.228-.558,10.8-1.858,13.471-1.362,1.605.3,4.577-.142,6.694-.543l.556-.106.388,1.23,1.228-.336,1.034.6.659.377c1.225,4.156,6.2,2.74,6.2,2.74l1.168.677,11.982.31a24.542,24.542,0,0,0,4.241,2.037,3.927,3.927,0,0,0,.6.132,27.185,27.185,0,0,0,3.339.062c.918-.023,1.628-.062,1.628-.062s-.121-3.254-.3-6.9a98.177,98.177,0,0,0,11.1-.91c6.4-1.124,9.07-6.942,10.052-10.052a29.25,29.25,0,0,1,.628,3.859,27.592,27.592,0,0,0,1,3.344,11.3,11.3,0,0,0,1.365,2.476c4.72-1.61,1.864-4.024.868-5.079s.685-1.92.685-1.92,1.292-.866,1.179-1.672-.186-1.672,4.035-1.61S751.426,444.927,751.426,444.927Zm-65.562-39.545a28.705,28.705,0,0,0,1.176,5.169,6.825,6.825,0,0,1,.14,2.039c-2.5-.2-5.107-.3-5.107-.3a.6.6,0,0,1,.134.318l-.393-.088-.571-.14,4.608-7.009Zm-9.129,14.526,4.329.688.364.057a14.255,14.255,0,0,0-.225,2.044c0,.065.1.142.238.233a5.569,5.569,0,0,0-.085,1.034c.07.344,2.094,1.083,4.414,1.7-.031.124-.062.243-.093.354h0c-2.05-1.078-5.28-1.582-5.653-2.383s-11.372-4.652-11.372-4.652-.4-.212-1.093-.548l2.895.548.8-.08a43.4,43.4,0,0,0,5.485,1Z" transform="translate(-484.779 -265.461)" fill="url(#linear-gradient)"/>
    <path id="Path_61678" data-name="Path 61678" d="M782.295,694.4s-1.721,10.4-10.46,11.936-37.906,1.23-37.906,1.23-16.676-2.4-22.706-16.49-9.907-19.692-4.738-19.938,33.044,9.416,34.634,9.537S783.833,659.26,782.295,694.4Z" transform="translate(-529.78 -512.237)" fill="#434175"/>
    <path id="Path_61679" data-name="Path 61679" d="M782.295,694.4s-1.721,10.4-10.46,11.936-37.906,1.23-37.906,1.23-16.676-2.4-22.706-16.49-9.907-19.692-4.738-19.938,33.044,9.416,34.634,9.537S783.833,659.26,782.295,694.4Z" transform="translate(-529.78 -512.237)" opacity="0.05"/>
    <path id="Path_61680" data-name="Path 61680" d="M703.149,760.7a3.99,3.99,0,0,0,3.267,2.458,4.249,4.249,0,0,0,1.052-.057c3.2-.553,10.708-1.845,13.352-1.354,1.592.3,4.536-.142,6.632-.538,1.4-.258,2.414-.517,2.414-.517s-2.461-8.183-2.771-8.428-11.075-6.707-11.075-6.707l-8.529-.612h-.026a4.483,4.483,0,0,0-2.89,1.7c-.9,1.088-1.675,2.877-1.727,5.808C702.73,759.649,703.149,760.7,703.149,760.7Z" transform="translate(-528.855 -566.968)" fill="#565387"/>
    <path id="Path_61681" data-name="Path 61681" d="M703.152,760.718a3.99,3.99,0,0,0,3.267,2.458,35.023,35.023,0,0,1-2.326-3.381l.044-5.968a10.491,10.491,0,0,1,3.36-8.858h-.026s-4.492.3-4.616,7.5S703.152,760.718,703.152,760.718Z" transform="translate(-528.858 -566.99)" opacity="0.05"/>
    <path id="Path_61682" data-name="Path 61682" d="M832.948,701.884l7.937-6.2,12.491-12.308s-1.349-.065-3.383-.153c-.517.323-1.926,1.339-1.977,2.585-.062,1.5-3.378.1-5.1.964s-10.152,11.651-11.631,11.582-2.644-.75-3.262.3c0,.023-.028.044-.044.067Z" transform="translate(-621.661 -521.2)" opacity="0.1"/>
    <path id="Path_61683" data-name="Path 61683" d="M709.6,746.643c.282.137.566.258.858.393,6.032,2.585,13.476,8.012,14.032,8.984.336.6,4.652,3.22,7.984,5.185,1.4-.258,2.414-.517,2.414-.517s-2.461-8.183-2.771-8.428-11.075-6.707-11.075-6.707l-8.529-.612h-.026A4.5,4.5,0,0,0,709.6,746.643Z" transform="translate(-533.877 -566.968)" opacity="0.1"/>
    <path id="Path_61684" data-name="Path 61684" d="M643.754,647.672c.8,1.969,7.5,9.54,7.5,9.54a29.417,29.417,0,0,0,10.276,8.121c6.033,2.585,13.476,8.012,14.029,8.984.357.633,5.169,3.528,8.55,5.518l.757.442,1.68.974.889.517s2.068-1.654,4.112-3.319,4.04-3.3,4.073-3.388c.059-.184.858-2.277.675-2.4-.1-.065-.517-.918-1.292-1.9a8.741,8.741,0,0,0-3.135-2.585,8.831,8.831,0,0,1-4.06-4.234s-.259-.2-.68-.455a8.233,8.233,0,0,0-2.766-1.233c-1.357-.171-3.877-2.939-3.877-2.939a7.6,7.6,0,0,1-2.4-2.523c-.646-1.349-10.189-7.9-11.072-8.509l23.135,14.856,5.536,3.559,7.937-6.2,12.494-12.308s-1.68-.083-4.135-.186c-6.071-.259-16.854-.675-18.216-.367a10.382,10.382,0,0,1-3.386.22,11.853,11.853,0,0,1-5.1-.933c-2.031-1.073-5.234-1.574-5.6-2.367s-11.261-4.613-11.261-4.613-14.828-7.875-20.121-3.2S642.952,645.705,643.754,647.672Z" transform="translate(-484.769 -485.634)" fill="#434175"/>
    <path id="Path_61685" data-name="Path 61685" d="M829.82,456.173l1.907,6.337,2.461,14.275,9.046.615,2.618-4.342,2.623-4.334s1.628-5.769,2.8-11.349c1.034-4.937,1.711-9.729.584-10.248-1-.463-1.654-2.125-2.068-3.913-.054-.22-.1-.445-.15-.669a34.777,34.777,0,0,1-.6-4.588s-18.953-.982-16.306,6.831a12.452,12.452,0,0,1,.713,4.156,9.854,9.854,0,0,1-.065,1.057A8.865,8.865,0,0,1,829.82,456.173Z" transform="translate(-623.025 -339.299)" fill="#ee8e9e"/>
    <path id="Path_61686" data-name="Path 61686" d="M814.58,489.743l.677,10.768,1.538,9.168,1.724,4.247,1.538,23.231s14.838,1.716,18.446-.031a1.588,1.588,0,0,0,.654-.517c4.358-6.573,2.928-25.637,2.928-25.637l1.662-12.311-1.109-6.389-2.675-.284-2.068-.22s-.465.574-1.137,1.46c-1.825,2.409-5.169,7.146-4.955,9.124.305,2.709-.37,5.477-1.416,5.908s-1.907,1.168-2.091.432a3.346,3.346,0,0,1-.186-1.97c.183-1.047-.8-4.247-.8-4.247s-1.659-3.753-1.551-5.353-.183-3.448-.677-3.877-1.168-.863-.615-2.843-2.427-5.8-2.427-5.8Z" transform="translate(-611.724 -373.916)" fill="#e3e8f4"/>
    <path id="Path_61687" data-name="Path 61687" d="M890.335,496.852l.615,18.4,3.554,1.969a1.589,1.589,0,0,0,.654-.517c4.36-6.583,2.931-25.645,2.931-25.645l1.662-12.308-1.109-6.387-2.678-.284c1.034-4.937,1.711-9.729.587-10.248-1-.463-1.657-2.125-2.083-3.913h0l-1.913,13.026s.16,1.173.217,2.383a6.836,6.836,0,0,1-.155,2.293,7.654,7.654,0,0,0-.124,3.078c-1.109,1.954-1.662,5.575-1.933,9.072C890.2,492.422,890.335,496.852,890.335,496.852Z" transform="translate(-667.88 -354.132)" opacity="0.1"/>
    <path id="Path_61688" data-name="Path 61688" d="M895.5,456.82s3.1.385,4.084,1.677,3.569,1.471,3.569,1.471,2.954.985,2.892,1.23.861.618,2.709,1.109,4.911,2.277,4.911,2.709,4.862,5.229,4.862,5.722,1.478,2.326,1.292,5.6-.37,7.384.37,8.061,0,3.324,0,3.324a1.809,1.809,0,0,0-.039,1.969c.615,1.109-.122,5.725-.122,5.725l.059,4.8s-.677,3.014.124,3.138-.124,1.476-.124,1.476-.677,2.463.186,3.569,1.106,5.846,1.106,5.846l13.182,19.126s.186,3.507-4,3.445-4.135.8-4,1.6-1.168,1.662-1.168,1.662-1.662.861-.677,1.907,3.815,3.445-.861,5.045a11.152,11.152,0,0,1-1.354-2.461,27.84,27.84,0,0,1-.985-3.321s-.432-4.678-1.292-5.293-.739-3.569-.739-3.569,1.23-2.4-.491-3.383-26.733-14.818-26.733-14.818l-.615-18.4s-.432-13.6,2.153-18.152a7.641,7.641,0,0,1,.124-3.076c.432-1.106-.062-4.678-.062-4.678Z" transform="translate(-668.849 -353.316)" fill="#565387"/>
    <path id="Path_61689" data-name="Path 61689" d="M779.7,483.337s-6.185-1.274-7.847-.414-4.911,1.551-5.428,2.031-1.724.124-2.83,3.016-1.233,5.844-2.647,7.2-2.153,2.277-2.215,3.262.184,1.23-.37,1.551-1.354,1.6-1.109,2.094,12.822,11.308,12.822,11.308a29.4,29.4,0,0,0,1.171,5.169c.553,1.034-.615,15.446-1.845,16.43s8.307.894,8.307.894.429-9.447.8-9.94-.258-10.6-.258-10.6-.062-8.615.739-10.892.711-9.837.711-9.837.708-4.541,1.569-5.6S779.7,483.337,779.7,483.337Z" transform="translate(-569.185 -372.452)" opacity="0.1"/>
    <path id="Path_61690" data-name="Path 61690" d="M778.994,482.627s-6.188-1.274-7.849-.414-4.911,1.538-5.415,2.032-1.721.121-2.843,3.014-1.23,5.846-2.647,7.2-2.153,2.277-2.215,3.262.186,1.23-.367,1.538-1.354,1.6-1.109,2.091,12.8,11.323,12.8,11.323a29.341,29.341,0,0,0,1.168,5.169c.553,1.034-.615,15.443-1.845,16.428s8.307.894,8.307.894.432-9.447.8-9.938-.258-10.6-.258-10.6-.059-8.615.739-10.892.711-9.847.711-9.847.708-4.541,1.566-5.6S778.994,482.627,778.994,482.627Z" transform="translate(-568.658 -371.925)" fill="#565387"/>
    <path id="Path_61691" data-name="Path 61691" d="M840.274,444.787a12.453,12.453,0,0,1,.713,4.156,14.12,14.12,0,0,0,16.193-6.4,34.8,34.8,0,0,1-.6-4.588S837.63,436.974,840.274,444.787Z" transform="translate(-630.59 -339.299)" opacity="0.1"/>
    <path id="Path_61692" data-name="Path 61692" d="M804.82,386.411a14.092,14.092,0,1,0,.305-2.928,14.091,14.091,0,0,0-.305,2.928Z" transform="translate(-604.487 -290.645)" fill="#ee8e9e"/>
    <path id="Path_61693" data-name="Path 61693" d="M734.337,553.06l-3.383,1.047a1.754,1.754,0,0,1-.677,1.845,2.059,2.059,0,0,0-.861,1.848s-.37,1.352-1.23,1.659-1.416,2.326-1.416,2.326l-2.83,3.262s-1.047.861-.861,1.292-1.109.553-1.109.553l.677,10.964,5.846,1.109,3.618-.37,2.954-1.109,2.585-1.551,1.179-2.99L744,565.071Z" transform="translate(-543.05 -424.682)" fill="#565387"/>
    <path id="Path_61694" data-name="Path 61694" d="M682.007,590.728s-7.5-10.832-13.107-4.986,2.277,15.322,4.122,15.014,10.646-.8,10.646-.8Z" transform="translate(-502.226 -447.633)" fill="#ee8e9e"/>
    <rect id="Rectangle_4000" data-name="Rectangle 4000" width="15.875" height="18.041" rx="7.937" transform="translate(161.837 143.995) rotate(-42.05)" fill="#30374e"/>
    <rect id="Rectangle_4001" data-name="Rectangle 4001" width="15.875" height="18.041" rx="7.937" transform="translate(161.837 143.995) rotate(-42.05)" opacity="0.1"/>
    <rect id="Rectangle_4002" data-name="Rectangle 4002" width="15.875" height="18.041" rx="7.937" transform="translate(162.048 143.103) rotate(-42.05)" fill="#30374e"/>
    <circle id="Ellipse_946" data-name="Ellipse 946" cx="3.507" cy="3.507" r="3.507" transform="translate(170.279 141.423)" fill="#0068ff"/>
    <circle id="Ellipse_947" data-name="Ellipse 947" cx="3.507" cy="3.507" r="3.507" transform="translate(170.279 141.423)" opacity="0.1"/>
    <circle id="Ellipse_948" data-name="Ellipse 948" cx="3.507" cy="3.507" r="3.507" transform="translate(170.476 140.978)" fill="#0068ff"/>
    <path id="Path_61695" data-name="Path 61695" d="M706.5,607.835c-.062,8.123,16.738,9.845,16.738,9.845l4.29.682,1.923.3.8-7.93s-.881-.132-1.982-.388c-1.626-.38-3.732-1.034-4.174-1.951C723.359,606.861,706.559,599.715,706.5,607.835Z" transform="translate(-531.578 -462.474)" fill="#ee8e9e"/>
    <path id="Path_61696" data-name="Path 61696" d="M806,383.649a1.672,1.672,0,0,1,1.034.46c.476.5.5,1.4,1.119,1.708a1.272,1.272,0,0,0,.734.085c1.636-.233,2.585-2.068,4.153-2.585a4.188,4.188,0,0,1,2.753.235,2.049,2.049,0,0,1,.912.587c.517.68.158,1.68.4,2.5.339,1.142,1.7,1.6,2.884,1.747s2.512.233,3.3,1.124a3,3,0,0,1,.587,2.38,1.887,1.887,0,0,0,0,.881c.326.923,1.923.775,2.339.057.3-.53.212-.969.931-1.117a3.065,3.065,0,0,1,1.507.258,11.038,11.038,0,0,0,3.9.6A14.094,14.094,0,1,0,806,383.649Z" transform="translate(-605.362 -290.812)" opacity="0.1"/>
    <path id="Path_61697" data-name="Path 61697" d="M813.938,370.746a1.884,1.884,0,0,1,0-.881,3,3,0,0,0-.587-2.38c-.775-.892-2.119-.977-3.3-1.124s-2.546-.6-2.884-1.745c-.243-.825.124-1.827-.4-2.507a2.016,2.016,0,0,0-.91-.584,4.247,4.247,0,0,0-2.755-.238c-1.569.517-2.517,2.357-4.154,2.585a1.272,1.272,0,0,1-.734-.085c-.618-.31-.644-1.2-1.119-1.706-.747-.791-2.166-.282-3.081-.868a2.831,2.831,0,0,1-.993-1.822,8.874,8.874,0,0,1-.274-4.081c.535-2.29,2.585-3.859,3.877-5.813,1.217-1.822,1.9-4.135,3.73-5.335s4.179-.933,6.242-.32a19.269,19.269,0,0,0,2.923.775c1.664.2,3.334-.258,5.009-.3a10.757,10.757,0,0,1,6.614,2.008,3.66,3.66,0,0,1,1.08,1.093,5.591,5.591,0,0,1,.478,1.959,10.015,10.015,0,0,0,1.292,3.6c.517.866,1.166,1.652,1.633,2.546a3.906,3.906,0,0,1,.442,2.913c-.158.517-.47.964-.587,1.484-.274,1.2.517,2.349,1.057,3.458a6.487,6.487,0,0,1,.719,3.28,4.135,4.135,0,0,1-1.473,2.949,5.293,5.293,0,0,1-3.12.946,11.058,11.058,0,0,1-3.975-.6,3.094,3.094,0,0,0-1.507-.258c-.719.147-.625.587-.93,1.117C815.858,371.532,814.263,371.669,813.938,370.746Z" transform="translate(-595.429 -269.152)" fill="#434175"/>
    <path id="Path_61698" data-name="Path 61698" d="M829.849,703.217l7.937-6.2,12.494-12.308s-1.68-.083-4.135-.186a2.67,2.67,0,0,0-.871,1.68c-.062,1.5-3.378.106-5.1.967s-10.152,11.649-11.631,11.579-2.644-.75-3.262.3a.634.634,0,0,1-.044.07,1.751,1.751,0,0,1-.938.556Z" transform="translate(-618.932 -522.164)" opacity="0.1"/>
    <path id="Path_61699" data-name="Path 61699" d="M783.87,690.508l3.988,12.732.625,2,1.9-.517,4.187-1.15,18.651-5.123a16.249,16.249,0,0,0,6.72-1.791,20.329,20.329,0,0,1,11.589-2.528c2.466.23,5.208-.832,7.5-5.035,0,0,5.169-15.249-7.878-19.643s-13.667,2.326-13.667,2.326-.067.036-.176.109c-.517.323-1.926,1.339-1.977,2.585-.062,1.5-3.378.1-5.1.964s-10.152,11.651-11.631,11.582-2.644-.75-3.262.3c0,.023-.029.044-.044.067-.455.628-1.825.775-2.732.8-.494.016-.853,0-.853,0l-.116.036-.967.269Z" transform="translate(-588.951 -509.887)" fill="#434175"/>
    <path id="Path_61700" data-name="Path 61700" d="M787.86,636.512l1.923.3.8-7.93s-.881-.132-1.982-.388C788.894,629.6,788.232,633.881,787.86,636.512Z" transform="translate(-591.91 -480.623)" opacity="0.1"/>
    <path id="Path_61701" data-name="Path 61701" d="M838.99,515.455s5.722-1.662,4.306,14.585a45.364,45.364,0,0,1-12,26.511s-12.184,5.353-17.661,4.492a93.862,93.862,0,0,0-9.475-1.034,13.9,13.9,0,0,0-5.539-1.476c-3.078-.124-9.537-2.032-9.661-2.647s1.6-9.661.861-10.338c0,0,8.615.354,9.478.977s2.091.176,3.014,0,3.755-2.639,9.354-.483a5.672,5.672,0,0,0,2.647-.308,2.645,2.645,0,0,1,1.923-.124,5.04,5.04,0,0,0,1.339-.69c.178-.258,1.659,0,1.659,0a.657.657,0,0,0,.925-.432,4.022,4.022,0,0,1,.861-1.352s1.662-9.354,4.8-12.861a2.009,2.009,0,0,0,.677-1.786C826.253,527.5,831.613,513.483,838.99,515.455Z" transform="translate(-592.722 -396.656)" opacity="0.1"/>
    <path id="Path_61702" data-name="Path 61702" d="M838.412,510.617s5.722-1.662,4.309,14.585a45.363,45.363,0,0,1-12.013,26.521s-12.184,5.353-17.661,4.492-9.475-1.047-9.475-1.047a13.884,13.884,0,0,0-5.539-1.476c-3.076-.124-9.537-2.031-9.661-2.647s1.6-9.661.863-10.338c0,0,8.615.354,9.475.977s2.094.176,3.016,0,3.753-2.636,9.354-.483a5.659,5.659,0,0,0,2.644-.308,2.653,2.653,0,0,1,1.926-.124,5.42,5.42,0,0,0,1.336-.677c.183-.246,1.662,0,1.662,0a.654.654,0,0,0,.923-.429,4.018,4.018,0,0,1,.861-1.354s1.662-9.354,4.8-12.861a2.007,2.007,0,0,0,.677-1.783C825.663,522.682,831.015,508.648,838.412,510.617Z" transform="translate(-592.285 -393.069)" fill="#565387"/>
    <path id="Path_61703" data-name="Path 61703" d="M810,746.525l8.126,9.821c.031-.028.052-.049.052-.057.062-.186.861-2.277.677-2.4s-1.6-3.2-4.43-4.492a8.328,8.328,0,0,1-3.479-3.166Z" transform="translate(-608.328 -567.925)" opacity="0.1"/>
    <path id="Path_61704" data-name="Path 61704" d="M809.934,782.046l.889.517s2.068-1.654,4.112-3.319,4.04-3.3,4.073-3.388c.059-.183.858-2.277.675-2.4-.1-.065-.517-.918-1.292-1.9-5.51-1.551-2,2.282-1.535,2.458,0,0-6.72-1.551-7.077,5.766A8.625,8.625,0,0,0,809.934,782.046Z" transform="translate(-608.151 -586.429)" opacity="0.1"/>
    <path id="Path_61705" data-name="Path 61705" d="M818.362,785.164l1.171.677,11.889.307a22.965,22.965,0,0,0,4.2,2.021,3.6,3.6,0,0,0,.6.132,26.716,26.716,0,0,0,3.308.062c.91-.023,1.615-.062,1.615-.062s-.563-14.991-.987-16.542c-.2-.755-1.2-.589-2.179-.212a14.266,14.266,0,0,0-2.127,1.078s-5.045.488-5.846.923-3.076-.258-4.492,0-3.936-1.667-3.936-1.667c-6.893-2.274-3.016,1.969-2.525,2.156,0,0-6.7-1.551-7.074,5.766S818.362,785.164,818.362,785.164Z" transform="translate(-609.784 -586.451)" fill="#565387"/>
    <path id="Path_61706" data-name="Path 61706" d="M903.134,779.427c.129,3.1,2.546,6.95,3.985,8.984.91-.023,1.615-.062,1.615-.062s-.563-14.991-.987-16.542c-.2-.755-1.2-.589-2.179-.212C904.388,773.818,903.031,776.928,903.134,779.427Z" transform="translate(-677.386 -586.498)" fill="#565387"/>
    <path id="Path_61707" data-name="Path 61707" d="M903.134,779.427c.129,3.1,2.546,6.95,3.985,8.984.91-.023,1.615-.062,1.615-.062s-.563-14.991-.987-16.542c-.2-.755-1.2-.589-2.179-.212C904.388,773.818,903.031,776.928,903.134,779.427Z" transform="translate(-677.386 -586.498)" opacity="0.1"/>
    <path id="Path_61708" data-name="Path 61708" d="M894.716,779.838c.817,2.993.809,6.35,2.112,8.379a3.6,3.6,0,0,0,.6.132,26.692,26.692,0,0,0,3.308.062c.91-.023,1.615-.062,1.615-.062s-.564-14.991-.987-16.542c-.2-.755-1.2-.589-2.179-.212a14.27,14.27,0,0,0-2.127,1.078S893.672,776.008,894.716,779.838Z" transform="translate(-671 -586.498)" opacity="0.05"/>
    <path id="Path_61709" data-name="Path 61709" d="M736.77,686.94s5.9,1.915,10.9,8.718Z" transform="translate(-554.025 -523.959)" opacity="0.1"/>
    <g id="Group_5061" data-name="Group 5061" transform="translate(197.164 84.915)" opacity="0.1">
      <path id="Path_61710" data-name="Path 61710" d="M921.54,401.26a1.21,1.21,0,0,1-.036.129,4.176,4.176,0,0,1-.2.517A3.858,3.858,0,0,1,921.54,401.26Z" transform="translate(-888.025 -397.032)"/>
      <path id="Path_61711" data-name="Path 61711" d="M792.7,386.143a5.548,5.548,0,0,1,.458-1.243c-.031.106-.065.212-.09.32a8.874,8.874,0,0,0,.274,4.081,2.843,2.843,0,0,0,.993,1.822c.917.587,2.326.075,3.081.866.476.5.5,1.4,1.122,1.708a1.269,1.269,0,0,0,.734.085c1.633-.233,2.585-2.068,4.153-2.585a4.174,4.174,0,0,1,2.753.238,2.016,2.016,0,0,1,.91.584c.517.68.158,1.683.4,2.5.339,1.142,1.7,1.6,2.884,1.745s2.512.233,3.3,1.127a2.993,2.993,0,0,1,.587,2.38,1.918,1.918,0,0,0,0,.881c.326.923,1.923.775,2.326.057.3-.53.214-.969.933-1.117a3.058,3.058,0,0,1,1.5.258,11.058,11.058,0,0,0,3.975.6,5.269,5.269,0,0,0,3.12-.946,3.617,3.617,0,0,0,.956-1.163,3.913,3.913,0,0,1-1.318,2.088,5.282,5.282,0,0,1-3.12.946,11.034,11.034,0,0,1-3.973-.6,3.094,3.094,0,0,0-1.507-.258c-.719.147-.628.587-.93,1.117-.419.729-2.013.866-2.342-.057a1.918,1.918,0,0,1,0-.881,2.987,2.987,0,0,0-.584-2.38c-.791-.892-2.122-.977-3.3-1.124s-2.546-.6-2.882-1.745c-.246-.825.124-1.827-.4-2.507a2.036,2.036,0,0,0-.912-.584,4.239,4.239,0,0,0-2.753-.238c-1.571.517-2.52,2.357-4.154,2.585a1.269,1.269,0,0,1-.734-.085c-.62-.31-.646-1.2-1.122-1.706-.747-.791-2.163-.282-3.078-.868a2.834,2.834,0,0,1-1-1.822A8.92,8.92,0,0,1,792.7,386.143Z" transform="translate(-792.558 -384.9)"/>
    </g>
    <path id="Path_61712" data-name="Path 61712" d="M911.74,571.8c-1.127,1.522-2.414,2.931-3.412,4.541a8.615,8.615,0,0,0-1.494,5.371,14.046,14.046,0,0,0,2.156-3.851,55.29,55.29,0,0,1,4.135-6.224c.258-.4,1.967-2.675,1.106-2.784C913.523,568.763,912.125,571.28,911.74,571.8Z" transform="translate(-680.106 -436.391)" opacity="0.1"/>
  </g>
</svg>
