<svg id="undraw_code_typing_7jnv" xmlns="http://www.w3.org/2000/svg" width="224.545" height="170.533" viewBox="0 0 224.545 170.533">
  <path id="Path_61276" data-name="Path 61276" d="M393.168,104.833c-9.869-38.808-43.971-66.822-84-67.946-21.161-.594-43.429,6.424-59.642,30.984-28.982,43.9,1.781,74.241,23.228,88.657a134.2,134.2,0,0,1,27.738,24.931c14.487,17.191,42.356,38.553,75.547,5.082C400.1,162.282,399.742,130.683,393.168,104.833Z" transform="translate(-200.202 -36.853)" fill="#f2f2f2"/>
  <path id="Path_61277" data-name="Path 61277" d="M719.6,327.957l20.308-20.246L719.6,287.465l6.191-6.171,26.5,26.417-26.5,26.417-6.191-6.171Z" transform="translate(-571.087 -223.24)" opacity="0.1"/>
  <path id="Path_61278" data-name="Path 61278" d="M494.6,421.4h8.255v-8.255H494.6Zm41.442-8.255h-8.255V421.4h8.255ZM511.193,421.4h8.255v-8.255h-8.255Z" transform="translate(-404.08 -335.486)" opacity="0.1"/>
  <path id="Path_61279" data-name="Path 61279" d="M258.691,326.957l-20.329-20.246,20.308-20.246-6.191-6.171L226,306.711l26.5,26.417Z" transform="translate(-179.357 -222.446)" opacity="0.1"/>
  <path id="Path_61280" data-name="Path 61280" d="M280.545,785.24c0,3.419-50.266,15.272-112.272,15.272S56,788.66,56,785.24s50.266,2.889,112.272,2.889S280.545,781.821,280.545,785.24Z" transform="translate(-56 -629.979)" fill="#3f3d56"/>
  <path id="Path_61281" data-name="Path 61281" d="M280.545,785.24c0,3.419-50.266,15.272-112.272,15.272S56,788.66,56,785.24s50.266,2.889,112.272,2.889S280.545,781.821,280.545,785.24Z" transform="translate(-56 -629.979)" opacity="0.1"/>
  <ellipse id="Ellipse_868" data-name="Ellipse 868" cx="112.272" cy="6.191" rx="112.272" ry="6.191" transform="translate(0 149.069)" fill="#3f3d56"/>
  <path id="Path_61282" data-name="Path 61282" d="M688.7,644.806c0,13.212,8.289,23.9,18.531,23.9" transform="translate(-558.118 -519.335)" fill="#3f3d56"/>
  <path id="Path_61283" data-name="Path 61283" d="M778.487,667.676c0-13.36,9.249-24.171,20.68-24.171" transform="translate(-629.378 -518.302)" fill="#0068ff"/>
  <path id="Path_61284" data-name="Path 61284" d="M721.229,650.609c0,12.55,5.285,22.705,11.817,22.705" transform="translate(-583.937 -523.94)" fill="#0068ff"/>
  <path id="Path_61285" data-name="Path 61285" d="M778.487,641.858c0-17.071,10.691-30.885,23.9-30.885" transform="translate(-629.378 -492.484)" fill="#3f3d56"/>
  <path id="Path_61286" data-name="Path 61286" d="M759.6,755.979s2.628-.081,3.42-.645,4.043-1.237,4.239-.333,3.949,4.5.982,4.523-6.894-.462-7.685-.944S759.6,755.979,759.6,755.979Z" transform="translate(-614.386 -606.437)" fill="#a8a8a8"/>
  <path id="Path_61287" data-name="Path 61287" d="M768.292,764.657c-2.967.024-6.894-.462-7.685-.944-.6-.367-.842-1.682-.922-2.29l-.088,0s.166,2.12.957,2.6,4.718.968,7.685.944c.856-.007,1.152-.312,1.136-.763C769.256,764.481,768.929,764.652,768.292,764.657Z" transform="translate(-614.386 -611.884)" opacity="0.2"/>
  <path id="Path_61288" data-name="Path 61288" d="M895.121,406.456s-6.354-4.824-6.837-3.056,4.662,5.788,4.662,5.788Z" transform="translate(-716.49 -327.442)" fill="#ffb9b9"/>
  <path id="Path_61289" data-name="Path 61289" d="M895.121,406.456s-6.354-4.824-6.837-3.056,4.662,5.788,4.662,5.788Z" transform="translate(-716.49 -327.442)" opacity="0.1"/>
  <path id="Path_61290" data-name="Path 61290" d="M931.95,345.7s-7.556,13.5-7.717,15.434-.161,2.09-.8,1.929-9.485-1.125-10.289-.8-2.412-1.929-2.412-1.929-3.055,3.055-2.411,3.7,2.573.965,2.894,1.769a1.93,1.93,0,0,0,2.251,1.447c1.447-.161,11.254,2.572,12.54,2.09s1.608-1.286,2.251-1.286a3.625,3.625,0,0,0,1.929-.8c0-.161,4.5-8.682,4.5-8.682S939.988,346.981,931.95,345.7Z" transform="translate(-732.342 -281.955)" fill="#d0cde1"/>
  <path id="Path_61291" data-name="Path 61291" d="M931.95,345.7s-7.556,13.5-7.717,15.434-.161,2.09-.8,1.929-9.485-1.125-10.289-.8-2.412-1.929-2.412-1.929-3.055,3.055-2.411,3.7,2.573.965,2.894,1.769a1.93,1.93,0,0,0,2.251,1.447c1.447-.161,11.254,2.572,12.54,2.09s1.608-1.286,2.251-1.286a3.625,3.625,0,0,0,1.929-.8c0-.161,4.5-8.682,4.5-8.682S939.988,346.981,931.95,345.7Z" transform="translate(-732.342 -281.955)" opacity="0.1"/>
  <path id="Path_61292" data-name="Path 61292" d="M955.025,292.515a13.372,13.372,0,0,0,.041,2.563c.244,1.847,1.094,3.772.291,5.5-.292.626-.785,1.171-1.055,1.8-.569,1.341-.053,2.828-.131,4.255a5.847,5.847,0,0,1-3.056,4.63,10.616,10.616,0,0,0,7.862-3.465,18.119,18.119,0,0,0,3.785-7.147,15.536,15.536,0,0,0,.785-3.7,5.332,5.332,0,0,0-.249-2.143,8.163,8.163,0,0,0-1.1-1.883,7.426,7.426,0,0,0-1.682-1.865,6.754,6.754,0,0,0-3.712-1.15C955.384,290.023,955.085,291.53,955.025,292.515Z" transform="translate(-766.38 -237.678)" fill="#2f2e41"/>
  <path id="Path_61293" data-name="Path 61293" d="M992.792,323.291s1.768,6.27.322,8.039,8.682-.8,8.682-.8-4.984-4.984-2.572-8.2Z" transform="translate(-799.454 -263.409)" fill="#ffb9b9"/>
  <path id="Path_61294" data-name="Path 61294" d="M992.792,323.291s1.768,6.27.322,8.039,8.682-.8,8.682-.8-4.984-4.984-2.572-8.2Z" transform="translate(-799.454 -263.409)" opacity="0.1"/>
  <path id="Path_61295" data-name="Path 61295" d="M719.6,308.957l20.308-20.246L719.6,268.465l6.191-6.171,26.5,26.417-26.5,26.417-6.191-6.171Z" transform="translate(-571.087 -208.161)" fill="#0068ff"/>
  <path id="Path_61296" data-name="Path 61296" d="M908.748,694.6v4.662l2.412,2.894,2.09-.965-.643-6.752Z" transform="translate(-721.198 -551.121)" fill="#ffb9b9"/>
  <path id="Path_61297" data-name="Path 61297" d="M941.416,748.408s-.643-2.251-1.769-.643-2.251,5.145-2.894,5.305-5.145,5.145-.643,5.145,5.948-2.09,5.948-2.09,4.5-1.769,4.5-2.09-.643-6.27-.965-6.27-.482,1.125-1.286,1.125A20.844,20.844,0,0,1,941.416,748.408Z" transform="translate(-752.901 -600.585)" fill="#2f2e41"/>
  <path id="Path_61298" data-name="Path 61298" d="M960.323,697.88l-.161,4.341,3.858,1.607v-6.27Z" transform="translate(-762.001 -553.594)" fill="#ffb9b9"/>
  <path id="Path_61299" data-name="Path 61299" d="M1011.1,749.941s-2.09-2.251-3.215-1.768a11.108,11.108,0,0,0-1.608.8s-.643,2.09-.965,3.859a12.658,12.658,0,0,1-.8,3.215c-.322.643-.643,3.055,2.572,3.376s4.18-1.447,4.18-1.447l.8-4.18S1011.741,749.941,1011.1,749.941Z" transform="translate(-808.596 -601.314)" fill="#2f2e41"/>
  <path id="Path_61300" data-name="Path 61300" d="M955.761,493.692s-4.662,10.45-4.019,19.935a18.122,18.122,0,0,0-.643,9.485c.965,5.788,2.251,17.363,2.251,17.363s4.341.482,4.662-.322c0,0,.321-8.039.643-8.36s-.161-7.717-.643-9.164,4.5-15.755,4.5-15.755l-1.286-17.845Z" transform="translate(-766.121 -395.708)" fill="#2f2e41"/>
  <path id="Path_61301" data-name="Path 61301" d="M955.761,493.692s-4.662,10.45-4.019,19.935a18.122,18.122,0,0,0-.643,9.485c.965,5.788,2.251,17.363,2.251,17.363s4.341.482,4.662-.322c0,0,.321-8.039.643-8.36s-.161-7.717-.643-9.164,4.5-15.755,4.5-15.755l-1.286-17.845Z" transform="translate(-766.121 -395.708)" opacity="0.1"/>
  <path id="Path_61302" data-name="Path 61302" d="M968.643,488.1l3.055,6.592s1.447,14.952,2.251,16.881c0,0,.322,5.466,1.769,7.235s2.572,17.363,2.572,17.363,4.019,1.125,4.341,0,1.286-8.842,1.286-8.842.322-6.592-1.447-10.932,2.09-19.936,2.09-19.936,4.019-7.556-1.769-13.665Z" transform="translate(-780.289 -390.762)" fill="#2f2e41"/>
  <circle id="Ellipse_869" data-name="Ellipse 869" cx="6.592" cy="6.592" r="6.592" transform="translate(190.284 48.627)" fill="#ffb9b9"/>
  <path id="Path_61303" data-name="Path 61303" d="M973.984,352.706s-6.913,0-7.878.8a1.283,1.283,0,0,1-1.769,0s-2.411.161-3.055,2.09a20.688,20.688,0,0,1-2.572,4.5s-2.894,2.09-1.286,7.556.322,14.309.322,14.309-1.286,1.929,0,2.733,1.768,1.125,1.608,1.768,14.63-5.305,14.63-6.431-.322-2.09,0-2.572a2.294,2.294,0,0,0,.322-2.09c-.322-.8.322-.965.161-1.768s.8-6.752,1.447-9.325S976.4,352.867,973.984,352.706Z" transform="translate(-771 -287.519)" fill="#d0cde1"/>
  <path id="Path_61304" data-name="Path 61304" d="M895.121,415.8s-6.354-4.824-6.837-3.056,4.662,5.788,4.662,5.788Z" transform="translate(-716.49 -334.861)" fill="#ffb9b9"/>
  <path id="Path_61305" data-name="Path 61305" d="M931.952,356.6s-7.556,13.5-7.717,15.434-.161,2.09-.8,1.929-9.486-1.125-10.289-.8-2.412-1.929-2.412-1.929-3.054,3.055-2.411,3.7,2.572.965,2.894,1.768a1.93,1.93,0,0,0,2.251,1.447c1.447-.161,11.254,2.572,12.54,2.09s1.608-1.286,2.251-1.286a3.625,3.625,0,0,0,1.929-.8c0-.161,4.5-8.682,4.5-8.682S939.99,357.887,931.952,356.6Z" transform="translate(-732.344 -290.61)" fill="#d0cde1"/>
  <path id="Path_61306" data-name="Path 61306" d="M974.269,269.505a16,16,0,0,0-.6-1.882,3.906,3.906,0,0,1,.445-3.033c.946-1.527,2.8-2.2,4.1-3.448a2.326,2.326,0,0,0,.953,1.584,11.428,11.428,0,0,1,1.456,1.222,4.785,4.785,0,0,1,.848,1.718,6.037,6.037,0,0,1,.335,2.253,2.826,2.826,0,0,1-.976,2c-.482.381-1.156.6-1.389,1.167a1.992,1.992,0,0,0-.077.881,17.793,17.793,0,0,1-.2,5.292,6.081,6.081,0,0,1-3.036,4.15,12.185,12.185,0,0,0,3.931-.148,4.125,4.125,0,0,0,2.934-2.409,12.75,12.75,0,0,1,.546-1.866c.78-1.448,2.934-1.515,3.991-2.774a4.263,4.263,0,0,0,.78-1.794,19.8,19.8,0,0,0-1.094-11.4,8.16,8.16,0,0,0-2.058-3.388,8.483,8.483,0,0,0-3.028-1.512,17.665,17.665,0,0,0-4.858-.988,6.17,6.17,0,0,0-2.133.249,6.341,6.341,0,0,0-1.876,1.069,10.245,10.245,0,0,0-4.129,8.53,11.946,11.946,0,0,0,2.064,5.536c.378.585,1.271,1.831,2.1,1.464C974.047,271.646,974.368,270.21,974.269,269.505Z" transform="translate(-780.658 -210.075)" fill="#2f2e41"/>
  <path id="Path_61307" data-name="Path 61307" d="M494.6,402.4h8.255v-8.255H494.6Zm41.442-8.255h-8.255V402.4h8.255ZM511.193,402.4h8.255v-8.255h-8.255Z" transform="translate(-404.08 -320.408)" fill="#0068ff"/>
  <ellipse id="Ellipse_870" data-name="Ellipse 870" cx="6.946" cy="5.418" rx="6.946" ry="5.418" transform="translate(35.611 38.302)" fill="#2f2e41"/>
  <path id="Path_61308" data-name="Path 61308" d="M265.791,427.05s6.252.417,7.363-.417,5.835,1.111,6.252,2.223-6.668,1.25-7.78,1.25a51.109,51.109,0,0,0-6.391,1.667Z" transform="translate(-222.053 -346.029)" fill="#a0616a"/>
  <path id="Path_61309" data-name="Path 61309" d="M198.5,740.683s-2.914,7.347-1.393,8.234,17.481.253,17.481.253,2.66-1.647-.38-2.787a10.437,10.437,0,0,1-4.18-1.14,24.221,24.221,0,0,1-3.547-2.914s-.127-2.787-1.14-2.153a2.6,2.6,0,0,0-1.14,1.773Z" transform="translate(-167.64 -594.948)" fill="#2f2e41"/>
  <path id="Path_61310" data-name="Path 61310" d="M198.5,740.683s-2.914,7.347-1.393,8.234,17.481.253,17.481.253,2.66-1.647-.38-2.787a10.437,10.437,0,0,1-4.18-1.14,24.221,24.221,0,0,1-3.547-2.914s-.127-2.787-1.14-2.153a2.6,2.6,0,0,0-1.14,1.773Z" transform="translate(-167.64 -594.948)" opacity="0.1"/>
  <path id="Path_61311" data-name="Path 61311" d="M258.691,307.957l-20.329-20.246,20.308-20.246-6.191-6.171L226,287.711l26.5,26.417Z" transform="translate(-179.357 -207.367)" fill="#0068ff"/>
  <path id="Path_61312" data-name="Path 61312" d="M176.056,751.351s-3.2,8.058-1.528,9.03,19.172.278,19.172.278,2.917-1.806-.417-3.056a11.445,11.445,0,0,1-4.585-1.25,26.559,26.559,0,0,1-3.89-3.2s-.139-3.056-1.25-2.362a2.855,2.855,0,0,0-1.25,1.945Z" transform="translate(-149.684 -603.368)" fill="#2f2e41"/>
  <path id="Path_61313" data-name="Path 61313" d="M219.41,492.812l-1.945,17.5s-.695,8.335-2.779,10.142c0,0,0,2.64-.695,3.473l-.972,10.975s1.389,4.029,1.25,4.723.556,2.917.417,3.2-6.668,0-6.668,0l1.389-22.367,4.307-31.119Z" transform="translate(-176.645 -395.953)" fill="#2f2e41"/>
  <path id="Path_61314" data-name="Path 61314" d="M219.41,492.812l-1.945,17.5s-.695,8.335-2.779,10.142c0,0,0,2.64-.695,3.473l-.972,10.975s1.389,4.029,1.25,4.723.556,2.917.417,3.2-6.668,0-6.668,0l1.389-22.367,4.307-31.119Z" transform="translate(-176.645 -395.953)" opacity="0.1"/>
  <path id="Path_61315" data-name="Path 61315" d="M188.169,489.586s-1.528,14.309-2.223,17.366a39.508,39.508,0,0,0-.834,6.113s-.139,4.445-1.389,5.7a3.755,3.755,0,0,0-1.111,2.779s-1.25,14.031-.556,15.7,1.389,3.056.695,4.168-8.335,1.111-8.335.278,0-1.528-.417-1.945,0-3.056,0-3.056-1.667-12.364-.139-15.976,2.223-13.476,2.223-13.476-1.111-11.253-2.5-13.059.278-8.2.278-8.2Z" transform="translate(-148.876 -393.283)" fill="#2f2e41"/>
  <path id="Path_61316" data-name="Path 61316" d="M227.436,272.8a1.867,1.867,0,0,0,.9.767,26.916,26.916,0,0,1,5.429,4.363,6.374,6.374,0,0,1,.253-4.31,2.222,2.222,0,0,0,.321-1.451,1.806,1.806,0,0,0-.7-.843,21.848,21.848,0,0,0-2.148-1.466c-.52-.311-1.59-1.14-2.187-1.049a5.545,5.545,0,0,1-.4,2.281C228.814,271.27,227.5,272.94,227.436,272.8Z" transform="translate(-192.055 -220.932)" fill="#a0616a"/>
  <circle id="Ellipse_871" data-name="Ellipse 871" cx="5.696" cy="5.696" r="5.696" transform="translate(36.792 42.261)" fill="#a0616a"/>
  <path id="Path_61317" data-name="Path 61317" d="M185.292,295.512s.972-4.862-1.806-6.529-5.974-3.612-5.974-3.612-.972-.139-1.389,1.945c0,0-7.919,1.528-8.752,9.03s.556,18.477.556,18.477a126.837,126.837,0,0,1-2.779,14.726s-1.25,1.111,4.307-.556,15.282,4.723,15.282,4.723.972-.972.972-1.667,1.111-4.723,1.111-4.723.972-17.088,1.389-19.033S186.542,295.79,185.292,295.512Z" transform="translate(-142.526 -234.079)" fill="#575a89"/>
  <path id="Path_61318" data-name="Path 61318" d="M231.424,227.688a2.376,2.376,0,0,1,1.117-.3,2.126,2.126,0,0,0,1.105-.329c.538-.413.577-1.211.971-1.764a3.038,3.038,0,0,1,2.688-.856,2.978,2.978,0,0,0,1.752-.264,2.631,2.631,0,0,0,.929-1.552,2.1,2.1,0,0,0-.172-2.073c-.356-.36-.918-.431-1.313-.748a3.471,3.471,0,0,1-.8-1.337,3.613,3.613,0,0,0-1.163-1.457,4.448,4.448,0,0,0-2.607-.625,20.417,20.417,0,0,1-2.722.018,8.318,8.318,0,0,0-2.211-.228,3.162,3.162,0,0,0-2.177,1.675,9.357,9.357,0,0,0-.853,2.7l-.523,2.526a6.665,6.665,0,0,0-.2,2.378c.26,1.638,1.708,2.94,1.808,4.6A2.821,2.821,0,0,1,228.772,228a.539.539,0,0,1,.351-.043c.144.046.228.19.319.311.238.316.986.8,1.409.572C231.23,228.642,230.947,228.011,231.424,227.688Z" transform="translate(-190.278 -179.144)" fill="#2f2e41"/>
  <path id="Path_61319" data-name="Path 61319" d="M185.409,392.279s-.972,6.113,3.056,5.557c0,0,2.084-.278,2.362,0s10.558-1.528,11.948-3.056c0,0,1.667-.556,2.5.278s9.169,1.667,6.668-.834a12.722,12.722,0,0,0-6.391-3.056l-5.279.278s-2.778.834-4.446,0-6.391-.556-6.391-.556Z" transform="translate(-158.619 -317.787)" fill="#a0616a"/>
  <path id="Path_61320" data-name="Path 61320" d="M189.363,304.226s-6.252.695-6.252,9.725v11.531s3.473-1.528,4.168-1.389,3.473-1.806,3.473-1.806,3.2-7.5,2.917-9.586S193.531,304.5,189.363,304.226Z" transform="translate(-156.878 -249.045)" fill="#575a89"/>
  <ellipse id="Ellipse_872" data-name="Ellipse 872" cx="5.349" cy="2.778" rx="5.349" ry="2.778" transform="translate(37.139 41.636)" fill="#2f2e41"/>
  <ellipse id="Ellipse_873" data-name="Ellipse 873" cx="1.875" cy="4.654" rx="1.875" ry="4.654" transform="translate(35.611 40.247)" fill="#2f2e41"/>
</svg>
